# This file uses centimeters as units for non-parametric coordinates.

mtllib LIVRO_Fechado_MESH.mtl
g default
v 0.191025 0.427437 -0.193359
v -0.191016 0.427437 -0.193359
v -0.191016 0.572563 -0.193359
v 0.191025 0.572563 -0.193359
v -0.191016 0.456467 -0.193359
v -0.191016 0.543533 -0.193359
v -0.191024 0.543533 0.193359
v -0.191024 0.456467 0.193359
v 0.191025 0.543533 0.193359
v 0.191025 0.456467 0.193359
v 0.191025 0.543533 -0.193359
v 0.191025 0.456467 -0.193359
v 0.191025 0.427437 -0.158203
v 0.191025 0.427437 0.141357
v 0.191025 0.456467 0.141357
v 0.191025 0.456467 -0.158203
v 0.191025 0.543533 0.141357
v 0.191025 0.543533 -0.158203
v 0.191025 0.572563 0.141357
v 0.191025 0.572563 -0.158203
v -0.191024 0.572563 0.141357
v -0.191016 0.572563 -0.158203
v -0.191024 0.543533 0.141357
v -0.191016 0.543533 -0.158203
v -0.191024 0.456467 0.141357
v -0.191016 0.456467 -0.158203
v -0.191024 0.427437 0.141357
v -0.191016 0.427437 -0.158203
v -0.175598 0.455151 -0.176270
v -0.175598 0.544853 -0.176270
v 0.175674 0.544853 -0.176270
v 0.175674 0.455147 -0.176270
v 0.175674 0.455147 -0.154541
v 0.175674 0.455147 0.136230
v 0.175674 0.544853 -0.154541
v 0.175674 0.544853 0.136230
v -0.175598 0.544853 -0.154541
v -0.175598 0.544853 0.136230
v -0.175598 0.455151 -0.154541
v -0.175598 0.455151 0.136230
v 0.191025 0.427437 0.166016
v 0.191025 0.436142 0.183350
v -0.191024 0.427437 0.166016
v -0.191024 0.436142 0.183350
v -0.191024 0.572563 0.166016
v -0.191024 0.563854 0.183350
v 0.191025 0.572563 0.166016
v 0.191025 0.563854 0.183350
v -0.191024 0.477365 0.193359
v -0.191024 0.522636 0.193359
v 0.191025 0.522636 0.193359
v 0.191025 0.477365 0.193359
v 0.191025 0.522636 0.141357
v 0.191025 0.477365 0.141357
v 0.175674 0.522633 0.136230
v 0.175674 0.477362 0.136230
v 0.175674 0.522633 -0.154541
v 0.175674 0.477362 -0.154541
v 0.175674 0.522633 -0.168213
v 0.175674 0.477362 -0.168213
v -0.175598 0.522640 -0.168213
v -0.175598 0.477362 -0.168213
v -0.175598 0.522640 -0.154541
v -0.175598 0.477362 -0.154541
v -0.175598 0.522640 0.136230
v -0.175598 0.477362 0.136230
v -0.191024 0.522636 0.141357
v -0.191024 0.477365 0.141357
vt 0.332953 0.261372
vt 0.189790 0.022743
vt 0.142058 0.022743
vt 0.189790 0.261372
vt 0.142058 0.261372
vt 0.332953 0.022743
vt 0.403365 0.022743
vt 0.596635 0.977257
vt 0.619314 0.452267
vt 0.380686 0.929524
vt 0.403365 0.977257
vt 0.380686 0.977257
vt 0.403365 0.929524
vt 0.380686 0.786361
vt 0.380686 0.738628
vt 0.403365 0.786361
vt 0.380686 0.500000
vt 0.403365 0.738628
vt 0.380686 0.452267
vt 0.403365 0.500000
vt 0.380686 0.309105
vt 0.403365 0.452267
vt 0.380686 0.261372
vt 0.403365 0.309105
vt 0.380686 0.022743
vt 0.403365 0.261372
vt 0.189790 0.261372
vt 0.332953 0.022743
vt 0.380686 0.786361
vt 0.380686 0.309105
vt 0.619314 0.929524
vt 0.619314 0.962938
vt 0.612592 0.977257
vt 0.596635 0.261372
vt 0.619314 0.275690
vt 0.619314 0.485682
vt 0.596635 0.738628
vt 0.612592 0.738628
vt 0.619314 0.752947
vt 0.596635 0.022743
vt 0.612592 0.022743
vt 0.633633 0.261372
vt 0.667047 0.261372
vt 0.596635 0.500000
vt 0.612592 0.500000
vt 0.810210 0.022743
vt 0.843624 0.022743
vt 0.633634 0.022743
vt 0.612592 0.261372
vt 0.857942 0.261372
vt 0.843624 0.261372
vt 0.857942 0.022743
vt 0.619314 0.343467
vt 0.775847 0.261372
vt 0.701410 0.022743
vt 0.619314 0.820724
vt 0.380686 0.894067
vt 0.225248 0.022743
vt 0.261372 0.022743
vt 0.261372 0.261372
vt 0.380686 0.416810
vt 0.225248 0.261372
vt 0.189790 0.022743
vt 0.810210 0.261372
vt 0.775847 0.022743
vt 0.403365 0.821819
vt 0.596635 0.786361
vt 0.403365 0.452267
vt 0.596635 0.416810
vt 0.596635 0.452267
vt 0.619314 0.417904
vt 0.619314 0.786361
vt 0.596635 0.820724
vt 0.403365 0.786361
vt 0.380686 0.821818
vt 0.380686 0.452267
vt 0.403365 0.416810
vt 0.596635 0.786361
vt 0.596635 0.821819
vt 0.596635 0.417904
vt 0.596635 0.452267
vt 0.701410 0.261372
vt 0.667047 0.022743
vt 0.619314 0.895161
vt 0.596635 0.929524
vt 0.596635 0.895161
vt 0.596635 0.929524
vt 0.403365 0.929524
vt 0.596635 0.894066
vt 0.403365 0.894066
vt 0.380686 0.929524
vt 0.332953 0.261372
vt 0.297496 0.261372
vt 0.297496 0.022743
vt 0.380686 0.344562
vt 0.403365 0.309105
vt 0.403365 0.344562
vt 0.596635 0.309105
vt 0.596635 0.309105
vt 0.596635 0.344562
vt 0.596635 0.343467
vt 0.619314 0.309105
vn 0.000000 0.235991 0.971755
vn 0.000000 0.235991 0.971755
vn 0.000000 0.441884 0.897072
vn 0.000000 0.441884 0.897072
vn 0.000000 0.000000 -1.000000
vn 0.000000 0.000000 -1.000000
vn 0.000000 0.000000 -1.000000
vn 0.000000 0.000000 -1.000000
vn 0.000000 -0.441817 0.897105
vn 0.000000 -0.441817 0.897105
vn 0.000000 -0.235960 0.971763
vn 0.000000 -0.235960 0.971763
vn 0.000000 0.000000 -1.000000
vn 0.000000 0.000000 -1.000000
vn 0.000000 0.000000 -1.000000
vn 0.000000 0.000000 -1.000000
vn 0.000000 -1.000000 0.000000
vn 0.000000 -1.000000 0.000000
vn 0.000000 -1.000000 0.000000
vn 0.000000 -1.000000 0.000000
vn 1.000000 0.000000 0.000000
vn 1.000000 0.000000 0.000000
vn 1.000000 0.000000 0.000000
vn 1.000000 0.000000 0.000000
vn 1.000000 0.000000 0.000000
vn 1.000000 0.000000 0.000000
vn 1.000000 0.000000 0.000000
vn 1.000000 0.000000 0.000000
vn 0.000000 1.000000 0.000000
vn 0.000000 1.000000 0.000000
vn 0.000000 1.000000 0.000000
vn 0.000000 1.000000 0.000000
vn -1.000000 0.000000 -0.000022
vn -1.000000 0.000000 -0.000023
vn -1.000000 0.000000 -0.000023
vn -1.000000 0.000000 -0.000020
vn -1.000000 0.000000 -0.000020
vn -1.000000 0.000000 -0.000023
vn -1.000000 0.000000 -0.000023
vn -1.000000 0.000000 -0.000022
vn 0.000000 -1.000000 0.000000
vn 0.000000 -1.000000 0.000000
vn 0.000000 1.000000 0.000000
vn 0.000000 1.000000 0.000000
vn -1.000000 0.000000 0.000000
vn -1.000000 0.000000 0.000000
vn -1.000000 0.000000 0.000000
vn 1.000000 0.000000 0.000000
vn 1.000000 0.000000 0.000000
vn 1.000000 0.000000 0.000000
vn -1.000000 0.000000 0.000000
vn -1.000000 0.000000 0.000000
vn -1.000000 0.000000 0.000000
vn 1.000000 0.000000 0.000000
vn 1.000000 0.000000 0.000000
vn 1.000000 0.000000 0.000000
vn 1.000000 0.000000 0.000000
vn 1.000000 0.000000 0.000000
vn 1.000000 0.000000 0.000000
vn 1.000000 0.000000 0.000000
vn 0.000000 1.000000 0.000000
vn 0.000000 1.000000 0.000000
vn -1.000000 0.000000 0.000000
vn -1.000000 0.000000 0.000000
vn -1.000000 0.000000 0.000000
vn -1.000000 0.000000 0.000000
vn 0.000000 -1.000000 0.000000
vn 0.000000 -1.000000 0.000000
vn 0.000000 -0.997031 0.077001
vn 0.000000 -0.997031 0.077001
vn 0.000000 -0.997031 0.077001
vn 0.000000 -0.997031 0.077001
vn 0.000005 0.997040 0.076891
vn 0.000005 0.997040 0.076891
vn 0.000005 0.997040 0.076891
vn 0.000005 0.997040 0.076891
vn -0.085668 0.996324 0.000000
vn -0.085668 0.996324 0.000000
vn -0.085668 0.996324 0.000000
vn -0.085668 0.996324 0.000000
vn -0.085668 -0.996324 0.000000
vn -0.085668 -0.996324 0.000000
vn -0.085668 -0.996324 0.000000
vn -0.085668 -0.996324 0.000000
vn 0.085274 -0.996358 0.000001
vn 0.085274 -0.996358 0.000001
vn 0.085274 -0.996358 0.000001
vn 0.085274 -0.996358 0.000001
vn 0.085029 0.996378 0.000001
vn 0.085029 0.996379 0.000001
vn 0.085029 0.996379 0.000001
vn 0.085029 0.996378 0.000001
vn -0.085668 0.996324 0.000000
vn -0.085668 0.996324 0.000000
vn -0.085668 0.996324 0.000000
vn -0.085668 0.996324 0.000000
vn -0.085668 -0.996324 0.000000
vn -0.085668 -0.996324 0.000000
vn -0.085668 -0.996324 0.000000
vn -0.085668 -0.996324 0.000000
vn 0.085050 0.996377 0.000000
vn 0.085050 0.996377 0.000000
vn 0.085050 0.996377 0.000000
vn 0.085050 0.996377 0.000000
vn 0.085295 -0.996356 0.000000
vn 0.085295 -0.996356 0.000000
vn 0.085295 -0.996356 0.000000
vn 0.085295 -0.996356 0.000000
vn 0.000000 -0.893639 0.448787
vn 0.000000 -0.893639 0.448787
vn 0.000000 -0.893639 0.448787
vn 0.000000 -0.893639 0.448787
vn 0.000000 0.893561 0.448942
vn 0.000000 0.893561 0.448942
vn 0.000000 0.893561 0.448942
vn 0.000000 0.893561 0.448942
vn -1.000000 0.000000 0.000000
vn -1.000000 0.000000 0.000000
vn -1.000000 0.000000 0.000000
vn -1.000000 0.000000 0.000000
vn 0.000000 0.000000 1.000000
vn 0.000000 0.000000 1.000000
vn 0.000000 0.000000 1.000000
vn 0.000000 0.000000 1.000000
vn 1.000000 0.000000 0.000000
vn 1.000000 0.000000 0.000000
vn 1.000000 0.000000 0.000000
vn 1.000000 0.000000 0.000000
vn 0.316793 0.000000 -0.948495
vn 0.316793 0.000000 -0.948495
vn 0.316793 0.000000 -0.948495
vn 0.316793 0.000000 -0.948495
vn 1.000000 0.000000 0.000000
vn 1.000000 0.000000 0.000000
vn 1.000000 0.000000 0.000000
vn 1.000000 0.000000 0.000000
vn 1.000000 0.000000 0.000000
vn 1.000000 0.000000 0.000000
vn -0.000001 -0.118529 -0.992951
vn 0.000001 0.118538 -0.992950
vn 0.000001 0.118538 -0.992950
vn -0.000001 -0.118533 -0.992950
vn -1.000000 0.000000 0.000000
vn -1.000000 0.000000 0.000000
vn -1.000000 0.000000 0.000000
vn -1.000000 0.000000 0.000000
vn -1.000000 0.000000 0.000000
vn -1.000000 0.000000 0.000000
vn -0.315400 0.000000 -0.948959
vn -0.315400 0.000000 -0.948959
vn -0.315400 0.000000 -0.948959
vn -0.315400 0.000000 -0.948959
vn -0.000004 -0.340914 -0.940095
vn -0.000004 -0.340914 -0.940095
vn 1.000000 0.000000 0.000000
vn 1.000000 0.000000 0.000000
vn -1.000000 0.000000 0.000000
vn -1.000000 0.000000 0.000000
vn 1.000000 0.000000 0.000000
vn -1.000000 0.000000 0.000000
vn 0.316794 0.000000 -0.948495
vn 0.316794 0.000000 -0.948495
vn -0.315400 0.000000 -0.948959
vn -0.315400 0.000000 -0.948959
vn 0.316793 0.000000 -0.948495
vn 0.316793 0.000000 -0.948495
vn 1.000000 0.000000 0.000000
vn 1.000000 0.000000 0.000000
vn 1.000000 0.000000 0.000000
vn 0.000002 0.340966 -0.940076
vn 0.000002 0.340966 -0.940076
vn -1.000000 0.000000 0.000000
vn -1.000000 0.000000 0.000000
vn -1.000000 0.000000 0.000000
vn -0.315400 0.000000 -0.948959
vn -0.315400 0.000000 -0.948959
s 1
g LIVRO_Fechado_MESH
usemtl initialShadingGroup
f 7/64/1 9/46/2 48/47/3 46/51/4
s off
f 4/3/5 11/2/6 6/4/7 3/5/8
s 1
f 44/42/9 42/48/10 10/83/11 8/43/12
s off
f 5/1/13 12/6/14 1/25/15 2/23/16
s 3
f 13/7/17 14/40/18 27/34/19 28/26/20
s 4
f 14/8/21 13/11/22 16/13/23 15/85/24
f 17/78/25 18/16/26 20/18/27 19/37/28
s 6
f 19/37/29 20/18/30 22/20/31 21/44/32
s 7
f 21/44/33 22/20/34 24/22/35 23/70/36
f 25/99/37 26/24/38 28/26/39 27/34/40
s 3
f 27/34/19 14/40/18 41/41/41 43/49/42
s 6
f 19/37/29 21/44/32 45/45/43 47/38/44
s 7
f 21/44/33 23/70/36 7/9/45 46/36/46 45/45/47
s 4
f 17/78/25 19/37/28 47/38/48 48/39/49 9/72/50
s 7
f 25/99/37 27/34/40 43/49/51 44/35/52 8/102/53
s 4
f 14/8/21 15/85/24 10/31/54 42/32/55 41/33/56
f 12/10/57 16/13/23 13/11/22 1/12/58
f 4/15/59 20/18/27 18/16/26 11/14/60
s 6
f 3/17/61 22/20/31 20/18/30 4/15/62
s 7
f 6/19/63 24/22/35 22/20/34 3/17/64
f 2/23/65 28/26/39 26/24/38 5/21/66
s 3
f 1/25/67 13/7/17 28/26/20 2/23/68
s off
f 6/4/69 11/2/70 31/63/71 30/27/72
f 12/6/73 5/1/74 29/92/75 32/28/76
f 15/85/77 16/13/78 33/88/79 34/87/80
f 18/16/81 17/78/82 36/67/83 35/74/84
f 23/70/85 24/22/86 37/68/87 38/81/88
f 26/24/89 25/99/90 40/98/91 39/96/92
f 16/13/93 12/10/94 32/91/95 33/88/96
f 11/14/97 18/16/98 35/74/99 31/29/100
f 5/21/101 26/24/102 39/96/103 29/30/104
f 24/22/105 6/19/106 30/76/107 37/68/108
f 41/41/109 42/48/110 44/42/111 43/49/112
f 45/50/113 46/51/114 48/47/115 47/52/116
s 7
f 49/53/117 50/71/118 67/80/119 68/101/120
s 1
f 50/54/121 49/82/122 52/55/123 51/65/124
s 4
f 51/56/125 52/84/126 54/86/127 53/73/128
s 9
f 53/73/129 54/86/130 56/89/131 55/79/132
s 10
f 55/79/133 56/89/134 58/90/135 57/66/136
f 57/66/136 58/90/135 60/57/137 59/75/138
s 11
f 59/58/139 60/59/140 62/60/141 61/62/142
s 12
f 61/61/143 62/95/144 64/97/145 63/77/146
f 63/77/146 64/97/145 66/100/147 65/69/148
s 13
f 65/69/149 66/100/150 68/101/151 67/80/152
s 11
f 59/58/139 61/62/142 30/27/153 31/63/154
s 1
f 7/64/1 50/54/121 51/65/124 9/46/2
s 10
f 55/79/133 57/66/136 35/74/155 36/67/156
s 12
f 38/81/157 37/68/158 63/77/146 65/69/148
s 7
f 23/70/36 67/80/119 50/71/118 7/9/45
s 4
f 9/72/50 51/56/125 53/73/128 17/78/25
s 10
f 35/74/155 57/66/136 59/75/138 31/29/159
s 12
f 30/76/160 61/61/143 63/77/146 37/68/158
s 9
f 17/78/161 53/73/129 55/79/132 36/67/162
s 13
f 65/69/149 67/80/152 23/70/163 38/81/164
s 1
f 52/55/123 49/82/122 8/43/12 10/83/11
s 4
f 54/86/127 52/84/126 10/31/54 15/85/24
s 9
f 56/89/131 54/86/130 15/85/165 34/87/166
s 10
f 34/87/167 33/88/168 58/90/135 56/89/134
f 60/57/137 58/90/135 33/88/168 32/91/169
s 11
f 29/92/170 62/93/141 60/94/140 32/28/171
s 12
f 64/97/145 62/95/144 29/30/172 39/96/173
f 66/100/147 64/97/145 39/96/173 40/98/174
s 13
f 25/99/175 68/101/151 66/100/150 40/98/176
s 7
f 49/53/117 68/101/120 25/99/37 8/102/53
