# Blender v3.1.2 OBJ File: 'OBJTAS.blend'
# www.blender.org
mtllib OBJTAS.mtl
o Figura_Religiosa_PEQUENA_MESH
v -0.021442 0.141812 0.023824
v -0.021442 -0.113274 0.023824
v 0.021442 -0.113274 0.023824
v 0.021442 0.141812 0.023824
v -0.021442 -0.113274 -0.023824
v -0.021442 0.141812 -0.023824
v 0.021442 0.141812 -0.023824
v 0.021442 -0.113274 -0.023824
v 0.023824 0.141812 0.021442
v 0.023824 -0.113274 0.021442
v 0.023824 -0.113274 -0.021441
v 0.023824 0.141812 -0.021441
v -0.023824 0.141812 -0.021441
v -0.023824 -0.113274 -0.021441
v -0.023824 -0.113274 0.021442
v -0.023824 0.141812 0.021442
v -0.021442 0.037259 0.090074
v -0.021442 0.037259 -0.090074
v 0.021442 0.037259 -0.090074
v 0.021442 0.037259 0.090074
v -0.021442 0.084906 -0.090074
v -0.021442 0.084906 0.090074
v 0.021442 0.084906 0.090074
v 0.021442 0.084906 -0.090074
v 0.023824 0.039641 0.090074
v 0.023824 0.039641 -0.090074
v 0.023824 0.082524 -0.090074
v 0.023824 0.082524 0.090074
v -0.023824 0.082524 0.090074
v -0.023824 0.082524 -0.090074
v -0.023824 0.039641 -0.090074
v -0.023824 0.039641 0.090074
vt 0.417362 0.991894
vt 0.417362 0.565736
vt 0.489005 0.565736
vt 0.489005 0.991894
vt 0.491794 0.991894
vt 0.491794 0.565736
vt 0.563437 0.565736
vt 0.563437 0.991894
vt 0.570121 0.991894
vt 0.570121 0.565736
vt 0.641763 0.565736
vt 0.641763 0.991894
vt 0.653013 0.991894
vt 0.653013 0.565736
vt 0.724655 0.565736
vt 0.724655 0.991894
vt 0.735377 0.728281
vt 0.731397 0.724301
vt 0.731397 0.652658
vt 0.735377 0.648679
vt 0.807019 0.648679
vt 0.810999 0.652658
vt 0.810999 0.724301
vt 0.807019 0.728281
vt 0.728635 0.565736
vt 0.728635 0.991894
vt 0.566141 0.565736
vt 0.566141 0.991894
vt 0.649033 0.991894
vt 0.649033 0.565736
vt 0.645743 0.991894
vt 0.645743 0.565736
vt 0.006866 0.981290
vt 0.006866 0.564850
vt 0.076876 0.564850
vt 0.076876 0.981290
vt 0.079601 0.981290
vt 0.079601 0.564850
vt 0.149610 0.564850
vt 0.149610 0.981290
vt 0.156141 0.981290
vt 0.156141 0.564850
vt 0.226150 0.564850
vt 0.226150 0.981290
vt 0.237144 0.981290
vt 0.237144 0.564850
vt 0.307152 0.564850
vt 0.307152 0.981290
vt 0.311041 0.564850
vt 0.311041 0.981290
vt 0.152253 0.564850
vt 0.152253 0.981290
vt 0.233255 0.981290
vt 0.233255 0.564850
vt 0.230039 0.981290
vt 0.230039 0.564850
vt 0.807548 0.645338
vt 0.807548 0.565736
vt 0.811527 0.569716
vt 0.811527 0.641359
vt 0.735905 0.645338
vt 0.731926 0.641359
vt 0.731926 0.569716
vt 0.735905 0.565736
vt 0.388154 0.642637
vt 0.388154 0.564850
vt 0.392043 0.568739
vt 0.392043 0.638748
vt 0.318088 0.725164
vt 0.314199 0.721275
vt 0.314199 0.651266
vt 0.318088 0.647377
vt 0.318145 0.642637
vt 0.314257 0.638748
vt 0.314257 0.568739
vt 0.318145 0.564850
vt 0.388096 0.647377
vt 0.388096 0.725164
vt 0.391985 0.651266
vt 0.391985 0.721275
vn 0.0000 -0.0000 1.0000
vn 0.0000 0.0000 -1.0000
vn 1.0000 -0.0000 0.0000
vn -1.0000 0.0000 0.0000
vn 0.0000 -1.0000 -0.0000
vn -0.7071 -0.0000 0.7071
vn 0.7071 -0.0000 0.7071
vn -0.7073 0.0000 -0.7070
vn 0.7073 0.0000 -0.7070
vn 0.0000 1.0000 0.0000
vn -0.7071 -0.7071 0.0000
vn 0.7071 -0.7071 0.0000
vn -0.7071 0.7071 0.0000
vn 0.7071 0.7071 0.0000
usemtl initialShadingGroup.007
s off
f 1/1/1 2/2/1 3/3/1 4/4/1
f 5/5/2 6/6/2 7/7/2 8/8/2
f 9/9/3 10/10/3 11/11/3 12/12/3
f 13/13/4 14/14/4 15/15/4 16/16/4
f 14/17/5 5/18/5 8/19/5 11/20/5 10/21/5 3/22/5 2/23/5 15/24/5
f 15/15/6 2/25/6 1/26/6 16/16/6
f 3/27/7 10/10/7 9/9/7 4/28/7
f 13/13/8 6/29/8 5/30/8 14/14/8
f 7/31/9 12/12/9 11/11/9 8/32/9
f 17/33/5 18/34/5 19/35/5 20/36/5
f 21/37/10 22/38/10 23/39/10 24/40/10
f 25/41/3 26/42/3 27/43/3 28/44/3
f 29/45/4 30/46/4 31/47/4 32/48/4
f 31/47/11 18/49/11 17/50/11 32/48/11
f 19/51/12 26/42/12 25/41/12 20/52/12
f 29/45/13 22/53/13 21/54/13 30/46/13
f 23/55/14 28/44/14 27/43/14 24/56/14
s 1
f 13/57/10 12/58/10 7/59/10 6/60/10
f 16/61/10 1/62/10 4/63/10 9/64/10
f 16/61/10 9/64/10 12/58/10 13/57/10
f 29/65/1 28/66/1 23/67/1 22/68/1
f 30/69/2 21/70/2 24/71/2 27/72/2
f 32/73/1 17/74/1 20/75/1 25/76/1
f 32/73/1 25/76/1 28/66/1 29/65/1
f 30/69/2 27/72/2 26/77/2 31/78/2
f 31/78/2 26/77/2 19/79/2 18/80/2
