# This file uses centimeters as units for non-parametric coordinates.

mtllib MESA_MESH.mtl
g default
v 0.550873 0.005802 0.161987
v 0.770065 0.005802 0.161987
v 0.550873 0.164306 0.161987
v 0.770065 0.164306 0.161987
v 0.550873 0.164306 -0.190918
v 0.770065 0.164306 -0.190918
v 0.550873 0.005802 -0.190918
v 0.770065 0.005802 -0.190918
v 0.628799 0.574013 0.036499
v 0.692139 0.574013 0.036499
v 0.692139 0.574013 -0.065430
v 0.628799 0.574013 -0.065430
v 0.624222 0.502041 0.043945
v 0.696732 0.502041 0.043945
v 0.696732 0.502041 -0.072876
v 0.624222 0.502041 -0.072876
v 0.609772 0.407501 0.067139
v 0.711182 0.407501 0.067139
v 0.711182 0.407501 -0.096069
v 0.609772 0.407501 -0.096069
v 0.598907 0.340023 0.084595
v 0.722046 0.340023 0.084595
v 0.722046 0.340023 -0.113525
v 0.598907 0.340023 -0.113525
v 0.577194 0.242632 0.119507
v 0.743759 0.242632 0.119507
v 0.743759 0.242632 -0.148560
v 0.577194 0.242632 -0.148560
v 0.618500 0.604221 0.053101
v 0.702469 0.604221 0.053101
v 0.702469 0.604221 -0.082031
v 0.618500 0.604221 -0.082031
v 0.618500 0.636059 0.053101
v 0.702469 0.636059 0.053101
v 0.702469 0.636059 -0.082031
v 0.618500 0.636059 -0.082031
v 0.632248 0.672821 0.031006
v 0.688721 0.672821 0.031006
v 0.688721 0.672821 -0.059937
v 0.632248 0.672821 -0.059937
v 0.632248 0.707787 0.031006
v 0.688721 0.707787 0.031006
v 0.688721 0.707787 -0.059937
v 0.632248 0.707787 -0.059937
v 0.624268 0.740021 0.043823
v 0.696686 0.740021 0.043823
v 0.696686 0.740021 -0.072754
v 0.624268 0.740021 -0.072754
v 0.607391 0.808533 0.070923
v 0.713577 0.808533 0.070923
v 0.713577 0.808533 -0.099976
v 0.607391 0.808533 -0.099976
v 0.549377 0.940948 0.164429
v 0.771576 0.940948 0.164429
v 0.771576 0.940948 -0.193359
v 0.549377 0.940948 -0.193359
v -0.917419 0.922684 0.370850
v 0.911041 0.922684 0.363159
v -0.864685 0.994202 0.349487
v 0.864670 0.994202 0.349487
v -0.864685 0.994202 -0.349487
v 0.864670 0.994202 -0.349487
v -0.917419 0.922684 -0.370850
v 0.917419 0.922684 -0.370850
v -0.786560 0.005802 0.161987
v -0.567352 0.005802 0.161987
v -0.786560 0.164306 0.161987
v -0.567352 0.164306 0.161987
v -0.786560 0.164306 -0.190918
v -0.567352 0.164306 -0.190918
v -0.786560 0.005802 -0.190918
v -0.567352 0.005802 -0.190918
v -0.708618 0.574013 0.036499
v -0.645264 0.574013 0.036499
v -0.645264 0.574013 -0.065430
v -0.708618 0.574013 -0.065430
v -0.713226 0.502041 0.043945
v -0.640686 0.502041 0.043945
v -0.640686 0.502041 -0.072876
v -0.713226 0.502041 -0.072876
v -0.727661 0.407501 0.067139
v -0.626251 0.407501 0.067139
v -0.626251 0.407501 -0.096069
v -0.727661 0.407501 -0.096069
v -0.738495 0.340023 0.084595
v -0.615387 0.340023 0.084595
v -0.615387 0.340023 -0.113525
v -0.738495 0.340023 -0.113525
v -0.760223 0.242632 0.119507
v -0.593689 0.242632 0.119507
v -0.593689 0.242632 -0.148560
v -0.760223 0.242632 -0.148560
v -0.718933 0.604221 0.053101
v -0.634949 0.604221 0.053101
v -0.634949 0.604221 -0.082031
v -0.718933 0.604221 -0.082031
v -0.718933 0.636059 0.053101
v -0.634949 0.636059 0.053101
v -0.634949 0.636059 -0.082031
v -0.718933 0.636059 -0.082031
v -0.705200 0.672821 0.031006
v -0.648712 0.672821 0.031006
v -0.648712 0.672821 -0.059937
v -0.705200 0.672821 -0.059937
v -0.705200 0.707787 0.031006
v -0.648712 0.707787 0.031006
v -0.648712 0.707787 -0.059937
v -0.705200 0.707787 -0.059937
v -0.713135 0.740021 0.043823
v -0.640747 0.740021 0.043823
v -0.640747 0.740021 -0.072754
v -0.713135 0.740021 -0.072754
v -0.730042 0.808533 0.070923
v -0.623840 0.808533 0.070923
v -0.623840 0.808533 -0.099976
v -0.730042 0.808533 -0.099976
v -0.788055 0.940948 0.164429
v -0.565826 0.940948 0.164429
v -0.565826 0.940948 -0.193359
v -0.788055 0.940948 -0.193359
vt 0.688304 0.109930
vt 0.910323 0.143283
vt 0.781945 0.025152
vt 0.708160 0.328426
vt 0.970006 0.432546
vt 0.510696 0.024354
vt 0.849485 0.507511
vt 0.568577 0.434609
vt 0.569378 0.163358
vt 0.564160 0.507170
vt 0.835376 0.144077
vt 0.836445 0.024354
vt 0.648526 0.280101
vt 0.829344 0.279242
vt 0.640897 0.067446
vt 0.853732 0.302131
vt 0.665205 0.104304
vt 0.709724 0.480820
vt 0.685326 0.457937
vt 0.611678 0.304408
vt 0.656356 0.247867
vt 0.796531 0.274381
vt 0.697439 0.112132
vt 0.652511 0.453091
vt 0.662246 0.224833
vt 0.773038 0.270727
vt 0.720473 0.118016
vt 0.629019 0.449447
vt 0.674027 0.191203
vt 0.754097 0.039437
vt 0.594172 0.498279
vt 0.583668 0.191208
vt 0.630136 0.061846
vt 0.865353 0.305608
vt 0.721349 0.484293
vt 0.606073 0.315168
vt 0.619406 0.061847
vt 0.876083 0.305606
vt 0.732079 0.484287
vt 0.606074 0.325898
vt 0.606181 0.069301
vt 0.890539 0.300971
vt 0.746536 0.479646
vt 0.613533 0.339124
vt 0.594396 0.069301
vt 0.902323 0.300969
vt 0.758321 0.479639
vt 0.613534 0.350908
vt 0.583205 0.064990
vt 0.914013 0.303649
vt 0.770016 0.482316
vt 0.609210 0.362099
vt 0.559424 0.055832
vt 0.938854 0.309335
vt 0.794859 0.487990
vt 0.600052 0.385881
vt 0.689142 0.434602
vt 0.849441 0.432617
vt 0.794838 0.452205
vt 0.993460 0.253987
vt 0.510706 0.144919
vt 0.559428 0.113437
vt 0.938848 0.273550
vt 0.657657 0.385877
vt 0.770001 0.457910
vt 0.583208 0.104276
vt 0.914008 0.279244
vt 0.648496 0.362097
vt 0.758310 0.460599
vt 0.594399 0.099951
vt 0.902320 0.281930
vt 0.644183 0.350907
vt 0.746525 0.460606
vt 0.606183 0.099950
vt 0.890536 0.281932
vt 0.644183 0.339122
vt 0.732062 0.455982
vt 0.619410 0.107408
vt 0.876078 0.277302
vt 0.651634 0.325896
vt 0.721332 0.455988
vt 0.630140 0.107407
vt 0.865348 0.277304
vt 0.651634 0.315166
vt 0.709712 0.459474
vt 0.640899 0.101801
vt 0.853728 0.280785
vt 0.646033 0.304406
vt 0.594140 0.442149
vt 0.595451 0.224837
vt 0.754104 0.129796
vt 0.629043 0.490941
vt 0.738162 0.263416
vt 0.720467 0.051222
vt 0.738172 0.319546
vt 0.773046 0.312221
vt 0.601339 0.247870
vt 0.652531 0.487269
vt 0.697434 0.057115
vt 0.796537 0.308559
vt 0.609171 0.280103
vt 0.685340 0.482383
vt 0.665202 0.064949
vt 0.829348 0.303688
vt 0.564117 0.433291
vt 0.781955 0.144081
vt 0.708146 0.254548
vt 0.688307 0.163351
vt 0.510739 0.507201
vt 0.835366 0.025148
vt 0.569375 0.109937
vt 0.654739 0.328436
vt 0.993474 0.328881
vt 0.970050 0.507441
vt 0.510696 0.433323
vt 0.910324 0.024355
vt 0.836444 0.143283
vt 0.654725 0.254558
vt 0.035651 0.975771
vt 0.369340 0.975776
vt 0.360891 0.989074
vt 0.045295 0.989379
vt 0.171196 0.513354
vt 0.486793 0.513338
vt 0.486799 0.640909
vt 0.171203 0.640926
vt 0.184842 0.650555
vt 0.184817 0.966151
vt 0.171196 0.975777
vt 0.171223 0.640926
vt 0.171009 0.513338
vt 0.171023 0.848189
vt 0.037056 0.847029
vt 0.035651 0.513343
vt 0.335260 0.640916
vt 0.335261 0.774888
vt 0.319064 0.770911
vt 0.319693 0.643341
vt 0.183519 0.641173
vt 0.318876 0.640918
vt 0.315014 0.657144
vt 0.187443 0.657384
vt 0.176237 0.311811
vt 0.176224 0.242040
vt 0.226675 0.242031
vt 0.226688 0.311802
vt 0.473974 0.410132
vt 0.474016 0.480862
vt 0.360154 0.480928
vt 0.360113 0.410199
vt 0.090654 0.410836
vt 0.090695 0.480607
vt 0.040244 0.480636
vt 0.040204 0.410865
vt 0.347840 0.024637
vt 0.417610 0.024637
vt 0.417610 0.136953
vt 0.347839 0.136953
vt 0.346821 0.025387
vt 0.346830 0.137703
vt 0.296379 0.137707
vt 0.296370 0.025391
vt 0.095620 0.105461
vt 0.207936 0.105455
vt 0.207938 0.155905
vt 0.095622 0.155912
vt 0.341138 0.288439
vt 0.341133 0.265352
vt 0.364162 0.266810
vt 0.364165 0.286969
vt 0.186118 0.062975
vt 0.186121 0.100141
vt 0.163167 0.097777
vt 0.163164 0.065332
vt 0.205137 0.457198
vt 0.205123 0.434111
vt 0.228153 0.435563
vt 0.228165 0.455722
vt 0.133203 0.266165
vt 0.170369 0.266163
vt 0.168015 0.289117
vt 0.135570 0.289119
vt 0.310151 0.293039
vt 0.310145 0.260761
vt 0.216558 0.055576
vt 0.216562 0.107534
vt 0.174152 0.461812
vt 0.174133 0.429534
vt 0.125806 0.235725
vt 0.177764 0.235722
vt 0.287966 0.296498
vt 0.287959 0.257311
vt 0.238311 0.050011
vt 0.238316 0.113091
vt 0.151970 0.465280
vt 0.151947 0.426093
vt 0.120246 0.213972
vt 0.183327 0.213969
vt 0.255031 0.303415
vt 0.255021 0.250406
vt 0.270070 0.038881
vt 0.270077 0.124215
vt 0.119038 0.472210
vt 0.119007 0.419201
vt 0.109118 0.182213
vt 0.194452 0.182208
vt 0.375135 0.263522
vt 0.375140 0.290252
vt 0.153006 0.103071
vt 0.153003 0.060044
vt 0.239127 0.432271
vt 0.239143 0.459001
vt 0.173305 0.299278
vt 0.130277 0.299281
vt 0.385269 0.263520
vt 0.385274 0.290251
vt 0.142872 0.103072
vt 0.142869 0.060045
vt 0.249261 0.432265
vt 0.249277 0.458995
vt 0.173305 0.309412
vt 0.130278 0.309414
vt 0.398922 0.267892
vt 0.398926 0.285873
vt 0.130381 0.096030
vt 0.130379 0.067084
vt 0.262920 0.436632
vt 0.262930 0.454613
vt 0.166268 0.321903
vt 0.137323 0.321904
vt 0.410052 0.267890
vt 0.410055 0.285871
vt 0.119252 0.096030
vt 0.119250 0.067085
vt 0.274049 0.436625
vt 0.274059 0.454606
vt 0.166269 0.333032
vt 0.137323 0.333034
vt 0.421090 0.265354
vt 0.421094 0.288402
vt 0.108684 0.100115
vt 0.108681 0.063014
vt 0.285091 0.434086
vt 0.285104 0.457134
vt 0.170341 0.343600
vt 0.133240 0.343602
vt 0.444548 0.259976
vt 0.444555 0.293772
vt 0.086226 0.108767
vt 0.086222 0.054365
vt 0.308546 0.428698
vt 0.308566 0.462493
vt 0.178993 0.366058
vt 0.124591 0.366061
vt 0.496124 0.241501
vt 0.496137 0.312231
vt 0.040213 0.138498
vt 0.040204 0.024637
vt 0.208728 0.412074
vt 0.094866 0.412080
vn 0.000000 0.000000 1.000000
vn 0.000000 0.000000 1.000000
vn 0.000000 0.140785 0.990040
vn 0.000000 0.140772 0.990042
vn 0.000000 1.000000 0.000000
vn 0.000000 1.000000 0.000000
vn 0.000000 1.000000 0.000000
vn 0.000000 1.000000 0.000000
vn 0.000000 0.140361 -0.990100
vn 0.000000 0.140374 -0.990099
vn 0.000000 0.000000 -1.000000
vn 0.000000 0.000000 -1.000000
vn 0.000000 -1.000000 0.000000
vn 0.000000 -1.000000 0.000000
vn 0.000000 -1.000000 0.000000
vn 0.000000 -1.000000 0.000000
vn 1.000000 0.000000 0.000000
vn 1.000000 0.000000 0.000000
vn 0.996954 0.077989 0.000000
vn 0.996959 0.077926 0.000000
vn -1.000000 0.000000 0.000000
vn -1.000000 0.000000 0.000000
vn -0.996956 0.077972 0.000000
vn -0.996951 0.078035 0.000000
vn 0.000000 0.192989 0.981201
vn 0.000000 0.192993 0.981200
vn 0.000000 -0.118693 0.992931
vn 0.000000 -0.118649 0.992936
vn 0.992416 0.122925 0.000000
vn 0.992416 0.122925 0.000000
vn 0.996705 -0.081116 0.000000
vn 0.996705 -0.081116 0.000000
vn 0.000000 0.192993 -0.981200
vn 0.000000 0.192989 -0.981201
vn 0.000000 -0.118649 -0.992936
vn 0.000000 -0.118693 -0.992931
vn -0.992424 0.122858 0.000000
vn -0.992424 0.122858 0.000000
vn -0.996722 -0.080899 0.000000
vn -0.996722 -0.080899 0.000000
vn 0.000000 0.244707 0.969597
vn 0.000000 0.244707 0.969597
vn 0.987839 0.155478 0.000000
vn 0.987839 0.155478 0.000000
vn 0.000000 0.244707 -0.969597
vn 0.000000 0.244707 -0.969597
vn -0.987840 0.155477 0.000000
vn -0.987840 0.155477 0.000000
vn 0.000000 0.312157 0.950031
vn 0.000000 0.312157 0.950031
vn 0.979404 0.201913 0.000000
vn 0.979402 0.201919 0.000000
vn 0.000000 0.312908 -0.949783
vn 0.000000 0.312908 -0.949783
vn -0.979402 0.201918 0.000000
vn -0.979404 0.201912 0.000000
vn 0.000000 0.423557 0.905869
vn 0.000000 0.423555 0.905871
vn 0.959090 0.283100 0.000000
vn 0.959088 0.283108 0.000000
vn 0.000000 0.423247 -0.906014
vn 0.000000 0.423250 -0.906013
vn -0.959056 0.283218 0.000000
vn -0.959058 0.283210 0.000000
vn 0.000000 -0.216774 0.976222
vn 0.000000 -0.216852 0.976205
vn 0.992243 -0.124312 0.000000
vn 0.992243 -0.124312 0.000000
vn 0.000000 -0.216852 -0.976205
vn 0.000000 -0.216774 -0.976222
vn -0.992290 -0.123942 0.000000
vn -0.992290 -0.123942 0.000000
vn 0.000000 0.253812 0.967254
vn 0.000000 0.253812 0.967254
vn 0.989309 0.145832 0.000000
vn 0.989309 0.145832 0.000000
vn 0.000000 0.253812 -0.967254
vn 0.000000 0.253812 -0.967254
vn -0.989309 0.145833 0.000000
vn -0.989309 0.145833 0.000000
vn 0.000000 0.515137 0.857108
vn 0.000000 0.515137 0.857108
vn 0.973011 0.230757 0.000000
vn 0.973011 0.230757 0.000000
vn 0.000000 0.515137 -0.857108
vn 0.000000 0.515137 -0.857108
vn -0.973011 0.230758 0.000000
vn -0.973011 0.230758 0.000000
vn 0.000000 0.000000 1.000000
vn 0.000000 0.000000 1.000000
vn 0.000000 -0.212207 0.977225
vn 0.000000 -0.212229 0.977220
vn 0.990397 -0.138256 0.000000
vn 0.990397 -0.138256 0.000000
vn 0.000000 0.000000 -1.000000
vn 0.000000 0.000000 -1.000000
vn 0.000000 -0.212229 -0.977220
vn 0.000000 -0.212207 -0.977225
vn -0.990361 -0.138513 0.000000
vn -0.990361 -0.138513 0.000000
vn 0.000000 -0.368157 0.929764
vn 0.000000 -0.368157 0.929764
vn 0.970904 -0.239468 0.000000
vn 0.970904 -0.239468 0.000000
vn 0.000000 -0.369298 -0.929311
vn 0.000000 -0.369298 -0.929311
vn -0.970927 -0.239375 0.000000
vn -0.970927 -0.239374 0.000000
vn 0.000000 -0.547847 0.836578
vn 0.000000 -0.547845 0.836580
vn 0.924630 -0.380866 0.000000
vn 0.924637 -0.380849 0.000000
vn 0.000000 -0.547566 -0.836763
vn 0.000000 -0.547568 -0.836761
vn -0.924615 -0.380904 0.000000
vn -0.924608 -0.380921 0.000000
vn 0.000000 -0.576831 0.816864
vn 0.000000 -0.576831 0.816864
vn 0.915988 -0.401206 0.000000
vn 0.915988 -0.401206 0.000000
vn 0.000000 -0.576328 -0.817218
vn 0.000000 -0.576328 -0.817218
vn -0.915949 -0.401295 0.000000
vn -0.915949 -0.401295 0.000000
vn 0.002100 0.237812 0.971309
vn 0.002100 0.237812 0.971309
vn 0.002100 0.237812 0.971309
vn 0.002100 0.237812 0.971309
vn 0.000000 1.000000 0.000000
vn 0.000000 1.000000 0.000000
vn 0.000000 1.000000 0.000000
vn 0.000000 1.000000 0.000000
vn 0.000000 0.286204 -0.958169
vn 0.000000 0.286204 -0.958169
vn 0.000000 0.286204 -0.958169
vn 0.000000 0.286204 -0.958169
vn 0.000000 -1.000000 -0.000000
vn 0.000000 -1.000000 -0.000000
vn 0.000000 -1.000000 -0.000000
vn 0.000000 -1.000000 -0.000000
vn 0.822020 0.569448 0.003659
vn 0.822020 0.569448 0.003659
vn 0.822020 0.569448 0.003659
vn 0.822020 0.569448 0.003659
vn -0.804857 0.593468 0.000000
vn -0.804857 0.593468 0.000000
vn -0.804857 0.593468 0.000000
vn -0.804857 0.593468 0.000000
vn 0.000000 0.000000 1.000000
vn 0.000000 0.000000 1.000000
vn 0.000000 0.140748 0.990045
vn 0.000000 0.140748 0.990045
vn 0.000000 1.000000 0.000000
vn 0.000000 1.000000 0.000000
vn 0.000000 1.000000 0.000000
vn 0.000000 1.000000 0.000000
vn 0.000000 0.140338 -0.990104
vn 0.000000 0.140338 -0.990104
vn 0.000000 0.000000 -1.000000
vn 0.000000 0.000000 -1.000000
vn 0.000000 -1.000000 0.000000
vn 0.000000 -1.000000 0.000000
vn 0.000000 -1.000000 0.000000
vn 0.000000 -1.000000 0.000000
vn 1.000000 0.000000 0.000000
vn 1.000000 0.000000 0.000000
vn 0.996947 0.078082 0.000000
vn 0.996952 0.078018 0.000000
vn -1.000000 0.000000 0.000000
vn -1.000000 0.000000 0.000000
vn -0.996952 0.078018 0.000000
vn -0.996947 0.078081 0.000000
vn 0.000000 0.192990 0.981201
vn 0.000000 0.192982 0.981202
vn 0.000000 -0.118662 0.992935
vn 0.000000 -0.118625 0.992939
vn 0.992437 0.122752 0.000000
vn 0.992437 0.122752 0.000000
vn 0.996708 -0.081074 0.000000
vn 0.996708 -0.081074 0.000000
vn 0.000000 0.192982 -0.981202
vn 0.000000 0.192990 -0.981201
vn 0.000000 -0.118625 -0.992939
vn 0.000000 -0.118662 -0.992935
vn -0.992421 0.122886 0.000000
vn -0.992421 0.122886 0.000000
vn -0.996730 -0.080805 0.000000
vn -0.996730 -0.080805 0.000000
vn 0.000000 0.244705 0.969598
vn 0.000000 0.244706 0.969597
vn 0.987850 0.155408 0.000000
vn 0.987850 0.155408 0.000000
vn 0.000000 0.244706 -0.969597
vn 0.000000 0.244705 -0.969598
vn -0.987889 0.155165 0.000000
vn -0.987889 0.155165 0.000000
vn 0.000000 0.312151 0.950032
vn 0.000000 0.312154 0.950032
vn 0.979426 0.201805 0.000000
vn 0.979424 0.201812 0.000000
vn 0.000000 0.312905 -0.949784
vn 0.000000 0.312903 -0.949785
vn -0.979404 0.201911 0.000000
vn -0.979405 0.201904 0.000000
vn 0.000000 0.423569 0.905864
vn 0.000000 0.423562 0.905867
vn 0.959040 0.283270 0.000000
vn 0.959038 0.283278 0.000000
vn 0.000000 0.423255 -0.906011
vn 0.000000 0.423262 -0.906007
vn -0.959009 0.283376 0.000000
vn -0.959011 0.283369 0.000000
vn 0.000000 -0.216816 0.976213
vn 0.000000 -0.216816 0.976213
vn 0.992266 -0.124127 0.000000
vn 0.992266 -0.124127 0.000000
vn 0.000000 -0.216816 -0.976213
vn 0.000000 -0.216816 -0.976213
vn -0.992266 -0.124127 0.000000
vn -0.992266 -0.124127 0.000000
vn 0.000000 0.253783 0.967261
vn 0.000000 0.253851 0.967243
vn 0.989285 0.145995 0.000000
vn 0.989285 0.145995 0.000000
vn 0.000000 0.253851 -0.967243
vn 0.000000 0.253783 -0.967261
vn -0.989333 0.145668 0.000000
vn -0.989333 0.145668 0.000000
vn 0.000000 0.515137 0.857108
vn 0.000000 0.515137 0.857108
vn 0.972954 0.230998 0.000000
vn 0.972954 0.230998 0.000000
vn 0.000000 0.515137 -0.857108
vn 0.000000 0.515137 -0.857108
vn -0.973069 0.230516 0.000000
vn -0.973069 0.230516 0.000000
vn 0.000000 0.000000 1.000000
vn 0.000000 0.000000 1.000000
vn 0.000000 -0.212172 0.977233
vn 0.000000 -0.212129 0.977242
vn 0.990397 -0.138255 0.000000
vn 0.990397 -0.138255 0.000000
vn 0.000000 0.000000 -1.000000
vn 0.000000 0.000000 -1.000000
vn 0.000000 -0.212129 -0.977242
vn 0.000000 -0.212172 -0.977232
vn -0.990469 -0.137737 0.000000
vn -0.990469 -0.137737 0.000000
vn 0.000000 -0.368157 0.929764
vn 0.000000 -0.368158 0.929763
vn 0.970863 -0.239636 0.000000
vn 0.970863 -0.239636 0.000000
vn 0.000000 -0.369298 -0.929311
vn 0.000000 -0.369298 -0.929311
vn -0.970900 -0.239485 0.000000
vn -0.970900 -0.239485 0.000000
vn 0.000000 -0.547858 0.836571
vn 0.000000 -0.547858 0.836571
vn 0.924588 -0.380969 0.000000
vn 0.924595 -0.380952 0.000000
vn 0.000000 -0.547579 -0.836754
vn 0.000000 -0.547579 -0.836754
vn -0.924595 -0.380952 0.000000
vn -0.924588 -0.380969 0.000000
vn 0.000000 -0.576831 0.816864
vn 0.000000 -0.576831 0.816864
vn 0.915949 -0.401295 0.000000
vn 0.915949 -0.401295 0.000000
vn 0.000000 -0.576328 -0.817218
vn 0.000000 -0.576328 -0.817218
vn -0.915949 -0.401295 0.000000
vn -0.915949 -0.401295 0.000000
s 1
g MESA_MESH
usemtl lambert6SG
f 1/112/1 2/118/2 4/107/3 3/4/4
s off
f 53/5/5 54/114/6 55/7/7 56/58/8
s 2
f 5/105/9 6/10/10 8/109/11 7/115/12
s off
f 7/12/13 8/116/14 2/2/15 1/117/16
s 3
f 2/110/17 8/11/18 6/106/19 4/3/20
s 4
f 7/111/21 1/1/22 3/108/23 5/9/24
s 1
f 13/104/25 14/14/26 10/87/27 9/16/28
s 3
f 14/103/29 15/17/30 11/86/31 10/15/32
s 2
f 15/102/33 16/19/34 12/85/35 11/18/36
s 4
f 16/101/37 13/13/38 9/88/39 12/20/40
s 1
f 17/100/41 18/22/42 14/14/26 13/104/25
s 3
f 18/99/43 19/23/44 15/17/30 14/103/29
s 2
f 19/98/45 20/24/46 16/19/34 15/102/33
s 4
f 20/97/47 17/21/48 13/13/38 16/101/37
s 1
f 21/96/49 22/26/50 18/22/42 17/100/41
s 3
f 22/94/51 23/27/52 19/23/44 18/99/43
s 2
f 23/92/53 24/28/54 20/24/46 19/98/45
s 4
f 24/90/55 21/25/56 17/21/48 20/97/47
s 1
f 25/95/57 26/93/58 22/26/50 21/96/49
s 3
f 26/30/59 27/91/60 23/27/52 22/94/51
s 2
f 27/31/61 28/89/62 24/28/54 23/92/53
s 4
f 28/32/63 25/29/64 21/25/56 24/90/55
s 1
f 3/4/4 4/107/3 26/93/58 25/95/57
s 3
f 4/3/20 6/106/19 27/91/60 26/30/59
s 2
f 6/10/10 5/105/9 28/89/62 27/31/61
s 4
f 5/9/24 3/108/23 25/29/64 28/32/63
s 1
f 9/16/28 10/87/27 30/83/65 29/34/66
s 3
f 10/15/32 11/86/31 31/82/67 30/33/68
s 2
f 11/18/36 12/85/35 32/81/69 31/35/70
s 4
f 12/20/40 9/88/39 29/84/71 32/36/72
s 1
f 29/34/66 30/83/65 34/79/73 33/38/74
s 3
f 30/33/68 31/82/67 35/78/75 34/37/76
s 2
f 31/35/70 32/81/69 36/77/77 35/39/78
s 4
f 32/36/72 29/84/71 33/80/79 36/40/80
s 1
f 33/38/74 34/79/73 38/75/81 37/42/82
s 3
f 34/37/76 35/78/75 39/74/83 38/41/84
s 2
f 35/39/78 36/77/77 40/73/85 39/43/86
s 4
f 36/40/80 33/80/79 37/76/87 40/44/88
s 9
f 37/42/89 38/75/90 42/71/91 41/46/92
s 3
f 38/41/84 39/74/83 43/70/93 42/45/94
s 10
f 39/43/95 40/73/96 44/69/97 43/47/98
s 4
f 40/44/88 37/76/87 41/72/99 44/48/100
s 9
f 41/46/92 42/71/91 46/67/101 45/50/102
s 3
f 42/45/94 43/70/93 47/66/103 46/49/104
s 10
f 43/47/98 44/69/97 48/65/105 47/51/106
s 4
f 44/48/100 41/72/99 45/68/107 48/52/108
s 9
f 45/50/102 46/67/101 50/63/109 49/54/110
s 3
f 46/49/104 47/66/103 51/62/111 50/53/112
s 10
f 47/51/106 48/65/105 52/59/113 51/55/114
s 4
f 48/52/108 45/68/107 49/64/115 52/56/116
s 9
f 49/54/110 50/63/109 54/60/117 53/113/118
s 3
f 50/53/112 51/62/111 55/61/119 54/6/120
s 10
f 51/55/114 52/59/113 56/58/121 55/7/122
s 4
f 52/56/116 49/64/115 53/57/123 56/8/124
s off
f 57/119/125 58/120/126 60/121/127 59/122/128
f 59/123/129 60/124/130 62/125/131 61/126/132
f 61/127/133 62/128/134 64/129/135 63/130/136
f 63/131/137 64/132/138 58/133/139 57/134/140
f 58/135/141 64/136/142 62/137/143 60/138/144
f 63/139/145 57/140/146 59/141/147 61/142/148
s 11
f 65/143/149 66/144/150 68/145/151 67/146/152
s off
f 117/147/153 118/148/154 119/149/155 120/150/156
s 12
f 69/151/157 70/152/158 72/153/159 71/154/160
s off
f 71/155/161 72/156/162 66/157/163 65/158/164
s 13
f 66/159/165 72/160/166 70/161/167 68/162/168
s 14
f 71/163/169 65/164/170 67/165/171 69/166/172
s 11
f 77/167/173 78/168/174 74/169/175 73/170/176
s 13
f 78/171/177 79/172/178 75/173/179 74/174/180
s 12
f 79/175/181 80/176/182 76/177/183 75/178/184
s 14
f 80/179/185 77/180/186 73/181/187 76/182/188
s 11
f 81/183/189 82/184/190 78/168/174 77/167/173
s 13
f 82/185/191 83/186/192 79/172/178 78/171/177
s 12
f 83/187/193 84/188/194 80/176/182 79/175/181
s 14
f 84/189/195 81/190/196 77/180/186 80/179/185
s 11
f 85/191/197 86/192/198 82/184/190 81/183/189
s 13
f 86/193/199 87/194/200 83/186/192 82/185/191
s 12
f 87/195/201 88/196/202 84/188/194 83/187/193
s 14
f 88/197/203 85/198/204 81/190/196 84/189/195
s 11
f 89/199/205 90/200/206 86/192/198 85/191/197
s 13
f 90/201/207 91/202/208 87/194/200 86/193/199
s 12
f 91/203/209 92/204/210 88/196/202 87/195/201
s 14
f 92/205/211 89/206/212 85/198/204 88/197/203
s 11
f 67/146/152 68/145/151 90/200/206 89/199/205
s 13
f 68/162/168 70/161/167 91/202/208 90/201/207
s 12
f 70/152/158 69/151/157 92/204/210 91/203/209
s 14
f 69/166/172 67/165/171 89/206/212 92/205/211
s 11
f 73/170/176 74/169/175 94/207/213 93/208/214
s 13
f 74/174/180 75/173/179 95/209/215 94/210/216
s 12
f 75/178/184 76/177/183 96/211/217 95/212/218
s 14
f 76/182/188 73/181/187 93/213/219 96/214/220
s 11
f 93/208/214 94/207/213 98/215/221 97/216/222
s 13
f 94/210/216 95/209/215 99/217/223 98/218/224
s 12
f 95/212/218 96/211/217 100/219/225 99/220/226
s 14
f 96/214/220 93/213/219 97/221/227 100/222/228
s 11
f 97/216/222 98/215/221 102/223/229 101/224/230
s 13
f 98/218/224 99/217/223 103/225/231 102/226/232
s 12
f 99/220/226 100/219/225 104/227/233 103/228/234
s 14
f 100/222/228 97/221/227 101/229/235 104/230/236
s 19
f 101/224/237 102/223/238 106/231/239 105/232/240
s 13
f 102/226/232 103/225/231 107/233/241 106/234/242
s 20
f 103/228/243 104/227/244 108/235/245 107/236/246
s 14
f 104/230/236 101/229/235 105/237/247 108/238/248
s 19
f 105/232/240 106/231/239 110/239/249 109/240/250
s 13
f 106/234/242 107/233/241 111/241/251 110/242/252
s 20
f 107/236/246 108/235/245 112/243/253 111/244/254
s 14
f 108/238/248 105/237/247 109/245/255 112/246/256
s 19
f 109/240/250 110/239/249 114/247/257 113/248/258
s 13
f 110/242/252 111/241/251 115/249/259 114/250/260
s 20
f 111/244/254 112/243/253 116/251/261 115/252/262
s 14
f 112/246/256 109/245/255 113/253/263 116/254/264
s 19
f 113/248/258 114/247/257 118/255/265 117/256/266
s 13
f 114/250/260 115/249/259 119/257/267 118/258/268
s 20
f 115/252/262 116/251/261 120/150/269 119/149/270
s 14
f 116/254/264 113/253/263 117/259/271 120/260/272
