# This file uses meters as units for non-parametric coordinates.

mtllib ESCADARIA_MESH.mtl
g default
v 1028.227783 -1.949875 -2399.260254
v 1082.448975 -1.949875 -2399.260254
v 1028.227783 162.767914 -2399.260254
v 1082.448975 162.767914 -2399.260254
v 1028.227783 162.767914 -2786.850098
v 1082.448975 162.767914 -2786.850098
v 1028.227783 -1.949875 -2786.850098
v 1082.448975 -1.949875 -2786.850098
v 214.433533 -1.949875 -2399.260254
v 268.654785 -1.949875 -2399.260254
v 214.433533 162.767914 -2399.260254
v 268.654785 162.767914 -2399.260254
v 214.433533 162.767914 -2786.850098
v 268.654785 162.767914 -2786.850098
v 214.433533 -1.949875 -2786.850098
v 268.654785 -1.949875 -2786.850098
v 268.075684 163.055435 -2399.304932
v 268.075684 139.462631 -2399.304932
v 268.075714 115.869835 -2399.304932
v 268.075684 92.277031 -2399.304932
v 268.075684 68.684235 -2399.304932
v 268.075684 45.091434 -2399.304932
v 268.075714 21.498631 -2399.304932
v 268.075714 -2.094162 -2399.304932
v 268.075684 163.055435 -2454.640625
v 268.075684 139.462631 -2454.640625
v 268.075714 115.869835 -2454.640625
v 268.075684 92.277031 -2454.640625
v 268.075684 68.684235 -2454.640625
v 268.075684 45.091434 -2454.640625
v 268.075714 21.498631 -2454.640625
v 268.075714 -2.094162 -2454.640625
v 268.075684 139.462631 -2509.976318
v 268.075714 115.869835 -2509.976318
v 268.075684 92.277031 -2509.976318
v 268.075684 68.684235 -2509.976318
v 268.075684 45.091434 -2509.976318
v 268.075714 21.498631 -2509.976318
v 268.075714 -2.094162 -2509.976318
v 268.075714 115.869835 -2565.312256
v 268.075684 92.277031 -2565.312256
v 268.075684 68.684235 -2565.312256
v 268.075684 45.091434 -2565.312256
v 268.075714 21.498631 -2565.312256
v 268.075714 -2.094162 -2565.312256
v 268.075684 92.277031 -2620.647949
v 268.075684 68.684235 -2620.647949
v 268.075684 45.091434 -2620.647949
v 268.075714 21.498631 -2620.647949
v 268.075714 -2.094162 -2620.647949
v 268.075684 68.684235 -2675.983643
v 268.075684 45.091434 -2675.983643
v 268.075714 21.498631 -2675.983643
v 268.075714 -2.094162 -2675.983643
v 268.075684 45.091434 -2731.319580
v 268.075714 21.498631 -2731.319580
v 268.075714 -2.094162 -2731.319580
v 268.075714 21.498631 -2786.655273
v 268.075714 -2.094162 -2786.655273
v 1029.410889 163.055679 -2399.304443
v 1029.411377 139.462631 -2399.304688
v 1029.411133 139.462509 -2454.640381
v 1029.411743 163.055481 -2454.640869
v 1029.411499 115.869858 -2399.304932
v 1029.411377 115.869781 -2454.640625
v 1029.411865 92.277008 -2399.305176
v 1029.410889 92.276947 -2454.640381
v 1029.412354 68.684158 -2399.304932
v 1029.411743 68.684097 -2454.640869
v 1029.411621 45.091377 -2399.304688
v 1029.411011 45.091377 -2454.640381
v 1029.411743 21.498598 -2399.304199
v 1029.411865 21.498728 -2454.640381
v 1029.410645 -2.094250 -2399.304443
v 1029.410645 -2.094250 -2454.640625
v 1029.410767 115.869781 -2509.976074
v 1029.410278 139.462708 -2509.976563
v 1029.411377 92.276947 -2509.976074
v 1029.410645 68.684227 -2509.976074
v 1029.410522 45.091377 -2509.976318
v 1029.411743 21.498598 -2509.976563
v 1029.410522 -2.094185 -2509.976318
v 1029.410767 92.277008 -2565.312012
v 1029.411133 115.869667 -2565.312012
v 1029.411133 68.684158 -2565.312256
v 1029.410645 45.091377 -2565.312256
v 1029.411621 21.498663 -2565.312012
v 1029.410156 -2.094119 -2565.312256
v 1029.411133 68.684158 -2620.647705
v 1029.411377 92.276878 -2620.648193
v 1029.411133 45.091312 -2620.647949
v 1029.411133 21.498598 -2620.647949
v 1029.410889 -2.094054 -2620.647705
v 1029.410400 45.091576 -2675.983643
v 1029.411133 68.684158 -2675.983643
v 1029.411621 21.498795 -2675.983643
v 1029.410645 -2.094054 -2675.983643
v 1029.411255 21.498663 -2731.319336
v 1029.411377 45.091248 -2731.319580
v 1029.410889 -2.094185 -2731.319336
v 1029.410400 -2.094185 -2786.655273
v 1029.411133 21.498663 -2786.655273
vt 0.794281 0.516694
vt 0.817405 0.516698
vt 0.817392 0.586947
vt 0.794268 0.586943
vt 0.817362 0.752246
vt 0.794237 0.752242
vt 0.817349 0.822495
vt 0.794225 0.822491
vt 0.817318 0.987795
vt 0.794194 0.987790
vt 0.982705 0.516729
vt 0.982692 0.586977
vt 0.628981 0.516663
vt 0.628968 0.586912
vt 0.225393 0.511167
vt 0.248311 0.511171
vt 0.248298 0.580794
vt 0.225380 0.580790
vt 0.248268 0.744620
vt 0.225350 0.744616
vt 0.248255 0.814243
vt 0.225337 0.814239
vt 0.248225 0.978069
vt 0.225307 0.978065
vt 0.412137 0.511202
vt 0.412124 0.580825
vt 0.061567 0.511137
vt 0.061554 0.580760
vt 0.541852 0.252616
vt 0.527135 0.252616
vt 0.527135 0.218098
vt 0.541852 0.218098
vt 0.512418 0.252616
vt 0.512418 0.218098
vt 0.497701 0.252616
vt 0.497701 0.218098
vt 0.482984 0.252616
vt 0.482984 0.218098
vt 0.468267 0.252616
vt 0.468267 0.218098
vt 0.453550 0.252616
vt 0.453550 0.218098
vt 0.438833 0.252616
vt 0.438833 0.218098
vt 0.512418 0.183580
vt 0.527135 0.183580
vt 0.497701 0.183580
vt 0.482984 0.183580
vt 0.468267 0.183580
vt 0.453550 0.183580
vt 0.438833 0.183580
vt 0.497701 0.149062
vt 0.512418 0.149062
vt 0.482984 0.149062
vt 0.468267 0.149062
vt 0.453550 0.149062
vt 0.438833 0.149062
vt 0.482984 0.114544
vt 0.497701 0.114544
vt 0.468267 0.114544
vt 0.453550 0.114544
vt 0.438833 0.114544
vt 0.468267 0.080026
vt 0.482984 0.080026
vt 0.453550 0.080026
vt 0.438833 0.080026
vt 0.453550 0.045508
vt 0.468267 0.045508
vt 0.438833 0.045508
vt 0.438833 0.010990
vt 0.453550 0.010990
vt 0.541852 0.252616
vt 0.541852 0.287134
vt 0.527135 0.287134
vt 0.527135 0.252616
vt 0.512418 0.287134
vt 0.512418 0.252616
vt 0.497701 0.287134
vt 0.497701 0.252616
vt 0.482984 0.287134
vt 0.482984 0.252616
vt 0.468267 0.287134
vt 0.468267 0.252616
vt 0.453550 0.287134
vt 0.453550 0.252616
vt 0.438833 0.287134
vt 0.438833 0.252616
vt 0.527135 0.321652
vt 0.512418 0.321652
vt 0.497701 0.321652
vt 0.482984 0.321652
vt 0.468267 0.321652
vt 0.453550 0.321652
vt 0.438833 0.321652
vt 0.512418 0.356170
vt 0.497701 0.356170
vt 0.482984 0.356170
vt 0.468267 0.356170
vt 0.453550 0.356170
vt 0.438833 0.356170
vt 0.497701 0.390689
vt 0.482984 0.390689
vt 0.468267 0.390689
vt 0.453550 0.390689
vt 0.438833 0.390689
vt 0.482984 0.425207
vt 0.468267 0.425207
vt 0.453550 0.425207
vt 0.438833 0.425207
vt 0.468267 0.459725
vt 0.453550 0.459725
vt 0.438833 0.459725
vt 0.453550 0.494243
vt 0.438833 0.494243
vt 0.437649 0.485906
vt 0.422932 0.485906
vt 0.422932 0.010990
vt 0.437649 0.010991
vt 0.828681 0.485905
vt 0.813964 0.485905
vt 0.813963 0.010990
vt 0.828681 0.010990
vt 0.577554 0.485905
vt 0.543036 0.485905
vt 0.543036 0.010990
vt 0.577554 0.010990
vt 0.408215 0.485906
vt 0.408215 0.010990
vt 0.393498 0.485906
vt 0.393498 0.010990
vt 0.378781 0.485906
vt 0.378781 0.010990
vt 0.364064 0.485906
vt 0.364064 0.010990
vt 0.349347 0.485906
vt 0.349347 0.010990
vt 0.334630 0.485906
vt 0.334630 0.010991
vt 0.333985 0.485905
vt 0.299467 0.485905
vt 0.299466 0.010990
vt 0.333985 0.010990
vt 0.859941 0.485905
vt 0.845224 0.485905
vt 0.845224 0.010990
vt 0.859942 0.010990
vt 0.650496 0.485905
vt 0.615978 0.485905
vt 0.615978 0.010990
vt 0.650496 0.010990
vt 0.264949 0.485905
vt 0.264949 0.010990
vt 0.875572 0.485905
vt 0.860855 0.485905
vt 0.860855 0.010990
vt 0.875572 0.010990
vt 0.759909 0.485905
vt 0.725391 0.485905
vt 0.725391 0.010990
vt 0.759909 0.010990
vt 0.230430 0.485905
vt 0.230430 0.010990
vt 0.542122 0.762050
vt 0.527405 0.762050
vt 0.527406 0.287134
vt 0.542122 0.287134
vt 0.614025 0.485905
vt 0.579507 0.485905
vt 0.579507 0.010990
vt 0.614025 0.010990
vt 0.195912 0.485905
vt 0.195913 0.010990
vt 0.844311 0.485905
vt 0.829594 0.485905
vt 0.829594 0.010990
vt 0.844311 0.010990
vt 0.796380 0.485905
vt 0.761862 0.485905
vt 0.761862 0.010990
vt 0.796380 0.010990
vt 0.161394 0.485905
vt 0.161394 0.010990
vt 0.891202 0.485905
vt 0.876485 0.485905
vt 0.876485 0.010990
vt 0.891202 0.010990
vt 0.686967 0.485905
vt 0.652449 0.485905
vt 0.652449 0.010990
vt 0.686967 0.010990
vt 0.126876 0.485905
vt 0.126876 0.010990
vt 0.092358 0.485905
vt 0.092358 0.010990
vt 0.813050 0.485905
vt 0.798333 0.485905
vt 0.798333 0.010990
vt 0.813050 0.010990
vt 0.723438 0.485905
vt 0.688920 0.485905
vt 0.688920 0.010990
vt 0.723438 0.010990
vn 0.000000 0.000000 1.000000
vn 0.000000 0.000000 1.000000
vn 0.000000 0.000000 1.000000
vn 0.000000 0.000000 1.000000
vn 0.000000 1.000000 0.000000
vn 0.000000 1.000000 0.000000
vn 0.000000 1.000000 0.000000
vn 0.000000 1.000000 0.000000
vn 0.000000 0.000000 -1.000000
vn 0.000000 0.000000 -1.000000
vn 0.000000 0.000000 -1.000000
vn 0.000000 0.000000 -1.000000
vn 0.000000 -1.000000 0.000000
vn 0.000000 -1.000000 0.000000
vn 0.000000 -1.000000 0.000000
vn 0.000000 -1.000000 0.000000
vn 1.000000 0.000000 0.000000
vn 1.000000 0.000000 0.000000
vn 1.000000 0.000000 0.000000
vn 1.000000 0.000000 0.000000
vn -1.000000 0.000000 0.000000
vn -1.000000 0.000000 0.000000
vn -1.000000 0.000000 0.000000
vn -1.000000 0.000000 0.000000
vn 0.000000 0.000000 1.000000
vn 0.000000 0.000000 1.000000
vn 0.000000 0.000000 1.000000
vn 0.000000 0.000000 1.000000
vn 0.000000 1.000000 0.000000
vn 0.000000 1.000000 0.000000
vn 0.000000 1.000000 0.000000
vn 0.000000 1.000000 0.000000
vn 0.000000 0.000000 -1.000000
vn 0.000000 0.000000 -1.000000
vn 0.000000 0.000000 -1.000000
vn 0.000000 0.000000 -1.000000
vn 0.000000 -1.000000 0.000000
vn 0.000000 -1.000000 0.000000
vn 0.000000 -1.000000 0.000000
vn 0.000000 -1.000000 0.000000
vn 1.000000 0.000000 0.000000
vn 1.000000 0.000000 0.000000
vn 1.000000 0.000000 0.000000
vn 1.000000 0.000000 0.000000
vn -1.000000 0.000000 0.000000
vn -1.000000 0.000000 0.000000
vn -1.000000 0.000000 0.000000
vn -1.000000 0.000000 0.000000
vn 1.000000 -0.000006 0.000006
vn 1.000000 -0.000000 0.000001
vn 1.000000 0.000006 -0.000004
vn 1.000000 -0.000006 0.000006
vn 1.000000 0.000003 -0.000007
vn 1.000000 0.000007 -0.000007
vn 1.000000 0.000015 -0.000012
vn 1.000000 0.000008 -0.000008
vn 1.000000 -0.000000 -0.000013
vn 1.000000 -0.000004 -0.000011
vn 1.000000 -0.000004 -0.000008
vn 1.000000 0.000006 -0.000009
vn 1.000000 -0.000015 -0.000002
vn 1.000000 -0.000009 -0.000003
vn 1.000000 -0.000051 0.000001
vn 1.000000 -0.000052 -0.000001
vn 1.000000 0.000010 -0.000006
vn 1.000000 0.000018 -0.000013
vn 1.000000 0.000001 -0.000002
vn 1.000000 -0.000009 -0.000004
vn 1.000000 0.000015 -0.000004
vn 1.000000 -0.000004 -0.000003
vn 1.000000 -0.000051 -0.000003
vn 1.000000 -0.000000 0.000001
vn 1.000000 0.000009 -0.000002
vn 1.000000 -0.000007 0.000004
vn 1.000000 0.000010 0.000002
vn 1.000000 -0.000006 -0.000001
vn 1.000000 -0.000043 -0.000001
vn 1.000000 -0.000008 0.000001
vn 1.000000 0.000000 0.000006
vn 1.000000 0.000006 -0.000001
vn 1.000000 -0.000004 0.000001
vn 1.000000 -0.000031 0.000002
vn 1.000000 0.000009 -0.000001
vn 1.000000 -0.000015 -0.000007
vn 1.000000 -0.000001 0.000001
vn 1.000000 -0.000024 0.000001
vn 1.000000 -0.000009 -0.000000
vn 1.000000 0.000018 0.000006
vn 1.000000 -0.000022 -0.000003
vn 1.000000 -0.000021 -0.000006
vn 1.000000 -0.000021 -0.000006
vn -1.000000 0.000000 0.000000
vn -1.000000 0.000000 0.000000
vn -1.000000 -0.000000 0.000000
vn -1.000000 -0.000000 0.000000
vn -1.000000 0.000000 0.000000
vn -1.000000 0.000000 0.000000
vn -1.000000 0.000000 0.000000
vn -1.000000 0.000000 0.000000
vn -1.000000 0.000000 0.000000
vn -1.000000 0.000000 0.000000
vn -1.000000 -0.000000 0.000000
vn -1.000000 -0.000000 0.000000
vn -1.000000 -0.000000 0.000000
vn -1.000000 -0.000000 0.000000
vn -1.000000 0.000000 0.000000
vn -1.000000 0.000000 0.000000
vn -1.000000 -0.000001 0.000000
vn -1.000000 0.000000 0.000000
vn -1.000000 0.000000 0.000000
vn -1.000000 0.000000 0.000000
vn -1.000000 -0.000000 0.000000
vn -1.000000 -0.000000 0.000000
vn -1.000000 0.000000 0.000000
vn -1.000000 0.000001 0.000000
vn -1.000000 0.000000 0.000000
vn -1.000000 0.000000 0.000000
vn -1.000000 -0.000000 0.000000
vn -1.000000 -0.000000 0.000000
vn -1.000000 0.000000 0.000000
vn -1.000000 0.000000 0.000000
vn -1.000000 0.000000 0.000000
vn -1.000000 -0.000000 0.000000
vn -1.000000 -0.000000 0.000000
vn -1.000000 0.000000 0.000000
vn -1.000000 0.000000 0.000000
vn -1.000000 -0.000000 0.000000
vn -1.000000 -0.000000 0.000000
vn -1.000000 0.000000 0.000000
vn -1.000000 -0.000001 0.000000
vn -1.000000 -0.000000 0.000000
vn -1.000000 0.000000 0.000000
vn -1.000000 0.000000 0.000000
vn -1.000000 0.000000 0.000000
vn -0.000000 -0.000005 1.000000
vn -0.000000 -0.000005 1.000000
vn -0.000000 -0.000005 1.000000
vn -0.000000 -0.000005 1.000000
vn 0.000000 -0.000010 -1.000000
vn 0.000000 -0.000010 -1.000000
vn 0.000000 -0.000010 -1.000000
vn 0.000000 -0.000010 -1.000000
vn -0.000000 1.000000 -0.000002
vn -0.000000 1.000000 -0.000002
vn -0.000000 1.000000 -0.000002
vn -0.000000 1.000000 -0.000002
vn -0.000000 -0.000005 1.000000
vn -0.000000 -0.000005 1.000000
vn 0.000000 0.000000 1.000000
vn 0.000000 0.000000 1.000000
vn -0.000000 0.000005 1.000000
vn -0.000000 0.000005 1.000000
vn -0.000000 0.000008 1.000000
vn -0.000000 0.000008 1.000000
vn -0.000001 0.000003 1.000000
vn -0.000001 0.000003 1.000000
vn -0.000001 -0.000005 1.000000
vn -0.000001 -0.000005 1.000000
vn -0.000000 -1.000000 0.000000
vn -0.000000 -1.000000 -0.000000
vn -0.000000 -1.000000 -0.000000
vn -0.000000 -1.000000 0.000000
vn -0.000000 -0.000010 -1.000000
vn -0.000000 -0.000010 -1.000000
vn -0.000000 -0.000010 -1.000000
vn -0.000000 -0.000010 -1.000000
vn 0.000000 1.000000 0.000002
vn 0.000000 1.000000 0.000002
vn 0.000000 1.000000 0.000002
vn 0.000000 1.000000 0.000002
vn -0.000000 -1.000000 -0.000001
vn -0.000000 -1.000000 -0.000001
vn 0.000000 -0.000000 -1.000000
vn 0.000000 -0.000000 -1.000000
vn 0.000000 -0.000000 -1.000000
vn 0.000000 -0.000000 -1.000000
vn 0.000000 1.000000 -0.000001
vn 0.000000 1.000000 -0.000001
vn 0.000000 1.000000 -0.000001
vn 0.000000 1.000000 -0.000001
vn 0.000000 -1.000000 -0.000001
vn 0.000000 -1.000000 -0.000001
vn 0.000000 -0.000010 -1.000000
vn 0.000000 -0.000010 -1.000000
vn 0.000000 -0.000010 -1.000000
vn 0.000000 -0.000010 -1.000000
vn 0.000000 1.000000 -0.000001
vn 0.000000 1.000000 -0.000001
vn 0.000000 1.000000 -0.000001
vn 0.000000 1.000000 -0.000001
vn 0.000000 -1.000000 -0.000000
vn 0.000000 -1.000000 -0.000000
vn -0.000000 0.000000 -1.000000
vn -0.000000 0.000000 -1.000000
vn -0.000000 0.000000 -1.000000
vn -0.000000 0.000000 -1.000000
vn 0.000000 1.000000 0.000000
vn 0.000000 1.000000 0.000000
vn 0.000000 1.000000 0.000000
vn 0.000000 1.000000 0.000000
vn 0.000000 -1.000000 0.000001
vn 0.000000 -1.000000 0.000001
vn 0.000000 -0.000005 -1.000000
vn 0.000000 -0.000005 -1.000000
vn 0.000000 -0.000005 -1.000000
vn 0.000000 -0.000005 -1.000000
vn 0.000000 1.000000 -0.000003
vn 0.000000 1.000000 -0.000003
vn 0.000000 1.000000 -0.000003
vn 0.000000 1.000000 -0.000003
vn 0.000000 -1.000000 0.000001
vn 0.000000 -1.000000 0.000001
vn -0.000000 -1.000000 0.000000
vn -0.000000 -1.000000 0.000000
vn -0.000000 0.000000 -1.000000
vn -0.000000 0.000000 -1.000000
vn -0.000000 0.000000 -1.000000
vn -0.000000 0.000000 -1.000000
vn -0.000000 1.000000 0.000000
vn -0.000000 1.000000 0.000000
vn -0.000000 1.000000 0.000000
vn -0.000000 1.000000 0.000000
s off
g ESCADARIA_MESH
usemtl initialShadingGroup
f 1/1/1 2/2/2 4/3/3 3/4/4
f 3/4/5 4/3/6 6/5/7 5/6/8
f 5/6/9 6/5/10 8/7/11 7/8/12
f 7/8/13 8/7/14 2/9/15 1/10/16
f 2/2/17 8/11/18 6/12/19 4/3/20
f 7/13/21 1/1/22 3/4/23 5/14/24
f 9/15/25 10/16/26 12/17/27 11/18/28
f 11/18/29 12/17/30 14/19/31 13/20/32
f 13/20/33 14/19/34 16/21/35 15/22/36
f 15/22/37 16/21/38 10/23/39 9/24/40
f 10/16/41 16/25/42 14/26/43 12/17/44
f 15/27/45 9/15/46 11/18/47 13/28/48
s 1
f 60/29/49 61/30/50 62/31/51 63/32/52
f 61/30/50 64/33/53 65/34/54 62/31/51
f 64/33/53 66/35/55 67/36/56 65/34/54
f 66/35/55 68/37/57 69/38/58 67/36/56
f 68/37/57 70/39/59 71/40/60 69/38/58
f 70/39/59 72/41/61 73/42/62 71/40/60
f 72/41/61 74/43/63 75/44/64 73/42/62
f 62/31/51 65/34/54 76/45/65 77/46/66
f 65/34/54 67/36/56 78/47/67 76/45/65
f 67/36/56 69/38/58 79/48/68 78/47/67
f 69/38/58 71/40/60 80/49/69 79/48/68
f 71/40/60 73/42/62 81/50/70 80/49/69
f 73/42/62 75/44/64 82/51/71 81/50/70
f 76/45/65 78/47/67 83/52/72 84/53/73
f 78/47/67 79/48/68 85/54/74 83/52/72
f 79/48/68 80/49/69 86/55/75 85/54/74
f 80/49/69 81/50/70 87/56/76 86/55/75
f 81/50/70 82/51/71 88/57/77 87/56/76
f 83/52/72 85/54/74 89/58/78 90/59/79
f 85/54/74 86/55/75 91/60/80 89/58/78
f 86/55/75 87/56/76 92/61/81 91/60/80
f 87/56/76 88/57/77 93/62/82 92/61/81
f 89/58/78 91/60/80 94/63/83 95/64/84
f 91/60/80 92/61/81 96/65/85 94/63/83
f 92/61/81 93/62/82 97/66/86 96/65/85
f 94/63/83 96/65/85 98/67/87 99/68/88
f 96/65/85 97/66/86 100/69/89 98/67/87
f 98/67/87 100/69/89 101/70/90 102/71/91
s 2
f 17/72/92 25/73/93 26/74/94 18/75/95
f 18/75/95 26/74/94 27/76/96 19/77/97
f 19/77/97 27/76/96 28/78/98 20/79/99
f 20/79/99 28/78/98 29/80/100 21/81/101
f 21/81/101 29/80/100 30/82/102 22/83/103
f 22/83/103 30/82/102 31/84/104 23/85/105
f 23/85/105 31/84/104 32/86/106 24/87/107
f 26/74/94 33/88/108 34/89/109 27/76/96
f 27/76/96 34/89/109 35/90/110 28/78/98
f 28/78/98 35/90/110 36/91/111 29/80/100
f 29/80/100 36/91/111 37/92/112 30/82/102
f 30/82/102 37/92/112 38/93/113 31/84/104
f 31/84/104 38/93/113 39/94/114 32/86/106
f 34/89/109 40/95/115 41/96/116 35/90/110
f 35/90/110 41/96/116 42/97/117 36/91/111
f 36/91/111 42/97/117 43/98/118 37/92/112
f 37/92/112 43/98/118 44/99/119 38/93/113
f 38/93/113 44/99/119 45/100/120 39/94/114
f 41/96/116 46/101/121 47/102/122 42/97/117
f 42/97/117 47/102/122 48/103/123 43/98/118
f 43/98/118 48/103/123 49/104/124 44/99/119
f 44/99/119 49/104/124 50/105/125 45/100/120
f 47/102/122 51/106/126 52/107/127 48/103/123
f 48/103/123 52/107/127 53/108/128 49/104/124
f 49/104/124 53/108/128 54/109/129 50/105/125
f 52/107/127 55/110/130 56/111/131 53/108/128
f 53/108/128 56/111/131 57/112/132 54/109/129
f 56/111/131 58/113/133 59/114/134 57/112/132
s 3
f 17/115/135 18/116/136 61/117/137 60/118/138
s off
f 26/119/139 25/120/140 63/121/141 62/122/142
f 25/123/143 17/124/144 60/125/145 63/126/146
s 3
f 18/116/136 19/127/147 64/128/148 61/117/137
f 19/127/147 20/129/149 66/130/150 64/128/148
f 20/129/149 21/131/151 68/132/152 66/130/150
f 21/131/151 22/133/153 70/134/154 68/132/152
f 22/133/153 23/135/155 72/136/156 70/134/154
f 23/135/155 24/137/157 74/138/158 72/136/156
s 4
f 24/139/159 32/140/160 75/141/161 74/142/162
s off
f 34/143/163 33/144/164 77/145/165 76/146/166
f 33/147/167 26/148/168 62/149/169 77/150/170
s 4
f 32/140/160 39/151/171 82/152/172 75/141/161
s off
f 41/153/173 40/154/174 84/155/175 83/156/176
f 40/157/177 34/158/178 76/159/179 84/160/180
s 4
f 39/151/171 45/161/181 88/162/182 82/152/172
s off
f 47/163/183 46/164/184 90/165/185 89/166/186
f 46/167/187 41/168/188 83/169/189 90/170/190
s 4
f 45/161/181 50/171/191 93/172/192 88/162/182
s off
f 52/173/193 51/174/194 95/175/195 94/176/196
f 51/177/197 47/178/198 89/179/199 95/180/200
s 4
f 50/171/191 54/181/201 97/182/202 93/172/192
s off
f 56/183/203 55/184/204 99/185/205 98/186/206
f 55/187/207 52/188/208 94/189/209 99/190/210
s 4
f 54/181/201 57/191/211 100/192/212 97/182/202
f 57/191/211 59/193/213 101/194/214 100/192/212
s off
f 59/195/215 58/196/216 102/197/217 101/198/218
f 58/199/219 56/200/220 98/201/221 102/202/222
