# Blender v3.1.2 OBJ File: 'Paredes Monasterio Plano .blend'
# www.blender.org
mtllib Janela_MESH.mtl
o Janela.004_Cylinder.006
v -2.041329 1.416608 3.757372
v -2.163426 1.420947 3.690455
v -2.163426 0.673343 4.606517
v -2.041329 0.761680 4.539600
v -2.163426 0.673343 3.690455
v -2.041329 0.761680 3.757372
v -2.041329 1.416608 4.539600
v -2.163426 1.420947 4.606517
v -2.041329 1.521592 4.531768
v -2.163426 1.538909 4.597716
v -2.041329 1.618368 4.509530
v -2.163426 1.652337 4.571652
v -2.041329 1.707558 4.473417
v -2.163426 1.756873 4.529325
v -2.041329 1.785734 4.424817
v -2.163426 1.848500 4.472363
v -2.041329 1.849890 4.365598
v -2.163426 1.923696 4.402955
v -2.041329 1.897564 4.298035
v -2.163426 1.979572 4.323767
v -2.041329 1.926920 4.224726
v -2.163426 2.013980 4.237844
v -2.041329 1.936833 4.148486
v -2.163426 2.025598 4.148486
v -2.041329 1.926920 4.072247
v -2.163426 2.013980 4.059129
v -2.041329 1.897563 3.998937
v -2.163426 1.979572 3.973205
v -2.041329 1.849891 3.931375
v -2.163426 1.923696 3.894018
v -2.041329 1.785734 3.872155
v -2.163426 1.848500 3.824609
v -2.041329 1.707558 3.823556
v -2.163426 1.756873 3.767647
v -2.041329 1.618368 3.787443
v -2.163426 1.652337 3.725320
v -2.041329 1.521592 3.765204
v -2.163426 1.538909 3.699256
v -2.041329 0.673343 3.690455
v -2.041329 1.420947 3.690455
v -2.041329 1.420947 4.606517
v -2.041329 0.673343 4.606517
v -2.041329 1.538909 4.597716
v -2.041329 1.652337 4.571652
v -2.041329 1.756873 4.529325
v -2.041329 1.848500 4.472363
v -2.041329 1.923696 4.402955
v -2.041329 1.979572 4.323767
v -2.041329 2.013980 4.237844
v -2.041329 2.025598 4.148486
v -2.041329 2.013980 4.059129
v -2.041329 1.979572 3.973205
v -2.041329 1.923696 3.894018
v -2.041329 1.848500 3.824609
v -2.041329 1.756873 3.767647
v -2.041329 1.652337 3.725320
v -2.041329 1.538909 3.699256
v -2.078416 0.832794 3.811241
v -2.078416 1.413114 3.811241
v -2.078416 1.413114 4.485731
v -2.078416 0.832794 4.485731
v -2.078416 1.507651 4.478678
v -2.078416 1.591022 4.459520
v -2.078416 1.667858 4.428409
v -2.078416 1.735205 4.386541
v -2.078416 1.790476 4.335525
v -2.078416 1.831545 4.277320
v -2.078416 1.856836 4.214165
v -2.078416 1.865375 4.148486
v -2.078416 1.856836 4.082807
v -2.078416 1.831545 4.019652
v -2.078416 1.790476 3.961448
v -2.078416 1.735205 3.910431
v -2.078416 1.667858 3.868563
v -2.078416 1.591022 3.837452
v -2.078416 1.507651 3.818295
v -2.078416 0.761680 3.757372
v -2.078416 1.416608 3.757372
v -2.078416 1.416608 4.539600
v -2.078416 0.761680 4.539600
v -2.078416 1.521592 4.531768
v -2.078416 1.618368 4.509530
v -2.078416 1.707558 4.473417
v -2.078416 1.785734 4.424817
v -2.078416 1.849890 4.365598
v -2.078416 1.897564 4.298035
v -2.078416 1.926920 4.224726
v -2.078416 1.936833 4.148486
v -2.078416 1.926920 4.072247
v -2.078416 1.897563 3.998937
v -2.078416 1.849891 3.931375
v -2.078416 1.785734 3.872155
v -2.078416 1.707558 3.823556
v -2.078416 1.618368 3.787443
v -2.078416 1.521592 3.765204
v -2.127272 0.832794 3.811241
v -2.127272 1.413114 3.811241
v -2.127272 1.413114 4.485731
v -2.127272 0.832794 4.485731
v -2.127272 1.507651 4.478678
v -2.127272 1.591022 4.459520
v -2.127272 1.667858 4.428409
v -2.127272 1.735205 4.386541
v -2.127272 1.790476 4.335525
v -2.127272 1.831545 4.277320
v -2.127272 1.856836 4.214165
v -2.127272 1.865375 4.148486
v -2.127272 1.856836 4.082807
v -2.127272 1.831545 4.019652
v -2.127272 1.790476 3.961448
v -2.127272 1.735205 3.910431
v -2.127272 1.667858 3.868563
v -2.127272 1.591022 3.837452
v -2.127272 1.507651 3.818295
vt 0.467006 0.323052
vt 0.288901 0.323052
vt 0.288901 0.611953
vt 0.467006 0.611953
vt 0.664414 0.611953
vt 0.842519 0.611953
vt 0.842519 0.323052
vt 0.664414 0.323052
vt 0.636519 0.323052
vt 0.636519 0.611953
vt 0.610109 0.323052
vt 0.610109 0.611953
vt 0.586200 0.323052
vt 0.586200 0.611953
vt 0.565710 0.323052
vt 0.565710 0.611953
vt 0.204284 0.611953
vt 0.182394 0.611953
vt 0.182394 0.900854
vt 0.204284 0.900854
vt 0.157421 0.611953
vt 0.157421 0.900854
vt 0.130323 0.611953
vt 0.130323 0.900854
vt 0.102142 0.611953
vt 0.102142 0.900854
vt 0.073961 0.611953
vt 0.073961 0.900854
vt 0.046863 0.611953
vt 0.046863 0.900854
vt 0.021890 0.611953
vt 0.021890 0.900854
vt 0.000000 0.611953
vt 0.000000 0.900854
vt 0.565710 0.323052
vt 0.545220 0.323052
vt 0.545220 0.611953
vt 0.565710 0.611953
vt 0.521311 0.323052
vt 0.521311 0.611953
vt 0.494901 0.323052
vt 0.494901 0.611953
vt 0.000000 0.611953
vt 0.000000 0.323052
vt 0.930272 0.342819
vt 0.842520 0.342819
vt 0.842520 0.364916
vt 0.930272 0.364916
vt 0.288901 0.323052
vt 0.577801 0.323052
vt 0.577801 0.144450
vt 0.575026 0.116269
vt 0.566806 0.089172
vt 0.553457 0.064198
vt 0.535493 0.042309
vt 0.513603 0.024344
vt 0.488630 0.010996
vt 0.461532 0.002776
vt 0.433351 0.000000
vt 0.405170 0.002776
vt 0.378072 0.010996
vt 0.353099 0.024344
vt 0.331209 0.042309
vt 0.313245 0.064198
vt 0.299896 0.089172
vt 0.291676 0.116269
vt 0.288901 0.144450
vt 0.267797 0.301949
vt 0.288901 0.144450
vt 0.267797 0.145487
vt 0.021104 0.145487
vt 0.000000 0.144450
vt 0.021104 0.301949
vt 0.023574 0.120407
vt 0.002776 0.116269
vt 0.030587 0.097287
vt 0.010996 0.089172
vt 0.041976 0.075979
vt 0.024344 0.064198
vt 0.057303 0.057303
vt 0.042309 0.042309
vt 0.075979 0.041976
vt 0.064198 0.024344
vt 0.097287 0.030587
vt 0.089172 0.010996
vt 0.120407 0.023574
vt 0.116269 0.002776
vt 0.144450 0.021206
vt 0.144450 0.000000
vt 0.168494 0.023574
vt 0.172631 0.002776
vt 0.191614 0.030587
vt 0.199729 0.010996
vt 0.212921 0.041976
vt 0.224703 0.024344
vt 0.231597 0.057303
vt 0.246592 0.042309
vt 0.246924 0.075979
vt 0.264556 0.064198
vt 0.258313 0.097287
vt 0.277905 0.089172
vt 0.265327 0.120407
vt 0.286125 0.116269
vt 0.732819 0.812242
vt 0.617217 0.812242
vt 0.617217 0.829270
vt 0.732819 0.829270
vt 1.000000 0.039983
vt 0.912247 0.039983
vt 0.912247 0.063103
vt 1.000000 0.063103
vt 0.936173 0.611953
vt 0.848420 0.611953
vt 0.848420 0.767979
vt 0.936173 0.767979
vt 0.842519 0.388494
vt 0.930272 0.388494
vt 0.912247 0.087147
vt 1.000000 0.087147
vt 0.848420 0.793174
vt 0.936173 0.793174
vt 0.842519 0.413689
vt 0.930272 0.413689
vt 0.912247 0.111191
vt 1.000000 0.111191
vt 0.848420 0.816753
vt 0.936173 0.816752
vt 0.824495 0.246693
vt 0.912247 0.246693
vt 0.912247 0.000000
vt 0.824495 0.000000
vt 0.912247 0.134311
vt 1.000000 0.134311
vt 0.848420 0.838849
vt 0.936173 0.838849
vt 0.912247 0.155618
vt 1.000000 0.155618
vt 0.848420 0.858616
vt 0.936173 0.858616
vt 0.912247 0.174294
vt 1.000000 0.174294
vt 1.000000 0.000000
vt 0.912247 0.000000
vt 0.912247 0.018676
vt 1.000000 0.018676
vt 0.930272 0.323052
vt 0.842520 0.323052
vt 0.842520 0.569715
vt 0.930272 0.569715
vt 0.807506 0.263754
vt 0.824495 0.280743
vt 0.824495 0.124281
vt 0.807506 0.125116
vt 0.594790 0.125116
vt 0.577801 0.124281
vt 0.577801 0.280743
vt 0.594790 0.263754
vt 0.597015 0.102531
vt 0.580272 0.099201
vt 0.603057 0.082614
vt 0.587285 0.076081
vt 0.612868 0.064258
vt 0.598674 0.054774
vt 0.626072 0.048169
vt 0.614001 0.036097
vt 0.642161 0.034965
vt 0.632677 0.020770
vt 0.660517 0.025153
vt 0.653984 0.009381
vt 0.680435 0.019111
vt 0.677104 0.002368
vt 0.701148 0.017071
vt 0.701148 0.000000
vt 0.721861 0.019111
vt 0.725192 0.002368
vt 0.741779 0.025153
vt 0.748312 0.009381
vt 0.760135 0.034965
vt 0.769619 0.020770
vt 0.776224 0.048169
vt 0.788295 0.036097
vt 0.789428 0.064258
vt 0.803622 0.054774
vt 0.799239 0.082614
vt 0.815011 0.076081
vt 0.805281 0.102531
vt 0.822024 0.099201
vt 0.501616 0.719998
vt 0.499392 0.697413
vt 0.493350 0.677496
vt 0.483538 0.659140
vt 0.470334 0.643051
vt 0.454245 0.629847
vt 0.435889 0.620035
vt 0.415972 0.613993
vt 0.395258 0.611953
vt 0.374545 0.613993
vt 0.354628 0.620035
vt 0.336272 0.629847
vt 0.320182 0.643051
vt 0.306978 0.659140
vt 0.297167 0.677496
vt 0.291125 0.697413
vt 0.288901 0.719998
vt 0.288901 0.858636
vt 0.501616 0.858636
vt 0.848420 0.958731
vt 0.732819 0.958731
vt 0.732819 0.974820
vt 0.848420 0.974820
vt 0.848420 0.824668
vt 0.732819 0.824668
vt 0.732819 0.840757
vt 0.848420 0.840757
vt 0.617217 0.611953
vt 0.501616 0.611953
vt 0.501616 0.628982
vt 0.617217 0.628982
vt 0.732819 0.859113
vt 0.848420 0.859113
vt 0.617217 0.691018
vt 0.501616 0.691018
vt 0.501616 0.829270
vt 0.617217 0.829270
vt 0.501616 0.648018
vt 0.617217 0.648018
vt 0.732819 0.879031
vt 0.848420 0.879031
vt 0.732819 0.611953
vt 0.617217 0.611953
vt 0.617217 0.750205
vt 0.732819 0.750205
vt 0.501616 0.668330
vt 0.617217 0.668330
vt 0.732819 0.899744
vt 0.848420 0.899744
vt 0.617217 0.772893
vt 0.732819 0.772893
vt 0.732819 0.920458
vt 0.848420 0.920458
vt 0.617217 0.793205
vt 0.732819 0.793205
vt 0.848420 0.611953
vt 0.732819 0.611953
vt 0.732819 0.824668
vt 0.848420 0.824668
vt 0.732819 0.940375
vt 0.848420 0.940375
vn 0.0000 0.0000 -1.0000
vn 0.0000 0.0000 1.0000
vn 0.0000 0.0744 0.9972
vn 0.0000 0.2240 0.9746
vn 0.0000 0.3753 0.9269
vn 0.0000 0.5280 0.8493
vn 0.0000 0.6783 0.7348
vn 0.0000 0.8171 0.5765
vn 0.0000 0.9283 0.3718
vn 0.0000 0.9917 0.1289
vn 0.0000 0.9917 -0.1289
vn 0.0000 0.9283 -0.3718
vn 0.0000 0.8171 -0.5765
vn 0.0000 0.6783 -0.7348
vn 0.0000 0.5280 -0.8493
vn 0.0000 0.3753 -0.9269
vn 0.0000 0.2240 -0.9746
vn 0.0000 0.0744 -0.9972
vn 0.0000 -1.0000 0.0000
vn 0.0000 -0.3753 0.9269
vn -1.0000 0.0000 0.0000
vn 1.0000 0.0000 0.0000
vn 0.0000 -0.5280 -0.8493
vn 0.0000 -0.9283 -0.3718
vn 0.0000 -0.2240 0.9746
vn 0.0000 -0.9917 -0.1289
vn 0.0000 -0.0744 -0.9972
vn 0.0000 -0.0744 0.9972
vn 0.0000 -0.9917 0.1289
vn 0.0000 -0.2240 -0.9746
vn 0.0000 1.0000 -0.0000
vn 0.0000 -0.9283 0.3718
vn 0.0000 -0.3753 -0.9269
vn 0.0000 -0.8171 0.5765
vn 0.0000 -0.6783 0.7348
vn 0.0000 -0.6783 -0.7348
vn 0.0000 -0.5280 0.8493
vn 0.0000 -0.8171 -0.5765
usemtl Material.016
s off
f 40/1/1 39/2/1 5/3/1 2/4/1
f 8/5/2 3/6/2 42/7/2 41/8/2
f 41/8/3 43/9/3 10/10/3 8/5/3
f 43/9/4 44/11/4 12/12/4 10/10/4
f 44/11/5 45/13/5 14/14/5 12/12/5
f 45/13/6 46/15/6 16/16/6 14/14/6
f 46/17/7 47/18/7 18/19/7 16/20/7
f 47/18/8 48/21/8 20/22/8 18/19/8
f 48/21/9 49/23/9 22/24/9 20/22/9
f 49/23/10 50/25/10 24/26/10 22/24/10
f 50/25/11 51/27/11 26/28/11 24/26/11
f 51/27/12 52/29/12 28/30/12 26/28/12
f 52/29/13 53/31/13 30/32/13 28/30/13
f 53/31/14 54/33/14 32/34/14 30/32/14
f 54/35/15 55/36/15 34/37/15 32/38/15
f 55/36/16 56/39/16 36/40/16 34/37/16
f 56/39/17 57/41/17 38/42/17 36/40/17
f 57/41/18 40/1/18 2/4/18 38/42/18
f 3/43/19 5/3/19 39/2/19 42/44/19
f 33/45/20 93/46/20 94/47/20 35/48/20
f 5/49/21 3/50/21 8/51/21 10/52/21 12/53/21 14/54/21 16/55/21 18/56/21 20/57/21 22/58/21 24/59/21 26/60/21 28/61/21 30/62/21 32/63/21 34/64/21 36/65/21 38/66/21 2/67/21
f 6/68/22 39/2/22 40/69/22 1/70/22
f 7/71/22 41/72/22 42/44/22 4/73/22
f 9/74/22 43/75/22 41/72/22 7/71/22
f 11/76/22 44/77/22 43/75/22 9/74/22
f 13/78/22 45/79/22 44/77/22 11/76/22
f 15/80/22 46/81/22 45/79/22 13/78/22
f 17/82/22 47/83/22 46/81/22 15/80/22
f 19/84/22 48/85/22 47/83/22 17/82/22
f 21/86/22 49/87/22 48/85/22 19/84/22
f 23/88/22 50/89/22 49/87/22 21/86/22
f 25/90/22 51/91/22 50/89/22 23/88/22
f 27/92/22 52/93/22 51/91/22 25/90/22
f 29/94/22 53/95/22 52/93/22 27/92/22
f 31/96/22 54/97/22 53/95/22 29/94/22
f 33/98/22 55/99/22 54/97/22 31/96/22
f 35/100/22 56/101/22 55/99/22 33/98/22
f 37/102/22 57/103/22 56/101/22 35/100/22
f 1/70/22 40/69/22 57/103/22 37/102/22
f 4/73/22 42/44/22 39/2/22 6/68/22
f 64/104/23 102/105/23 103/106/23 65/107/23
f 19/108/24 86/109/24 87/110/24 21/111/24
f 4/112/1 80/113/1 79/114/1 7/115/1
f 35/48/25 94/47/25 95/116/25 37/117/25
f 21/111/26 87/110/26 88/118/26 23/119/26
f 7/115/27 79/114/27 81/120/27 9/121/27
f 37/117/28 95/116/28 78/122/28 1/123/28
f 23/119/29 88/118/29 89/124/29 25/125/29
f 9/121/30 81/120/30 82/126/30 11/127/30
f 6/128/31 77/129/31 80/130/31 4/131/31
f 25/125/32 89/124/32 90/132/32 27/133/32
f 11/127/33 82/126/33 83/134/33 13/135/33
f 27/133/34 90/132/34 91/136/34 29/137/34
f 13/135/23 83/134/23 84/138/23 15/139/23
f 29/137/35 91/136/35 92/140/35 31/141/35
f 15/142/36 84/143/36 85/144/36 17/145/36
f 31/146/37 92/147/37 93/46/37 33/45/37
f 17/145/38 85/144/38 86/109/38 19/108/38
f 1/123/2 78/122/2 77/148/2 6/149/2
f 58/150/22 77/151/22 78/152/22 59/153/22
f 60/154/22 79/155/22 80/156/22 61/157/22
f 62/158/22 81/159/22 79/155/22 60/154/22
f 63/160/22 82/161/22 81/159/22 62/158/22
f 64/162/22 83/163/22 82/161/22 63/160/22
f 65/164/22 84/165/22 83/163/22 64/162/22
f 66/166/22 85/167/22 84/165/22 65/164/22
f 67/168/22 86/169/22 85/167/22 66/166/22
f 68/170/22 87/171/22 86/169/22 67/168/22
f 69/172/22 88/173/22 87/171/22 68/170/22
f 70/174/22 89/175/22 88/173/22 69/172/22
f 71/176/22 90/177/22 89/175/22 70/174/22
f 72/178/22 91/179/22 90/177/22 71/176/22
f 73/180/22 92/181/22 91/179/22 72/178/22
f 74/182/22 93/183/22 92/181/22 73/180/22
f 75/184/22 94/185/22 93/183/22 74/182/22
f 76/186/22 95/187/22 94/185/22 75/184/22
f 59/153/22 78/152/22 95/187/22 76/186/22
f 61/157/22 80/156/22 77/151/22 58/150/22
f 97/188/22 114/189/22 113/190/22 112/191/22 111/192/22 110/193/22 109/194/22 108/195/22 107/196/22 106/197/22 105/198/22 104/199/22 103/200/22 102/201/22 101/202/22 100/203/22 98/204/22 99/205/22 96/206/22
f 72/207/35 110/208/35 111/209/35 73/210/35
f 65/211/36 103/212/36 104/213/36 66/214/36
f 73/215/37 111/216/37 112/217/37 74/218/37
f 66/214/38 104/213/38 105/219/38 67/220/38
f 59/221/2 97/222/2 96/223/2 58/224/2
f 74/218/20 112/217/20 113/225/20 75/226/20
f 67/220/24 105/219/24 106/227/24 68/228/24
f 61/229/1 99/230/1 98/231/1 60/232/1
f 75/226/25 113/225/25 114/233/25 76/234/25
f 68/228/26 106/227/26 107/235/26 69/236/26
f 60/232/27 98/231/27 100/237/27 62/238/27
f 76/234/28 114/233/28 97/222/28 59/221/28
f 69/236/29 107/235/29 108/239/29 70/240/29
f 62/238/30 100/237/30 101/241/30 63/242/30
f 58/243/31 96/244/31 99/245/31 61/246/31
f 70/240/32 108/239/32 109/247/32 71/248/32
f 63/242/33 101/241/33 102/105/33 64/104/33
f 71/248/34 109/247/34 110/208/34 72/207/34
