# This file uses meters as units for non-parametric coordinates.

mtllib LIVRO_Fechado_MESH.mtl
g default
v -718.061401 66.417618 -1820.112305
v -756.306396 66.417618 -1820.112305
v -756.306396 80.945328 -1820.112305
v -718.061401 80.945328 -1820.112305
v -756.306396 69.323647 -1820.112305
v -756.306396 78.039299 -1820.112305
v -756.306396 78.039299 -1781.399170
v -756.306396 69.323647 -1781.399170
v -718.061401 78.039299 -1781.399170
v -718.061401 69.323647 -1781.399170
v -718.061401 78.039299 -1820.112305
v -718.061401 69.323647 -1820.112305
v -718.061401 66.417618 -1816.595581
v -718.061401 66.417618 -1786.621826
v -718.061401 69.323647 -1786.621826
v -718.061401 69.323647 -1816.595581
v -718.061401 78.039299 -1786.621826
v -718.061401 78.039299 -1816.595581
v -718.061401 80.945328 -1786.621826
v -718.061401 80.945328 -1816.595581
v -756.306396 80.945328 -1786.621826
v -756.306396 80.945328 -1816.595581
v -756.306396 78.039299 -1786.621826
v -756.306396 78.039299 -1816.595581
v -756.306396 69.323647 -1786.621826
v -756.306396 69.323647 -1816.595581
v -756.306396 66.417618 -1786.621826
v -756.306396 66.417618 -1816.595581
v -754.764832 69.191467 -1818.406250
v -754.764832 78.171478 -1818.406250
v -719.603027 78.171471 -1818.406250
v -719.603027 69.191475 -1818.406250
v -719.603027 69.191475 -1816.221436
v -719.603027 69.191475 -1787.115601
v -719.603027 78.171471 -1816.221436
v -719.603027 78.171471 -1787.115601
v -754.764832 78.171478 -1816.221436
v -754.764832 78.171478 -1787.115601
v -754.764832 69.191467 -1816.221436
v -754.764832 69.191467 -1787.115601
v -718.061401 66.417618 -1784.152588
v -718.061401 67.289291 -1782.401733
v -756.306396 66.417618 -1784.152588
v -756.306396 67.289291 -1782.401733
v -756.306396 80.945328 -1784.152588
v -756.306396 80.073685 -1782.401733
v -718.061401 80.945328 -1784.152588
v -718.061401 80.073685 -1782.401733
v -756.306396 71.415627 -1781.399170
v -756.306396 75.947418 -1781.399170
v -718.061401 75.947418 -1781.399170
v -718.061401 71.415627 -1781.399170
v -718.061401 75.947418 -1786.621826
v -718.061401 71.415627 -1786.621826
v -719.603027 75.947418 -1787.115601
v -719.603027 71.415627 -1787.115601
v -719.603027 75.947418 -1816.221436
v -719.603027 71.415627 -1816.221436
v -719.603027 75.947418 -1817.598267
v -719.603027 71.415627 -1817.598267
v -754.764832 75.947418 -1817.598267
v -754.764832 71.415627 -1817.598267
v -754.764832 75.947418 -1816.221436
v -754.764832 71.415627 -1816.221436
v -754.764832 75.947418 -1787.115601
v -754.764832 71.415627 -1787.115601
v -756.306396 75.947418 -1786.621826
v -756.306396 71.415627 -1786.621826
vt 0.332953 0.261372
vt 0.189790 0.022743
vt 0.142058 0.022743
vt 0.189790 0.261372
vt 0.142058 0.261372
vt 0.332953 0.022743
vt 0.403365 0.022743
vt 0.596635 0.977257
vt 0.619314 0.452267
vt 0.380686 0.929524
vt 0.403365 0.977257
vt 0.380686 0.977257
vt 0.403365 0.929524
vt 0.380686 0.786361
vt 0.380686 0.738628
vt 0.403365 0.786361
vt 0.380686 0.500000
vt 0.403365 0.738628
vt 0.380686 0.452267
vt 0.403365 0.500000
vt 0.380686 0.309105
vt 0.403365 0.452267
vt 0.380686 0.261372
vt 0.403365 0.309105
vt 0.380686 0.022743
vt 0.403365 0.261372
vt 0.189790 0.261372
vt 0.332953 0.022743
vt 0.380686 0.786361
vt 0.380686 0.309105
vt 0.619314 0.929524
vt 0.619314 0.962938
vt 0.612592 0.977257
vt 0.596635 0.261372
vt 0.619314 0.275690
vt 0.619314 0.485682
vt 0.596635 0.738628
vt 0.612592 0.738628
vt 0.619314 0.752947
vt 0.596635 0.022743
vt 0.612592 0.022743
vt 0.633633 0.261372
vt 0.667047 0.261372
vt 0.596635 0.500000
vt 0.612592 0.500000
vt 0.810210 0.022743
vt 0.843624 0.022743
vt 0.633634 0.022743
vt 0.612592 0.261372
vt 0.857942 0.261372
vt 0.843624 0.261372
vt 0.857942 0.022743
vt 0.619314 0.343467
vt 0.775847 0.261372
vt 0.701410 0.022743
vt 0.619314 0.820724
vt 0.380686 0.894067
vt 0.225248 0.022743
vt 0.261372 0.022743
vt 0.261372 0.261372
vt 0.380686 0.416810
vt 0.225248 0.261372
vt 0.189790 0.022743
vt 0.810210 0.261372
vt 0.775847 0.022743
vt 0.403365 0.821819
vt 0.596635 0.786361
vt 0.403365 0.452267
vt 0.596635 0.416810
vt 0.596635 0.452267
vt 0.619314 0.417904
vt 0.619314 0.786361
vt 0.596635 0.820724
vt 0.403365 0.786361
vt 0.380686 0.821818
vt 0.380686 0.452267
vt 0.403365 0.416810
vt 0.596635 0.786361
vt 0.596635 0.821819
vt 0.596635 0.417904
vt 0.596635 0.452267
vt 0.701410 0.261372
vt 0.667047 0.022743
vt 0.619314 0.895161
vt 0.596635 0.929524
vt 0.596635 0.895161
vt 0.596635 0.929524
vt 0.403365 0.929524
vt 0.596635 0.894066
vt 0.403365 0.894066
vt 0.380686 0.929524
vt 0.332953 0.261372
vt 0.297496 0.261372
vt 0.297496 0.022743
vt 0.380686 0.344562
vt 0.403365 0.309105
vt 0.403365 0.344562
vt 0.596635 0.309105
vt 0.596635 0.309105
vt 0.596635 0.344562
vt 0.596635 0.343467
vt 0.619314 0.309105
vn 0.000000 0.236102 0.971728
vn 0.000000 0.236102 0.971728
vn 0.000000 0.442045 0.896993
vn 0.000000 0.442045 0.896993
vn 0.000000 0.000000 -1.000000
vn 0.000000 0.000000 -1.000000
vn 0.000000 0.000000 -1.000000
vn 0.000000 0.000000 -1.000000
vn 0.000000 -0.442051 0.896990
vn 0.000000 -0.442051 0.896990
vn 0.000000 -0.236098 0.971729
vn 0.000000 -0.236098 0.971729
vn 0.000000 0.000000 -1.000000
vn 0.000000 0.000000 -1.000000
vn 0.000000 0.000000 -1.000000
vn 0.000000 0.000000 -1.000000
vn 0.000000 -1.000000 0.000000
vn 0.000000 -1.000000 0.000000
vn 0.000000 -1.000000 0.000000
vn 0.000000 -1.000000 0.000000
vn 1.000000 -0.000001 0.000000
vn 1.000000 0.000000 0.000000
vn 1.000000 0.000000 0.000000
vn 1.000000 -0.000001 0.000000
vn 1.000000 0.000000 0.000000
vn 1.000000 0.000000 0.000000
vn 1.000000 0.000000 0.000000
vn 1.000000 0.000000 0.000000
vn 0.000000 1.000000 0.000000
vn 0.000000 1.000000 0.000000
vn 0.000000 1.000000 0.000000
vn 0.000000 1.000000 0.000000
vn -1.000000 -0.000001 0.000000
vn -1.000000 0.000000 0.000000
vn -1.000000 0.000000 0.000000
vn -1.000000 -0.000001 0.000000
vn -1.000000 0.000000 0.000000
vn -1.000000 0.000000 0.000000
vn -1.000000 0.000000 0.000000
vn -1.000000 0.000000 0.000000
vn 0.000000 -1.000000 0.000000
vn 0.000000 -1.000000 0.000000
vn 0.000000 1.000000 0.000000
vn 0.000000 1.000000 0.000000
vn -1.000000 -0.000004 0.000000
vn -1.000000 -0.000010 0.000000
vn -1.000000 -0.000010 0.000000
vn 1.000000 0.000000 0.000000
vn 1.000000 0.000000 0.000000
vn 1.000000 0.000000 0.000000
vn -1.000000 0.000000 0.000000
vn -1.000000 0.000000 0.000000
vn -1.000000 0.000000 0.000000
vn 1.000000 -0.000004 0.000000
vn 1.000000 -0.000010 0.000000
vn 1.000000 -0.000010 0.000000
vn 1.000000 0.000000 0.000000
vn 1.000000 0.000000 0.000000
vn 1.000000 0.000000 0.000000
vn 1.000000 0.000000 0.000000
vn 0.000000 1.000000 0.000000
vn 0.000000 1.000000 0.000000
vn -1.000000 0.000000 0.000000
vn -1.000000 0.000000 0.000000
vn -1.000000 0.000000 0.000000
vn -1.000000 0.000000 0.000000
vn 0.000000 -1.000000 0.000000
vn 0.000000 -1.000000 0.000000
vn 0.000000 -0.997012 0.077243
vn 0.000000 -0.997012 0.077243
vn 0.000000 -0.997012 0.077243
vn 0.000000 -0.997012 0.077243
vn 0.000000 0.997012 0.077248
vn 0.000000 0.997012 0.077248
vn 0.000000 0.997012 0.077248
vn 0.000000 0.997012 0.077248
vn -0.085423 0.996345 0.000000
vn -0.085423 0.996345 0.000000
vn -0.085423 0.996345 0.000000
vn -0.085423 0.996345 0.000000
vn -0.085421 -0.996345 0.000000
vn -0.085421 -0.996345 0.000000
vn -0.085421 -0.996345 0.000000
vn -0.085421 -0.996345 0.000000
vn 0.085430 -0.996344 0.000000
vn 0.085430 -0.996344 0.000000
vn 0.085430 -0.996344 0.000000
vn 0.085430 -0.996344 0.000000
vn 0.085432 0.996344 0.000000
vn 0.085432 0.996344 0.000000
vn 0.085432 0.996344 0.000000
vn 0.085432 0.996344 0.000000
vn -0.085422 0.996345 0.000000
vn -0.085422 0.996345 0.000000
vn -0.085422 0.996345 0.000000
vn -0.085422 0.996345 0.000000
vn -0.085420 -0.996345 0.000000
vn -0.085420 -0.996345 0.000000
vn -0.085420 -0.996345 0.000000
vn -0.085420 -0.996345 0.000000
vn 0.085435 0.996344 0.000000
vn 0.085435 0.996344 0.000000
vn 0.085435 0.996344 0.000000
vn 0.085435 0.996344 0.000000
vn 0.085434 -0.996344 0.000000
vn 0.085434 -0.996344 0.000000
vn 0.085434 -0.996344 0.000000
vn 0.085434 -0.996344 0.000000
vn 0.000000 -0.895194 0.445678
vn 0.000000 -0.895194 0.445678
vn 0.000000 -0.895194 0.445678
vn 0.000000 -0.895194 0.445678
vn 0.000000 0.895200 0.445665
vn 0.000000 0.895200 0.445665
vn 0.000000 0.895200 0.445665
vn 0.000000 0.895200 0.445665
vn -1.000000 0.000000 0.000000
vn -1.000000 0.000000 0.000000
vn -1.000000 0.000000 0.000000
vn -1.000000 0.000000 0.000000
vn 0.000000 0.000000 1.000000
vn 0.000000 0.000000 1.000000
vn 0.000000 0.000000 1.000000
vn 0.000000 0.000000 1.000000
vn 1.000000 0.000000 0.000000
vn 1.000000 0.000000 0.000000
vn 1.000000 0.000000 0.000000
vn 1.000000 0.000000 0.000000
vn 0.304989 0.000000 -0.952356
vn 0.305005 0.000000 -0.952351
vn 0.305005 0.000000 -0.952351
vn 0.304989 0.000000 -0.952356
vn 1.000000 0.000000 0.000000
vn 1.000000 0.000000 0.000000
vn 1.000000 0.000000 0.000000
vn 1.000000 0.000000 0.000000
vn 1.000000 0.000000 0.000000
vn 1.000000 0.000000 0.000000
vn 0.000000 -0.118751 -0.992924
vn 0.000000 0.118750 -0.992924
vn 0.000000 0.118750 -0.992924
vn 0.000000 -0.118751 -0.992924
vn -1.000000 0.000013 0.000000
vn -1.000000 -0.000013 0.000000
vn -1.000000 -0.000001 0.000000
vn -1.000000 0.000001 0.000000
vn -1.000000 0.000000 0.000000
vn -1.000000 0.000000 0.000000
vn -0.304999 0.000000 -0.952353
vn -0.304998 0.000000 -0.952353
vn -0.304998 0.000000 -0.952353
vn -0.304999 0.000000 -0.952353
vn 0.000000 -0.341457 -0.939897
vn 0.000000 -0.341458 -0.939897
vn 1.000000 0.000000 0.000000
vn 1.000000 0.000000 0.000000
vn -1.000000 0.000000 0.000000
vn -1.000000 0.000002 0.000000
vn 1.000000 0.000000 0.000000
vn -1.000000 0.000031 0.000000
vn 0.305000 0.000000 -0.952353
vn 0.305000 0.000000 -0.952353
vn -0.305010 0.000000 -0.952349
vn -0.305010 0.000000 -0.952349
vn 0.305050 0.000000 -0.952336
vn 0.305050 0.000000 -0.952336
vn 1.000000 0.000000 0.000000
vn 1.000000 0.000000 0.000000
vn 1.000000 0.000000 0.000000
vn 0.000001 0.341443 -0.939902
vn 0.000001 0.341443 -0.939902
vn -1.000000 -0.000031 0.000000
vn -1.000000 -0.000002 0.000000
vn -1.000000 0.000000 0.000000
vn -0.305004 0.000000 -0.952351
vn -0.305004 0.000000 -0.952351
s 1
g LIVRO_Fechado_MESH
usemtl initialShadingGroup
f 7/64/1 9/46/2 48/47/3 46/51/4
s off
f 4/3/5 11/2/6 6/4/7 3/5/8
s 1
f 44/42/9 42/48/10 10/83/11 8/43/12
s off
f 5/1/13 12/6/14 1/25/15 2/23/16
s 3
f 13/7/17 14/40/18 27/34/19 28/26/20
s 4
f 14/8/21 13/11/22 16/13/23 15/85/24
f 17/78/25 18/16/26 20/18/27 19/37/28
s 6
f 19/37/29 20/18/30 22/20/31 21/44/32
s 7
f 21/44/33 22/20/34 24/22/35 23/70/36
f 25/99/37 26/24/38 28/26/39 27/34/40
s 3
f 27/34/19 14/40/18 41/41/41 43/49/42
s 6
f 19/37/29 21/44/32 45/45/43 47/38/44
s 7
f 21/44/33 23/70/36 7/9/45 46/36/46 45/45/47
s 4
f 17/78/25 19/37/28 47/38/48 48/39/49 9/72/50
s 7
f 25/99/37 27/34/40 43/49/51 44/35/52 8/102/53
s 4
f 14/8/21 15/85/24 10/31/54 42/32/55 41/33/56
f 12/10/57 16/13/23 13/11/22 1/12/58
f 4/15/59 20/18/27 18/16/26 11/14/60
s 6
f 3/17/61 22/20/31 20/18/30 4/15/62
s 7
f 6/19/63 24/22/35 22/20/34 3/17/64
f 2/23/65 28/26/39 26/24/38 5/21/66
s 3
f 1/25/67 13/7/17 28/26/20 2/23/68
s off
f 6/4/69 11/2/70 31/63/71 30/27/72
f 12/6/73 5/1/74 29/92/75 32/28/76
f 15/85/77 16/13/78 33/88/79 34/87/80
f 18/16/81 17/78/82 36/67/83 35/74/84
f 23/70/85 24/22/86 37/68/87 38/81/88
f 26/24/89 25/99/90 40/98/91 39/96/92
f 16/13/93 12/10/94 32/91/95 33/88/96
f 11/14/97 18/16/98 35/74/99 31/29/100
f 5/21/101 26/24/102 39/96/103 29/30/104
f 24/22/105 6/19/106 30/76/107 37/68/108
f 41/41/109 42/48/110 44/42/111 43/49/112
f 45/50/113 46/51/114 48/47/115 47/52/116
s 7
f 49/53/117 50/71/118 67/80/119 68/101/120
s 1
f 50/54/121 49/82/122 52/55/123 51/65/124
s 4
f 51/56/125 52/84/126 54/86/127 53/73/128
s 9
f 53/73/129 54/86/130 56/89/131 55/79/132
s 10
f 55/79/133 56/89/134 58/90/135 57/66/136
f 57/66/136 58/90/135 60/57/137 59/75/138
s 11
f 59/58/139 60/59/140 62/60/141 61/62/142
s 12
f 61/61/143 62/95/144 64/97/145 63/77/146
f 63/77/146 64/97/145 66/100/147 65/69/148
s 13
f 65/69/149 66/100/150 68/101/151 67/80/152
s 11
f 59/58/139 61/62/142 30/27/153 31/63/154
s 1
f 7/64/1 50/54/121 51/65/124 9/46/2
s 10
f 55/79/133 57/66/136 35/74/155 36/67/156
s 12
f 38/81/157 37/68/158 63/77/146 65/69/148
s 7
f 23/70/36 67/80/119 50/71/118 7/9/45
s 4
f 9/72/50 51/56/125 53/73/128 17/78/25
s 10
f 35/74/155 57/66/136 59/75/138 31/29/159
s 12
f 30/76/160 61/61/143 63/77/146 37/68/158
s 9
f 17/78/161 53/73/129 55/79/132 36/67/162
s 13
f 65/69/149 67/80/152 23/70/163 38/81/164
s 1
f 52/55/123 49/82/122 8/43/12 10/83/11
s 4
f 54/86/127 52/84/126 10/31/54 15/85/24
s 9
f 56/89/131 54/86/130 15/85/165 34/87/166
s 10
f 34/87/167 33/88/168 58/90/135 56/89/134
f 60/57/137 58/90/135 33/88/168 32/91/169
s 11
f 29/92/170 62/93/141 60/94/140 32/28/171
s 12
f 64/97/145 62/95/144 29/30/172 39/96/173
f 66/100/147 64/97/145 39/96/173 40/98/174
s 13
f 25/99/175 68/101/151 66/100/150 40/98/176
s 7
f 49/53/117 68/101/120 25/99/37 8/102/53
