# This file uses meters as units for non-parametric coordinates.

mtllib LIVRO_Aberto_MESH.mtl
g default
v -690.281555 69.626373 -1767.154175
v -650.302002 69.626373 -1767.154175
v -690.281555 70.752243 -1767.154175
v -650.302002 70.752243 -1767.154175
v -690.281555 70.752243 -1828.975830
v -650.302002 70.752243 -1828.975830
v -690.281555 69.626373 -1828.975830
v -650.302002 69.626373 -1828.975830
v -690.281555 70.752243 -1795.896362
v -690.281555 70.752243 -1797.342163
v -690.281555 70.752243 -1798.787842
v -690.281555 70.752243 -1800.225098
v -650.302002 70.752243 -1800.225098
v -650.302002 70.752243 -1798.787842
v -650.302002 70.752243 -1797.342163
v -650.302002 70.752243 -1795.896362
v -650.302002 69.626373 -1800.225098
v -650.302002 69.926437 -1798.787842
v -650.302002 69.926437 -1797.342163
v -650.302002 69.626373 -1795.896362
v -690.281555 69.626373 -1800.225098
v -690.281555 69.926437 -1798.787842
v -690.281555 69.926437 -1797.342163
v -690.281555 69.626373 -1795.896362
v -690.281555 70.752243 -1799.501953
v -690.281555 69.798805 -1799.501953
v -650.302002 69.798805 -1799.501953
v -650.302002 70.752243 -1799.501953
v -690.281555 70.752243 -1796.619263
v -690.281555 69.798805 -1796.619263
v -650.302002 69.798805 -1796.619263
v -650.302002 70.752243 -1796.619263
v -690.281555 70.752243 -1798.064941
v -690.281555 70.015007 -1798.064941
v -650.302002 70.015007 -1798.064941
v -650.302002 70.752243 -1798.064941
v -688.587280 70.722801 -1769.520630
v -651.974854 70.722801 -1769.520630
v -688.587280 72.808533 -1772.360474
v -651.974854 72.808533 -1772.360474
v -688.587280 72.808533 -1824.079346
v -651.974854 72.808533 -1824.079346
v -688.587280 70.722801 -1826.927734
v -651.974854 70.722801 -1826.927734
v -688.587280 72.534401 -1775.983276
v -688.587280 73.842239 -1780.432373
v -688.587280 74.363609 -1784.881348
v -688.587280 74.103607 -1789.330444
v -688.587280 73.195068 -1793.779419
v -688.587280 71.888870 -1798.219849
v -688.587280 73.195068 -1802.668945
v -688.587280 74.103607 -1807.117798
v -688.587280 74.363609 -1811.566895
v -688.587280 73.842239 -1816.015991
v -688.587280 72.290367 -1820.456543
v -651.974854 72.290367 -1820.456543
v -651.974854 73.842239 -1816.015991
v -651.974854 74.363609 -1811.566895
v -651.974854 74.103607 -1807.117798
v -651.974854 73.195068 -1802.668945
v -651.974854 71.888870 -1798.219849
v -651.974854 73.195068 -1793.779419
v -651.974854 74.103607 -1789.330444
v -651.974854 74.363609 -1784.881348
v -651.974854 73.842239 -1780.432373
v -651.974854 72.534401 -1775.983276
v -651.974854 70.722801 -1820.456543
v -651.974854 70.722801 -1816.015991
v -651.974854 70.722801 -1811.566895
v -651.974854 70.722801 -1807.117798
v -651.974854 70.722801 -1802.668945
v -651.974854 70.722801 -1798.219849
v -651.974854 70.722801 -1793.779419
v -651.974854 70.722801 -1789.330444
v -651.974854 70.722801 -1784.881348
v -651.974854 70.722801 -1780.432373
v -651.974854 70.722801 -1775.983276
v -688.587280 70.722801 -1820.456543
v -688.587280 70.722801 -1816.015991
v -688.587280 70.722801 -1811.566895
v -688.587280 70.722801 -1807.117798
v -688.587280 70.722801 -1802.668945
v -688.587280 70.722801 -1798.219849
v -688.587280 70.722801 -1793.779419
v -688.587280 70.722801 -1789.330444
v -688.587280 70.722801 -1784.881348
v -688.587280 70.722801 -1780.432373
v -688.587280 70.722801 -1775.983276
v -688.587280 72.936348 -1778.212158
v -688.587280 70.722801 -1778.212158
v -651.974854 70.722801 -1778.212158
v -651.974854 72.936348 -1778.212158
v -688.587280 72.936348 -1818.236206
v -688.587280 70.722801 -1818.236206
v -651.974854 70.722801 -1818.236206
v -651.974854 72.936348 -1818.236206
v -651.974854 72.671143 -1774.176270
v -688.587280 72.671143 -1774.176270
v -688.587280 70.722801 -1772.756226
v -651.974854 70.722801 -1772.756226
v -651.974854 72.549072 -1822.272339
v -688.587280 72.549072 -1822.272339
v -688.587280 70.722801 -1823.692139
v -651.974854 70.722801 -1823.692139
vt 0.771921 0.741406
vt 0.763952 0.741406
vt 0.763951 0.537893
vt 0.771921 0.537893
vt 0.771921 0.746523
vt 0.765172 0.746523
vt 0.771921 0.751579
vt 0.766076 0.751579
vt 0.771921 0.756696
vt 0.766703 0.756696
vt 0.771921 0.761813
vt 0.766076 0.761813
vt 0.771921 0.766929
vt 0.765172 0.766929
vt 0.771921 0.772046
vt 0.763952 0.772046
vt 0.763952 0.975498
vt 0.771922 0.975498
vt 0.777019 0.975498
vt 0.777019 0.771986
vt 0.784988 0.771986
vt 0.784989 0.975498
vt 0.778239 0.766869
vt 0.784988 0.766869
vt 0.784988 0.761813
vt 0.779143 0.761813
vt 0.779770 0.756696
vt 0.784988 0.756696
vt 0.784988 0.751579
vt 0.779143 0.751579
vt 0.778239 0.746463
vt 0.784988 0.746463
vt 0.784988 0.741346
vt 0.777019 0.741346
vt 0.777018 0.537893
vt 0.784988 0.537893
vt 0.471862 0.766868
vt 0.188878 0.766868
vt 0.188878 0.761812
vt 0.471862 0.761812
vt 0.188878 0.771985
vt 0.471862 0.771985
vt 0.188878 0.756695
vt 0.471862 0.756695
vt 0.471862 0.975490
vt 0.188878 0.975490
vt 0.188878 0.751578
vt 0.471862 0.751578
vt 0.188878 0.746462
vt 0.471862 0.746462
vt 0.188878 0.741346
vt 0.471862 0.741346
vt 0.188878 0.537901
vt 0.471862 0.537901
vt 0.476565 0.537770
vt 0.759380 0.537770
vt 0.759380 0.741154
vt 0.476565 0.741154
vt 0.759380 0.746411
vt 0.476565 0.746411
vt 0.759380 0.751544
vt 0.476565 0.751544
vt 0.759380 0.756696
vt 0.476565 0.756696
vt 0.759380 0.761848
vt 0.476565 0.761848
vt 0.759380 0.767040
vt 0.476565 0.767040
vt 0.759380 0.772297
vt 0.476565 0.772297
vt 0.759380 0.975620
vt 0.476565 0.975620
vt 0.790086 0.820886
vt 0.790086 0.537901
vt 0.798055 0.537901
vt 0.798056 0.820886
vt 0.803153 0.820886
vt 0.803153 0.537901
vt 0.811122 0.537901
vt 0.811122 0.820886
vt 0.144978 0.009729
vt 0.463298 0.009729
vt 0.463298 0.034420
vt 0.144978 0.034420
vt 0.144978 0.484081
vt 0.463298 0.484081
vt 0.463298 0.508846
vt 0.144978 0.508846
vt 0.463298 0.433279
vt 0.144978 0.433279
vt 0.144978 0.413976
vt 0.463298 0.413976
vt 0.144978 0.375294
vt 0.463298 0.375294
vt 0.144978 0.336613
vt 0.463298 0.336613
vt 0.144978 0.297933
vt 0.463298 0.297933
vt 0.144978 0.259250
vt 0.463298 0.259250
vt 0.144978 0.220644
vt 0.463298 0.220644
vt 0.144978 0.181962
vt 0.463298 0.181962
vt 0.144978 0.143281
vt 0.463298 0.143281
vt 0.144978 0.104600
vt 0.463298 0.104600
vt 0.463298 0.085296
vt 0.144978 0.085296
vt 0.144978 0.065918
vt 0.463298 0.065918
vt 0.144978 0.452582
vt 0.463298 0.452582
vt 0.463298 0.468369
vt 0.144978 0.468369
vt 0.474222 0.037861
vt 0.792542 0.037861
vt 0.792542 0.065993
vt 0.474222 0.065993
vt 0.824167 0.065993
vt 0.810539 0.065993
vt 0.810539 0.037860
vt 0.826416 0.050205
vt 0.865456 0.468369
vt 0.849578 0.480714
vt 0.849578 0.452582
vt 0.863206 0.452582
vt 0.463298 0.050206
vt 0.144978 0.050206
vt 0.810539 0.508845
vt 0.810539 0.480714
vt 0.827478 0.468369
vt 0.828672 0.484155
vt 0.474222 0.480714
vt 0.792542 0.480714
vt 0.792542 0.508846
vt 0.474222 0.508846
vt 0.866517 0.050205
vt 0.849578 0.037860
vt 0.849578 0.009729
vt 0.867711 0.034419
vt 0.810539 0.433279
vt 0.829783 0.433279
vt 0.826288 0.452657
vt 0.810539 0.452657
vt 0.842193 0.375294
vt 0.837660 0.413974
vt 0.810539 0.413974
vt 0.810539 0.375294
vt 0.839933 0.336612
vt 0.810539 0.336612
vt 0.832033 0.297931
vt 0.810539 0.297931
vt 0.820676 0.259325
vt 0.810539 0.259325
vt 0.832033 0.220642
vt 0.810539 0.220642
vt 0.839933 0.181962
vt 0.810539 0.181962
vt 0.842193 0.143280
vt 0.810539 0.143280
vt 0.810539 0.085296
vt 0.829783 0.085296
vt 0.837660 0.104599
vt 0.810539 0.104599
vt 0.474222 0.433279
vt 0.792542 0.433279
vt 0.792542 0.452657
vt 0.474222 0.452657
vt 0.792542 0.375294
vt 0.792542 0.413975
vt 0.474222 0.413975
vt 0.474222 0.375294
vt 0.792542 0.336613
vt 0.474222 0.336613
vt 0.792542 0.297931
vt 0.474222 0.297931
vt 0.792542 0.259325
vt 0.474222 0.259325
vt 0.792542 0.220643
vt 0.474222 0.220643
vt 0.792542 0.181962
vt 0.474222 0.181962
vt 0.792542 0.143281
vt 0.474222 0.143281
vt 0.474222 0.085296
vt 0.792542 0.085296
vt 0.792542 0.104599
vt 0.474222 0.104599
vt 0.865328 0.065917
vt 0.868822 0.085296
vt 0.849578 0.085296
vt 0.849578 0.065917
vt 0.876699 0.104600
vt 0.881232 0.143280
vt 0.849578 0.143280
vt 0.849578 0.104600
vt 0.878972 0.181962
vt 0.849578 0.181962
vt 0.871072 0.220643
vt 0.849578 0.220643
vt 0.859715 0.259249
vt 0.849578 0.259249
vt 0.871072 0.297932
vt 0.849578 0.297932
vt 0.878972 0.336612
vt 0.849578 0.336612
vt 0.881232 0.375294
vt 0.849578 0.375294
vt 0.876699 0.413976
vt 0.849578 0.413976
vt 0.868822 0.433279
vt 0.849578 0.433279
vt 0.849578 0.508845
vt 0.867711 0.484081
vt 0.474222 0.009729
vt 0.792542 0.009729
vt 0.810539 0.009729
vt 0.828672 0.034493
vn 0.000000 0.000000 1.000000
vn 0.000000 0.000000 1.000000
vn 0.000000 0.000000 1.000000
vn 0.000000 0.000000 1.000000
vn 0.000000 0.000000 -1.000000
vn 0.000000 0.000000 -1.000000
vn 0.000000 0.000000 -1.000000
vn 0.000000 0.000000 -1.000000
vn 0.000000 1.000000 0.000000
vn 0.000000 1.000000 0.000000
vn 0.000000 1.000000 0.000000
vn 0.000000 1.000000 0.000000
vn 0.000000 1.000000 0.000000
vn 0.000000 1.000000 0.000000
vn 0.000000 1.000000 0.000000
vn 0.000000 1.000000 0.000000
vn 0.000000 1.000000 0.000000
vn 0.000000 1.000000 0.000000
vn 0.000000 1.000000 0.000000
vn 0.000000 1.000000 0.000000
vn 0.000000 1.000000 0.000000
vn 0.000000 1.000000 0.000000
vn 0.000000 1.000000 0.000000
vn 0.000000 1.000000 0.000000
vn 0.000000 -1.000000 0.000000
vn 0.000000 -1.000000 0.000000
vn 0.000000 -0.999983 0.005850
vn 0.000000 -0.999983 0.005850
vn 1.000000 0.000000 0.000000
vn 1.000000 0.000000 0.000000
vn 1.000000 0.000000 0.000000
vn 1.000000 0.000000 0.000000
vn -1.000000 0.000000 0.000000
vn -1.000000 0.000000 0.000000
vn -1.000000 0.000000 0.000000
vn -1.000000 0.000000 0.000000
vn 0.000000 1.000000 0.000000
vn 0.000000 1.000000 0.000000
vn 1.000000 0.000000 0.000000
vn 1.000000 0.000000 0.000000
vn 1.000000 0.000000 0.000000
vn 1.000000 0.000000 0.000000
vn 0.000000 -0.999983 -0.005852
vn 0.000000 -0.999983 -0.005852
vn 0.000000 -1.000000 0.000000
vn 0.000000 -1.000000 0.000000
vn -1.000000 0.000000 0.000000
vn -1.000000 0.000000 0.000000
vn -1.000000 0.000000 0.000000
vn -1.000000 0.000000 0.000000
vn 1.000000 0.000000 0.000000
vn 1.000000 0.000000 0.000000
vn 1.000000 0.000000 0.000000
vn 1.000000 0.000000 0.000000
vn 1.000000 0.000000 0.000000
vn 1.000000 0.000000 0.000000
vn 1.000000 0.000000 0.000000
vn 1.000000 0.000000 0.000000
vn 1.000000 0.000000 0.000000
vn 1.000000 0.000000 0.000000
vn 0.000000 -0.979135 -0.203210
vn 0.000000 -0.979135 -0.203210
vn 0.000000 -0.978894 0.204368
vn 0.000000 -0.978894 0.204368
vn 0.000000 -0.988871 0.148776
vn 0.000000 -0.988871 0.148776
vn 0.000000 -1.000000 0.000000
vn 0.000000 -1.000000 0.000000
vn 0.000000 -0.989002 -0.147904
vn 0.000000 -0.989002 -0.147904
vn -1.000000 0.000000 0.000000
vn -1.000000 0.000000 0.000000
vn -1.000000 0.000000 0.000000
vn -1.000000 0.000000 0.000000
vn -1.000000 0.000000 0.000000
vn -1.000000 0.000000 0.000000
vn -1.000000 0.000000 0.000000
vn -1.000000 0.000000 0.000000
vn -1.000000 0.000000 0.000000
vn -1.000000 0.000000 0.000000
vn 0.000000 0.805975 0.591950
vn 0.000000 0.805975 0.591950
vn 0.000000 0.922478 0.386049
vn 0.000000 0.922478 0.386049
vn 0.000000 0.930931 -0.365195
vn 0.000000 0.930931 -0.365195
vn 0.000000 0.806823 -0.590794
vn 0.000000 0.806823 -0.590794
vn 0.000000 0.944012 -0.329912
vn 0.000000 0.944012 -0.329912
vn 0.000000 0.977859 -0.209266
vn 0.000000 0.977859 -0.209266
vn 0.000000 0.999569 -0.029360
vn 0.000000 0.999569 -0.029360
vn 0.000000 0.991487 0.130209
vn 0.000000 0.991487 0.130209
vn 0.000000 0.970392 0.241535
vn 0.000000 0.970392 0.241535
vn 0.000000 1.000000 0.000000
vn 0.000000 1.000000 0.000000
vn 0.000000 0.970338 -0.241754
vn 0.000000 0.970338 -0.241754
vn 0.000000 0.991487 -0.130207
vn 0.000000 0.991487 -0.130207
vn 0.000000 0.999569 0.029360
vn 0.000000 0.999569 0.029360
vn 0.000000 0.977858 0.209269
vn 0.000000 0.977858 0.209269
vn 0.000000 0.959407 0.282025
vn 0.000000 0.959407 0.282025
vn 0.000000 0.997848 0.065570
vn 0.000000 0.997848 0.065570
vn 0.000000 0.995428 -0.095514
vn 0.000000 0.995428 -0.095514
vn 0.000000 0.989926 0.141587
vn 0.000000 0.989926 0.141587
vn 0.000000 -1.000000 0.000000
vn 0.000000 -1.000000 0.000000
vn 0.000000 -1.000000 0.000000
vn 0.000000 -1.000000 0.000000
vn 1.000000 0.000000 0.000000
vn 1.000000 0.000000 0.000000
vn 1.000000 -0.000017 0.000000
vn 1.000000 -0.000009 0.000000
vn -1.000000 -0.000018 0.000000
vn -1.000000 -0.000035 0.000000
vn -1.000000 0.000000 0.000000
vn -1.000000 0.000000 0.000000
vn 0.000000 0.997149 -0.075453
vn 0.000000 0.997149 -0.075453
vn 1.000000 -0.000023 0.000000
vn 1.000000 -0.000017 0.000000
vn 1.000000 -0.000008 0.000000
vn 1.000000 -0.000023 0.000000
vn 0.000000 -1.000000 0.000000
vn 0.000000 -1.000000 0.000000
vn 0.000000 -1.000000 0.000000
vn 0.000000 -1.000000 0.000000
vn -1.000000 0.000000 0.000000
vn -1.000000 0.000000 0.000000
vn -1.000000 0.000000 0.000000
vn -1.000000 0.000000 0.000000
vn 1.000000 0.000000 0.000000
vn 1.000000 0.000000 0.000000
vn 1.000000 0.000000 0.000000
vn 1.000000 0.000000 0.000000
vn 1.000000 0.000000 0.000000
vn 1.000000 0.000000 0.000000
vn 1.000000 0.000000 0.000000
vn 1.000000 0.000000 0.000000
vn 1.000000 0.000000 0.000000
vn 1.000000 0.000000 0.000000
vn 1.000000 0.000000 0.000000
vn 1.000000 0.000000 0.000000
vn 1.000000 0.000000 0.000000
vn 1.000000 0.000000 0.000000
vn 1.000000 0.000000 0.000000
vn 1.000000 0.000000 0.000000
vn 1.000000 0.000000 0.000000
vn 1.000000 0.000000 0.000000
vn 1.000000 0.000000 0.000000
vn 1.000000 0.000000 0.000000
vn 1.000000 0.000000 0.000000
vn 1.000000 0.000000 0.000000
vn 1.000000 0.000000 0.000000
vn 1.000000 0.000000 0.000000
vn 0.000000 -1.000000 0.000000
vn 0.000000 -1.000000 0.000000
vn 0.000000 -1.000000 0.000000
vn 0.000000 -1.000000 0.000000
vn 0.000000 -1.000000 0.000000
vn 0.000000 -1.000000 0.000000
vn 0.000000 -1.000000 0.000000
vn 0.000000 -1.000000 0.000000
vn 0.000000 -1.000000 0.000000
vn 0.000000 -1.000000 0.000000
vn 0.000000 -1.000000 0.000000
vn 0.000000 -1.000000 0.000000
vn 0.000000 -1.000000 0.000000
vn 0.000000 -1.000000 0.000000
vn 0.000000 -1.000000 0.000000
vn 0.000000 -1.000000 0.000000
vn 0.000000 -1.000000 0.000000
vn 0.000000 -1.000000 0.000000
vn 0.000000 -1.000000 0.000000
vn 0.000000 -1.000000 0.000000
vn 0.000000 -1.000000 0.000000
vn 0.000000 -1.000000 0.000000
vn 0.000000 -1.000000 0.000000
vn 0.000000 -1.000000 0.000000
vn -1.000000 0.000000 0.000000
vn -1.000000 0.000000 0.000000
vn -1.000000 0.000000 0.000000
vn -1.000000 0.000000 0.000000
vn -1.000000 0.000000 0.000000
vn -1.000000 0.000000 0.000000
vn -1.000000 0.000000 0.000000
vn -1.000000 0.000000 0.000000
vn -1.000000 0.000000 0.000000
vn -1.000000 0.000000 0.000000
vn -1.000000 0.000000 0.000000
vn -1.000000 0.000000 0.000000
vn -1.000000 0.000000 0.000000
vn -1.000000 0.000000 0.000000
vn -1.000000 0.000000 0.000000
vn -1.000000 0.000000 0.000000
vn -1.000000 0.000000 0.000000
vn -1.000000 0.000000 0.000000
vn -1.000000 0.000000 0.000000
vn -1.000000 0.000000 0.000000
vn -1.000000 0.000000 0.000000
vn -1.000000 0.000000 0.000000
vn -1.000000 0.000000 0.000000
vn -1.000000 0.000000 0.000000
vn -1.000000 -0.000047 0.000000
vn -1.000000 -0.000047 0.000000
vn 0.000000 -1.000000 0.000000
vn 0.000000 -1.000000 0.000000
vn 1.000000 -0.000023 0.000000
vn 1.000000 -0.000023 0.000000
s off
g LIVRO_Aberto_MESH
usemtl initialShadingGroup
f 1/73/1 2/74/2 4/75/3 3/76/4
f 5/77/5 6/78/6 8/79/7 7/80/8
s 1
f 28/37/9 25/38/10 11/39/11 14/40/12
f 36/44/13 33/43/14 10/47/15 15/48/16
f 32/50/17 29/49/18 9/51/19 16/52/20
f 12/41/21 13/42/22 6/45/23 5/46/24
s 2
f 7/55/25 8/56/26 17/57/27 21/58/28
s 3
f 13/1/29 17/2/30 8/3/31 6/4/32
s 4
f 7/19/33 21/20/34 12/21/35 5/22/36
s 1
f 3/53/37 4/54/38 16/52/20 9/51/19
s 3
f 2/17/39 20/16/40 16/15/41 4/18/42
s 2
f 24/70/43 20/69/44 2/71/45 1/72/46
s 4
f 9/33/47 24/34/48 1/35/49 3/36/50
s 3
f 31/14/51 32/13/52 16/15/41 20/16/40
f 27/6/53 28/5/54 14/7/55 18/8/56
f 35/10/57 36/9/58 15/11/59 19/12/60
s 2
f 30/68/61 31/67/62 20/69/44 24/70/43
f 26/60/63 27/59/64 18/61/65 22/62/66
f 34/64/67 35/63/68 19/65/69 23/66/70
s 4
f 9/33/47 29/32/71 30/31/72 24/34/48
f 10/29/73 33/28/74 34/27/75 23/30/76
f 11/25/77 25/24/78 26/23/79 22/26/80
f 26/23/79 25/24/78 12/21/35 21/20/34
s 2
f 17/57/27 27/59/64 26/60/63 21/58/28
s 3
f 13/1/29 28/5/54 27/6/53 17/2/30
s 1
f 12/41/21 25/38/10 28/37/9 13/42/22
s 4
f 30/31/72 29/32/71 10/29/73 23/30/76
s 2
f 19/65/69 31/67/62 30/68/61 23/66/70
s 3
f 15/11/59 32/13/52 31/14/51 19/12/60
s 1
f 10/47/15 29/49/18 32/50/17 15/48/16
s 4
f 34/27/75 33/28/74 11/25/77 22/26/80
s 2
f 18/61/65 35/63/68 34/64/67 22/62/66
s 3
f 14/7/55 36/9/58 35/10/57 18/8/56
s 1
f 11/39/11 33/43/14 36/44/13 14/40/12
s 9
f 37/81/81 38/82/82 40/83/83 39/84/84
f 41/85/85 42/86/86 44/87/87 43/88/88
f 96/89/89 93/90/90 54/91/91 57/92/92
f 54/91/91 53/93/93 58/94/94 57/92/92
f 53/93/93 52/95/95 59/96/96 58/94/94
f 52/95/95 51/97/97 60/98/98 59/96/96
f 51/97/97 50/99/99 61/100/100 60/98/98
f 50/99/99 49/101/101 62/102/102 61/100/100
f 49/101/101 48/103/103 63/104/104 62/102/102
f 48/103/103 47/105/105 64/106/106 63/104/104
f 47/105/105 46/107/107 65/108/108 64/106/106
f 92/109/109 89/110/110 45/111/111 66/112/112
f 55/113/113 56/114/114 101/115/115 102/116/116
s 12
f 103/117/117 104/118/118 67/119/119 78/120/120
s 13
f 56/121/121 67/122/122 104/123/123 101/124/124
s 14
f 102/125/125 103/126/126 78/127/127 55/128/128
s 9
f 39/84/84 40/83/83 97/129/129 98/130/130
s 13
f 38/131/131 100/132/132 97/133/133 40/134/134
s 12
f 99/135/135 100/136/136 38/137/137 37/138/138
s 14
f 98/139/139 99/140/140 37/141/141 39/142/142
s 13
f 91/143/143 92/144/144 66/145/145 77/146/146
f 64/147/147 65/148/148 76/149/149 75/150/150
f 63/151/151 64/147/147 75/150/150 74/152/152
f 62/153/153 63/151/151 74/152/152 73/154/154
f 61/155/155 62/153/153 73/154/154 72/156/156
f 60/157/157 61/155/155 72/156/156 71/158/158
f 59/159/159 60/157/157 71/158/158 70/160/160
f 58/161/161 59/159/159 70/160/160 69/162/162
f 95/163/163 96/164/164 57/165/165 68/166/166
f 57/165/165 58/161/161 69/162/162 68/166/166
s 12
f 90/167/167 91/168/168 77/169/169 88/170/170
f 75/171/171 76/172/172 87/173/173 86/174/174
f 74/175/175 75/171/171 86/174/174 85/176/176
f 73/177/177 74/175/175 85/176/176 84/178/178
f 72/179/179 73/177/177 84/178/178 83/180/180
f 71/181/181 72/179/179 83/180/180 82/182/182
f 70/183/183 71/181/181 82/182/182 81/184/184
f 69/185/185 70/183/183 81/184/184 80/186/186
f 94/187/187 95/188/188 68/189/189 79/190/190
f 68/189/189 69/185/185 80/186/186 79/190/190
s 14
f 45/191/191 89/192/192 90/193/193 88/194/194
f 46/195/195 47/196/196 86/197/197 87/198/198
f 47/196/196 48/199/199 85/200/200 86/197/197
f 48/199/199 49/201/201 84/202/202 85/200/200
f 49/201/201 50/203/203 83/204/204 84/202/202
f 50/203/203 51/205/205 82/206/206 83/204/204
f 51/205/205 52/207/207 81/208/208 82/206/206
f 52/207/207 53/209/209 80/210/210 81/208/208
f 53/209/209 54/211/211 79/212/212 80/210/210
f 54/211/211 93/213/213 94/214/214 79/212/212
f 90/193/193 89/192/192 46/195/195 87/198/198
s 12
f 76/172/172 91/168/168 90/167/167 87/173/173
s 13
f 65/148/148 92/144/144 91/143/143 76/149/149
s 9
f 46/107/107 89/110/110 92/109/109 65/108/108
s 14
f 94/214/214 93/213/213 55/128/128 78/127/127
s 12
f 67/119/119 95/188/188 94/187/187 78/120/120
s 13
f 56/121/121 96/164/164 95/163/163 67/122/122
s 9
f 55/113/113 93/90/90 96/89/89 56/114/114
f 98/130/130 97/129/129 66/112/112 45/111/111
s 14
f 45/191/191 88/194/194 99/140/140 98/139/139
s 12
f 88/170/170 77/169/169 100/136/136 99/135/135
s 13
f 97/133/133 100/132/132 77/146/146 66/145/145
s 9
f 102/116/116 101/115/115 42/86/86 41/85/85
s 14
f 43/215/215 103/126/126 102/125/125 41/216/216
s 12
f 43/217/217 44/218/218 104/118/118 103/117/117
s 13
f 101/124/124 104/123/123 44/219/219 42/220/220
