# Blender v3.1.2 OBJ File: 'Paredes Monasterio Plano .blend'
# www.blender.org
mtllib Parede com Abertura para porta_MESH.mtl
o Parede_Baixa.002_Plane.004
v 0.000000 2.172730 8.570166
v -0.000000 0.172730 8.570166
v 0.000000 2.172730 6.570166
v -0.000000 0.172730 6.570166
v -0.000000 0.675099 8.570166
v -0.000000 0.675099 6.570166
v 0.059678 0.675099 8.570166
v 0.059678 0.172730 8.570166
v 0.059678 0.172730 6.570166
v 0.059678 0.675099 6.570166
v -0.071240 2.172730 6.570166
v -0.071240 2.172730 8.570166
v -0.071240 0.675099 8.570166
v -0.071240 0.172730 8.570166
v -0.071240 0.172730 6.570166
v -0.071240 0.675099 6.570166
v -0.000000 0.172730 7.928993
v -0.000000 0.172730 7.170700
v -0.071240 0.172730 7.928993
v -0.071240 0.172730 7.170700
v 0.059678 0.172730 7.928993
v 0.059678 0.172730 7.170700
v 0.059678 0.675099 7.928993
v 0.059678 0.675099 7.170700
v -0.000000 0.675099 7.928993
v -0.000000 0.675099 7.170700
v -0.071240 1.562963 7.170700
v -0.071240 0.675099 7.928993
v -0.071240 1.562963 7.928993
v -0.071240 0.675099 7.170700
v 0.000000 1.562963 7.928993
v 0.000000 1.562963 7.170700
vt 0.196832 0.625592
vt 0.196832 0.500000
vt 0.211752 0.500000
vt 0.211752 0.625592
vt 0.892218 0.500000
vt 0.874408 0.500000
vt 0.874408 0.339707
vt 0.892218 0.339707
vt 0.874408 0.150133
vt 0.874408 0.000000
vt 0.892218 0.000000
vt 0.892218 0.150133
vt 0.874408 0.500000
vt 0.748816 0.500000
vt 0.748816 0.349867
vt 0.874408 0.349867
vt 0.748816 0.000000
vt 0.874408 0.000000
vt 0.874408 0.160293
vt 0.748816 0.160293
vt 0.924948 0.339707
vt 0.924948 0.500000
vt 0.910028 0.500000
vt 0.910028 0.339707
vt 0.910028 0.150133
vt 0.910028 0.000000
vt 0.924948 0.000000
vt 0.924948 0.150133
vt 0.924948 0.150133
vt 0.924948 0.000000
vt 0.939867 0.000000
vt 0.939867 0.150133
vt 0.939867 0.500000
vt 0.924948 0.500000
vt 0.924948 0.339707
vt 0.939867 0.339707
vt 0.226672 0.500000
vt 0.226672 0.625592
vt 0.211752 0.625592
vt 0.211752 0.500000
vt 0.161212 0.874408
vt 0.143402 0.874408
vt 0.143402 0.500000
vt 0.161212 0.500000
vt 0.374408 0.339707
vt 0.374408 0.500000
vt 0.000000 0.500000
vt 0.000000 0.000000
vt 0.374408 0.000000
vt 0.374408 0.150133
vt 0.152442 0.150133
vt 0.152442 0.339707
vt 0.000000 0.650133
vt 0.000000 0.500000
vt 0.125592 0.500000
vt 0.125592 0.650133
vt 0.125592 1.000000
vt 0.000000 1.000000
vt 0.000000 0.839707
vt 0.125592 0.839707
vt 0.892218 0.000000
vt 0.910028 0.000000
vt 0.910028 0.500000
vt 0.892218 0.500000
vt 0.161212 0.625592
vt 0.161212 0.500000
vt 0.179022 0.500000
vt 0.179022 0.625592
vt 0.125592 0.500000
vt 0.143402 0.500000
vt 0.143402 0.874408
vt 0.125592 0.874408
vt 0.179022 0.625592
vt 0.179022 0.500000
vt 0.748816 0.349867
vt 0.748816 0.500000
vt 0.374408 0.500000
vt 0.374408 0.000000
vt 0.748816 0.000000
vt 0.748816 0.160293
vt 0.526850 0.160293
vt 0.526850 0.349867
vt 0.382633 0.268767
vt 0.470214 0.268767
vt 0.470214 0.350779
vt 0.625000 0.350779
vt 0.625000 0.448678
vt 0.470214 0.448678
vt 0.382633 0.448679
vt 0.382633 0.350779
vt 0.470214 0.899221
vt 0.470214 0.981233
vt 0.382633 0.981233
vt 0.382633 0.899221
vt 0.382633 0.801321
vt 0.470214 0.801322
vt 0.625000 0.801322
vt 0.625000 0.899221
vt 0.676322 0.500000
vt 0.774221 0.500000
vt 0.774221 0.750000
vt 0.676322 0.750000
vn 0.0000 0.0000 1.0000
vn 0.0000 -1.0000 0.0000
vn 1.0000 -0.0000 0.0000
vn 0.0000 1.0000 0.0000
vn 0.0000 0.0000 -1.0000
vn -1.0000 0.0000 0.0000
usemtl Material.002
s off
f 5/1/1 2/2/1 8/3/1 7/4/1
f 2/5/2 14/6/2 19/7/2 17/8/2
f 20/9/2 15/10/2 4/11/2 18/12/2
f 9/13/3 10/14/3 24/15/3 22/16/3
f 7/17/3 8/18/3 21/19/3 23/20/3
f 25/21/4 5/22/4 7/23/4 23/24/4
f 24/25/4 10/26/4 6/27/4 26/28/4
f 18/29/2 4/30/2 9/31/2 22/32/2
f 8/33/2 2/34/2 17/35/2 21/36/2
f 4/37/5 6/38/5 10/39/5 9/40/5
f 1/41/1 12/42/1 13/43/1 5/44/1
f 28/45/6 13/46/6 12/47/6 11/48/6 16/49/6 30/50/6 27/51/6 29/52/6
f 30/53/6 16/54/6 15/55/6 20/56/6
f 14/57/6 13/58/6 28/59/6 19/60/6
f 3/61/4 11/62/4 12/63/4 1/64/4
f 6/65/5 4/66/5 15/67/5 16/68/5
f 6/69/5 16/70/5 11/71/5 3/72/5
f 2/2/1 5/1/1 13/73/1 14/74/1
f 26/75/3 6/76/3 3/77/3 1/78/3 5/79/3 25/80/3 31/81/3 32/82/3
f 22/83/1 24/84/1 26/85/1 32/86/1 27/87/1 30/88/1 20/89/1 18/90/1
f 25/91/5 23/92/5 21/93/5 17/94/5 19/95/5 28/96/5 29/97/5 31/98/5
f 27/99/2 32/100/2 31/101/2 29/102/2
