# Blender v3.1.2 OBJ File: 'Paredes Monasterio Plano .blend'
# www.blender.org
mtllib Porta_MESH.mtl
o Cube_Cube.015
v -0.003643 0.182788 7.922545
v -0.003643 1.554119 7.922545
v -0.003643 0.182788 7.177489
v -0.003643 1.554119 7.177489
v -0.031608 0.182788 7.922545
v -0.031608 1.554119 7.922545
v -0.031608 0.182788 7.177489
v -0.031608 1.554119 7.177489
vt 0.932341 0.136511
vt 0.932341 0.000000
vt 0.742928 0.000000
vt 0.742928 0.136511
vt 0.654684 1.000000
vt 0.654684 0.500000
vt 0.327342 0.500000
vt 0.327342 1.000000
vt 0.982025 0.991271
vt 0.982025 0.500000
vt 0.654683 0.500000
vt 0.654683 0.991271
vt 0.327342 1.000000
vt 0.327342 0.500000
vt 0.000000 0.500000
vt 0.000000 1.000000
vt 0.336329 0.000000
vt 0.000000 0.000000
vt 0.000000 0.500000
vt 0.336329 0.500000
vt 0.672658 0.000000
vt 0.336329 0.000000
vt 0.336329 0.500000
vt 0.672658 0.500000
vn 1.0000 0.0000 0.0000
vn 0.0000 0.0000 -1.0000
vn -1.0000 0.0000 0.0000
vn 0.0000 0.0000 1.0000
vn 0.0000 -1.0000 0.0000
vn 0.0000 1.0000 0.0000
usemtl TT_checker_689x483_UV_GRID
s off
f 1/1/1 3/2/1 4/3/1 2/4/1
f 3/5/2 7/6/2 8/7/2 4/8/2
f 7/9/3 5/10/3 6/11/3 8/12/3
f 5/13/4 1/14/4 2/15/4 6/16/4
f 3/17/5 1/18/5 5/19/5 7/20/5
f 8/21/6 6/22/6 2/23/6 4/24/6
