# Blender v3.1.2 OBJ File: 'LowPoly_Guarda_Capacete.blend'
# www.blender.org
mtllib LowPoly_Guarda_Capacete.mtl
o LowPoly_Guarda_Capacete
v -5.304207 176.126511 -16.476862
v -4.743073 173.723648 -15.705000
v -7.091002 173.944870 -13.857551
v -7.263203 176.868088 -15.423941
v -4.662080 176.553696 -15.973428
v -6.857248 177.390427 -14.781814
v -6.688719 174.195007 -13.062036
v -4.020489 173.943619 -15.160172
v -10.309614 174.116791 -13.057556
v -10.309614 177.311584 -14.661396
v -10.309614 177.899673 -13.919460
v -10.309614 174.390152 -12.158738
v -13.528227 173.944870 -13.857551
v -13.355936 176.868088 -15.423941
v -13.761980 177.390427 -14.781814
v -13.930509 174.195007 -13.062036
v -15.876155 173.723648 -15.705000
v -15.315021 176.126419 -16.476862
v -15.957149 176.553604 -15.973428
v -16.598740 173.943619 -15.160262
v -16.999319 174.059540 -18.636820
v -15.880097 177.244644 -18.819862
v -16.620781 177.724609 -18.541491
v -17.854055 174.262924 -18.401184
v -17.581060 174.383698 -22.744394
v -16.148703 177.575882 -22.531425
v -16.909185 178.081833 -22.484209
v -18.459629 174.605179 -22.684544
v -13.540770 179.770599 -26.597071
v -13.526704 180.506805 -22.200911
v -16.174505 177.391769 -26.579330
v -14.001379 180.526611 -26.875174
v -16.907932 177.919922 -26.782534
v -14.044653 181.279480 -22.154858
v -15.545460 176.583893 -29.259838
v -13.502782 177.679642 -30.111975
v -13.897538 178.261642 -30.743263
v -16.182390 177.055161 -29.740423
v -17.612148 174.236847 -26.956615
v -18.488926 174.466400 -27.152649
v -17.950281 170.314117 -22.865526
v -17.935139 170.376923 -27.105791
v -18.827059 170.450928 -27.311502
v -18.841305 170.395370 -22.802721
v -17.376871 170.333740 -18.556900
v -18.243437 170.417511 -18.322073
v -16.312931 170.401382 -30.215637
v -16.216974 174.018066 -30.037970
v -17.019567 170.465881 -30.802485
v -16.921192 174.240082 -30.610840
v -13.764400 174.212845 -31.801826
v -14.124751 174.454575 -32.623238
v -13.697830 170.356232 -32.209396
v -14.061855 170.445633 -33.048634
v -10.309614 170.308197 -32.917736
v -10.309614 174.353775 -32.315746
v -10.309614 170.421982 -33.819511
v -10.309614 174.613602 -33.199066
v -10.309614 178.400970 -30.468294
v -10.309614 179.037811 -31.182009
v -7.116446 177.679642 -30.111975
v -6.854829 174.212845 -31.801826
v -6.721691 178.261642 -30.743263
v -6.494477 174.454575 -32.623238
v -7.078458 179.770599 -26.597071
v -10.309614 180.881500 -26.573507
v -10.309614 181.771164 -26.925524
v -6.617850 180.526611 -26.875174
v -10.309614 181.902069 -22.066515
v -10.309614 182.890030 -22.007473
v -10.309614 180.569885 -18.315531
v -13.564871 179.419662 -18.584944
v -14.037037 180.123962 -18.205061
v -10.309614 181.410461 -17.838079
v -7.092525 180.506897 -22.201000
v -6.574576 181.279572 -22.154949
v -4.739131 177.244644 -18.819862
v -7.054357 179.419739 -18.584944
v -4.470525 177.575882 -22.531517
v -3.998449 177.724609 -18.541491
v -3.710042 178.081833 -22.484301
v -6.582191 180.123962 -18.205061
v -3.038169 174.383698 -22.744394
v -3.619910 174.059540 -18.636820
v -2.765173 174.262924 -18.401184
v -2.159600 174.605270 -22.684544
v -4.444722 177.391769 -26.579330
v -3.711207 177.919922 -26.782534
v -5.073768 176.583893 -29.259838
v -4.436837 177.055161 -29.740515
v -4.402254 174.018066 -30.037970
v -3.007080 174.236847 -26.956615
v -3.698036 174.240173 -30.610840
v -2.130303 174.466400 -27.152649
v -13.494270 170.348343 -13.405993
v -16.034380 170.361694 -15.396077
v -16.769506 170.451370 -14.842381
v -13.891804 170.442505 -12.585928
v -10.309614 170.327194 -12.709660
v -10.309614 170.425476 -11.795521
v -7.124868 170.348343 -13.405993
v -6.727425 170.442505 -12.585928
v -4.584849 170.361694 -15.396077
v -3.849721 170.451370 -14.842381
v -2.684089 170.376923 -27.105791
v -2.668948 170.314117 -22.865526
v -1.777925 170.395370 -22.802721
v -1.792170 170.450928 -27.311502
v -4.306298 170.401382 -30.215637
v -3.599661 170.465881 -30.802485
v -6.921398 170.356232 -32.209396
v -6.557373 170.445633 -33.048634
v -3.242356 170.333740 -18.556900
v -2.375793 170.417511 -18.322073
vt 0.692977 0.358465
vt 0.731904 0.372278
vt 0.712091 0.418105
vt 0.667149 0.385783
vt 0.433742 0.156747
vt 0.405024 0.125801
vt 0.453727 0.090070
vt 0.476501 0.142070
vt 0.681747 0.468190
vt 0.628424 0.427467
vt 0.360931 0.079166
vt 0.419076 0.034095
vt 0.628425 0.572533
vt 0.681748 0.531811
vt 0.712092 0.581895
vt 0.667149 0.614216
vt 0.086820 0.466838
vt 0.130914 0.420204
vt 0.179615 0.455934
vt 0.144965 0.511909
vt 0.731905 0.627722
vt 0.692979 0.641535
vt 0.159632 0.389258
vt 0.202390 0.403933
vt 0.732840 0.679679
vt 0.678461 0.680487
vt 0.145618 0.346048
vt 0.204552 0.346313
vt 0.725465 0.748411
vt 0.669143 0.738559
vt 0.135425 0.284763
vt 0.196762 0.274348
vt 0.609009 0.797440
vt 0.607257 0.725570
vt 0.664701 0.801495
vt 0.068441 0.221988
vt 0.129670 0.218100
vt 0.068131 0.298803
vt 0.664418 0.845353
vt 0.628680 0.860040
vt 0.088217 0.152913
vt 0.128253 0.169627
vt 0.717211 0.816670
vt 0.187365 0.201674
vt 0.799812 0.758468
vt 0.782233 0.838595
vt 0.274443 0.657428
vt 0.289668 0.660921
vt 0.289524 0.733053
vt 0.274306 0.734125
vt 0.273917 0.263971
vt 0.255265 0.178553
vt 0.799812 0.674920
vt 0.299224 0.806348
vt 0.284417 0.810346
vt 0.273917 0.351120
vt 0.754837 0.899421
vt 0.700669 0.867805
vt 0.305054 0.597978
vt 0.317128 0.607954
vt 0.167938 0.144244
vt 0.224321 0.110365
vt 0.670719 0.906467
vt 0.133116 0.100407
vt 0.721395 0.950981
vt 0.355254 0.559628
vt 0.361540 0.573943
vt 0.185136 0.052983
vt 0.680260 0.999805
vt 0.624761 0.948722
vt 0.419012 0.546200
vt 0.419128 0.561659
vt 0.081403 0.054491
vt 0.137898 0.000195
vt 0.575185 0.881188
vt 0.028153 0.129174
vt 0.628681 0.139960
vt 0.575186 0.118811
vt 0.624762 0.051278
vt 0.670719 0.093533
vt 0.362327 0.393092
vt 0.407225 0.445598
vt 0.355513 0.491513
vt 0.302263 0.416830
vt 0.609009 0.202560
vt 0.549647 0.200684
vt 0.275084 0.326848
vt 0.342552 0.324016
vt 0.549646 0.799315
vt 0.000973 0.219156
vt 0.548418 0.714496
vt 0.000195 0.311753
vt 0.573404 0.645430
vt 0.629207 0.668559
vt 0.091384 0.361075
vt 0.028152 0.388349
vt 0.548418 0.285504
vt 0.607255 0.274428
vt 0.274306 0.234251
vt 0.342240 0.247202
vt 0.678461 0.319513
vt 0.629207 0.331440
vt 0.669143 0.261440
vt 0.419730 0.199956
vt 0.409535 0.261242
vt 0.365494 0.184929
vt 0.725465 0.251589
vt 0.732840 0.320321
vt 0.478663 0.199692
vt 0.470872 0.271657
vt 0.573402 0.354570
vt 0.302262 0.157655
vt 0.664702 0.198505
vt 0.403781 0.327905
vt 0.664418 0.154647
vt 0.402363 0.376378
vt 0.700669 0.132195
vt 0.717212 0.183330
vt 0.442047 0.401760
vt 0.461475 0.344331
vt 0.769074 0.553671
vt 0.788727 0.610503
vt 0.309350 0.869594
vt 0.321938 0.860164
vt 0.365026 0.894163
vt 0.358158 0.908152
vt 0.261565 0.421991
vt 0.238739 0.486118
vt 0.743373 0.500195
vt 0.419128 0.906312
vt 0.419009 0.921950
vt 0.208943 0.545810
vt 0.769074 0.446328
vt 0.743371 0.499806
vt 0.144898 0.546199
vt 0.145017 0.561837
vt 0.090913 0.573987
vt 0.084046 0.559998
vt 0.483055 0.000195
vt 0.512851 0.059886
vt 0.788726 0.389498
vt 0.047826 0.607987
vt 0.035238 0.598557
vt 0.535676 0.124014
vt 0.782233 0.161405
vt 0.799812 0.241532
vt 0.000195 0.734027
vt 0.015413 0.735098
vt 0.015557 0.807231
vt 0.000333 0.810724
vt 0.529375 0.367453
vt 0.548028 0.282034
vt 0.754838 0.100579
vt 0.043017 0.860197
vt 0.030943 0.870173
vt 0.498430 0.435640
vt 0.721397 0.049019
vt 0.087430 0.894208
vt 0.081143 0.908522
vt 0.459246 0.493022
vt 0.680261 0.000195
vt 0.145017 0.906490
vt 0.144901 0.921950
vt 0.412008 0.545810
vt 0.799813 0.325081
vt 0.010304 0.657805
vt 0.025112 0.661803
vt 0.548028 0.194885
vn -0.5723 -0.3944 -0.7189
vn 0.5739 0.3935 0.7182
vn -0.2575 -0.4503 -0.8550
vn 0.2582 0.4502 0.8548
vn 0.2575 -0.4503 -0.8550
vn -0.2582 0.4502 0.8548
vn 0.5723 -0.3944 -0.7189
vn -0.5739 0.3935 0.7182
vn 0.8711 -0.3249 -0.3684
vn -0.8693 0.3267 0.3710
vn 0.9207 -0.3677 -0.1309
vn -0.9204 0.3682 0.1313
vn 0.7066 -0.7038 0.0734
vn -0.7056 0.7046 -0.0750
vn 0.5945 -0.7019 0.3924
vn -0.5968 0.6995 -0.3932
vn 0.9108 -0.4128 0.0103
vn -0.9109 0.4125 -0.0112
vn 0.9962 -0.0869 -0.0010
vn -0.0856 -0.9962 -0.0138
vn -0.9962 0.0871 0.0009
vn 0.9859 -0.0937 -0.1387
vn -0.0906 -0.9957 0.0168
vn -0.9859 0.0937 0.1388
vn 0.8959 -0.0694 0.4388
vn -0.0663 -0.9970 -0.0404
vn -0.8965 0.0699 -0.4375
vn 0.8466 -0.3861 0.3662
vn -0.8460 0.3859 -0.3680
vn 0.5442 -0.3884 0.7436
vn -0.5482 0.3877 -0.7411
vn 0.5956 -0.0650 0.8006
vn -0.0595 -0.9962 -0.0628
vn -0.5950 0.0662 -0.8010
vn 0.1761 -0.1233 0.9766
vn -0.0326 -0.9935 -0.1091
vn -0.1760 0.1232 -0.9766
vn 0.1714 -0.4245 0.8890
vn -0.1754 0.4252 -0.8879
vn -0.1714 -0.4245 0.8890
vn 0.1754 0.4252 -0.8879
vn -0.2605 -0.8211 0.5079
vn 0.2619 0.8205 -0.5081
vn 0.2605 -0.8211 0.5079
vn -0.2619 0.8205 -0.5081
vn 0.3525 -0.9182 0.1806
vn -0.3509 0.9189 -0.1800
vn 0.3660 -0.8847 -0.2887
vn -0.3638 0.8859 0.2879
vn 0.7188 -0.6780 -0.1538
vn -0.7169 0.6792 0.1571
vn 0.5851 -0.6344 -0.5052
vn -0.5890 0.6318 0.5040
vn 0.2860 -0.7249 -0.6267
vn -0.2884 0.7240 0.6266
vn -0.3524 -0.9182 0.1806
vn 0.3509 0.9189 -0.1800
vn -0.7188 -0.6780 -0.1538
vn 0.7169 0.6792 0.1571
vn -0.9207 -0.3677 -0.1309
vn 0.9204 0.3682 0.1313
vn -0.8711 -0.3249 -0.3683
vn 0.8693 0.3267 0.3710
vn -0.5851 -0.6344 -0.5052
vn 0.5890 0.6318 0.5040
vn -0.3659 -0.8847 -0.2887
vn 0.3638 0.8859 0.2879
vn -0.7066 -0.7038 0.0734
vn 0.7056 0.7046 -0.0750
vn -0.5945 -0.7019 0.3924
vn 0.5967 0.6995 -0.3932
vn -0.8466 -0.3861 0.3662
vn 0.8460 0.3859 -0.3680
vn -0.9108 -0.4128 0.0103
vn 0.9109 0.4125 -0.0112
vn 0.6172 -0.0964 -0.7809
vn -0.0659 -0.9947 0.0788
vn -0.6173 0.0968 0.7808
vn 0.2286 -0.1037 -0.9680
vn -0.0284 -0.9942 0.1038
vn -0.2301 0.1041 0.9676
vn -0.2286 -0.1037 -0.9680
vn 0.0284 -0.9942 0.1038
vn 0.2301 0.1041 0.9676
vn -0.6172 -0.0964 -0.7809
vn 0.0659 -0.9947 0.0788
vn 0.6173 0.0968 0.7808
vn 0.9216 -0.0904 -0.3775
vn -0.0854 -0.9953 0.0455
vn -0.9213 0.0908 0.3780
vn -0.2859 -0.7249 -0.6267
vn 0.2884 0.7240 0.6266
vn -0.9962 -0.0869 -0.0010
vn 0.0856 -0.9962 -0.0138
vn 0.9962 0.0871 0.0009
vn -0.8959 -0.0694 0.4388
vn 0.0663 -0.9970 -0.0404
vn 0.8965 0.0699 -0.4375
vn -0.5956 -0.0650 0.8006
vn 0.0595 -0.9962 -0.0628
vn 0.5950 0.0662 -0.8010
vn -0.1761 -0.1233 0.9766
vn 0.0326 -0.9935 -0.1091
vn 0.1760 0.1232 -0.9766
vn -0.9859 -0.0937 -0.1387
vn 0.0906 -0.9957 0.0168
vn 0.9859 0.0937 0.1388
vn -0.9216 -0.0904 -0.3775
vn 0.0854 -0.9953 0.0455
vn 0.9213 0.0908 0.3780
vn -0.5442 -0.3884 0.7436
vn 0.5482 0.3877 -0.7411
usemtl initialShadingGroup
s 1
f 1/1/1 2/2/1 3/3/1 4/4/1
f 5/5/2 6/6/2 7/7/2 8/8/2
f 4/4/3 3/3/3 9/9/3 10/10/3
f 6/6/4 11/11/4 12/12/4 7/7/4
f 10/13/5 9/14/5 13/15/5 14/16/5
f 11/17/6 15/18/6 16/19/6 12/20/6
f 14/16/7 13/15/7 17/21/7 18/22/7
f 15/18/8 19/23/8 20/24/8 16/19/8
f 18/22/9 17/21/9 21/25/9 22/26/9
f 19/23/10 23/27/10 24/28/10 20/24/10
f 22/26/11 21/25/11 25/29/11 26/30/11
f 23/27/12 27/31/12 28/32/12 24/28/12
f 29/33/13 30/34/13 26/30/13 31/35/13
f 32/36/14 33/37/14 27/31/14 34/38/14
f 31/35/15 35/39/15 36/40/15 29/33/15
f 33/37/16 32/36/16 37/41/16 38/42/16
f 25/29/17 39/43/17 31/35/17 26/30/17
f 28/32/18 27/31/18 33/37/18 40/44/18
f 41/45/19 42/46/19 39/43/19 25/29/19
f 43/47/20 42/48/20 41/49/20 44/50/20
f 44/51/21 28/32/21 40/44/21 43/52/21
f 21/25/22 45/53/22 41/45/22 25/29/22
f 44/50/23 41/49/23 45/54/23 46/55/23
f 24/28/24 28/32/24 44/51/24 46/56/24
f 39/43/25 42/46/25 47/57/25 48/58/25
f 49/59/26 47/60/26 42/48/26 43/47/26
f 40/44/27 50/61/27 49/62/27 43/52/27
f 35/39/28 31/35/28 39/43/28 48/58/28
f 38/42/29 50/61/29 40/44/29 33/37/29
f 35/39/30 48/58/30 51/63/30 36/40/30
f 38/42/31 37/41/31 52/64/31 50/61/31
f 51/63/32 48/58/32 47/57/32 53/65/32
f 54/66/33 53/67/33 47/60/33 49/59/33
f 52/64/34 54/68/34 49/62/34 50/61/34
f 51/63/35 53/65/35 55/69/35 56/70/35
f 57/71/36 55/72/36 53/67/36 54/66/36
f 52/64/37 58/73/37 57/74/37 54/68/37
f 36/40/38 51/63/38 56/70/38 59/75/38
f 37/41/39 60/76/39 58/73/39 52/64/39
f 61/77/40 59/78/40 56/79/40 62/80/40
f 63/81/41 64/82/41 58/83/41 60/84/41
f 61/77/42 65/85/42 66/86/42 59/78/42
f 63/81/43 60/84/43 67/87/43 68/88/43
f 29/33/44 36/40/44 59/75/44 66/89/44
f 32/36/45 67/90/45 60/76/45 37/41/45
f 69/91/46 30/34/46 29/33/46 66/89/46
f 70/92/47 67/90/47 32/36/47 34/38/47
f 69/91/48 71/93/48 72/94/48 30/34/48
f 70/92/49 34/38/49 73/95/49 74/96/49
f 72/94/50 22/26/50 26/30/50 30/34/50
f 73/95/51 34/38/51 27/31/51 23/27/51
f 18/22/52 22/26/52 72/94/52 14/16/52
f 19/23/53 15/18/53 73/95/53 23/27/53
f 14/16/54 72/94/54 71/93/54 10/13/54
f 15/18/55 11/17/55 74/96/55 73/95/55
f 69/97/56 66/86/56 65/85/56 75/98/56
f 70/99/57 76/100/57 68/88/57 67/87/57
f 77/101/58 78/102/58 75/98/58 79/103/58
f 80/104/59 81/105/59 76/100/59 82/106/59
f 79/103/60 83/107/60 84/108/60 77/101/60
f 81/105/61 80/104/61 85/109/61 86/110/61
f 1/1/62 77/101/62 84/108/62 2/2/62
f 5/5/63 8/8/63 85/109/63 80/104/63
f 77/101/64 1/1/64 4/4/64 78/102/64
f 80/104/65 82/106/65 6/6/65 5/5/65
f 78/102/66 71/111/66 69/97/66 75/98/66
f 82/106/67 76/100/67 70/99/67 74/112/67
f 79/103/68 75/98/68 65/85/68 87/113/68
f 81/105/69 88/114/69 68/88/69 76/100/69
f 87/113/70 65/85/70 61/77/70 89/115/70
f 88/114/71 90/116/71 63/81/71 68/88/71
f 91/117/72 92/118/72 87/113/72 89/115/72
f 93/119/73 90/116/73 88/114/73 94/120/73
f 92/118/74 83/107/74 79/103/74 87/113/74
f 94/120/75 88/114/75 81/105/75 86/110/75
f 13/15/76 95/121/76 96/122/76 17/21/76
f 97/123/77 96/124/77 95/125/77 98/126/77
f 16/19/78 20/24/78 97/127/78 98/128/78
f 13/15/79 9/14/79 99/129/79 95/121/79
f 98/126/80 95/125/80 99/130/80 100/131/80
f 16/19/81 98/128/81 100/132/81 12/20/81
f 3/3/82 101/133/82 99/134/82 9/9/82
f 100/135/83 99/136/83 101/137/83 102/138/83
f 7/7/84 12/12/84 100/139/84 102/140/84
f 101/133/85 3/3/85 2/2/85 103/141/85
f 102/138/86 101/137/86 103/142/86 104/143/86
f 102/140/87 104/144/87 8/8/87 7/7/87
f 21/25/88 17/21/88 96/122/88 45/53/88
f 46/55/89 45/54/89 96/124/89 97/123/89
f 24/28/90 46/56/90 97/127/90 20/24/90
f 78/102/91 4/4/91 10/10/91 71/111/91
f 82/106/92 74/112/92 11/11/92 6/6/92
f 105/145/93 106/146/93 83/107/93 92/118/93
f 107/147/94 106/148/94 105/149/94 108/150/94
f 108/151/95 94/120/95 86/110/95 107/152/95
f 91/117/96 109/153/96 105/145/96 92/118/96
f 108/150/97 105/149/97 109/154/97 110/155/97
f 93/119/98 94/120/98 108/151/98 110/156/98
f 91/117/99 62/80/99 111/157/99 109/153/99
f 110/155/100 109/154/100 111/158/100 112/159/100
f 93/119/101 110/156/101 112/160/101 64/82/101
f 56/79/102 55/161/102 111/157/102 62/80/102
f 112/159/103 111/158/103 55/162/103 57/163/103
f 58/83/104 64/82/104 112/160/104 57/164/104
f 83/107/105 106/146/105 113/165/105 84/108/105
f 114/166/106 113/167/106 106/148/106 107/147/106
f 86/110/107 85/109/107 114/168/107 107/152/107
f 84/108/108 113/165/108 103/141/108 2/2/108
f 104/143/109 103/142/109 113/167/109 114/166/109
f 85/109/110 8/8/110 104/144/110 114/168/110
f 89/115/111 61/77/111 62/80/111 91/117/111
f 90/116/112 93/119/112 64/82/112 63/81/112
