# Blender v3.1.2 OBJ File: 'OBJTAS.blend'
# www.blender.org
mtllib CISTERNA.mtl
o CISTERNA_MESH
v -0.382568 -0.459788 0.005005
v -0.398315 -0.459787 -1.172241
v -0.016602 -0.459787 -1.238037
v -0.000031 -0.459788 -0.000000
v -0.366791 -0.459788 1.182495
v 0.016525 -0.459788 1.238037
v 1.182487 -0.459788 0.366821
v 1.011292 -0.459788 0.714233
v 1.001526 -0.459788 -0.013428
v 1.237968 -0.459788 -0.016479
v 0.991791 -0.459788 -0.740967
v 1.172295 -0.459788 -0.398315
v 0.741058 -0.459788 0.991699
v 0.727661 -0.459788 -0.009644
v 0.714233 -0.459788 -1.011353
v 0.398315 -0.459788 1.172241
v 0.382538 -0.459788 -0.005249
v 0.366760 -0.459787 -1.182373
v -0.714264 -0.459788 1.011353
v -0.727692 -0.459788 0.009644
v -0.741089 -0.459788 -0.991699
v -0.991821 -0.459788 0.741089
v -1.001556 -0.459788 0.013428
v -1.011322 -0.459788 -0.714111
v -1.172302 -0.459788 0.398315
v -1.237976 -0.459788 0.016479
v -1.182495 -0.459788 -0.366821
v -0.262650 -0.315442 -0.773071
v -0.488739 -0.315442 -0.654053
v -0.000015 -0.315442 0.000000
v -0.471039 -0.315442 0.666870
v -0.241882 -0.315442 0.779785
v 0.010895 -0.315442 0.816284
v 0.262665 -0.315442 0.773071
v 0.241882 -0.315442 -0.779785
v -0.010956 -0.315442 -0.816284
v -0.666931 -0.315442 -0.471069
v -0.779816 -0.315442 -0.241821
v -0.816406 -0.315442 0.010986
v -0.773102 -0.315442 0.262695
v -0.654083 -0.315442 0.488770
v 0.488678 -0.315442 0.653931
v 0.471008 -0.315442 -0.666992
v 0.666901 -0.315442 0.470947
v 0.654037 -0.315442 -0.488770
v 0.779816 -0.315442 0.241821
v 0.816406 -0.315442 -0.010864
v 0.773071 -0.315442 -0.262573
v 0.366760 0.652421 -1.182373
v 0.360535 0.672860 -1.162354
v 0.702087 0.672859 -0.994141
v 0.714249 0.652421 -1.011353
v -0.016602 0.652421 -1.238037
v -0.016296 0.672860 -1.216919
v -0.398315 0.652421 -1.172241
v -0.391510 0.672860 -1.152344
v -0.741089 0.652421 -0.991699
v -0.728485 0.672859 -0.974976
v -1.011322 0.652421 -0.714111
v -0.994110 0.672859 -0.702148
v -1.182495 0.652421 -0.366821
v -1.162384 0.672859 -0.360596
v -1.237976 0.652420 0.016479
v -1.216919 0.672859 0.016235
v -1.172302 0.652420 0.398315
v -1.152344 0.672859 0.391479
v -0.991821 0.652420 0.741089
v -0.974945 0.672859 0.728394
v -0.714264 0.652420 1.011353
v -0.702118 0.672859 0.994141
v -0.366791 0.652420 1.182495
v -0.360535 0.672859 1.162354
v 0.016525 0.652420 1.238037
v 0.016251 0.672859 1.216919
v 0.398315 0.652420 1.172241
v 0.391510 0.672859 1.152222
v 0.741058 0.652420 0.991699
v 0.728424 0.672859 0.974976
v 1.011292 0.652420 0.714233
v 0.994080 0.672859 0.702026
v 1.182487 0.652420 0.366821
v 1.162354 0.672859 0.360474
v 1.237968 0.652420 -0.016479
v 1.216896 0.672859 -0.016235
v 1.172295 0.652421 -0.398315
v 1.152328 0.672859 -0.391479
v 0.991791 0.652421 -0.740967
v 0.974884 0.672859 -0.728394
v -0.262650 0.645760 -0.773071
v -0.269104 0.665909 -0.791992
v -0.500702 0.665909 -0.670044
v -0.488739 0.645760 -0.654053
v -0.010956 0.645760 -0.816284
v -0.011215 0.665901 -0.836426
v -0.683289 0.665909 -0.482544
v -0.666931 0.645760 -0.471069
v -0.471039 0.645760 0.666870
v -0.482605 0.665909 0.683228
v -0.247803 0.665901 0.798828
v -0.241882 0.645760 0.779785
v -0.654083 0.645760 0.488770
v -0.670105 0.665909 0.500732
v 0.011169 0.665901 0.836426
v 0.010895 0.645760 0.816284
v 0.269104 0.665909 0.792114
v 0.262665 0.645760 0.773071
v 0.500671 0.665909 0.670166
v 0.488678 0.645760 0.653931
v 0.241882 0.645760 -0.779785
v 0.247803 0.665901 -0.798828
v 0.471008 0.645760 -0.666992
v 0.482574 0.665901 -0.683350
v -0.798950 0.665909 -0.247803
v -0.779816 0.645760 -0.241821
v -0.836426 0.665909 0.011108
v -0.816406 0.645760 0.010986
v -0.792053 0.665909 0.269165
v -0.773102 0.645760 0.262695
v 0.683258 0.665909 0.482422
v 0.666916 0.645760 0.470947
v 0.654053 0.645760 -0.488770
v 0.670090 0.665901 -0.500610
v 0.798920 0.665909 0.247925
v 0.779816 0.645760 0.241821
v 0.773087 0.645760 -0.262573
v 0.792023 0.665909 -0.269165
v 0.836426 0.665909 -0.011108
v 0.816406 0.645760 -0.010864
vt 0.265995 0.628255
vt 0.239953 0.664102
vt 0.139840 0.563977
vt 0.013687 0.628252
vt 0.000000 0.586117
vt 0.000015 0.541827
vt 0.013685 0.499691
vt 0.279680 0.541831
vt 0.279664 0.586131
vt 0.204121 0.690139
vt 0.161972 0.703818
vt 0.117675 0.703818
vt 0.075551 0.690133
vt 0.039707 0.664091
vt 0.039747 0.463860
vt 0.266014 0.499705
vt 0.075579 0.437818
vt 0.239973 0.463865
vt 0.117708 0.424130
vt 0.161985 0.424127
vt 0.204108 0.437817
vt 0.242199 0.152966
vt 0.424100 0.245688
vt 0.403347 0.309573
vt 0.212053 0.212064
vt 0.060258 0.060228
vt 0.020759 0.114553
vt 0.060206 0.363857
vt 0.020736 0.309514
vt 0.133173 0.366821
vt 0.114533 0.403346
vt 0.245588 0.424123
vt 0.178426 0.424127
vt 0.000003 0.245628
vt 0.154724 0.324495
vt 0.309505 0.403388
vt 0.000000 0.178450
vt 0.181941 0.271187
vt 0.363826 0.363895
vt 0.114598 0.020745
vt 0.269378 0.099637
vt 0.424100 0.178505
vt 0.178496 0.000000
vt 0.290930 0.057312
vt 0.403348 0.114609
vt 0.245674 0.000009
vt 0.309568 0.020791
vt 0.363895 0.060279
vt 0.787926 0.060233
vt 0.785357 0.062805
vt 0.731946 0.023994
vt 0.733604 0.020737
vt 0.827448 0.114554
vt 0.824183 0.116214
vt 0.848200 0.178439
vt 0.844598 0.179003
vt 0.848200 0.245622
vt 0.844616 0.245040
vt 0.827448 0.309518
vt 0.824221 0.307844
vt 0.787995 0.363848
vt 0.785415 0.361265
vt 0.733668 0.403337
vt 0.732004 0.400086
vt 0.669775 0.424118
vt 0.669210 0.420503
vt 0.602596 0.424127
vt 0.603180 0.420512
vt 0.538698 0.403382
vt 0.540357 0.400127
vt 0.484358 0.363899
vt 0.486943 0.361311
vt 0.444859 0.309574
vt 0.448121 0.307910
vt 0.424100 0.245678
vt 0.427722 0.245104
vt 0.424103 0.178499
vt 0.427690 0.179086
vt 0.444836 0.114613
vt 0.448100 0.116268
vt 0.484306 0.060270
vt 0.486907 0.062846
vt 0.538633 0.020781
vt 0.540298 0.024034
vt 0.602527 0.000000
vt 0.603091 0.003616
vt 0.669688 0.000004
vt 0.669125 0.003614
vt 0.472554 0.478499
vt 0.472554 0.424127
vt 0.665427 0.424127
vt 0.665427 0.478499
vt 0.472554 0.463626
vt 0.279680 0.463626
vt 0.279680 0.424127
vt 0.472554 0.517987
vt 0.279681 0.517987
vt 0.472554 0.581883
vt 0.279681 0.581883
vt 0.472554 0.649026
vt 0.279681 0.649026
vt 0.472554 0.712901
vt 0.279681 0.712901
vt 0.472554 0.767260
vt 0.279680 0.767260
vt 0.192873 0.703818
vt 0.192873 0.767708
vt 0.000000 0.767708
vt 0.000000 0.703818
vt 0.192873 0.834889
vt 0.000000 0.834889
vt 0.192873 0.898768
vt 0.000000 0.898768
vt 0.192873 0.953117
vt 0.000000 0.953117
vt 0.665427 0.727763
vt 0.665427 0.673403
vt 0.858301 0.673403
vt 0.858301 0.727763
vt 0.665427 0.609509
vt 0.858301 0.609509
vt 0.665427 0.542343
vt 0.858301 0.542343
vt 0.665427 0.478466
vt 0.858301 0.478466
vt 0.665427 0.424127
vt 0.858301 0.424127
vt 0.472554 0.727784
vt 0.472554 0.673437
vt 0.665427 0.673437
vt 0.665427 0.727784
vt 0.472554 0.609561
vt 0.665427 0.609561
vt 0.472554 0.542365
vt 0.665427 0.542367
vt 0.775991 0.189882
vt 0.779416 0.189343
vt 0.779421 0.234733
vt 0.776001 0.234190
vt 0.762281 0.147772
vt 0.765392 0.146184
vt 0.446367 0.845214
vt 0.449861 0.844675
vt 0.449861 0.890060
vt 0.446367 0.889507
vt 0.571897 0.338224
vt 0.570322 0.341321
vt 0.533610 0.314636
vt 0.536053 0.312189
vt 0.665427 0.831243
vt 0.668921 0.831784
vt 0.668921 0.876073
vt 0.665427 0.876617
vt 0.506912 0.277940
vt 0.510025 0.276354
vt 0.492866 0.234783
vt 0.496309 0.234232
vt 0.492863 0.189398
vt 0.496323 0.189926
vt 0.736248 0.111928
vt 0.738691 0.109480
vt 0.700425 0.085888
vt 0.702000 0.082791
vt 0.762326 0.276318
vt 0.765408 0.277901
vt 0.738738 0.314618
vt 0.736274 0.312165
vt 0.702041 0.341291
vt 0.700442 0.338210
vt 0.658861 0.355338
vt 0.658322 0.351907
vt 0.613476 0.355341
vt 0.614016 0.351916
vt 0.506914 0.146211
vt 0.509995 0.147791
vt 0.472554 0.805190
vt 0.476047 0.805731
vt 0.476047 0.850035
vt 0.472554 0.850595
vt 0.922013 0.894450
vt 0.922545 0.897944
vt 0.877203 0.897944
vt 0.877718 0.894450
vt 0.658807 0.068788
vt 0.658287 0.072205
vt 0.613961 0.072222
vt 0.613442 0.068784
vt 0.536027 0.111951
vt 0.533546 0.109514
vt 0.570259 0.082825
vt 0.571840 0.085917
vt 0.446367 0.803076
vt 0.279680 0.845214
vt 0.279680 0.803076
vt 0.668921 0.789650
vt 0.835608 0.789650
vt 0.835608 0.831784
vt 0.668921 0.753823
vt 0.668921 0.727763
vt 0.835608 0.727763
vt 0.835608 0.753823
vt 0.476047 0.763616
vt 0.476047 0.727784
vt 0.642733 0.727784
vt 0.642733 0.763616
vt 0.446367 0.767260
vt 0.279680 0.767260
vt 0.446367 0.931648
vt 0.279680 0.931648
vt 0.279680 0.889507
vt 0.446367 0.967486
vt 0.279680 0.967486
vt 0.668921 0.954035
vt 0.668921 0.918208
vt 0.835608 0.918208
vt 0.835608 0.954035
vt 0.835608 0.876073
vt 1.000000 0.894450
vt 0.964141 0.894450
vt 0.964141 0.727763
vt 1.000000 0.727763
vt 0.642733 0.805731
vt 0.922015 0.727763
vt 0.642733 0.850033
vt 0.877718 0.727763
vt 0.835608 0.894450
vt 0.835608 0.727763
vt 0.476047 0.928018
vt 0.476047 0.892188
vt 0.642733 0.892186
vt 0.642733 0.928018
vn -0.0000 1.0000 0.0000
vn -0.0000 -1.0000 -0.0000
vn 0.2065 0.7171 -0.6657
vn 0.4018 0.7174 -0.5691
vn 0.4019 0.7174 -0.5691
vn -0.0093 0.7176 -0.6964
vn -0.0092 0.7176 -0.6964
vn -0.2240 0.7171 -0.6600
vn -0.2243 0.7171 -0.6599
vn -0.4181 0.7160 -0.5591
vn -0.4177 0.7160 -0.5593
vn -0.5701 0.7163 -0.4023
vn -0.5697 0.7163 -0.4029
vn -0.6655 0.7173 -0.2065
vn -0.6963 0.7177 0.0092
vn -0.6963 0.7177 0.0093
vn -0.6589 0.7181 0.2240
vn -0.6590 0.7181 0.2237
vn -0.5573 0.7183 0.4166
vn -0.5575 0.7183 0.4163
vn -0.4014 0.7181 0.5685
vn -0.4015 0.7181 0.5685
vn -0.2062 0.7181 0.6647
vn 0.0093 0.7186 0.6954
vn 0.2241 0.7180 0.6589
vn 0.4173 0.7173 0.5580
vn 0.4168 0.7173 0.5583
vn 0.5685 0.7179 0.4018
vn 0.5687 0.7179 0.4016
vn 0.6645 0.7182 0.2064
vn 0.6646 0.7182 0.2059
vn 0.6960 0.7180 -0.0092
vn 0.6960 0.7180 -0.0093
vn 0.6589 0.7181 -0.2240
vn 0.6590 0.7181 -0.2238
vn 0.5577 0.7180 -0.4165
vn 0.5576 0.7180 -0.4167
vn 0.2963 -0.0000 -0.9551
vn -0.0133 0.0000 -0.9999
vn -0.3219 0.0000 -0.9468
vn -0.5986 0.0000 -0.8010
vn -0.8168 0.0000 -0.5769
vn -0.9551 0.0000 -0.2963
vn -0.9999 0.0000 0.0133
vn -0.9469 -0.0000 0.3217
vn -0.8011 -0.0000 0.5985
vn -0.5769 -0.0000 0.8168
vn -0.2963 -0.0000 0.9551
vn 0.0134 -0.0000 0.9999
vn 0.3219 -0.0000 0.9468
vn 0.5986 -0.0000 0.8011
vn 0.8168 -0.0000 0.5770
vn 0.9551 -0.0000 0.2963
vn 0.9999 -0.0000 -0.0133
vn 0.9468 0.0000 -0.3218
vn 0.8011 -0.0000 -0.5985
vn 0.5768 -0.0000 -0.8169
vn 0.2282 0.7049 0.6716
vn 0.2283 0.7049 0.6715
vn 0.4251 0.7041 0.5689
vn 0.4250 0.7041 0.5689
vn 0.0094 0.7055 0.7086
vn 0.5798 0.7044 0.4094
vn 0.5796 0.7044 0.4096
vn 0.4092 0.7045 -0.5798
vn 0.4093 0.7045 -0.5797
vn 0.2102 0.7048 -0.6775
vn 0.5683 0.7047 -0.4248
vn 0.5683 0.7047 -0.4247
vn -0.0092 0.7061 -0.7081
vn -0.2274 0.7070 -0.6697
vn -0.2275 0.7070 -0.6696
vn -0.4237 0.7064 -0.5671
vn -0.4241 0.7063 -0.5667
vn -0.2100 0.7049 0.6775
vn -0.2101 0.7049 0.6775
vn -0.4094 0.7043 0.5799
vn -0.4095 0.7043 0.5799
vn 0.6773 0.7050 0.2102
vn 0.6774 0.7050 0.2100
vn 0.7092 0.7049 -0.0091
vn 0.7092 0.7049 -0.0098
vn 0.6718 0.7047 -0.2283
vn 0.6718 0.7047 -0.2282
vn -0.5792 0.7053 -0.4088
vn -0.5790 0.7053 -0.4091
vn -0.5684 0.7045 0.4250
vn -0.5688 0.7045 0.4245
vn -0.6772 0.7050 -0.2106
vn -0.6775 0.7050 -0.2098
vn -0.6718 0.7048 0.2279
vn -0.6715 0.7048 0.2286
vn -0.7092 0.7049 0.0094
vn -0.7092 0.7049 0.0095
vn 0.3215 -0.0000 0.9469
vn 0.5985 -0.0000 0.8011
vn 0.2961 0.0000 -0.9552
vn -0.3217 0.0000 -0.9468
vn -0.2959 -0.0000 0.9552
vn 0.0133 -0.0000 0.9999
vn 0.8169 -0.0000 0.5768
vn 0.9551 -0.0000 0.2961
vn 0.9469 0.0000 -0.3217
vn 0.8010 0.0000 -0.5987
vn -0.5987 0.0000 -0.8010
vn -0.5768 0.0000 0.8169
vn -0.8167 0.0000 -0.5770
vn -0.8012 0.0000 0.5985
vn -0.9469 0.0000 0.3216
vn 0.0059 0.9998 0.0173
vn 0.0109 0.9998 0.0146
vn 0.0105 0.9998 -0.0149
vn 0.0054 0.9998 -0.0175
vn -0.0002 0.9998 -0.0183
vn -0.0059 0.9998 -0.0173
vn -0.0054 0.9998 0.0175
vn 0.0002 0.9998 0.0183
vn 0.0149 0.9998 0.0105
vn 0.0174 0.9998 0.0054
vn 0.0183 0.9998 -0.0002
vn 0.0173 0.9998 -0.0059
vn 0.0146 0.9998 -0.0109
vn -0.0109 0.9998 -0.0146
vn -0.0105 0.9998 0.0149
vn -0.0149 0.9998 -0.0105
vn -0.0146 0.9998 0.0109
vn -0.0174 0.9998 -0.0054
vn -0.0183 0.9998 0.0002
vn -0.0173 0.9998 0.0059
usemtl initialShadingGroup.009
s off
f 28/1/1 29/2/1 30/3/1
f 31/4/1 32/5/1 30/3/1
f 33/6/1 34/7/1 30/3/1
f 35/8/1 36/9/1 30/3/1
f 32/5/1 33/6/1 30/3/1
f 36/9/1 28/1/1 30/3/1
f 37/10/1 38/11/1 30/3/1
f 38/11/1 39/12/1 30/3/1
f 39/12/1 40/13/1 30/3/1
f 40/13/1 41/14/1 30/3/1
f 41/14/1 31/4/1 30/3/1
f 29/2/1 37/10/1 30/3/1
f 34/7/1 42/15/1 30/3/1
f 43/16/1 35/8/1 30/3/1
f 42/15/1 44/17/1 30/3/1
f 45/18/1 43/16/1 30/3/1
f 44/17/1 46/19/1 30/3/1
f 46/19/1 47/20/1 30/3/1
f 47/20/1 48/21/1 30/3/1
f 48/21/1 45/18/1 30/3/1
s 1
f 1/22/2 2/23/2 3/24/2 4/25/2
f 5/26/2 1/22/2 4/25/2 6/27/2
f 7/28/2 8/29/2 9/30/2 10/31/2
f 9/30/2 11/32/2 12/33/2 10/31/2
f 9/30/2 8/29/2 13/34/2 14/35/2
f 15/36/2 11/32/2 9/30/2 14/35/2
f 14/35/2 13/34/2 16/37/2 17/38/2
f 15/36/2 14/35/2 17/38/2 18/39/2
f 17/38/2 16/37/2 6/27/2 4/25/2
f 18/39/2 17/38/2 4/25/2 3/24/2
f 5/26/2 19/40/2 20/41/2 1/22/2
f 20/41/2 21/42/2 2/23/2 1/22/2
f 20/41/2 19/40/2 22/43/2 23/44/2
f 23/44/2 24/45/2 21/42/2 20/41/2
f 23/44/2 22/43/2 25/46/2 26/47/2
f 27/48/2 24/45/2 23/44/2 26/47/2
f 49/49/3 50/50/3 51/51/4 52/52/5
f 50/50/3 49/49/3 53/53/6 54/54/7
f 54/54/7 53/53/6 55/55/8 56/56/9
f 56/56/9 55/55/8 57/57/10 58/58/11
f 58/58/11 57/57/10 59/59/12 60/60/13
f 60/60/13 59/59/12 61/61/14 62/62/14
f 62/62/14 61/61/14 63/63/15 64/64/16
f 64/64/16 63/63/15 65/65/17 66/66/18
f 66/66/18 65/65/17 67/67/19 68/68/20
f 68/68/20 67/67/19 69/69/21 70/70/22
f 70/70/22 69/69/21 71/71/23 72/72/23
f 72/72/23 71/71/23 73/73/24 74/74/24
f 74/74/24 73/73/24 75/75/25 76/76/25
f 76/76/25 75/75/25 77/77/26 78/78/27
f 78/78/27 77/77/26 79/79/28 80/80/29
f 80/80/29 79/79/28 81/81/30 82/82/31
f 82/82/31 81/81/30 83/83/32 84/84/33
f 84/84/33 83/83/32 85/85/34 86/86/35
f 86/86/35 85/85/34 87/87/36 88/88/37
f 88/88/37 87/87/36 52/52/5 51/51/4
f 18/89/38 3/90/39 53/91/39 49/92/38
f 3/90/39 2/93/40 55/94/40 53/95/39
f 2/93/40 21/96/41 57/97/41 55/94/40
f 21/96/41 24/98/42 59/99/42 57/97/41
f 24/98/42 27/100/43 61/101/43 59/99/42
f 27/100/43 26/102/44 63/103/44 61/101/43
f 26/102/44 25/104/45 65/105/45 63/103/44
f 25/106/45 22/107/46 67/108/46 65/109/45
f 22/107/46 19/110/47 69/111/47 67/108/46
f 19/110/47 5/112/48 71/113/48 69/111/47
f 5/112/48 6/114/49 73/115/49 71/113/48
f 6/116/49 16/117/50 75/118/50 73/119/49
f 16/117/50 13/120/51 77/121/51 75/118/50
f 13/120/51 8/122/52 79/123/52 77/121/51
f 8/122/52 7/124/53 81/125/53 79/123/52
f 7/124/53 10/126/54 83/127/54 81/125/53
f 10/128/54 12/129/55 85/130/55 83/131/54
f 12/129/55 11/132/56 87/133/56 85/130/55
f 11/132/56 15/134/57 52/135/57 87/133/56
f 15/134/57 18/89/38 49/92/38 52/135/57
f 89/136/58 90/137/59 91/138/60 92/139/61
f 90/137/59 89/136/58 93/140/62 94/141/62
f 92/142/61 91/143/60 95/144/63 96/145/64
f 97/146/65 98/147/66 99/148/67 100/149/67
f 98/150/66 97/151/65 101/152/68 102/153/69
f 100/149/67 99/148/67 103/154/70 104/155/70
f 104/155/70 103/154/70 105/156/71 106/157/72
f 106/157/72 105/156/71 107/158/73 108/159/74
f 109/160/75 110/161/76 94/141/62 93/140/62
f 110/161/76 109/160/75 111/162/77 112/163/78
f 96/164/64 95/165/63 113/166/79 114/167/80
f 114/167/80 113/166/79 115/168/81 116/169/82
f 116/169/82 115/168/81 117/170/83 118/171/84
f 118/171/84 117/170/83 102/172/69 101/173/68
f 108/159/74 107/158/73 119/174/85 120/175/86
f 112/176/78 111/177/77 121/178/87 122/179/88
f 120/180/86 119/181/85 123/182/89 124/183/90
f 122/184/88 121/185/87 125/186/91 126/187/92
f 124/188/90 123/189/89 127/190/93 128/191/94
f 128/191/94 127/190/93 126/187/92 125/186/91
f 89/192/95 92/142/96 29/193/96 28/194/95
f 97/151/57 100/195/97 32/196/97 31/197/57
f 104/198/39 106/199/98 34/200/98 33/201/39
f 109/202/99 93/203/100 36/204/100 35/205/99
f 100/195/97 104/198/39 33/201/39 32/196/97
f 93/206/100 89/192/95 28/194/95 36/207/100
f 96/145/101 114/208/102 38/209/102 37/210/101
f 114/208/102 116/211/54 39/212/54 38/209/102
f 116/213/54 118/214/103 40/215/103 39/216/54
f 118/214/103 101/152/104 41/217/104 40/215/103
f 101/152/104 97/151/57 31/197/57 41/217/104
f 92/142/96 96/145/101 37/210/101 29/193/96
f 106/218/98 108/219/105 42/220/105 34/221/98
f 111/177/106 109/202/99 35/205/99 43/222/106
f 108/219/105 120/180/107 44/223/107 42/220/105
f 121/178/108 111/177/106 43/222/106 45/224/108
f 120/180/107 124/183/43 46/225/43 44/223/107
f 124/183/43 128/226/44 47/227/44 46/225/43
f 128/228/44 125/229/109 48/230/109 47/231/44
f 125/229/109 121/178/108 45/224/108 48/230/109
f 56/56/110 58/58/111 91/138/111 90/137/110
f 70/70/112 72/72/113 99/148/113 98/147/112
f 74/74/114 76/76/115 105/156/115 103/154/114
f 50/50/116 54/54/117 94/141/117 110/161/116
f 72/72/113 74/74/114 103/154/114 99/148/113
f 54/54/117 56/56/110 90/137/110 94/141/117
f 60/60/118 62/62/119 113/166/119 95/165/118
f 62/62/119 64/64/120 115/168/120 113/166/119
f 64/64/120 66/66/121 117/170/121 115/168/120
f 66/66/121 68/68/122 102/172/122 117/170/121
f 68/68/122 70/70/112 98/147/112 102/172/122
f 58/58/111 60/60/118 95/165/118 91/138/111
f 76/76/115 78/78/123 107/158/123 105/156/115
f 51/51/124 50/50/116 110/161/116 112/163/124
f 78/78/123 80/80/125 119/174/125 107/158/123
f 88/88/126 51/51/124 112/163/124 122/184/126
f 80/80/125 82/82/127 123/189/127 119/174/125
f 82/82/127 84/84/128 127/190/128 123/189/127
f 84/84/128 86/86/129 126/187/129 127/190/128
f 86/86/129 88/88/126 122/184/126 126/187/129
