# Blender v3.1.2 OBJ File: 'OBJTAS.blend'
# www.blender.org
mtllib MESA 2.mtl
o MESA_Tipo2
v 0.740964 -0.224903 -0.255474
v 0.740964 -0.224903 0.259307
v 0.740964 -0.166573 0.259307
v 0.740964 -0.166573 -0.255474
v 0.808788 -0.224903 0.259307
v 0.808788 -0.224903 -0.255474
v 0.808788 -0.167251 -0.255474
v 0.808788 -0.167251 0.259307
v 0.747068 -0.160470 -0.255474
v 0.747068 -0.160470 0.259307
v 0.802006 -0.160470 0.259307
v 0.802006 -0.160470 -0.255474
v 0.805397 -0.228293 -0.255474
v 0.805397 -0.228293 0.259307
v 0.744355 -0.228293 0.259307
v 0.744355 -0.228293 -0.255474
v -0.723180 -0.224903 -0.234904
v -0.723180 -0.224903 0.253531
v -0.723180 -0.166573 0.253531
v -0.723180 -0.166573 -0.234904
v -0.655357 -0.224903 0.253531
v -0.655357 -0.224903 -0.234904
v -0.655357 -0.167251 -0.234904
v -0.655357 -0.167251 0.253531
v -0.717077 -0.160470 -0.234904
v -0.717077 -0.160470 0.253531
v -0.662139 -0.160470 0.253531
v -0.662139 -0.160470 -0.234904
v -0.658748 -0.228293 -0.234904
v -0.658748 -0.228293 0.253531
v -0.719790 -0.228293 0.253531
v -0.719790 -0.228293 -0.234904
v 0.740964 0.222167 0.236920
v 0.740964 -0.532142 0.236920
v 0.740964 -0.532142 0.295249
v 0.740964 0.222167 0.295249
v 0.808788 -0.532142 0.236920
v 0.808788 0.222167 0.236920
v 0.808788 0.222167 0.294571
v 0.808788 -0.532142 0.294571
v 0.747068 0.222167 0.301353
v 0.747068 -0.532142 0.301353
v 0.802006 -0.532142 0.301353
v 0.802006 0.222167 0.301353
v 0.805397 0.222167 0.233529
v 0.805397 -0.532142 0.233529
v 0.744355 -0.532142 0.233529
v 0.744355 0.222167 0.233529
v -0.723180 0.222167 0.236920
v -0.723180 -0.532142 0.236920
v -0.723180 -0.532142 0.295249
v -0.723180 0.222167 0.295249
v -0.655357 -0.532142 0.236920
v -0.655357 0.222167 0.236920
v -0.655357 0.222167 0.294571
v -0.655357 -0.532142 0.294571
v -0.717077 0.222167 0.301353
v -0.717077 -0.532142 0.301353
v -0.662139 -0.532142 0.301353
v -0.662139 0.222167 0.301353
v -0.658748 0.222167 0.233529
v -0.658748 -0.532142 0.233529
v -0.719790 -0.532142 0.233529
v -0.719790 0.222167 0.233529
v 0.740964 0.222167 -0.279633
v 0.740964 -0.532142 -0.279633
v 0.740964 -0.532142 -0.221303
v 0.740964 0.222167 -0.221303
v 0.808788 -0.532142 -0.279633
v 0.808788 0.222167 -0.279633
v 0.808788 0.222167 -0.221982
v 0.808788 -0.532142 -0.221982
v 0.747068 0.222167 -0.215200
v 0.747068 -0.532142 -0.215200
v 0.802006 -0.532142 -0.215200
v 0.802006 0.222167 -0.215200
v 0.805397 0.222167 -0.283024
v 0.805397 -0.532142 -0.283024
v 0.744355 -0.532142 -0.283024
v 0.744355 0.222167 -0.283024
v -0.737637 0.207514 -0.297204
v -0.743497 0.213374 -0.303064
v 0.831734 0.213374 -0.303064
v 0.825874 0.207514 -0.297204
v -0.737637 0.207514 0.317555
v -0.743497 0.213374 0.323415
v 0.825874 0.207514 0.317555
v 0.831734 0.213374 0.323415
v -0.743497 0.260260 -0.303064
v -0.737637 0.266120 -0.297204
v 0.825874 0.266120 -0.297204
v 0.831734 0.260260 -0.303064
v -0.743497 0.260260 0.323415
v -0.737637 0.266120 0.317555
v 0.831734 0.260260 0.323415
v 0.825874 0.266120 0.317555
v -0.723180 0.222167 -0.279633
v -0.723180 -0.532142 -0.279633
v -0.723180 -0.532142 -0.221303
v -0.723180 0.222167 -0.221303
v -0.655357 -0.532142 -0.279633
v -0.655357 0.222167 -0.279633
v -0.655357 0.222167 -0.221982
v -0.655357 -0.532142 -0.221982
v -0.717077 0.222167 -0.215200
v -0.717077 -0.532142 -0.215200
v -0.662139 -0.532142 -0.215200
v -0.662139 0.222167 -0.215200
v -0.658748 0.222167 -0.283024
v -0.658748 -0.532142 -0.283024
v -0.719790 -0.532142 -0.283024
v -0.719790 0.222167 -0.283024
vt 0.700864 0.994288
vt 0.700864 0.741327
vt 0.729527 0.741327
vt 0.729527 0.994288
vt 0.672534 0.994288
vt 0.672534 0.741327
vt 0.700864 0.741327
vt 0.700864 0.994288
vt 0.945163 0.370664
vt 0.945163 0.623625
vt 0.918167 0.623625
vt 0.918167 0.370664
vt 0.946496 0.623625
vt 0.946496 0.876585
vt 0.916501 0.876585
vt 0.916501 0.623625
vt 0.914834 0.370664
vt 0.914834 0.623625
vt 0.948163 0.623625
vt 0.948163 0.370664
vt 0.199969 0.775727
vt 0.201634 0.774061
vt 0.230297 0.774061
vt 0.233296 0.777060
vt 0.233296 0.804056
vt 0.229964 0.807389
vt 0.201634 0.807389
vt 0.199969 0.805723
vt 0.166641 0.775727
vt 0.168306 0.774061
vt 0.196636 0.774061
vt 0.199969 0.777393
vt 0.199969 0.804390
vt 0.196970 0.807389
vt 0.168306 0.807389
vt 0.166641 0.805723
vt 0.914835 0.876585
vt 0.914835 0.623625
vt 0.948163 0.623625
vt 0.948163 0.876585
vt 0.949829 0.850693
vt 0.949829 0.610678
vt 0.978492 0.610678
vt 0.978492 0.850693
vt 0.729527 0.981342
vt 0.729527 0.741327
vt 0.757857 0.741327
vt 0.757857 0.981342
vt 0.973961 0.000000
vt 0.973961 0.240014
vt 0.946965 0.240014
vt 0.946965 0.000000
vt 0.978159 0.370664
vt 0.978159 0.610678
vt 0.948163 0.610678
vt 0.948163 0.370664
vt 0.943633 0.000000
vt 0.943633 0.240014
vt 0.976960 0.240014
vt 0.976960 0.000000
vt 0.372839 0.774061
vt 0.374505 0.775727
vt 0.374505 0.804390
vt 0.371505 0.807389
vt 0.344509 0.807389
vt 0.341177 0.804056
vt 0.341177 0.775727
vt 0.342843 0.774061
vt 0.339510 0.774061
vt 0.341177 0.775727
vt 0.341177 0.804057
vt 0.337844 0.807389
vt 0.310848 0.807389
vt 0.307849 0.804390
vt 0.307849 0.775727
vt 0.309515 0.774061
vt 0.948163 0.850693
vt 0.979825 0.370664
vt 0.979825 0.610678
vt 0.766189 0.741327
vt 0.766189 0.370664
vt 0.794851 0.370664
vt 0.794851 0.741327
vt 0.732526 0.370664
vt 0.732526 0.741327
vt 0.704197 0.741327
vt 0.704197 0.370664
vt 0.857843 0.741327
vt 0.857843 0.370664
vt 0.884839 0.370664
vt 0.884839 0.741327
vt 0.857842 0.370664
vt 0.857842 0.000000
vt 0.887838 0.000000
vt 0.887838 0.370664
vt 0.700864 0.741327
vt 0.700864 0.370664
vt 0.854843 0.370664
vt 0.854843 0.741327
vt 0.033328 0.775727
vt 0.034995 0.774061
vt 0.063657 0.774061
vt 0.066657 0.777060
vt 0.066657 0.804056
vt 0.063324 0.807389
vt 0.034995 0.807389
vt 0.033328 0.805723
vt 0.066657 0.775727
vt 0.068323 0.774061
vt 0.096652 0.774061
vt 0.099985 0.777393
vt 0.099985 0.804390
vt 0.096985 0.807389
vt 0.068323 0.807389
vt 0.066657 0.805723
vt 0.764522 0.370664
vt 0.764522 0.741327
vt 0.734193 0.741327
vt 0.734193 0.370664
vt 0.702531 0.370664
vt 0.702531 0.000000
vt 0.731193 0.000000
vt 0.731193 0.370664
vt 0.699198 0.370664
vt 0.699198 0.741327
vt 0.670869 0.741327
vt 0.670869 0.370664
vt 0.887838 0.370664
vt 0.887838 0.000000
vt 0.914834 0.000000
vt 0.914834 0.370664
vt 0.824847 0.741327
vt 0.824847 0.370664
vt 0.854843 0.370664
vt 0.854843 0.741327
vt 0.667536 0.741327
vt 0.667536 0.370664
vt 0.734193 0.000000
vt 0.734193 0.370664
vt 0.264959 0.774061
vt 0.266624 0.775727
vt 0.266624 0.804390
vt 0.263625 0.807389
vt 0.236629 0.807389
vt 0.233296 0.804056
vt 0.233296 0.775727
vt 0.234963 0.774061
vt 0.298286 0.774061
vt 0.299952 0.775727
vt 0.299952 0.804056
vt 0.296620 0.807389
vt 0.269623 0.807389
vt 0.266624 0.804390
vt 0.266624 0.775727
vt 0.268290 0.774061
vt 0.700864 0.000000
vt 0.700864 0.370664
vt 0.700864 0.741327
vt 0.700864 0.370664
vt 0.735859 0.741327
vt 0.735859 0.370664
vt 0.764522 0.370664
vt 0.764522 0.741327
vt 0.823181 0.370664
vt 0.823181 0.741327
vt 0.794851 0.741327
vt 0.794851 0.370664
vt 0.737192 0.370664
vt 0.737192 0.000000
vt 0.764188 0.000000
vt 0.764188 0.370664
vt 0.884839 0.741327
vt 0.884839 0.370664
vt 0.914834 0.370664
vt 0.914834 0.741327
vt 0.767521 0.370664
vt 0.767521 0.000000
vt 0.734193 0.000000
vt 0.734193 0.370664
vt 0.031662 0.774061
vt 0.033328 0.775727
vt 0.033328 0.804390
vt 0.030329 0.807389
vt 0.003333 0.807389
vt 0.000000 0.804057
vt 0.000000 0.775727
vt 0.001666 0.774061
vt 0.789519 0.741327
vt 0.791185 0.742994
vt 0.791185 0.771323
vt 0.787853 0.774656
vt 0.760857 0.774656
vt 0.757857 0.771657
vt 0.757857 0.742994
vt 0.759523 0.741327
vt 0.734193 0.370664
vt 0.734193 0.741327
vt 0.824847 0.741327
vt 0.824847 0.370664
vt 0.615698 0.002880
vt 0.618577 0.000000
vt 0.618577 0.774061
vt 0.615698 0.771181
vt 0.000000 0.774061
vt 0.002879 0.771181
vt 0.304969 0.771181
vt 0.307849 0.774061
vt 0.304969 0.002880
vt 0.307849 0.000000
vt 0.641617 0.000000
vt 0.644496 0.002880
vt 0.644496 0.771181
vt 0.641617 0.774061
vt 0.612818 0.771181
vt 0.615698 0.774061
vt 0.307849 0.774061
vt 0.310729 0.771181
vt 0.307849 0.000000
vt 0.310729 0.002880
vt 0.940753 0.000000
vt 0.943633 0.002879
vt 0.943633 0.304969
vt 0.940753 0.307849
vt 0.914834 0.002879
vt 0.917714 0.000000
vt 0.917714 0.307849
vt 0.914834 0.304969
vt 0.976961 0.307849
vt 0.976960 0.000000
vt 1.000000 0.000000
vt 1.000000 0.307849
vt 0.612818 0.002880
vt 0.002879 0.002880
vt 0.667536 0.000000
vt 0.667536 0.774061
vt 0.644496 0.774061
vt 0.644496 0.000000
vt 0.669202 0.370664
vt 0.669202 0.000000
vt 0.697865 0.000000
vt 0.697865 0.370664
vt 0.826180 0.000000
vt 0.826180 0.370664
vt 0.797850 0.370664
vt 0.797850 0.000000
vt 0.767521 0.370664
vt 0.767521 0.000000
vt 0.794517 0.000000
vt 0.794517 0.370664
vt 0.827846 0.370664
vt 0.827846 0.000000
vt 0.857842 0.000000
vt 0.857842 0.370664
vt 0.700864 0.000000
vt 0.700864 0.370664
vt 0.164975 0.774061
vt 0.166641 0.775727
vt 0.166641 0.804390
vt 0.163642 0.807389
vt 0.136645 0.807389
vt 0.133313 0.804057
vt 0.133313 0.775727
vt 0.134979 0.774061
vt 0.131647 0.774061
vt 0.133313 0.775727
vt 0.133313 0.804057
vt 0.129980 0.807389
vt 0.102984 0.807389
vt 0.099985 0.804390
vt 0.099985 0.775727
vt 0.101651 0.774061
vt 0.667536 0.000000
vt 0.667536 0.370664
vn -1.0000 0.0000 0.0000
vn 1.0000 0.0000 0.0000
vn 0.0000 1.0000 0.0000
vn 0.0000 -1.0000 -0.0000
vn 0.7071 0.7072 0.0000
vn -0.7070 0.7072 0.0000
vn -0.0000 0.0000 -1.0000
vn 0.0000 0.0000 1.0000
vn -0.7070 -0.7072 -0.0000
vn 0.7070 -0.7072 -0.0000
vn 0.7070 0.7072 0.0000
vn -0.7071 0.7071 0.0000
vn -0.7071 -0.7071 -0.0000
vn 0.7071 0.0000 0.7071
vn -0.7071 0.0000 0.7071
vn -0.7072 0.0000 -0.7071
vn 0.7071 0.0000 -0.7071
vn -0.7072 0.0000 0.7071
vn -0.7073 0.0000 -0.7070
vn 0.7072 0.0000 -0.7071
vn 0.0000 -0.7071 -0.7071
vn 0.0000 -0.7071 0.7071
vn 0.0000 0.7071 -0.7071
vn 0.0000 0.7071 0.7071
vn 0.7071 0.7071 0.0000
vn 0.7071 -0.7071 -0.0000
usemtl initialShadingGroup.014
s 1
f 1/1/1 2/2/1 3/3/1 4/4/1
f 5/5/2 6/6/2 7/7/2 8/8/2
f 9/9/3 10/10/3 11/11/3 12/12/3
f 13/13/4 14/14/4 15/15/4 16/16/4
f 7/17/5 12/12/5 11/11/5 8/18/5
f 3/19/6 10/10/6 9/9/6 4/20/6
f 16/21/7 1/22/7 4/23/7 9/24/7 12/25/7 7/26/7 6/27/7 13/28/7
f 14/29/8 5/30/8 8/31/8 11/32/8 10/33/8 3/34/8 2/35/8 15/36/8
f 15/15/9 2/37/9 1/38/9 16/16/9
f 13/13/10 6/39/10 5/40/10 14/14/10
f 17/41/1 18/42/1 19/43/1 20/44/1
f 21/45/2 22/46/2 23/47/2 24/48/2
f 25/49/3 26/50/3 27/51/3 28/52/3
f 29/53/4 30/54/4 31/55/4 32/56/4
f 23/57/11 28/52/11 27/51/11 24/58/11
f 19/59/12 26/50/12 25/49/12 20/60/12
f 32/61/7 17/62/7 20/63/7 25/64/7 28/65/7 23/66/7 22/67/7 29/68/7
f 30/69/8 21/70/8 24/71/8 27/72/8 26/73/8 19/74/8 18/75/8 31/76/8
f 31/55/13 18/42/13 17/41/13 32/77/13
f 29/53/10 22/78/10 21/79/10 30/54/10
f 33/80/1 34/81/1 35/82/1 36/83/1
f 37/84/2 38/85/2 39/86/2 40/87/2
f 41/88/8 42/89/8 43/90/8 44/91/8
f 45/92/7 46/93/7 47/94/7 48/95/7
f 39/86/14 44/96/14 43/97/14 40/87/14
f 35/98/15 42/89/15 41/88/15 36/99/15
f 48/100/3 33/101/3 36/102/3 41/103/3 44/104/3 39/105/3 38/106/3 45/107/3
f 46/108/4 37/109/4 40/110/4 43/111/4 42/112/4 35/113/4 34/114/4 47/115/4
f 47/116/16 34/81/16 33/80/16 48/117/16
f 45/118/17 38/85/17 37/84/17 46/119/17
f 49/120/1 50/121/1 51/122/1 52/123/1
f 53/124/2 54/125/2 55/126/2 56/127/2
f 57/128/8 58/129/8 59/130/8 60/131/8
f 61/132/7 62/133/7 63/134/7 64/135/7
f 55/126/14 60/136/14 59/137/14 56/127/14
f 51/122/18 58/138/18 57/139/18 52/123/18
f 64/140/3 49/141/3 52/142/3 57/143/3 60/144/3 55/145/3 54/146/3 61/147/3
f 62/148/4 53/149/4 56/150/4 59/151/4 58/152/4 51/153/4 50/154/4 63/155/4
f 63/156/19 50/121/19 49/120/19 64/157/19
f 61/158/20 54/125/20 53/124/20 62/159/20
f 65/160/1 66/161/1 67/162/1 68/163/1
f 69/164/2 70/165/2 71/166/2 72/167/2
f 73/168/8 74/169/8 75/170/8 76/171/8
f 77/172/7 78/173/7 79/174/7 80/175/7
f 71/176/14 76/171/14 75/170/14 72/177/14
f 67/178/15 74/169/15 73/168/15 68/179/15
f 80/180/3 65/181/3 68/182/3 73/183/3 76/184/3 71/185/3 70/186/3 77/187/3
f 78/188/4 69/189/4 72/190/4 75/191/4 74/192/4 67/193/4 66/194/4 79/195/4
f 79/196/16 66/161/16 65/160/16 80/197/16
f 77/198/17 70/165/17 69/164/17 78/199/17
f 81/200/21 82/201/21 83/202/21 84/203/21
f 82/204/13 81/205/13 85/206/13 86/207/13
f 86/207/22 85/206/22 87/208/22 88/209/22
f 89/210/23 90/211/23 91/212/23 92/213/23
f 90/214/12 89/215/12 93/216/12 94/217/12
f 94/217/24 93/216/24 95/218/24 96/219/24
f 92/220/25 91/221/25 96/222/25 95/223/25
f 84/224/26 83/225/26 88/226/26 87/227/26
f 82/228/1 86/229/1 93/230/1 89/231/1
f 90/214/3 94/217/3 96/219/3 91/232/3
f 92/220/2 95/223/2 88/226/2 83/225/2
f 84/233/4 87/208/4 85/206/4 81/205/4
f 86/234/8 88/235/8 95/236/8 93/237/8
f 83/202/7 82/201/7 89/210/7 92/213/7
f 97/238/1 98/239/1 99/240/1 100/241/1
f 101/242/2 102/243/2 103/244/2 104/245/2
f 105/246/8 106/247/8 107/248/8 108/249/8
f 109/250/7 110/251/7 111/252/7 112/253/7
f 103/244/14 108/249/14 107/248/14 104/245/14
f 99/240/15 106/254/15 105/255/15 100/241/15
f 112/256/3 97/257/3 100/258/3 105/259/3 108/260/3 103/261/3 102/262/3 109/263/3
f 110/264/4 101/265/4 104/266/4 107/267/4 106/268/4 99/269/4 98/270/4 111/271/4
f 111/272/19 98/239/19 97/238/19 112/273/19
f 109/250/20 102/243/20 101/242/20 110/251/20
