# Blender v3.1.2 OBJ File: 'LowPoly_Morte_CintoMetal.blend'
# www.blender.org
mtllib LowPoly_Morte_CintoMetal.mtl
o LowPoly_Morte_CintoMetal
v -14.077276 114.262772 -8.479498
v -14.081847 111.068665 -8.477214
v -15.127388 110.011124 -8.491114
v -15.123961 115.227577 -8.498444
v -9.638253 111.068665 -8.477214
v -8.592713 110.011124 -8.491114
v -9.642822 114.262772 -8.479498
v -8.596140 115.227577 -8.498444
v -8.588619 110.008080 -7.975294
v -15.131482 110.008080 -7.975294
v -9.638729 114.268097 -7.963677
v -9.634159 111.065521 -7.961394
v -8.592047 115.233101 -7.982625
v -15.128054 115.233101 -7.982625
v -14.081370 114.268097 -7.963677
v -14.085940 111.065521 -7.961394
v -5.419573 117.032738 -9.664154
v -5.180799 108.381500 -10.155635
v -6.831843 108.377274 -9.524403
v -6.937044 117.032310 -9.125467
v -16.980209 116.908623 -8.570543
v -17.101597 108.415619 -8.964600
v -16.888147 108.377274 -9.524403
v -16.782946 117.032310 -9.125467
v -18.497585 116.907822 -9.109426
v -18.300417 117.032738 -9.664154
v -4.967255 108.414719 -9.595547
v -6.618393 108.415619 -8.964600
v -6.739779 116.908623 -8.570543
v -5.222403 116.907822 -9.109426
v -18.752735 108.414719 -9.595547
v -18.539190 108.381500 -10.155635
vt 0.180826 0.266820
vt 0.045086 0.266620
vt 0.000140 0.222181
vt 0.221835 0.222332
vt 0.045086 0.455462
vt 0.000138 0.499900
vt 0.180824 0.455264
vt 0.221834 0.499752
vt 0.239929 0.721949
vt 0.230899 0.999862
vt 0.208994 0.998976
vt 0.218013 0.721411
vt 0.670475 0.324984
vt 0.692398 0.325016
vt 0.693502 0.460753
vt 0.671583 0.461081
vt 0.243757 0.499926
vt 0.243758 0.222158
vt 0.672250 0.136191
vt 0.675915 0.000138
vt 0.697825 0.000877
vt 0.694169 0.136571
vt 0.284775 0.455438
vt 0.420874 0.455637
vt 0.465817 0.500076
vt 0.465817 0.222009
vt 0.420875 0.266447
vt 0.239932 0.000138
vt 0.218016 0.000675
vt 0.284774 0.266646
vt 0.675913 0.650220
vt 0.697825 0.649544
vt 0.638681 0.047034
vt 0.645606 0.344460
vt 0.573160 0.345442
vt 0.570622 0.048932
vt 0.536266 0.770824
vt 0.549017 0.399725
vt 0.573160 0.425519
vt 0.570623 0.722030
vt 0.670200 0.754572
vt 0.638681 0.723927
vt 0.670200 0.385343
vt 0.549017 0.371237
vt 0.536267 0.000138
vt 0.670200 0.016390
vt 0.670200 0.385618
vt 0.645605 0.426501
vt 0.466093 0.004621
vt 0.471990 0.376234
vt 0.466093 0.766340
vt 0.471990 0.394728
vn 0.0157 -0.0012 -0.9999
vn 0.0000 0.0131 -0.9999
vn -0.0157 -0.0012 -0.9999
vn 0.0000 -1.0000 -0.0059
vn -1.0000 -0.0014 0.0079
vn 0.0000 0.9999 -0.0107
vn 1.0000 -0.0014 0.0079
vn 0.0157 0.0012 0.9999
vn 0.0000 -0.0196 -0.9998
vn 0.0000 -0.9999 0.0103
vn 0.0000 -0.0131 0.9999
vn -1.0000 0.0006 -0.0079
vn 0.0000 0.0196 0.9998
vn 0.0000 1.0000 0.0061
vn -0.0157 0.0012 0.9999
vn 1.0000 0.0006 -0.0079
vn -0.3461 0.0413 -0.9373
vn 0.9387 -0.0283 0.3437
vn -0.0692 0.9784 0.1946
vn 0.0222 -0.9982 0.0554
vn 0.0692 0.9784 0.1946
vn 0.9386 0.0465 -0.3420
vn -0.0222 -0.9982 0.0553
vn 0.3460 -0.0409 0.9373
vn 0.3461 0.0413 -0.9373
vn -0.9387 -0.0283 0.3437
vn -0.3460 -0.0409 0.9373
vn -0.9386 0.0465 -0.3420
usemtl initialShadingGroup
s 1
f 1/1/1 2/2/1 3/3/1 4/4/1
f 3/3/2 2/2/2 5/5/2 6/6/2
f 7/7/3 8/8/3 6/6/3 5/5/3
f 9/9/4 10/10/4 3/11/4 6/12/4
f 11/13/5 7/14/5 5/15/5 12/16/5
f 13/17/6 8/8/6 4/4/6 14/18/6
f 15/19/7 16/20/7 2/21/7 1/22/7
f 11/23/8 12/24/8 9/25/8 13/17/8
f 4/4/9 8/8/9 7/7/9 1/1/9
f 15/19/10 1/22/10 7/14/10 11/13/10
f 10/26/11 9/25/11 12/24/11 16/27/11
f 10/28/12 14/18/12 4/4/12 3/29/12
f 14/18/13 15/30/13 11/23/13 13/17/13
f 16/31/14 12/16/14 5/15/14 2/32/14
f 15/30/15 14/18/15 10/26/15 16/27/15
f 9/9/16 6/12/16 8/8/16 13/17/16
f 17/33/17 18/34/17 19/35/17 20/36/17
f 21/37/18 22/38/18 23/39/18 24/40/18
f 25/41/19 21/37/19 24/40/19 26/42/19
f 27/43/20 28/44/20 19/35/20 18/34/20
f 29/45/21 30/46/21 17/33/21 20/36/21
f 30/46/22 27/43/22 18/34/22 17/33/22
f 22/38/23 31/47/23 32/48/23 23/39/23
f 30/49/24 29/45/24 28/44/24 27/50/24
f 26/42/25 24/40/25 23/39/25 32/48/25
f 28/44/26 29/45/26 20/36/26 19/35/26
f 25/51/27 31/52/27 22/38/27 21/37/27
f 31/47/28 25/41/28 26/42/28 32/48/28
