# Blender v3.1.2 OBJ File: 'LowPoly_Guarda_Ombreiras.blend'
# www.blender.org
mtllib LowPoly_Guarda_Ombreiras.mtl
o LowPoly_Guarda_Ombreiras
v -32.798332 138.723892 -23.133692
v -32.090351 137.573029 -22.780506
v -33.966385 139.345764 -25.602034
v -34.294300 140.305679 -25.301981
v -34.749710 139.064072 -25.442646
v -32.757477 137.309357 -22.275997
v -33.487408 138.551331 -22.625956
v -35.136673 140.204437 -25.055056
v -33.621620 143.089035 -24.313210
v -31.759209 141.400269 -21.720240
v -32.348656 141.420334 -21.098808
v -34.412029 143.255508 -23.987621
v -32.576046 145.731567 -23.992189
v -33.761837 144.016083 -27.973526
v -32.776649 146.533798 -27.028296
v -33.327030 145.988968 -23.649220
v -33.557739 146.904358 -27.113859
v -34.571869 144.311661 -28.094389
v -31.645155 146.479141 -29.733889
v -30.595190 146.781525 -30.764500
v -28.882938 151.804581 -28.345970
v -29.729879 151.054306 -27.972269
v -29.477848 152.302109 -28.691450
v -31.145393 147.175385 -31.259512
v -32.275906 146.875870 -30.136528
v -30.358837 151.523163 -28.294273
v -29.910057 151.909851 -25.277071
v -30.541882 151.100464 -25.604542
v -30.580585 152.463470 -25.271248
v -31.271811 151.580597 -25.632765
v -29.568432 151.064255 -22.735529
v -30.307678 150.223587 -22.933622
v -30.173105 151.511780 -22.318016
v -30.988512 150.595047 -22.544601
v -28.156591 149.439896 -20.550573
v -29.288534 149.083847 -21.181770
v -28.630548 149.685028 -19.884613
v -29.827719 149.318863 -20.560966
v -30.022228 143.719070 -20.893635
v -31.219578 144.208893 -21.637722
v -30.445387 143.798630 -20.175621
v -31.771482 144.341858 -21.001240
v -30.389568 140.890472 -20.860216
v -30.858957 140.851044 -20.159313
v -32.260494 143.945847 -31.080145
v -31.041370 143.776245 -32.220509
v -31.579929 144.086960 -32.785316
v -32.900650 144.269287 -31.540125
v -34.583336 140.972992 -28.552578
v -33.380341 140.790665 -31.334503
v -34.100239 140.950150 -31.790007
v -35.459396 141.022171 -28.704979
v -34.467312 140.056976 -28.783195
v -35.304932 139.908508 -28.940973
v -32.785881 139.835495 -32.301594
v -33.486870 139.930634 -32.807896
v 12.179104 138.723892 -23.133692
v 13.675073 140.305679 -25.301981
v 13.347155 139.345764 -25.602034
v 11.471123 137.573029 -22.780506
v 12.138249 137.309357 -22.275997
v 14.130483 139.064072 -25.442646
v 12.868180 138.551331 -22.625956
v 14.517445 140.204437 -25.055056
v 11.139981 141.400269 -21.720240
v 13.002392 143.089035 -24.313210
v 13.792802 143.255508 -23.987621
v 11.729427 141.420334 -21.098808
v 11.956817 145.731567 -23.992189
v 12.157420 146.533798 -27.028296
v 13.142609 144.016083 -27.973526
v 12.707804 145.988968 -23.649220
v 13.952638 144.311661 -28.094389
v 12.938511 146.904358 -27.113859
v 11.025926 146.479141 -29.733889
v 9.110652 151.054306 -27.972269
v 8.263710 151.804581 -28.345970
v 9.975961 146.781525 -30.764500
v 10.526165 147.175385 -31.259512
v 8.858621 152.302109 -28.691450
v 11.656676 146.875870 -30.136528
v 9.739609 151.523163 -28.294273
v 9.922653 151.100464 -25.604542
v 9.290828 151.909851 -25.277071
v 9.961357 152.463470 -25.271248
v 10.652582 151.580597 -25.632765
v 9.688450 150.223587 -22.933622
v 8.949203 151.064255 -22.735529
v 9.553878 151.511780 -22.318016
v 10.369284 150.595047 -22.544601
v 8.669307 149.083847 -21.181770
v 7.537363 149.439896 -20.550573
v 8.011320 149.685028 -19.884613
v 9.208490 149.318863 -20.560966
v 10.600349 144.208893 -21.637722
v 9.403000 143.719070 -20.893635
v 9.826158 143.798630 -20.175621
v 11.152255 144.341858 -21.001240
v 9.770339 140.890472 -20.860216
v 10.239730 140.851044 -20.159313
v 10.422143 143.776245 -32.220509
v 11.641264 143.945847 -31.080145
v 10.960700 144.086960 -32.785316
v 12.281422 144.269287 -31.540125
v 12.761112 140.790665 -31.334503
v 13.964107 140.972992 -28.552578
v 14.840167 141.022171 -28.704979
v 13.481009 140.950150 -31.790007
v 13.848082 140.056976 -28.783195
v 14.685704 139.908508 -28.940973
v 12.166652 139.835495 -32.301594
v 12.867640 139.930634 -32.807896
vt 0.102213 0.526907
vt 0.071259 0.505433
vt 0.192453 0.497666
vt 0.199832 0.535168
vt 0.191482 0.468326
vt 0.054939 0.481564
vt 0.090373 0.447943
vt 0.194981 0.426260
vt 0.192918 0.633333
vt 0.081428 0.618097
vt 0.062459 0.340139
vt 0.186076 0.324784
vt 0.199714 0.724621
vt 0.312650 0.632541
vt 0.303178 0.725252
vt 0.193472 0.234977
vt 0.304685 0.233407
vt 0.316813 0.323532
vt 0.401578 0.716950
vt 0.453398 0.730476
vt 0.402581 0.932090
vt 0.377978 0.898067
vt 0.430698 0.943273
vt 0.482468 0.736839
vt 0.409613 0.236624
vt 0.372208 0.066278
vt 0.393476 0.027746
vt 0.462090 0.219247
vt 0.287413 0.940718
vt 0.291436 0.902508
vt 0.280163 0.039673
vt 0.278197 0.011933
vt 0.386323 0.000137
vt 0.286256 0.073215
vt 0.190441 0.936703
vt 0.194838 0.897104
vt 0.190136 0.040247
vt 0.190004 0.014026
vt 0.192554 0.077369
vt 0.082927 0.922445
vt 0.115985 0.889074
vt 0.082873 0.038051
vt 0.088132 0.010177
vt 0.113368 0.076400
vt 0.044479 0.712584
vt 0.097063 0.709547
vt 0.014788 0.717415
vt 0.054331 0.932245
vt 0.083841 0.245585
vt 0.028126 0.238412
vt 0.029845 0.617024
vt 0.000818 0.613220
vt 0.000137 0.338783
vt 0.420567 0.622871
vt 0.470819 0.617603
vt 0.499863 0.615406
vt 0.499863 0.334507
vt 0.437847 0.332167
vt 0.309855 0.526810
vt 0.406752 0.528158
vt 0.417320 0.444865
vt 0.314660 0.429577
vt 0.314922 0.494669
vt 0.316308 0.465901
vt 0.437625 0.505644
vt 0.453633 0.482865
vt 0.602213 0.416503
vt 0.699832 0.408243
vt 0.692453 0.445744
vt 0.571259 0.437977
vt 0.554939 0.461846
vt 0.691482 0.475084
vt 0.590374 0.495468
vt 0.694981 0.517151
vt 0.581427 0.325314
vt 0.692917 0.310077
vt 0.686076 0.618627
vt 0.562460 0.603271
vt 0.699713 0.218790
vt 0.803177 0.218158
vt 0.812650 0.310868
vt 0.693472 0.708433
vt 0.816813 0.619878
vt 0.804685 0.710003
vt 0.901577 0.226461
vt 0.877977 0.045344
vt 0.902580 0.011320
vt 0.953398 0.212935
vt 0.982468 0.206571
vt 0.930697 0.000137
vt 0.909612 0.706787
vt 0.962089 0.724163
vt 0.893476 0.915665
vt 0.872208 0.877132
vt 0.791435 0.040902
vt 0.787412 0.002692
vt 0.886323 0.943272
vt 0.778197 0.931476
vt 0.780163 0.903737
vt 0.786257 0.870195
vt 0.694837 0.046305
vt 0.690440 0.006708
vt 0.690004 0.929384
vt 0.690136 0.903163
vt 0.692554 0.866041
vt 0.615984 0.054337
vt 0.582926 0.020965
vt 0.588132 0.933233
vt 0.582873 0.905359
vt 0.613368 0.867010
vt 0.597062 0.233864
vt 0.544478 0.230827
vt 0.554330 0.011166
vt 0.514787 0.225995
vt 0.528127 0.704999
vt 0.583841 0.697825
vt 0.529845 0.326386
vt 0.500818 0.330191
vt 0.500138 0.604628
vt 0.970818 0.325807
vt 0.920566 0.320539
vt 0.999863 0.328004
vt 0.937847 0.611243
vt 0.999863 0.608903
vt 0.906751 0.415252
vt 0.809855 0.416600
vt 0.814660 0.513833
vt 0.917320 0.498546
vt 0.814922 0.448741
vt 0.816308 0.477510
vt 0.937624 0.437766
vt 0.953632 0.460545
vn 0.8588 0.4138 -0.3021
vn 0.0689 -0.8395 -0.5390
vn -0.8587 -0.4075 0.3107
vn 0.8165 -0.0020 -0.5773
vn -0.8182 0.0056 0.5749
vn 0.9329 -0.3343 -0.1338
vn -0.9328 0.3342 0.1351
vn 0.6776 -0.4935 0.5453
vn 0.6564 0.1452 -0.7403
vn -0.6771 0.4943 -0.5452
vn 0.7051 -0.6609 0.2569
vn 0.6034 0.7800 0.1660
vn -0.7047 0.6612 -0.2574
vn 0.7809 -0.5622 -0.2721
vn 0.6404 0.7520 0.1562
vn 0.6403 0.7521 0.1562
vn 0.6417 0.7505 0.1580
vn -0.7799 0.5646 0.2702
vn 0.5857 -0.4475 -0.6758
vn 0.6390 0.7536 0.1544
vn -0.5877 0.4475 0.6741
vn 0.5002 -0.1145 -0.8583
vn 0.7754 -0.2769 0.5676
vn -0.5020 0.1160 0.8570
vn 0.5075 -0.0742 -0.8584
vn 0.8400 -0.1090 0.5315
vn -0.5085 0.0740 0.8579
vn 0.5932 0.1668 -0.7875
vn 0.6477 -0.6092 0.4575
vn -0.5934 -0.1665 0.7875
vn 0.7681 -0.1778 -0.6152
vn -0.7684 0.1785 0.6145
vn 0.8993 -0.3963 -0.1851
vn -0.8992 0.3963 0.1855
vn 0.7620 -0.2447 -0.5995
vn -0.7617 0.2436 0.6004
vn 0.8149 -0.4821 0.3218
vn -0.8148 0.4821 -0.3219
vn 0.6333 -0.4426 0.6349
vn 0.7471 0.2019 -0.6333
vn -0.6335 0.4438 -0.6338
vn 0.8549 -0.3224 0.4064
vn -0.8563 0.3229 -0.4030
vn 0.8182 -0.4316 0.3799
vn -0.8188 0.4317 -0.3785
vn 0.9695 -0.2188 -0.1107
vn -0.9697 0.2167 0.1127
vn 0.9667 0.2474 -0.0657
vn 0.2477 -0.9342 -0.2567
vn -0.9666 -0.2490 0.0608
vn 0.9082 0.0821 0.4105
vn 0.0191 -0.9992 0.0360
vn -0.9066 -0.0831 -0.4137
vn 0.6420 -0.2926 0.7087
vn 0.5837 -0.2533 -0.7715
vn -0.6442 0.2934 -0.7064
vn -0.8588 0.4138 -0.3021
vn -0.0689 -0.8395 -0.5390
vn 0.8587 -0.4075 0.3107
vn -0.8165 -0.0020 -0.5773
vn 0.8182 0.0056 0.5749
vn -0.9329 -0.3343 -0.1338
vn 0.9328 0.3342 0.1351
vn -0.6776 -0.4935 0.5453
vn -0.6564 0.1452 -0.7403
vn 0.6771 0.4943 -0.5452
vn -0.7051 -0.6609 0.2569
vn -0.6034 0.7800 0.1660
vn 0.7047 0.6612 -0.2574
vn -0.7809 -0.5622 -0.2721
vn -0.6417 0.7505 0.1580
vn -0.6403 0.7521 0.1562
vn -0.6404 0.7520 0.1562
vn 0.7799 0.5646 0.2702
vn -0.5857 -0.4475 -0.6758
vn -0.6390 0.7536 0.1544
vn 0.5877 0.4475 0.6741
vn -0.5002 -0.1145 -0.8583
vn -0.7754 -0.2769 0.5676
vn 0.5020 0.1160 0.8570
vn -0.5075 -0.0742 -0.8584
vn -0.8400 -0.1090 0.5315
vn 0.5085 0.0740 0.8579
vn -0.5932 0.1668 -0.7875
vn -0.6477 -0.6092 0.4575
vn 0.5934 -0.1665 0.7875
vn -0.7681 -0.1778 -0.6152
vn 0.7684 0.1785 0.6145
vn -0.8993 -0.3963 -0.1851
vn 0.8992 0.3963 0.1855
vn -0.7620 -0.2447 -0.5995
vn 0.7617 0.2436 0.6004
vn -0.8149 -0.4821 0.3218
vn 0.8148 0.4821 -0.3219
vn -0.6333 -0.4426 0.6349
vn -0.7471 0.2019 -0.6333
vn 0.6335 0.4438 -0.6338
vn -0.8549 -0.3224 0.4064
vn 0.8563 0.3229 -0.4030
vn -0.8182 -0.4316 0.3799
vn 0.8188 0.4317 -0.3785
vn -0.9695 -0.2188 -0.1107
vn 0.9697 0.2167 0.1127
vn -0.9667 0.2474 -0.0657
vn -0.2477 -0.9342 -0.2567
vn 0.9666 -0.2490 0.0608
vn -0.9082 0.0821 0.4105
vn -0.0191 -0.9992 0.0360
vn 0.9066 -0.0831 -0.4137
vn -0.6420 -0.2926 0.7087
vn -0.5837 -0.2533 -0.7715
vn 0.6442 0.2934 -0.7064
usemtl initialShadingGroup
s 1
f 1/1/1 2/2/1 3/3/1 4/4/1
f 5/5/2 3/3/2 2/2/2 6/6/2
f 7/7/3 8/8/3 5/5/3 6/6/3
f 4/4/4 9/9/4 10/10/4 1/1/4
f 8/8/5 7/7/5 11/11/5 12/12/5
f 13/13/6 9/9/6 14/14/6 15/15/6
f 16/16/7 17/17/7 18/18/7 12/12/7
f 19/19/8 20/20/8 21/21/8 22/22/8
f 23/23/9 21/21/9 20/20/9 24/24/9
f 25/25/10 26/26/10 23/27/10 24/28/10
f 21/21/11 27/29/11 28/30/11 22/22/11
f 29/31/12 27/32/12 21/33/12 23/27/12
f 23/27/13 26/26/13 30/34/13 29/31/13
f 27/29/14 31/35/14 32/36/14 28/30/14
f 33/37/15 31/38/16 27/32/17 29/31/17
f 29/31/18 30/34/18 34/39/18 33/37/18
f 31/35/19 35/40/19 36/41/19 32/36/19
f 37/42/20 35/43/20 31/38/16 33/37/15
f 33/37/21 34/39/21 38/44/21 37/42/21
f 35/40/22 39/45/22 40/46/22 36/41/22
f 41/47/23 39/45/23 35/40/23 37/48/23
f 37/42/24 38/44/24 42/49/24 41/50/24
f 39/45/25 43/51/25 10/10/25 40/46/25
f 44/52/26 43/51/26 39/45/26 41/47/26
f 41/50/27 42/49/27 11/11/27 44/53/27
f 43/51/28 2/2/28 1/1/28 10/10/28
f 6/6/29 2/2/29 43/51/29 44/52/29
f 44/53/30 11/11/30 7/7/30 6/6/30
f 40/46/31 10/10/31 9/9/31 13/13/31
f 42/49/32 16/16/32 12/12/32 11/11/32
f 13/13/33 15/15/33 28/30/33 32/36/33
f 16/16/34 34/39/34 30/34/34 17/17/34
f 13/13/35 32/36/35 36/41/35 40/46/35
f 16/16/36 42/49/36 38/44/36 34/39/36
f 28/30/37 15/15/37 19/19/37 22/22/37
f 30/34/38 26/26/38 25/25/38 17/17/38
f 19/19/39 45/54/39 46/55/39 20/20/39
f 24/24/40 20/20/40 46/55/40 47/56/40
f 25/25/41 24/28/41 47/57/41 48/58/41
f 45/54/42 14/14/42 49/59/42 50/60/42
f 48/58/43 51/61/43 52/62/43 18/18/43
f 45/54/44 19/19/44 15/15/44 14/14/44
f 48/58/45 18/18/45 17/17/45 25/25/45
f 49/59/46 14/14/46 9/9/46 4/4/46
f 52/62/47 8/8/47 12/12/47 18/18/47
f 4/4/48 3/3/48 53/63/48 49/59/48
f 54/64/49 53/63/49 3/3/49 5/5/49
f 8/8/50 52/62/50 54/64/50 5/5/50
f 53/63/51 55/65/51 50/60/51 49/59/51
f 56/66/52 55/65/52 53/63/52 54/64/52
f 54/64/53 52/62/53 51/61/53 56/66/53
f 55/65/54 46/55/54 45/54/54 50/60/54
f 47/56/55 46/55/55 55/65/55 56/66/55
f 56/66/56 51/61/56 48/58/56 47/57/56
f 57/67/57 58/68/57 59/69/57 60/70/57
f 61/71/58 60/70/58 59/69/58 62/72/58
f 63/73/59 61/71/59 62/72/59 64/74/59
f 58/68/60 57/67/60 65/75/60 66/76/60
f 64/74/61 67/77/61 68/78/61 63/73/61
f 69/79/62 70/80/62 71/81/62 66/76/62
f 72/82/63 67/77/63 73/83/63 74/84/63
f 75/85/64 76/86/64 77/87/64 78/88/64
f 79/89/65 78/88/65 77/87/65 80/90/65
f 81/91/66 79/92/66 80/93/66 82/94/66
f 77/87/67 76/86/67 83/95/67 84/96/67
f 80/93/68 77/97/68 84/98/68 85/99/68
f 80/93/69 85/99/69 86/100/69 82/94/69
f 84/96/70 83/95/70 87/101/70 88/102/70
f 85/99/71 84/98/71 88/103/72 89/104/73
f 85/99/74 89/104/74 90/105/74 86/100/74
f 88/102/75 87/101/75 91/106/75 92/107/75
f 89/104/73 88/103/72 92/108/76 93/109/76
f 89/104/77 93/109/77 94/110/77 90/105/77
f 92/107/78 91/106/78 95/111/78 96/112/78
f 93/113/79 92/107/79 96/112/79 97/114/79
f 93/109/80 97/115/80 98/116/80 94/110/80
f 96/112/81 95/111/81 65/75/81 99/117/81
f 97/114/82 96/112/82 99/117/82 100/118/82
f 97/115/83 100/119/83 68/78/83 98/116/83
f 99/117/84 65/75/84 57/67/84 60/70/84
f 100/118/85 99/117/85 60/70/85 61/71/85
f 100/119/86 61/71/86 63/73/86 68/78/86
f 95/111/87 69/79/87 66/76/87 65/75/87
f 98/116/88 68/78/88 67/77/88 72/82/88
f 69/79/89 87/101/89 83/95/89 70/80/89
f 72/82/90 74/84/90 86/100/90 90/105/90
f 69/79/91 95/111/91 91/106/91 87/101/91
f 72/82/92 90/105/92 94/110/92 98/116/92
f 83/95/93 76/86/93 75/85/93 70/80/93
f 86/100/94 74/84/94 81/91/94 82/94/94
f 75/85/95 78/88/95 101/120/95 102/121/95
f 103/122/96 101/120/96 78/88/96 79/89/96
f 81/91/97 104/123/97 103/124/97 79/92/97
f 102/121/98 105/125/98 106/126/98 71/81/98
f 104/123/99 73/83/99 107/127/99 108/128/99
f 102/121/100 71/81/100 70/80/100 75/85/100
f 104/123/101 81/91/101 74/84/101 73/83/101
f 106/126/102 58/68/102 66/76/102 71/81/102
f 107/127/103 73/83/103 67/77/103 64/74/103
f 58/68/104 106/126/104 109/129/104 59/69/104
f 62/72/105 59/69/105 109/129/105 110/130/105
f 64/74/106 62/72/106 110/130/106 107/127/106
f 109/129/107 106/126/107 105/125/107 111/131/107
f 110/130/108 109/129/108 111/131/108 112/132/108
f 110/130/109 112/132/109 108/128/109 107/127/109
f 111/131/110 105/125/110 102/121/110 101/120/110
f 112/132/111 111/131/111 101/120/111 103/122/111
f 112/132/112 103/124/112 104/123/112 108/128/112
