# Blender v3.1.2 OBJ File: 'LowPoly_Guarda_SapatosdeFerroParte04.blend'
# www.blender.org
mtllib LowPoly_Guarda_SapatosdeFerroParte04.mtl
o LowPoly_Guarda_SapatosdeFerroParte04
v -0.204815 0.199179 -30.503534
v -0.187971 2.892489 -30.586857
v -1.866534 2.953872 -30.000727
v -2.035600 0.497440 -30.150261
v -0.267173 -0.171653 -31.300034
v -2.409301 -0.093346 -30.607643
v -2.212551 3.006372 -30.462500
v -0.228199 2.944459 -31.159460
v -0.189226 5.632676 -30.304632
v -1.618893 5.588674 -29.659727
v -1.941705 5.671815 -30.122578
v -0.226498 5.730423 -30.875891
v 1.788945 0.416273 -30.360003
v 1.586101 2.883262 -30.222027
v 2.083981 -0.191809 -30.882162
v 1.881047 2.950367 -30.722773
v -2.843479 5.626668 -28.327181
v -2.626570 8.418097 -28.058929
v -3.372448 8.197682 -26.648256
v -3.522519 5.771535 -26.529903
v -3.327023 5.675849 -28.615677
v -4.059553 5.783551 -26.677288
v -3.894339 8.231372 -26.839273
v -3.091478 8.462528 -28.374037
v -25.201656 0.670445 -23.613226
v -24.648586 0.634783 -25.653395
v -24.321833 3.122757 -26.192490
v -25.008223 3.390821 -24.118990
v -25.757593 0.113433 -23.769121
v -25.533785 3.424781 -24.291908
v -24.845695 3.172567 -26.368185
v -25.224594 0.071948 -25.799435
v 3.305251 5.818041 -26.555798
v 3.112442 8.258966 -26.895449
v 2.300710 8.557858 -28.248873
v 2.420678 5.740723 -28.427706
v 3.816480 5.852273 -26.770735
v 2.888813 5.808100 -28.729195
v 2.754240 8.570947 -28.578314
v 3.610412 8.258437 -27.140043
v -23.851191 0.432209 -28.747829
v -23.527035 2.928781 -28.685740
v -24.012999 3.001265 -28.964380
v -24.398884 -0.157319 -29.020737
v 4.388993 3.390821 -24.118990
v 4.010454 6.060041 -24.623320
v 3.702605 3.122757 -26.192490
v 4.527865 6.077865 -24.822758
v 4.914556 3.424781 -24.291908
v 4.226466 3.172567 -26.368185
v -23.924479 5.818041 -26.555798
v -24.629683 6.060041 -24.623320
v -25.147095 6.077865 -24.822758
v -24.435707 5.852273 -26.770735
v -23.039907 5.740723 -28.427706
v -22.919939 8.557858 -28.248873
v -23.731670 8.258966 -26.895449
v -24.229641 8.258437 -27.140043
v -23.373468 8.570947 -28.578314
v -23.508041 5.808100 -28.729195
v -24.390104 10.271538 -25.629025
v -24.890850 10.259994 -25.867525
v 2.907807 2.928781 -28.685652
v 3.231961 0.432209 -28.747829
v 4.029358 0.634783 -25.653395
v 4.605365 0.071948 -25.799435
v 3.779656 -0.157319 -29.020737
v 3.393771 3.001265 -28.964291
v -3.025895 3.046597 -28.337305
v -3.538289 3.077053 -28.575626
v -22.205240 2.883262 -30.222116
v -21.860298 5.656866 -29.928513
v -22.159010 5.750851 -30.417791
v -22.500187 2.950367 -30.722862
v 4.582429 0.670445 -23.613226
v 5.138365 0.113433 -23.769121
v -22.408173 0.416273 -30.360003
v -22.703209 -0.191809 -30.882162
v -3.202755 0.547880 -28.305321
v -3.748837 -0.018445 -28.501621
v -3.547517 3.269599 -26.092232
v -4.092972 3.270486 -26.195982
v 3.770876 10.271538 -25.629025
v 4.271622 10.259994 -25.867525
v -2.490026 11.100749 -28.021837
v -3.684866 10.331662 -25.329597
v -4.213208 10.360959 -25.504307
v -2.954666 11.127171 -28.338379
v -0.075888 8.822702 -29.577208
v -1.373851 8.645119 -29.201267
v -1.675160 8.691081 -29.687500
v -0.090313 8.873857 -30.156530
v -20.414413 0.199265 -30.503534
v -20.431168 2.892489 -30.586948
v -20.390940 2.944459 -31.159550
v -20.352055 -0.171653 -31.300034
v -17.018581 0.632194 -25.651962
v -16.789488 0.663279 -23.642256
v -16.804180 3.521812 -24.185022
v -17.071712 3.269599 -26.092232
v -16.255411 3.511684 -24.260998
v -16.242868 0.108154 -23.700762
v -16.463270 0.077327 -25.721039
v -16.526257 3.270486 -26.195982
v -18.583628 0.497440 -30.150261
v -18.752693 2.953872 -30.000727
v -18.406677 3.006372 -30.462500
v -18.209929 -0.093346 -30.607643
v 1.189731 8.772806 -29.251530
v 1.435134 11.661796 -29.260401
v 0.010751 11.761416 -29.667610
v 0.013977 11.741261 -30.240213
v 1.718074 11.640738 -29.757383
v 1.482618 8.811330 -29.748693
v -1.300562 11.600956 -29.375710
v -1.589417 11.592888 -29.873322
v 1.241160 5.656866 -29.928513
v 1.539870 5.750851 -30.417791
v -17.416473 0.547880 -28.305321
v -17.593334 3.046597 -28.337305
v -16.870392 -0.018445 -28.501621
v -17.080940 3.077053 -28.575626
v -17.775749 5.626668 -28.327181
v -19.000244 5.588674 -29.659817
v -18.677435 5.671815 -30.122665
v -17.292206 5.675849 -28.615677
v -17.246780 8.197682 -26.648256
v -16.934362 10.331662 -25.329597
v -18.129202 11.100749 -28.021837
v -17.992659 8.418097 -28.058929
v -17.664562 11.127171 -28.338379
v -16.406019 10.360959 -25.504307
v -16.724890 8.231372 -26.839273
v -17.527750 8.462528 -28.374037
v -20.429823 5.632676 -30.304724
v -20.392641 5.730423 -30.875980
v -19.245289 8.645119 -29.201267
v -20.543341 8.822702 -29.577299
v -20.528915 8.873857 -30.156620
v -18.943979 8.691081 -29.687500
v -21.808958 8.772806 -29.251530
v -22.101847 8.811330 -29.748693
v -20.629978 11.761416 -29.667610
v -22.054361 11.661796 -29.260401
v -22.337301 11.640738 -29.757383
v -20.633205 11.741261 -30.240213
v -3.843270 6.076620 -24.700460
v -3.814958 3.521812 -24.185022
v -4.363728 3.511684 -24.260998
v -4.388367 6.074732 -24.801702
v -23.182722 11.221613 -28.059647
v -23.629173 11.203331 -28.397869
v -3.829741 0.663279 -23.642256
v -3.600647 0.632194 -25.651962
v -4.376360 0.108154 -23.700762
v -4.155957 0.077327 -25.721039
v -19.318666 11.600956 -29.375710
v -19.029812 11.592888 -29.873322
v 2.563493 11.221613 -28.059647
v 3.009945 11.203331 -28.397869
v -17.096708 5.771535 -26.529903
v -16.559675 5.783551 -26.677288
v -16.775957 6.076620 -24.700460
v -16.230862 6.074732 -24.801702
v 0.380957 0.664623 -23.744841
v 0.226585 0.628331 -25.780172
v 0.381047 0.110744 -23.734985
v 0.224704 0.074637 -25.760193
v -20.845814 0.628331 -25.780172
v -21.000187 0.664623 -23.744841
v -21.000275 0.110744 -23.734985
v -20.843931 0.074637 -25.760193
v 0.022039 0.465540 -28.786177
v 0.015410 -0.087882 -28.761179
v -20.641268 0.465540 -28.786177
v -20.634638 -0.087882 -28.761179
v -0.136365 0.391268 -30.283310
v -0.146578 -0.162426 -30.267899
v -20.482864 0.391268 -30.283310
v -20.472651 -0.162426 -30.267899
vt 0.647564 0.524163
vt 0.649878 0.556892
vt 0.622300 0.556486
vt 0.628759 0.524682
vt 0.231643 0.680043
vt 0.211833 0.680061
vt 0.202805 0.649045
vt 0.233155 0.645475
vt 0.653126 0.606070
vt 0.620320 0.606274
vt 0.193980 0.600838
vt 0.233712 0.597322
vt 0.667906 0.521024
vt 0.676371 0.551036
vt 0.253088 0.687714
vt 0.264596 0.651220
vt 0.580385 0.604467
vt 0.574737 0.678219
vt 0.529100 0.669720
vt 0.531966 0.601278
vt 0.151389 0.614170
vt 0.103047 0.634407
vt 0.080713 0.564942
vt 0.128010 0.540889
vt 0.765027 0.361900
vt 0.729170 0.314984
vt 0.759939 0.259004
vt 0.815270 0.289287
vt 0.309256 0.011997
vt 0.310094 0.000201
vt 0.402747 0.012154
vt 0.391279 0.029127
vt 0.349104 0.080091
vt 0.298035 0.034872
vt 0.777614 0.584899
vt 0.783736 0.654536
vt 0.739949 0.670894
vt 0.726490 0.597754
vt 0.380827 0.632150
vt 0.323966 0.609503
vt 0.341636 0.531689
vt 0.392842 0.554303
vt 0.688781 0.269390
vt 0.709191 0.233577
vt 0.301798 0.115785
vt 0.274389 0.076161
vt 0.815267 0.484676
vt 0.838361 0.570487
vt 0.759936 0.514959
vt 0.454028 0.665052
vt 0.475851 0.673183
vt 0.402745 0.769913
vt 0.391277 0.752941
vt 0.349102 0.701976
vt 0.777617 0.189064
vt 0.838364 0.203476
vt 0.475853 0.108884
vt 0.454030 0.117015
vt 0.380829 0.149917
vt 0.726493 0.176209
vt 0.739952 0.103069
vt 0.783739 0.119426
vt 0.392844 0.227764
vt 0.341639 0.250378
vt 0.323968 0.172563
vt 0.838364 0.069508
vt 0.475853 0.286140
vt 0.454770 0.276284
vt 0.709189 0.540386
vt 0.688778 0.504573
vt 0.729167 0.458979
vt 0.298032 0.747195
vt 0.274386 0.705906
vt 0.301797 0.666283
vt 0.587988 0.550638
vt 0.170283 0.662439
vt 0.676372 0.222927
vt 0.684308 0.170193
vt 0.273666 0.183470
vt 0.264597 0.130847
vt 0.765024 0.412063
vt 0.310092 0.781867
vt 0.309253 0.770071
vt 0.667909 0.252939
vt 0.253091 0.094353
vt 0.602845 0.511959
vt 0.193278 0.695336
vt 0.539321 0.536278
vt 0.133081 0.691060
vt 0.838361 0.704455
vt 0.454768 0.505783
vt 0.475851 0.495927
vt 0.574585 0.757323
vt 0.484332 0.730510
vt 0.021143 0.523496
vt 0.000201 0.516331
vt 0.088662 0.431959
vt 0.102604 0.453301
vt 0.661307 0.687501
vt 0.622631 0.684815
vt 0.183956 0.520750
vt 0.235978 0.511415
vt 0.647567 0.249800
vt 0.649879 0.217071
vt 0.233155 0.136591
vt 0.231645 0.102023
vt 0.565430 0.295735
vt 0.528577 0.334278
vt 0.488265 0.256030
vt 0.539323 0.237686
vt 0.101149 0.051457
vt 0.092408 0.036542
vt 0.175240 0.028153
vt 0.177274 0.038588
vt 0.182795 0.057174
vt 0.133082 0.091006
vt 0.628761 0.249281
vt 0.622302 0.217476
vt 0.202807 0.133022
vt 0.211835 0.102006
vt 0.698257 0.682798
vt 0.713493 0.767072
vt 0.669856 0.773763
vt 0.239472 0.416244
vt 0.239257 0.391234
vt 0.307098 0.398504
vt 0.302164 0.421599
vt 0.288047 0.515118
vt 0.629632 0.771551
vt 0.173447 0.399129
vt 0.179829 0.425454
vt 0.684306 0.603770
vt 0.273666 0.598598
vt 0.602848 0.262003
vt 0.587991 0.223325
vt 0.193280 0.086730
vt 0.170284 0.119627
vt 0.580387 0.169496
vt 0.620322 0.167689
vt 0.193981 0.181228
vt 0.151390 0.167896
vt 0.529102 0.104244
vt 0.484334 0.043454
vt 0.574586 0.016640
vt 0.574738 0.095744
vt 0.102604 0.328765
vt 0.088662 0.350107
vt 0.000201 0.265735
vt 0.021143 0.258570
vt 0.080714 0.217124
vt 0.128010 0.241177
vt 0.653125 0.167893
vt 0.233713 0.184745
vt 0.622630 0.089149
vt 0.661309 0.086463
vt 0.235980 0.270651
vt 0.183955 0.261315
vt 0.698260 0.091165
vt 0.288049 0.266948
vt 0.669858 0.000201
vt 0.713495 0.006891
vt 0.302166 0.360468
vt 0.307099 0.383563
vt 0.239258 0.390832
vt 0.239473 0.365822
vt 0.476253 0.598695
vt 0.488263 0.517934
vt 0.101147 0.730609
vt 0.092405 0.745524
vt 0.027018 0.671181
vt 0.045246 0.661798
vt 0.761033 0.026167
vt 0.370042 0.338353
vt 0.381866 0.359891
vt 0.528574 0.439685
vt 0.565427 0.478228
vt 0.177272 0.743478
vt 0.175238 0.753913
vt 0.182794 0.724890
vt 0.629633 0.002413
vt 0.173448 0.382937
vt 0.179830 0.356612
vt 0.761030 0.747796
vt 0.370040 0.443713
vt 0.381864 0.422176
vt 0.531968 0.172685
vt 0.103048 0.147658
vt 0.476255 0.175269
vt 0.027019 0.110884
vt 0.045247 0.120267
vt 0.640161 0.391234
vt 0.643270 0.447347
vt 0.243742 0.758585
vt 0.241914 0.767468
vt 0.788100 0.994231
vt 0.787910 0.890344
vt 0.835969 0.886980
vt 0.835975 0.999799
vt 0.787729 0.786456
vt 0.835975 0.774164
vt 0.643273 0.326616
vt 0.640164 0.382729
vt 0.241917 0.014599
vt 0.243744 0.023482
vt 0.655913 0.774164
vt 0.655907 0.886983
vt 0.607848 0.883620
vt 0.608038 0.779732
vt 0.655913 0.999799
vt 0.607667 0.987508
vt 0.646797 0.501782
vt 0.716605 0.894794
vt 0.711009 0.805479
vt 0.722196 0.984109
vt 0.646799 0.272180
vt 0.530947 0.968485
vt 0.536543 0.879170
vt 0.542134 0.789855
vt 0.647805 0.520841
vt 0.672444 0.952005
vt 0.680806 0.898376
vt 0.666593 0.845389
vt 0.647808 0.253121
vt 0.500744 0.875587
vt 0.492382 0.821959
vt 0.486531 0.928574
vt 0.656315 0.901079
vt 0.476253 0.872885
vn 0.2565 -0.0217 0.9663
vn -0.3169 0.0555 -0.9468
vn 0.3648 -0.1237 0.9228
vn -0.3621 0.1238 -0.9239
vn -0.1329 -0.0153 0.9910
vn 0.1881 0.0519 -0.9808
vn 0.9119 -0.0757 0.4033
vn 0.9118 -0.0760 0.4035
vn 0.9118 -0.0759 0.4035
vn -0.9130 0.0760 -0.4009
vn -0.9129 0.0762 -0.4011
vn -0.9128 0.0762 -0.4012
vn 0.9561 -0.0371 0.2908
vn -0.3652 0.1810 0.9132
vn -0.9569 0.0410 -0.2875
vn -0.8855 -0.0385 0.4631
vn 0.8859 0.0389 -0.4622
vn 0.9552 -0.0980 0.2791
vn -0.9557 0.0939 -0.2789
vn -0.9382 -0.0813 0.3363
vn 0.3177 0.2248 0.9211
vn 0.9383 0.0814 -0.3360
vn 0.9382 -0.0813 0.3363
vn -0.3177 0.2248 0.9211
vn -0.9383 0.0814 -0.3360
vn 0.8855 -0.0385 0.4631
vn -0.8859 0.0389 -0.4622
vn 0.9210 -0.1410 0.3631
vn -0.9209 0.1425 -0.3627
vn 0.9241 0.0172 0.3818
vn -0.3823 0.2405 0.8922
vn -0.9240 -0.0171 -0.3820
vn -0.9552 -0.0980 0.2792
vn 0.9557 0.0939 -0.2789
vn 0.7758 -0.1059 0.6220
vn -0.7757 0.1065 -0.6220
vn 0.7563 -0.1749 0.6304
vn -0.7548 0.1748 -0.6322
vn -0.9561 -0.0371 0.2908
vn 0.3652 0.1810 0.9132
vn 0.9569 0.0410 -0.2875
vn -0.9210 -0.1410 0.3631
vn 0.9209 0.1425 -0.3627
vn 0.7462 -0.1057 0.6573
vn -0.7441 0.0922 -0.6617
vn 0.8300 -0.0711 0.5533
vn -0.8292 0.0609 -0.5557
vn 0.9581 -0.0150 0.2860
vn -0.9579 0.0166 -0.2867
vn -0.9241 0.0172 0.3818
vn 0.3823 0.2405 0.8922
vn 0.9240 -0.0171 -0.3820
vn 0.9084 -0.0822 0.4099
vn -0.0646 0.9685 0.2404
vn -0.9084 0.0827 -0.4098
vn 0.3576 -0.1939 0.9135
vn -0.3532 0.1945 -0.9151
vn 0.1329 -0.0153 0.9910
vn -0.1881 0.0519 -0.9808
vn -0.9921 0.0101 0.1251
vn 0.2063 0.1706 0.9635
vn 0.9924 -0.0079 -0.1227
vn -0.2565 -0.0217 0.9663
vn 0.3169 0.0555 -0.9468
vn -0.2611 0.0313 0.9648
vn 0.0695 0.9974 -0.0198
vn 0.2607 -0.0312 -0.9649
vn -0.7462 -0.1057 0.6573
vn 0.7441 0.0922 -0.6617
vn 0.7162 -0.0097 0.6979
vn -0.1671 0.9700 0.1765
vn -0.7166 0.0098 -0.6974
vn -0.7564 -0.1749 0.6303
vn 0.7549 0.1748 -0.6322
vn -0.9822 -0.0269 0.1861
vn 0.9825 0.0266 -0.1846
vn 0.2433 0.0369 0.9692
vn -0.1050 0.9945 0.0018
vn -0.2498 -0.0370 -0.9676
vn -0.7357 -0.1175 0.6670
vn 0.7358 0.1181 -0.6668
vn -0.8300 -0.0711 0.5533
vn 0.8292 0.0609 -0.5557
vn -0.2483 -0.2083 0.9460
vn 0.2480 0.2086 -0.9461
vn -0.7759 -0.1058 0.6220
vn 0.7757 0.1065 -0.6220
vn -0.9118 -0.0759 0.4034
vn -0.9084 -0.0822 0.4099
vn -0.9118 -0.0760 0.4035
vn 0.0646 0.9685 0.2404
vn 0.9129 0.0762 -0.4011
vn 0.9128 0.0762 -0.4012
vn 0.9084 0.0827 -0.4098
vn -0.3648 -0.1237 0.9228
vn 0.3621 0.1238 -0.9239
vn -0.3577 -0.1940 0.9135
vn 0.3532 0.1945 -0.9151
vn 0.2233 -0.1151 0.9679
vn -0.2227 0.1155 -0.9680
vn 0.2483 -0.2082 0.9460
vn -0.2480 0.2086 -0.9460
vn 0.2611 0.0313 0.9648
vn -0.0695 0.9974 -0.0198
vn -0.2607 -0.0312 -0.9649
vn 0.9881 0.0291 0.1512
vn -0.1589 0.1980 0.9672
vn -0.9880 -0.0288 -0.1514
vn 0.9768 -0.0213 0.2130
vn -0.2420 0.1587 0.9572
vn -0.9767 0.0219 -0.2136
vn 0.6948 0.0403 0.7181
vn -0.2077 0.9687 0.1357
vn -0.6965 -0.0401 -0.7165
vn 0.9921 0.0101 0.1250
vn -0.2063 0.1706 0.9635
vn -0.9924 -0.0079 -0.1227
vn 0.8786 0.0246 0.4769
vn -0.1914 0.9450 0.2654
vn -0.8787 -0.0244 -0.4767
vn 0.7357 -0.1175 0.6670
vn -0.7358 0.1181 -0.6669
vn -0.2433 0.0369 0.9692
vn 0.1050 0.9945 0.0018
vn 0.2499 -0.0369 -0.9676
vn -0.7162 -0.0097 0.6978
vn 0.1671 0.9700 0.1765
vn 0.7166 0.0099 -0.6974
vn -0.8786 0.0246 0.4769
vn 0.1914 0.9450 0.2654
vn 0.8787 -0.0244 -0.4767
vn -0.6948 0.0403 0.7181
vn 0.2077 0.9687 0.1357
vn 0.6965 -0.0401 -0.7165
vn -0.7050 -0.1420 0.6948
vn 0.7079 0.1419 -0.6919
vn -0.9119 -0.0757 0.4033
vn 0.9130 0.0760 -0.4009
vn -0.9581 -0.0150 0.2860
vn 0.9579 0.0166 -0.2867
vn 0.7050 -0.1420 0.6948
vn -0.7079 0.1419 -0.6919
vn -0.2233 -0.1151 0.9679
vn 0.2227 0.1155 -0.9680
vn 0.9822 -0.0269 0.1861
vn -0.9825 0.0266 -0.1846
vn -0.9768 -0.0213 0.2130
vn 0.2420 0.1587 0.9572
vn 0.9767 0.0219 -0.2136
vn -0.9881 0.0291 0.1512
vn 0.1589 0.1980 0.9672
vn 0.9880 -0.0288 -0.1515
vn -0.0002 0.9999 -0.0167
vn -0.0006 0.9999 -0.0171
vn -0.0005 0.9999 -0.0171
vn 0.0153 -0.0513 0.9986
vn 0.0001 -0.9999 0.0165
vn 0.0001 -0.9998 0.0178
vn 0.0001 -0.9998 0.0179
vn -0.0010 0.9998 -0.0175
vn -0.0107 -0.1356 0.9907
vn 0.0002 -0.9998 0.0191
vn 0.0002 0.9999 -0.0167
vn 0.0005 0.9999 -0.0171
vn 0.0006 0.9999 -0.0171
vn -0.0153 -0.0513 0.9986
vn -0.0001 -0.9999 0.0165
vn -0.0001 -0.9998 0.0179
vn -0.0001 -0.9998 0.0178
vn 0.0010 0.9998 -0.0175
vn 0.0107 -0.1356 0.9907
vn -0.0002 -0.9998 0.0191
vn 0.0053 0.9981 -0.0606
vn -0.0065 -0.9979 0.0639
vn 0.0085 0.9990 -0.0433
vn -0.0072 -0.9990 0.0444
vn -0.0053 0.9981 -0.0606
vn 0.0065 -0.9979 0.0639
vn -0.0085 0.9990 -0.0433
vn 0.0072 -0.9990 0.0444
vn 0.0335 0.9991 -0.0272
vn -0.0234 -0.9992 0.0337
vn -0.0111 -0.9992 0.0384
vn -0.0233 -0.9992 0.0339
vn 0.0014 0.9996 -0.0297
vn -0.0109 -0.9992 0.0383
vn -0.0335 0.9991 -0.0272
vn 0.0234 -0.9992 0.0337
vn 0.0233 -0.9992 0.0339
vn 0.0111 -0.9992 0.0384
vn -0.0014 0.9996 -0.0297
vn 0.0109 -0.9992 0.0383
vn -0.0198 0.7565 -0.6537
vn -0.0212 -0.9997 0.0114
vn 0.0198 0.7566 -0.6535
vn 0.0212 -0.9997 0.0114
usemtl initialShadingGroup
s 1
f 1/1/1 2/2/1 3/3/1 4/4/1
f 5/5/2 6/6/2 7/7/2 8/8/2
f 3/3/3 2/2/3 9/9/3 10/10/3
f 7/7/4 11/11/4 12/12/4 8/8/4
f 13/13/5 14/14/5 2/2/5 1/1/5
f 15/15/6 5/5/6 8/8/6 16/16/6
f 17/17/7 18/18/8 19/19/9 20/20/7
f 21/21/10 22/22/10 23/23/11 24/24/12
f 25/25/13 26/26/13 27/27/13 28/28/13
f 29/29/14 25/30/14 28/31/14 30/32/14
f 29/29/15 30/32/15 31/33/15 32/34/15
f 33/35/16 34/36/16 35/37/16 36/38/16
f 37/39/17 38/40/17 39/41/17 40/42/17
f 27/27/18 26/26/18 41/43/18 42/44/18
f 31/33/19 43/45/19 44/46/19 32/34/19
f 45/47/20 46/48/20 33/35/20 47/49/20
f 48/50/21 46/51/21 45/52/21 49/53/21
f 49/53/22 50/54/22 37/39/22 48/50/22
f 28/28/23 27/27/23 51/55/23 52/56/23
f 30/32/24 28/31/24 52/57/24 53/58/24
f 30/32/25 53/58/25 54/59/25 31/33/25
f 51/55/26 55/60/26 56/61/26 57/62/26
f 54/59/27 58/63/27 59/64/27 60/65/27
f 51/55/28 27/27/28 42/44/28 55/60/28
f 54/59/29 60/65/29 43/45/29 31/33/29
f 51/55/30 57/62/30 61/66/30 52/56/30
f 53/58/31 52/57/31 61/67/31 62/68/31
f 54/59/32 53/58/32 62/68/32 58/63/32
f 47/49/33 63/69/33 64/70/33 65/71/33
f 50/54/34 66/72/34 67/73/34 68/74/34
f 3/3/35 10/10/35 17/17/35 69/75/35
f 7/7/36 70/76/36 21/21/36 11/11/36
f 42/44/37 71/77/37 72/78/37 55/60/37
f 43/45/38 60/65/38 73/79/38 74/80/38
f 75/81/39 45/47/39 47/49/39 65/71/39
f 49/53/40 45/52/40 75/82/40 76/83/40
f 76/83/41 66/72/41 50/54/41 49/53/41
f 33/35/42 36/38/42 63/69/42 47/49/42
f 37/39/43 50/54/43 68/74/43 38/40/43
f 42/44/44 41/43/44 77/84/44 71/77/44
f 43/45/45 74/80/45 78/85/45 44/46/45
f 69/75/46 79/86/46 4/4/46 3/3/46
f 70/76/47 7/7/47 6/6/47 80/87/47
f 17/17/48 20/20/48 81/88/48 69/75/48
f 21/21/49 70/76/49 82/89/49 22/22/49
f 33/35/50 46/48/50 83/90/50 34/36/50
f 84/91/51 83/92/51 46/51/51 48/50/51
f 37/39/52 40/42/52 84/91/52 48/50/52
f 19/19/9 18/18/8 85/93/53 86/94/53
f 87/95/54 86/96/54 85/97/54 88/98/54
f 23/23/11 87/95/55 88/98/55 24/24/12
f 9/9/56 89/99/56 90/100/56 10/10/56
f 12/12/57 11/11/57 91/101/57 92/102/57
f 77/84/58 93/103/58 94/104/58 71/77/58
f 78/85/59 74/80/59 95/105/59 96/106/59
f 97/107/60 98/108/60 99/109/60 100/110/60
f 101/111/61 99/112/61 98/113/61 102/114/61
f 103/115/62 104/116/62 101/111/62 102/114/62
f 93/103/63 105/117/63 106/118/63 94/104/63
f 96/106/64 95/105/64 107/119/64 108/120/64
f 109/121/65 110/122/65 111/123/65 89/99/65
f 112/124/66 111/125/66 110/126/66 113/127/66
f 114/128/67 92/102/67 112/124/67 113/127/67
f 63/69/68 14/14/68 13/13/68 64/70/68
f 68/74/69 67/73/69 15/15/69 16/16/69
f 115/129/70 85/93/70 18/18/70 90/100/70
f 88/98/71 85/97/71 115/130/71 116/131/71
f 116/131/72 91/101/72 24/24/72 88/98/72
f 63/69/73 36/38/73 117/132/73 14/14/73
f 68/74/74 16/16/74 118/133/74 38/40/74
f 119/134/75 97/107/75 100/110/75 120/135/75
f 121/136/76 122/137/76 104/116/76 103/115/76
f 111/123/77 115/129/77 90/100/77 89/99/77
f 116/131/78 115/130/78 111/125/78 112/124/78
f 112/124/79 92/102/79 91/101/79 116/131/79
f 109/121/80 117/132/80 36/38/80 35/37/80
f 114/128/81 39/41/81 38/40/81 118/133/81
f 120/135/82 106/118/82 105/117/82 119/134/82
f 122/137/83 121/136/83 108/120/83 107/119/83
f 9/9/84 117/132/84 109/121/84 89/99/84
f 12/12/85 92/102/85 114/128/85 118/133/85
f 106/118/86 120/135/86 123/138/86 124/139/86
f 107/119/87 125/140/87 126/141/87 122/137/87
f 127/142/88 128/143/89 129/144/89 130/145/90
f 131/146/91 129/147/91 128/148/91 132/149/91
f 133/150/92 134/151/93 131/146/94 132/149/94
f 106/118/95 124/139/95 135/152/95 94/104/95
f 107/119/96 95/105/96 136/153/96 125/140/96
f 135/152/97 124/139/97 137/154/97 138/155/97
f 136/153/98 139/156/98 140/157/98 125/140/98
f 135/152/99 72/78/99 71/77/99 94/104/99
f 136/153/100 95/105/100 74/80/100 73/79/100
f 135/152/101 138/155/101 141/158/101 72/78/101
f 136/153/102 73/79/102 142/159/102 139/156/102
f 141/158/103 138/155/103 143/160/103 144/161/103
f 145/162/104 144/163/104 143/164/104 146/165/104
f 142/159/105 145/162/105 146/165/105 139/156/105
f 20/20/106 147/166/106 148/167/106 81/88/106
f 149/168/107 148/169/107 147/170/107 150/171/107
f 22/22/108 82/89/108 149/168/108 150/171/108
f 20/20/109 19/19/109 86/94/109 147/166/109
f 150/171/110 147/170/110 86/96/110 87/95/110
f 22/22/111 150/171/111 87/95/111 23/23/111
f 144/161/112 151/172/112 56/61/112 141/158/112
f 152/173/113 151/174/113 144/163/113 145/162/113
f 145/162/114 142/159/114 59/64/114 152/173/114
f 153/175/115 154/176/115 81/88/115 148/167/115
f 155/177/116 153/178/116 148/169/116 149/168/116
f 155/177/117 149/168/117 82/89/117 156/179/117
f 151/172/118 61/66/118 57/62/118 56/61/118
f 62/68/119 61/67/119 151/174/119 152/173/119
f 152/173/120 59/64/120 58/63/120 62/68/120
f 141/158/121 56/61/121 55/60/121 72/78/121
f 142/159/122 73/79/122 60/65/122 59/64/122
f 143/160/123 138/155/123 137/154/123 157/180/123
f 146/165/124 143/164/124 157/181/124 158/182/124
f 146/165/125 158/182/125 140/157/125 139/156/125
f 157/180/126 137/154/126 130/145/126 129/144/126
f 158/182/127 157/181/127 129/147/127 131/146/127
f 158/182/128 131/146/128 134/151/128 140/157/128
f 159/183/129 35/37/129 34/36/129 83/90/129
f 160/184/130 159/185/130 83/92/130 84/91/130
f 160/184/131 84/91/131 40/42/131 39/41/131
f 110/122/132 109/121/132 35/37/132 159/183/132
f 113/127/133 110/126/133 159/185/133 160/184/133
f 113/127/134 160/184/134 39/41/134 114/128/134
f 130/145/135 137/154/135 124/139/135 123/138/135
f 134/151/136 126/141/136 125/140/136 140/157/136
f 123/138/137 161/186/137 127/142/88 130/145/90
f 126/141/138 134/151/93 133/150/92 162/187/138
f 123/138/139 120/135/139 100/110/139 161/186/139
f 126/141/140 162/187/140 104/116/140 122/137/140
f 18/18/141 17/17/141 10/10/141 90/100/141
f 24/24/142 91/101/142 11/11/142 21/21/142
f 9/9/143 2/2/143 14/14/143 117/132/143
f 12/12/144 118/133/144 16/16/144 8/8/144
f 79/86/145 69/75/145 81/88/145 154/176/145
f 80/87/146 156/179/146 82/89/146 70/76/146
f 161/186/147 163/188/147 128/143/147 127/142/147
f 132/149/148 128/148/148 163/189/148 164/190/148
f 162/187/149 133/150/149 132/149/149 164/190/149
f 161/186/150 100/110/150 99/109/150 163/188/150
f 164/190/151 163/189/151 99/112/151 101/111/151
f 162/187/152 164/190/152 101/111/152 104/116/152
f 154/176/153 153/175/153 165/191/154 166/192/155
f 167/193/156 165/194/156 153/178/156 155/177/156
f 156/195/157 168/196/158 167/197/159 155/198/157
f 166/192/155 165/191/154 75/81/160 65/71/160
f 76/83/161 75/82/161 165/194/161 167/193/161
f 168/196/158 66/199/162 76/200/162 167/197/159
f 98/108/163 97/107/163 169/201/164 170/202/165
f 102/114/166 98/113/166 170/203/166 171/204/166
f 102/205/167 171/206/168 172/207/169 103/208/167
f 170/202/165 169/201/164 26/26/170 25/25/170
f 171/204/171 170/203/171 25/30/171 29/29/171
f 171/206/168 29/209/172 32/210/172 172/207/169
f 65/71/173 64/70/173 173/211/173 166/192/173
f 66/199/174 168/196/174 174/212/174 67/213/174
f 166/192/175 173/211/175 79/86/175 154/176/175
f 168/196/176 156/195/176 80/214/176 174/212/176
f 41/43/177 26/26/177 169/201/177 175/215/177
f 44/216/178 176/217/178 172/207/178 32/210/178
f 175/215/179 169/201/179 97/107/179 119/134/179
f 176/217/180 121/218/180 103/208/180 172/207/180
f 4/4/181 79/86/181 173/211/181 177/219/181
f 6/220/182 178/221/183 174/212/184 80/214/182
f 177/219/185 173/211/185 64/70/185 13/13/185
f 178/221/183 15/222/186 67/213/186 174/212/184
f 119/134/187 105/117/187 179/223/187 175/215/187
f 121/218/188 176/217/189 180/224/190 108/225/188
f 175/215/191 179/223/191 77/84/191 41/43/191
f 176/217/189 44/216/192 78/226/192 180/224/190
f 4/4/193 177/219/193 13/13/193 1/1/193
f 6/220/194 5/227/194 15/222/194 178/221/194
f 179/223/195 105/117/195 93/103/195 77/84/195
f 180/224/196 78/226/196 96/228/196 108/225/196
