# This file uses centimeters as units for non-parametric coordinates.

mtllib PA.mtl
g default
v -0.011975 1.001884 0.030827
v 0.003965 1.001884 0.030827
v 0.003965 0.999268 -0.034182
v -0.011975 0.999268 -0.034182
v -0.011975 0.788765 0.084373
v -0.011975 0.794609 0.099354
v -0.011975 0.808701 0.105385
v 0.013622 0.788765 0.084373
v 0.017705 0.808701 0.105385
v 0.013622 0.794609 0.099354
v 0.013622 0.794609 -0.099233
v 0.017705 0.808701 -0.105385
v 0.013622 0.788765 -0.084252
v -0.011975 0.788765 -0.084252
v -0.011975 0.808701 -0.105385
v -0.011975 0.794609 -0.099233
v 0.018539 0.832962 0.105385
v 0.018539 0.887077 0.105385
v 0.012523 0.937805 0.093398
v 0.008068 0.983253 0.057192
v 0.008068 0.976601 -0.066888
v 0.012523 0.936203 -0.094557
v 0.018539 0.887077 -0.105385
v 0.018539 0.832962 -0.105385
v -0.011975 0.983253 0.057192
v -0.011975 0.937805 0.093398
v -0.011975 0.887077 0.105385
v -0.011975 0.832962 0.105385
v -0.011975 0.832962 -0.105385
v -0.011975 0.887077 -0.105385
v -0.011975 0.936203 -0.094557
v -0.011975 0.976601 -0.066888
v -0.011975 0.832962 -0.000001
v -0.011975 0.887077 -0.000001
v -0.011975 0.941193 -0.000001
v -0.011975 0.995316 -0.000001
v -0.011975 1.013298 -0.000001
v 0.000224 1.013298 -0.000001
v -0.009757 0.995316 -0.000001
v -0.009757 0.941193 -0.000001
v -0.009757 0.887077 -0.000001
v -0.009757 0.832962 -0.000001
v 0.004637 0.802132 -0.000241
v -0.011975 0.808701 0.000571
v 0.013622 0.794609 0.001112
v -0.011975 0.794609 0.000856
v 0.017001 -0.013299 -0.003824
v 0.014414 -0.013299 -0.008985
v 0.010384 -0.013299 -0.012987
v 0.005306 -0.013299 -0.015527
v -0.000323 -0.013299 -0.016397
v -0.005952 -0.013299 -0.015527
v -0.011030 -0.013299 -0.012987
v -0.015060 -0.013299 -0.008984
v -0.017647 -0.013299 -0.003824
v -0.018539 -0.013299 0.001808
v -0.017647 -0.013299 0.007318
v -0.015060 -0.013299 0.012479
v -0.011030 -0.013299 0.016481
v -0.005952 -0.013299 0.019143
v -0.000323 -0.013299 0.019890
v 0.005306 -0.013299 0.019143
v 0.010384 -0.013299 0.016481
v 0.014414 -0.013299 0.012478
v 0.017001 -0.013299 0.007318
v 0.017893 -0.013299 0.001808
v 0.012324 0.790390 -0.002222
v 0.010436 0.790390 -0.006022
v 0.007494 0.790390 -0.009032
v 0.003786 0.790390 -0.010866
v -0.000323 0.790390 -0.011569
v -0.004432 0.790390 -0.010866
v -0.008139 0.790390 -0.009032
v -0.011082 0.790390 -0.006021
v -0.012970 0.790390 -0.002221
v -0.013621 0.790390 0.001808
v -0.012970 0.790390 0.005960
v -0.011081 0.790390 0.009515
v -0.008139 0.790390 0.012526
v -0.004432 0.790390 0.014482
v -0.000323 0.790390 0.015062
v 0.003786 0.790390 0.014482
v 0.007494 0.790390 0.012526
v 0.010436 0.790390 0.009515
v 0.012324 0.790390 0.005960
v 0.012975 0.790390 0.001808
v -0.000323 -0.013299 0.001808
v -0.000323 0.790390 0.001808
v 0.014210 0.775665 -0.003003
v 0.012039 0.775665 -0.007196
v 0.008659 0.775665 -0.010533
v 0.004399 0.775665 -0.012724
v -0.000323 0.775665 -0.013497
v -0.005045 0.775665 -0.012724
v -0.009305 0.775665 -0.010533
v -0.012685 0.775665 -0.007195
v -0.014856 0.775665 -0.003002
v -0.015604 0.775665 0.001808
v -0.014856 0.775665 0.006497
v -0.012685 0.775665 0.010812
v -0.009305 0.775665 0.014149
v -0.005045 0.775665 0.016340
v -0.000323 0.775665 0.016990
v 0.004399 0.775665 0.016340
v 0.008659 0.775665 0.014149
v 0.012039 0.775665 0.010812
v 0.014210 0.775665 0.006496
v 0.014958 0.775665 0.001808
vt 0.125000 0.000000
vt 0.125000 0.250000
vt 0.649997 0.000000
vt 0.850002 0.250000
vt 0.603406 -0.000000
vt 0.649997 0.250000
vt 0.850002 -0.000000
vt 0.625000 0.000000
vt 0.625000 0.500000
vt 0.875000 0.250000
vt 0.875000 0.000000
vt 0.577130 1.000000
vt 0.577130 -0.000000
vt 0.603406 0.250000
vt 0.577130 0.500000
vt 0.603406 0.750000
vt 0.401276 0.500000
vt 0.375000 0.250000
vt 0.625000 0.774997
vt 0.625000 0.975002
vt 0.625000 1.000000
vt 0.603406 1.000000
vt 0.577130 0.750000
vt 0.625000 0.750000
vt 0.603406 0.500000
vt 0.577130 0.250000
vt 0.625000 0.250000
vt 0.625000 0.274998
vt 0.625000 0.475002
vt 0.401276 1.000000
vt 0.375000 1.000000
vt 0.375000 0.750000
vt 0.375000 -0.000000
vt 0.401276 0.250000
vt 0.375000 0.500000
vt 0.401276 0.750000
vt 0.401276 -0.000000
vt 0.518512 0.250000
vt 0.459894 0.250000
vt 0.459894 0.500000
vt 0.518512 0.500000
vt 0.459894 -0.000000
vt 0.459894 1.000000
vt 0.518512 -0.000000
vt 0.518512 1.000000
vt 0.518512 0.750000
vt 0.459894 0.750000
vt 0.577130 0.875000
vt 0.518512 0.875000
vt 0.459894 0.875000
vt 0.401276 0.875000
vt 0.250000 -0.000000
vt 0.375000 0.875000
vt 0.250000 0.250000
vt 0.375000 0.375000
vt 0.401276 0.375000
vt 0.459894 0.375000
vt 0.518512 0.375000
vt 0.577130 0.375000
vt 0.603406 0.375275
vt 0.603406 0.875559
vt 0.625000 0.373651
vt 0.625000 0.876143
vt 0.375000 0.678199
vt 0.387500 0.678199
vt 0.387500 0.688440
vt 0.375000 0.688440
vt 0.400000 0.678199
vt 0.400000 0.688440
vt 0.412500 0.678199
vt 0.412500 0.688440
vt 0.425000 0.678199
vt 0.425000 0.688440
vt 0.437500 0.678199
vt 0.437500 0.688440
vt 0.450000 0.678199
vt 0.450000 0.688440
vt 0.462500 0.678199
vt 0.462500 0.688440
vt 0.475000 0.678199
vt 0.475000 0.688440
vt 0.487500 0.678199
vt 0.487500 0.688440
vt 0.500000 0.678199
vt 0.500000 0.688440
vt 0.512500 0.678199
vt 0.512500 0.688440
vt 0.525000 0.678199
vt 0.525000 0.688440
vt 0.537500 0.678199
vt 0.537500 0.688440
vt 0.550000 0.678199
vt 0.550000 0.688440
vt 0.562500 0.678199
vt 0.562500 0.688440
vt 0.575000 0.678199
vt 0.575000 0.688440
vt 0.587500 0.678199
vt 0.587500 0.688440
vt 0.600000 0.678199
vt 0.600000 0.688440
vt 0.612500 0.678199
vt 0.612500 0.688440
vt 0.625000 0.678199
vt 0.625000 0.688440
vt 0.626409 0.064408
vt 0.648603 0.107966
vt 0.500000 0.150000
vt 0.591842 0.029841
vt 0.548284 0.007647
vt 0.500000 -0.000000
vt 0.451716 0.007647
vt 0.408159 0.029841
vt 0.373591 0.064409
vt 0.351397 0.107966
vt 0.343750 0.156250
vt 0.351397 0.204534
vt 0.373591 0.248091
vt 0.408159 0.282659
vt 0.451716 0.304853
vt 0.500000 0.312500
vt 0.548284 0.304853
vt 0.591841 0.282659
vt 0.626409 0.248091
vt 0.648603 0.204534
vt 0.656250 0.156250
vt 0.648603 0.892034
vt 0.626409 0.935591
vt 0.500000 0.837500
vt 0.591841 0.970159
vt 0.548284 0.992353
vt 0.500000 1.000000
vt 0.451716 0.992353
vt 0.408159 0.970159
vt 0.373591 0.935591
vt 0.351397 0.892034
vt 0.343750 0.843750
vt 0.351397 0.795466
vt 0.373591 0.751909
vt 0.408159 0.717341
vt 0.451716 0.695147
vt 0.500000 0.687500
vt 0.548284 0.695147
vt 0.591842 0.717341
vt 0.626409 0.751908
vt 0.648603 0.795466
vt 0.656250 0.843750
vt 0.375000 0.312500
vt 0.387500 0.312500
vt 0.400000 0.312500
vt 0.412500 0.312500
vt 0.425000 0.312500
vt 0.437500 0.312500
vt 0.450000 0.312500
vt 0.462500 0.312500
vt 0.475000 0.312500
vt 0.487500 0.312500
vt 0.500000 0.312500
vt 0.512500 0.312500
vt 0.525000 0.312500
vt 0.537500 0.312500
vt 0.550000 0.312500
vt 0.562500 0.312500
vt 0.575000 0.312500
vt 0.587500 0.312500
vt 0.600000 0.312500
vt 0.612500 0.312500
vt 0.625000 0.312500
vn 0.000000 -0.999494 0.031814
vn 0.000000 -0.999494 0.031814
vn 0.000000 -0.999494 -0.031814
vn 0.000000 -0.999494 -0.031814
vn 0.000000 0.925100 -0.379723
vn 0.000000 0.999191 -0.040222
vn 0.000000 0.999248 -0.038785
vn 0.000000 0.925100 -0.379723
vn 0.000000 -0.147251 0.989099
vn 0.000000 -0.393469 0.919338
vn 0.000000 -0.393469 0.919338
vn 0.000000 -0.128752 0.991677
vn 0.000000 -0.931625 0.363422
vn 0.000000 -0.931625 0.363422
vn 0.000000 -0.131347 -0.991336
vn 0.000000 -0.400116 -0.916464
vn 0.000000 -0.400116 -0.916464
vn 0.000000 -0.150142 -0.988664
vn 0.000000 -0.931617 -0.363442
vn 0.000000 -0.931617 -0.363442
vn 0.993521 -0.113521 -0.005374
vn 0.999988 0.000116 -0.004976
vn 0.969510 0.016163 0.244518
vn 0.968240 -0.037451 0.247201
vn 0.999897 0.014303 -0.001042
vn 0.967401 0.013341 0.252896
vn 0.996887 0.078839 -0.000307
vn 0.967762 0.079705 0.238923
vn -1.000000 0.000000 0.000000
vn -1.000000 -0.000000 0.000000
vn -1.000000 -0.000000 0.000000
vn -1.000000 0.000000 0.000000
vn -1.000000 0.000000 0.000000
vn -1.000000 -0.000000 0.000000
vn -1.000000 0.000000 0.000000
vn -1.000000 0.000000 0.000000
vn 0.000000 0.000000 1.000000
vn 0.000000 0.000000 1.000000
vn 0.000000 0.000000 -1.000000
vn 0.000000 0.000000 -1.000000
vn 0.920902 -0.389348 0.018628
vn 0.874732 -0.374223 0.307898
vn -1.000000 0.000000 0.000000
vn -1.000000 0.000000 0.000000
vn -1.000000 0.000000 0.000000
vn -1.000000 0.000000 0.000000
vn 0.970944 0.239300 0.002047
vn 0.956808 0.235882 0.169933
vn -1.000000 -0.000000 0.000000
vn -1.000000 -0.000000 0.000000
vn 0.000000 0.816672 0.577102
vn 0.000000 0.688943 0.724816
vn 0.000000 0.683287 0.730150
vn 0.000000 0.816672 0.577102
vn 0.000000 0.821904 -0.569626
vn 0.000000 0.669651 -0.742676
vn 0.000000 0.677586 -0.735443
vn 0.000000 0.821904 -0.569626
vn 0.000000 0.103228 0.994658
vn 0.000000 0.107594 0.994195
vn 0.000000 0.414593 0.910007
vn 0.000000 0.426750 0.904370
vn 0.000000 0.364570 -0.931176
vn 0.000000 0.376235 -0.926524
vn 0.000000 0.094491 -0.995526
vn 0.000000 0.098711 -0.995116
vn -1.000000 0.000000 0.000000
vn -1.000000 0.000000 0.000000
vn -1.000000 0.000000 0.000000
vn -1.000000 0.000000 0.000000
vn -1.000000 0.000000 0.000000
vn 0.000000 0.937789 0.347205
vn 0.000000 0.937789 0.347205
vn 0.962419 -0.062937 -0.264177
vn 0.876761 -0.365687 -0.312351
vn 0.968187 0.007953 -0.250101
vn 0.967237 0.011881 -0.253599
vn 0.967746 0.080389 -0.238756
vn 0.976468 0.207421 0.059048
vn 0.992319 0.123674 -0.002633
vn 0.978033 0.199839 -0.059298
vn 1.000000 0.000000 0.000000
vn 1.000000 0.000000 0.000000
vn -1.000000 0.000000 0.000000
vn -1.000000 0.000000 0.000000
vn -1.000000 0.000000 0.000000
vn 0.956951 0.235494 -0.169671
vn -1.000000 0.000000 0.000000
vn 0.951524 0.005758 -0.307521
vn 0.808127 0.005787 -0.588980
vn 0.802864 0.133658 -0.580986
vn 0.942851 0.135197 -0.304555
vn 0.584735 0.005761 -0.811204
vn 0.582101 0.130427 -0.802588
vn 0.307999 0.005710 -0.951370
vn 0.308475 0.130017 -0.942305
vn -0.000011 0.005689 -0.999984
vn -0.000000 0.130905 -0.991395
vn -0.308027 0.005710 -0.951361
vn -0.308498 0.130016 -0.942298
vn -0.584750 0.005760 -0.811193
vn -0.582131 0.130424 -0.802567
vn -0.808118 0.005787 -0.588993
vn -0.802865 0.133658 -0.580985
vn -0.951517 0.005758 -0.307543
vn -0.942840 0.135208 -0.304584
vn -0.999984 0.005748 0.000000
vn -0.991023 0.133693 -0.000031
vn -0.950960 0.005714 0.309260
vn -0.941852 0.133722 0.308274
vn -0.810055 0.005725 0.586326
vn -0.800534 0.135554 0.583755
vn -0.588592 0.005741 0.808410
vn -0.586721 0.135006 0.798456
vn -0.302620 0.005718 0.953094
vn -0.302152 0.132235 0.944043
vn 0.000017 0.005671 0.999984
vn 0.000020 0.130335 0.991470
vn 0.302643 0.005718 0.953087
vn 0.302166 0.132226 0.944040
vn 0.588577 0.005741 0.808420
vn 0.586695 0.134997 0.798476
vn 0.810061 0.005724 0.586317
vn 0.800538 0.135548 0.583751
vn 0.950967 0.005714 0.309241
vn 0.941866 0.133708 0.308239
vn 0.999983 0.005748 0.000000
vn 0.991026 0.133673 -0.000030
vn 0.000000 -1.000000 0.000000
vn 0.000000 -1.000000 0.000000
vn 0.000000 -1.000000 -0.000000
vn 0.000000 -1.000000 0.000000
vn 0.000000 -1.000000 0.000000
vn 0.000000 -1.000000 0.000000
vn 0.000000 -1.000000 -0.000000
vn 0.000000 -1.000000 0.000000
vn 0.000000 -1.000000 0.000000
vn 0.000000 -1.000000 0.000000
vn 0.000000 -1.000000 0.000000
vn 0.000000 -1.000000 0.000000
vn 0.000000 -1.000000 0.000000
vn 0.000000 -1.000000 0.000000
vn 0.000000 -1.000000 0.000000
vn 0.000000 -1.000000 0.000000
vn 0.000000 -1.000000 0.000000
vn 0.000000 -1.000000 -0.000000
vn 0.000000 -1.000000 -0.000000
vn 0.000000 -1.000000 -0.000000
vn 0.000000 -1.000000 -0.000000
vn 0.000000 1.000000 0.000000
vn 0.000000 1.000000 0.000000
vn 0.000000 1.000000 -0.000000
vn 0.000000 1.000000 0.000000
vn 0.000000 1.000000 0.000000
vn 0.000000 1.000000 0.000000
vn 0.000000 1.000000 0.000000
vn 0.000000 1.000000 0.000000
vn 0.000000 1.000000 0.000000
vn 0.000000 1.000000 0.000000
vn 0.000000 1.000000 0.000000
vn 0.000000 1.000000 0.000000
vn 0.000000 1.000000 0.000000
vn 0.000000 1.000000 0.000000
vn 0.000000 1.000000 -0.000004
vn 0.000000 1.000000 -0.000001
vn 0.000000 1.000000 0.000003
vn 0.000000 1.000000 0.000000
vn 0.000000 1.000000 0.000000
vn 0.000000 1.000000 0.000000
vn 0.000000 1.000000 0.000000
vn 0.951549 0.003713 -0.307475
vn 0.808098 0.003751 -0.589036
vn 0.584685 0.003778 -0.811252
vn 0.307952 0.003738 -0.951395
vn -0.000012 0.003705 -0.999993
vn -0.307979 0.003738 -0.951386
vn -0.584700 0.003778 -0.811241
vn -0.808088 0.003751 -0.589049
vn -0.951542 0.003713 -0.307497
vn -0.999993 0.003711 -0.000001
vn -0.950979 0.003692 0.309233
vn -0.810115 0.003680 0.586260
vn -0.588550 0.003685 0.808453
vn -0.302589 0.003713 0.953114
vn 0.000017 0.003692 0.999993
vn 0.302612 0.003713 0.953106
vn 0.588535 0.003685 0.808463
vn 0.810121 0.003679 0.586252
vn 0.950985 0.003692 0.309214
vn 0.999993 0.003711 -0.000001
s 1
g PA
usemtl initialShadingGroup
f 8/6/1 5/3/2 14/7/3 13/4/4
s 2
f 4/1/5 37/52/6 38/54/7 3/2/8
s 3
f 7/5/9 6/8/10 10/27/11 9/14/12
s 1
f 6/8/13 5/3/2 8/6/1 10/27/14
s 4
f 12/25/15 11/9/16 16/24/17 15/16/18
s 1
f 11/10/19 13/4/4 14/7/3 16/11/20
s 5
f 39/56/21 40/57/22 22/40/23 21/17/24
f 40/57/22 41/58/25 23/41/26 22/40/23
f 41/58/25 42/59/27 24/15/28 23/41/26
s 6
f 33/48/29 34/49/30 30/46/31 29/23/32
f 34/49/30 35/50/33 31/47/34 30/46/31
f 35/50/33 36/51/35 32/36/36 31/47/34
s 3
f 17/26/37 28/13/38 7/5/9 9/14/12
s 4
f 29/23/39 24/15/40 12/25/15 15/16/18
s 5
f 38/55/41 39/56/21 21/17/24 3/35/42
s 6
f 44/61/43 46/63/44 6/21/45 7/22/46
s 5
f 42/59/27 43/60/47 12/25/48 24/15/28
s 6
f 32/36/36 36/51/35 37/53/49 4/32/50
s 3
f 1/33/51 25/37/52 20/34/53 2/18/54
s 4
f 3/35/55 21/17/56 32/36/57 4/32/58
s 3
f 17/26/37 18/38/59 27/44/60 28/13/38
f 18/38/59 19/39/61 26/42/62 27/44/60
f 19/39/61 20/34/53 25/37/52 26/42/62
s 4
f 21/17/56 22/40/63 31/47/64 32/36/57
f 22/40/63 23/41/65 30/46/66 31/47/64
f 23/41/65 24/15/40 29/23/39 30/46/66
s 6
f 28/12/67 27/45/68 34/49/30 33/48/29
f 27/45/68 26/43/69 35/50/33 34/49/30
f 26/43/69 25/30/70 36/51/35 35/50/33
f 37/53/49 36/51/35 25/30/70 1/31/71
s 2
f 38/54/7 37/52/6 1/33/72 2/18/73
s 5
f 20/34/74 39/56/21 38/55/41 2/18/75
f 20/34/74 19/39/76 40/57/22 39/56/21
f 19/39/76 18/38/77 41/58/25 40/57/22
f 18/38/77 17/26/78 42/59/27 41/58/25
f 11/9/79 45/62/80 10/27/81 8/28/82 13/29/83
f 11/9/79 12/25/48 43/60/47 45/62/80
s 6
f 33/48/29 44/61/43 7/22/46 28/12/67
f 14/19/84 5/20/85 6/21/45 46/63/44 16/24/86
s 5
f 9/14/87 43/60/47 42/59/27 17/26/78
s 6
f 15/16/88 44/61/43 33/48/29 29/23/32
s 5
f 45/62/80 43/60/47 9/14/87 10/27/81
s 6
f 16/24/86 46/63/44 44/61/43 15/16/88
s 10
f 89/64/89 90/65/90 68/66/91 67/67/92
f 90/65/90 91/68/93 69/69/94 68/66/91
f 91/68/93 92/70/95 70/71/96 69/69/94
f 92/70/95 93/72/97 71/73/98 70/71/96
f 93/72/97 94/74/99 72/75/100 71/73/98
f 94/74/99 95/76/101 73/77/102 72/75/100
f 95/76/101 96/78/103 74/79/104 73/77/102
f 96/78/103 97/80/105 75/81/106 74/79/104
f 97/80/105 98/82/107 76/83/108 75/81/106
f 98/82/107 99/84/109 77/85/110 76/83/108
f 99/84/109 100/86/111 78/87/112 77/85/110
f 100/86/111 101/88/113 79/89/114 78/87/112
f 101/88/113 102/90/115 80/91/116 79/89/114
f 102/90/115 103/92/117 81/93/118 80/91/116
f 103/92/117 104/94/119 82/95/120 81/93/118
f 104/94/119 105/96/121 83/97/122 82/95/120
f 105/96/121 106/98/123 84/99/124 83/97/122
f 106/98/123 107/100/125 85/101/126 84/99/124
f 107/100/125 108/102/127 86/103/128 85/101/126
f 108/102/127 89/104/89 67/105/92 86/103/128
s 11
f 48/106/129 47/107/130 87/108/131
f 49/109/132 48/106/129 87/108/131
f 50/110/133 49/109/132 87/108/131
f 51/111/134 50/110/133 87/108/131
f 52/112/135 51/111/134 87/108/131
f 53/113/136 52/112/135 87/108/131
f 54/114/137 53/113/136 87/108/131
f 55/115/138 54/114/137 87/108/131
f 56/116/139 55/115/138 87/108/131
f 57/117/140 56/116/139 87/108/131
f 58/118/141 57/117/140 87/108/131
f 59/119/142 58/118/141 87/108/131
f 60/120/143 59/119/142 87/108/131
f 61/121/144 60/120/143 87/108/131
f 62/122/145 61/121/144 87/108/131
f 63/123/146 62/122/145 87/108/131
f 64/124/147 63/123/146 87/108/131
f 65/125/148 64/124/147 87/108/131
f 66/126/149 65/125/148 87/108/131
f 47/107/130 66/126/149 87/108/131
s 12
f 67/127/150 68/128/151 88/129/152
f 68/128/151 69/130/153 88/129/152
f 69/130/153 70/131/154 88/129/152
f 70/131/154 71/132/155 88/129/152
f 71/132/155 72/133/156 88/129/152
f 72/133/156 73/134/157 88/129/152
f 73/134/157 74/135/158 88/129/152
f 74/135/158 75/136/159 88/129/152
f 75/136/159 76/137/160 88/129/152
f 76/137/160 77/138/161 88/129/152
f 77/138/161 78/139/162 88/129/152
f 78/139/162 79/140/163 88/129/152
f 79/140/163 80/141/164 88/129/152
f 80/141/164 81/142/165 88/129/152
f 81/142/165 82/143/166 88/129/152
f 82/143/166 83/144/167 88/129/152
f 83/144/167 84/145/168 88/129/152
f 84/145/168 85/146/169 88/129/152
f 85/146/169 86/147/170 88/129/152
f 86/147/170 67/127/150 88/129/152
s 10
f 47/148/171 48/149/172 90/65/90 89/64/89
f 48/149/172 49/150/173 91/68/93 90/65/90
f 49/150/173 50/151/174 92/70/95 91/68/93
f 50/151/174 51/152/175 93/72/97 92/70/95
f 51/152/175 52/153/176 94/74/99 93/72/97
f 52/153/176 53/154/177 95/76/101 94/74/99
f 53/154/177 54/155/178 96/78/103 95/76/101
f 54/155/178 55/156/179 97/80/105 96/78/103
f 55/156/179 56/157/180 98/82/107 97/80/105
f 56/157/180 57/158/181 99/84/109 98/82/107
f 57/158/181 58/159/182 100/86/111 99/84/109
f 58/159/182 59/160/183 101/88/113 100/86/111
f 59/160/183 60/161/184 102/90/115 101/88/113
f 60/161/184 61/162/185 103/92/117 102/90/115
f 61/162/185 62/163/186 104/94/119 103/92/117
f 62/163/186 63/164/187 105/96/121 104/94/119
f 63/164/187 64/165/188 106/98/123 105/96/121
f 64/165/188 65/166/189 107/100/125 106/98/123
f 65/166/189 66/167/190 108/102/127 107/100/125
f 66/167/190 47/168/171 89/104/89 108/102/127
