# This file uses centimeters as units for non-parametric coordinates.

mtllib ESCADARIA_MESH.mtl
g default
v 3.793846 -0.323426 1.935913
v 4.335472 -0.323426 1.935913
v 3.793846 1.321999 1.935913
v 4.335472 1.321999 1.935913
v 3.793846 1.321999 -1.935913
v 4.335472 1.321999 -1.935913
v 3.793846 -0.323426 -1.935913
v 4.335472 -0.323426 -1.935913
v -4.335472 -0.323426 1.935913
v -3.793831 -0.323426 1.935913
v -4.335472 1.321999 1.935913
v -3.793831 1.321999 1.935913
v -4.335472 1.321999 -1.935913
v -3.793831 1.321999 -1.935913
v -4.335472 -0.323426 -1.935913
v -3.793831 -0.323426 -1.935913
v -3.799629 1.324868 1.935425
v -3.799629 1.089196 1.935425
v -3.799629 0.853516 1.935425
v -3.799629 0.617844 1.935425
v -3.799629 0.382165 1.935425
v -3.799629 0.146489 1.935425
v -3.799629 -0.089191 1.935425
v -3.799629 -0.324867 1.935425
v -3.799629 1.324868 1.382690
v -3.799629 1.089196 1.382690
v -3.799629 0.853516 1.382690
v -3.799629 0.617844 1.382690
v -3.799629 0.382165 1.382690
v -3.799629 0.146489 1.382690
v -3.799629 -0.089191 1.382690
v -3.799629 -0.324867 1.382690
v -3.799629 1.089196 0.829956
v -3.799629 0.853516 0.829956
v -3.799629 0.617844 0.829956
v -3.799629 0.382165 0.829956
v -3.799629 0.146489 0.829956
v -3.799629 -0.089191 0.829956
v -3.799629 -0.324867 0.829956
v -3.799629 0.853516 0.277222
v -3.799629 0.617844 0.277222
v -3.799629 0.382165 0.277222
v -3.799629 0.146489 0.277222
v -3.799629 -0.089191 0.277222
v -3.799629 -0.324867 0.277222
v -3.799629 0.617844 -0.275513
v -3.799629 0.382165 -0.275513
v -3.799629 0.146489 -0.275513
v -3.799629 -0.089191 -0.275513
v -3.799629 -0.324867 -0.275513
v -3.799629 0.382165 -0.828491
v -3.799629 0.146489 -0.828491
v -3.799629 -0.089191 -0.828491
v -3.799629 -0.324867 -0.828491
v -3.799629 0.146489 -1.381226
v -3.799629 -0.089191 -1.381226
v -3.799629 -0.324867 -1.381226
v -3.799629 -0.089191 -1.933960
v -3.799629 -0.324867 -1.933960
v 3.805565 1.324868 1.935425
v 3.805687 1.089196 1.935425
v 3.805565 1.089196 1.382690
v 3.805687 1.324868 1.382690
v 3.805687 0.853516 1.935425
v 3.805687 0.853516 1.382690
v 3.805687 0.617844 1.935425
v 3.805565 0.617837 1.382690
v 3.805687 0.382165 1.935425
v 3.805687 0.382165 1.382690
v 3.805687 0.146485 1.935425
v 3.805565 0.146485 1.382690
v 3.805687 -0.089191 1.935425
v 3.805687 -0.089189 1.382690
v 3.805565 -0.324868 1.935425
v 3.805565 -0.324868 1.382690
v 3.805565 0.853516 0.829956
v 3.805565 1.089196 0.829956
v 3.805687 0.617837 0.829956
v 3.805565 0.382165 0.829956
v 3.805565 0.146485 0.829956
v 3.805687 -0.089191 0.829956
v 3.805565 -0.324867 0.829956
v 3.805565 0.617844 0.277222
v 3.805565 0.853509 0.277222
v 3.805565 0.382165 0.277222
v 3.805565 0.146485 0.277222
v 3.805687 -0.089189 0.277222
v 3.805565 -0.324866 0.277222
v 3.805565 0.382165 -0.275513
v 3.805687 0.617837 -0.275513
v 3.805565 0.146485 -0.275513
v 3.805565 -0.089191 -0.275513
v 3.805565 -0.324866 -0.275513
v 3.805565 0.146489 -0.828491
v 3.805565 0.382165 -0.828491
v 3.805687 -0.089189 -0.828491
v 3.805565 -0.324866 -0.828491
v 3.805687 -0.089189 -1.381226
v 3.805687 0.146485 -1.381226
v 3.805565 -0.324867 -1.381226
v 3.805565 -0.324867 -1.933960
v 3.805565 -0.089189 -1.933960
vt 0.828918 0.861104
vt 0.828918 0.572618
vt 0.951517 0.572618
vt 0.951517 0.861104
vt 0.700183 0.861104
vt 0.700183 0.572618
vt 0.822782 0.572618
vt 0.822782 0.861104
vt 0.478464 0.861104
vt 0.478464 0.572618
vt 0.601063 0.572618
vt 0.601063 0.861104
vt 0.349730 0.861113
vt 0.349730 0.572627
vt 0.472329 0.572627
vt 0.472329 0.861113
vt 0.343595 0.860932
vt 0.326035 0.860932
vt 0.326035 0.819748
vt 0.343595 0.819748
vt 0.308475 0.860932
vt 0.308475 0.819748
vt 0.290915 0.860932
vt 0.290915 0.819748
vt 0.308475 0.778564
vt 0.326035 0.778564
vt 0.273355 0.860932
vt 0.273355 0.819748
vt 0.290915 0.778564
vt 0.255795 0.860932
vt 0.255795 0.819748
vt 0.273355 0.778564
vt 0.290915 0.737381
vt 0.308474 0.737381
vt 0.238235 0.860932
vt 0.238235 0.819748
vt 0.255795 0.778564
vt 0.273355 0.737381
vt 0.220675 0.860932
vt 0.220675 0.819748
vt 0.238235 0.778564
vt 0.255795 0.737381
vt 0.273355 0.696197
vt 0.290915 0.696197
vt 0.220675 0.778564
vt 0.238235 0.737381
vt 0.255795 0.696197
vt 0.220675 0.737381
vt 0.238235 0.696197
vt 0.255795 0.654995
vt 0.273355 0.654995
vt 0.220675 0.696197
vt 0.238235 0.654995
vt 0.220675 0.654995
vt 0.238235 0.613811
vt 0.255795 0.613811
vt 0.220675 0.613811
vt 0.220675 0.572627
vt 0.238235 0.572627
vt 0.214540 0.572627
vt 0.214540 0.613811
vt 0.196980 0.613811
vt 0.196980 0.572627
vt 0.179420 0.613811
vt 0.179420 0.572627
vt 0.196980 0.654995
vt 0.179420 0.654995
vt 0.161860 0.613811
vt 0.161860 0.572627
vt 0.161860 0.654995
vt 0.144300 0.613811
vt 0.144300 0.572627
vt 0.179420 0.696179
vt 0.161860 0.696179
vt 0.144300 0.654995
vt 0.126740 0.613811
vt 0.126740 0.572627
vt 0.144300 0.696179
vt 0.126740 0.654995
vt 0.109179 0.613811
vt 0.109179 0.572627
vt 0.161860 0.737362
vt 0.144300 0.737362
vt 0.126740 0.696179
vt 0.109179 0.654995
vt 0.091619 0.613811
vt 0.091619 0.572627
vt 0.126740 0.737362
vt 0.109179 0.696179
vt 0.091619 0.654995
vt 0.144300 0.778564
vt 0.126740 0.778564
vt 0.109179 0.737362
vt 0.091619 0.696179
vt 0.109179 0.778564
vt 0.091619 0.737362
vt 0.126740 0.819748
vt 0.109179 0.819748
vt 0.091619 0.778564
vt 0.091619 0.819748
vt 0.109179 0.860932
vt 0.091619 0.860932
vt 0.947429 0.001971
vt 0.987785 0.001971
vt 0.987785 0.290457
vt 0.947429 0.290457
vt 0.957652 0.294448
vt 0.998008 0.294448
vt 0.998008 0.582934
vt 0.957652 0.582934
vt 0.653691 0.572618
vt 0.694048 0.572618
vt 0.694048 0.861104
vt 0.653691 0.861104
vt 0.607199 0.572618
vt 0.647556 0.572618
vt 0.647556 0.861104
vt 0.607199 0.861104
vt 0.199287 0.568636
vt 0.158103 0.568636
vt 0.158103 0.001980
vt 0.199287 0.001971
vt 0.691975 0.568627
vt 0.650792 0.568627
vt 0.650792 0.001971
vt 0.691975 0.001971
vt 0.609608 0.568627
vt 0.609608 0.001971
vt 0.568424 0.568627
vt 0.568424 0.001971
vt 0.527241 0.568627
vt 0.527241 0.001971
vt 0.486039 0.568627
vt 0.486039 0.001971
vt 0.444855 0.568627
vt 0.444855 0.001971
vt 0.403671 0.568627
vt 0.403671 0.001971
vt 0.766432 0.568627
vt 0.725248 0.568627
vt 0.725248 0.001971
vt 0.766432 0.001971
vt 0.840492 0.568627
vt 0.799308 0.568627
vt 0.799308 0.001971
vt 0.840492 0.001971
vt 0.273347 0.568636
vt 0.232163 0.568636
vt 0.232163 0.001980
vt 0.273347 0.001971
vt 0.914571 0.568627
vt 0.873369 0.568627
vt 0.873369 0.001971
vt 0.914571 0.001971
vt 0.347407 0.568636
vt 0.306224 0.568636
vt 0.306224 0.001980
vt 0.347407 0.001971
vt 0.396131 0.568636
vt 0.354947 0.568636
vt 0.354947 0.001971
vt 0.396131 0.001980
vt 0.045128 0.572627
vt 0.085484 0.572627
vt 0.085484 0.695226
vt 0.045128 0.695226
vt 0.001992 0.699218
vt 0.042348 0.699218
vt 0.042348 0.821817
vt 0.001992 0.821817
vt 0.048962 0.864923
vt 0.089319 0.864923
vt 0.089319 0.987522
vt 0.048962 0.987522
vt 0.095737 0.864923
vt 0.136094 0.864923
vt 0.136094 0.987522
vt 0.095737 0.987522
vt 0.124912 0.568636
vt 0.107353 0.568636
vt 0.107353 0.001971
vt 0.124912 0.001980
vt 0.089792 0.568636
vt 0.089792 0.001971
vt 0.072233 0.568636
vt 0.072233 0.001971
vt 0.054672 0.568636
vt 0.054672 0.001971
vt 0.037112 0.568636
vt 0.037112 0.001971
vt 0.019552 0.568636
vt 0.019552 0.001971
vt 0.001992 0.568636
vt 0.001992 0.001980
vt 0.150326 0.568636
vt 0.132767 0.568636
vt 0.132767 0.001971
vt 0.150326 0.001980
vt 0.717472 0.568627
vt 0.699912 0.568627
vt 0.699912 0.001971
vt 0.717472 0.001971
vt 0.791532 0.568627
vt 0.773972 0.568627
vt 0.773973 0.001971
vt 0.791532 0.001971
vt 0.224387 0.568636
vt 0.206827 0.568636
vt 0.206828 0.001971
vt 0.224387 0.001980
vt 0.865592 0.568627
vt 0.848032 0.568627
vt 0.848032 0.001971
vt 0.865592 0.001971
vt 0.298447 0.568636
vt 0.280887 0.568636
vt 0.280887 0.001971
vt 0.298447 0.001971
vt 0.939653 0.568627
vt 0.922093 0.568627
vt 0.922092 0.001971
vt 0.939653 0.001971
vn 0.000000 0.000000 1.000000
vn 0.000000 0.000000 1.000000
vn 0.000000 0.000000 1.000000
vn 0.000000 0.000000 1.000000
vn 0.000000 1.000000 0.000000
vn 0.000000 1.000000 0.000000
vn 0.000000 1.000000 0.000000
vn 0.000000 1.000000 0.000000
vn 0.000000 0.000000 -1.000000
vn 0.000000 0.000000 -1.000000
vn 0.000000 0.000000 -1.000000
vn 0.000000 0.000000 -1.000000
vn 0.000000 -1.000000 0.000000
vn 0.000000 -1.000000 0.000000
vn 0.000000 -1.000000 0.000000
vn 0.000000 -1.000000 0.000000
vn 1.000000 0.000000 0.000000
vn 1.000000 0.000000 0.000000
vn 1.000000 0.000000 0.000000
vn 1.000000 0.000000 0.000000
vn -1.000000 0.000000 0.000000
vn -1.000000 0.000000 0.000000
vn -1.000000 0.000000 0.000000
vn -1.000000 0.000000 0.000000
vn 0.000000 0.000000 1.000000
vn 0.000000 0.000000 1.000000
vn 0.000000 0.000000 1.000000
vn 0.000000 0.000000 1.000000
vn 0.000000 1.000000 0.000000
vn 0.000000 1.000000 0.000000
vn 0.000000 1.000000 0.000000
vn 0.000000 1.000000 0.000000
vn 0.000000 0.000000 -1.000000
vn 0.000000 0.000000 -1.000000
vn 0.000000 0.000000 -1.000000
vn 0.000000 0.000000 -1.000000
vn 0.000000 -1.000000 0.000000
vn 0.000000 -1.000000 0.000000
vn 0.000000 -1.000000 0.000000
vn 0.000000 -1.000000 0.000000
vn 1.000000 0.000000 0.000000
vn 1.000000 0.000000 0.000000
vn 1.000000 0.000000 0.000000
vn 1.000000 0.000000 0.000000
vn -1.000000 0.000000 0.000000
vn -1.000000 0.000000 0.000000
vn -1.000000 0.000000 0.000000
vn -1.000000 0.000000 0.000000
vn 1.000000 0.000000 0.000000
vn 1.000000 0.000129 -0.000055
vn 1.000000 0.000173 -0.000074
vn 1.000000 0.000000 0.000000
vn 1.000000 -0.000000 -0.000110
vn 1.000000 0.000065 -0.000083
vn 1.000000 -0.000000 -0.000110
vn 1.000000 0.000000 -0.000055
vn 1.000000 -0.000000 -0.000110
vn 1.000000 -0.000065 -0.000083
vn 1.000000 0.000000 -0.000110
vn 1.000000 0.000065 -0.000083
vn 1.000000 -0.000130 -0.000055
vn 1.000000 -0.000065 -0.000028
vn 1.000000 -0.000518 -0.000000
vn 1.000000 -0.000518 -0.000000
vn 1.000000 0.000173 -0.000074
vn 1.000000 0.000260 -0.000110
vn 1.000000 -0.000000 -0.000055
vn 1.000000 -0.000130 -0.000055
vn 1.000000 0.000194 -0.000028
vn 1.000000 -0.000000 -0.000000
vn 1.000000 -0.000518 -0.000000
vn 1.000000 -0.000087 -0.000037
vn 1.000000 0.000260 -0.000110
vn 1.000000 -0.000130 0.000000
vn 1.000000 0.000194 -0.000028
vn 1.000000 0.000000 -0.000055
vn 1.000000 -0.000389 -0.000055
vn 1.000000 -0.000087 0.000037
vn 1.000000 -0.000260 0.000110
vn 1.000000 0.000130 0.000000
vn 1.000000 -0.000000 0.000000
vn 1.000000 -0.000260 -0.000000
vn 1.000000 0.000173 0.000074
vn 1.000000 0.000000 0.000000
vn 1.000000 -0.000065 0.000083
vn 1.000000 -0.000389 0.000055
vn 1.000000 -0.000173 -0.000000
vn 1.000000 0.000258 0.000110
vn 1.000000 -0.000389 -0.000055
vn 1.000000 -0.000260 -0.000110
vn 1.000000 -0.000260 -0.000110
vn -1.000000 0.000000 0.000000
vn -1.000000 0.000000 0.000000
vn -1.000000 0.000000 0.000000
vn -1.000000 0.000000 0.000000
vn -1.000000 0.000000 0.000000
vn -1.000000 0.000000 0.000000
vn -1.000000 0.000000 0.000000
vn -1.000000 0.000000 0.000000
vn -1.000000 0.000000 0.000000
vn -1.000000 0.000000 0.000000
vn -1.000000 0.000000 0.000000
vn -1.000000 0.000000 0.000000
vn -1.000000 0.000000 0.000000
vn -1.000000 0.000000 0.000000
vn -1.000000 0.000000 0.000000
vn -1.000000 0.000000 0.000000
vn -1.000000 0.000000 0.000000
vn -1.000000 0.000000 0.000000
vn -1.000000 0.000000 0.000000
vn -1.000000 0.000000 0.000000
vn -1.000000 0.000000 0.000000
vn -1.000000 0.000000 0.000000
vn -1.000000 0.000000 0.000000
vn -1.000000 0.000000 0.000000
vn -1.000000 0.000000 0.000000
vn -1.000000 0.000000 0.000000
vn -1.000000 0.000000 0.000000
vn -1.000000 0.000000 0.000000
vn -1.000000 0.000000 0.000000
vn -1.000000 0.000000 0.000000
vn -1.000000 0.000000 0.000000
vn -1.000000 0.000000 0.000000
vn -1.000000 0.000000 0.000000
vn -1.000000 0.000000 0.000000
vn -1.000000 0.000000 0.000000
vn -1.000000 0.000000 0.000000
vn -1.000000 0.000000 0.000000
vn -1.000000 0.000000 0.000000
vn -1.000000 0.000000 0.000000
vn -1.000000 0.000000 0.000000
vn -1.000000 0.000000 0.000000
vn -1.000000 0.000000 0.000000
vn -1.000000 0.000000 0.000000
vn 0.000000 0.000000 1.000000
vn 0.000000 0.000000 1.000000
vn 0.000000 0.000000 1.000000
vn 0.000000 0.000000 1.000000
vn 0.000000 0.000000 -1.000000
vn 0.000000 0.000000 -1.000000
vn 0.000000 0.000000 -1.000000
vn 0.000000 0.000000 -1.000000
vn 0.000000 1.000000 -0.000000
vn 0.000000 1.000000 -0.000000
vn 0.000000 1.000000 -0.000000
vn 0.000000 1.000000 -0.000000
vn 0.000000 0.000000 1.000000
vn 0.000000 0.000000 1.000000
vn 0.000000 0.000000 1.000000
vn 0.000000 0.000000 1.000000
vn 0.000000 0.000000 1.000000
vn 0.000000 0.000000 1.000000
vn 0.000000 0.000000 1.000000
vn 0.000000 0.000000 1.000000
vn 0.000000 0.000000 1.000000
vn 0.000000 0.000000 1.000000
vn 0.000000 0.000000 1.000000
vn 0.000000 0.000000 1.000000
vn -0.000000 -1.000000 0.000000
vn -0.000000 -1.000000 -0.000000
vn -0.000000 -1.000000 -0.000000
vn -0.000000 -1.000000 0.000000
vn 0.000000 0.000000 -1.000000
vn 0.000000 0.000000 -1.000000
vn 0.000000 0.000000 -1.000000
vn 0.000000 0.000000 -1.000000
vn 0.000000 1.000000 0.000000
vn 0.000000 1.000000 0.000000
vn 0.000000 1.000000 0.000000
vn 0.000000 1.000000 0.000000
vn -0.000000 -1.000000 -0.000001
vn -0.000000 -1.000000 -0.000001
vn 0.000000 0.000000 -1.000000
vn 0.000000 0.000000 -1.000000
vn 0.000000 0.000000 -1.000000
vn 0.000000 0.000000 -1.000000
vn 0.000001 1.000000 -0.000007
vn 0.000001 1.000000 -0.000007
vn 0.000001 1.000000 -0.000007
vn 0.000001 1.000000 -0.000007
vn 0.000000 -1.000000 -0.000001
vn 0.000000 -1.000000 -0.000001
vn 0.000000 0.000000 -1.000000
vn 0.000000 0.000000 -1.000000
vn 0.000000 0.000000 -1.000000
vn 0.000000 0.000000 -1.000000
vn 0.000001 1.000000 -0.000007
vn 0.000001 1.000000 -0.000007
vn 0.000001 1.000000 -0.000007
vn 0.000001 1.000000 -0.000007
vn 0.000000 -1.000000 -0.000000
vn 0.000000 -1.000000 -0.000000
vn 0.000000 0.000000 -1.000000
vn 0.000000 0.000000 -1.000000
vn 0.000000 0.000000 -1.000000
vn 0.000000 0.000000 -1.000000
vn 0.000000 1.000000 0.000000
vn 0.000000 1.000000 0.000000
vn 0.000000 1.000000 0.000000
vn 0.000000 1.000000 0.000000
vn 0.000000 -1.000000 0.000001
vn 0.000000 -1.000000 0.000001
vn 0.000000 0.000000 -1.000000
vn 0.000000 0.000000 -1.000000
vn 0.000000 0.000000 -1.000000
vn 0.000000 0.000000 -1.000000
vn 0.000000 1.000000 -0.000003
vn 0.000000 1.000000 -0.000003
vn 0.000000 1.000000 -0.000003
vn 0.000000 1.000000 -0.000003
vn 0.000000 -1.000000 0.000001
vn 0.000000 -1.000000 0.000001
vn -0.000000 -1.000000 0.000000
vn -0.000000 -1.000000 0.000000
vn 0.000000 0.000000 -1.000000
vn 0.000000 0.000000 -1.000000
vn 0.000000 0.000000 -1.000000
vn 0.000000 0.000000 -1.000000
vn -0.000000 1.000000 0.000000
vn -0.000000 1.000000 0.000000
vn -0.000000 1.000000 0.000000
vn -0.000000 1.000000 0.000000
s off
g ESCADARIA_MESH
usemtl initialShadingGroup
f 1/163/1 2/164/2 4/165/3 3/166/4
f 3/103/5 4/104/6 6/105/7 5/106/8
f 5/167/9 6/168/10 8/169/11 7/170/12
f 7/107/13 8/108/14 2/109/15 1/110/16
f 2/1/17 8/2/18 6/3/19 4/4/20
f 7/5/21 1/6/22 3/7/23 5/8/24
f 9/171/25 10/172/26 12/173/27 11/174/28
f 11/111/29 12/112/30 14/113/31 13/114/32
f 13/175/33 14/176/34 16/177/35 15/178/36
f 15/115/37 16/116/38 10/117/39 9/118/40
f 10/9/41 16/10/42 14/11/43 12/12/44
f 15/13/45 9/14/46 11/15/47 13/16/48
s 1
f 60/17/49 61/18/50 62/19/51 63/20/52
f 61/18/50 64/21/53 65/22/54 62/19/51
f 64/21/53 66/23/55 67/24/56 65/22/54
f 66/23/55 68/27/57 69/28/58 67/24/56
f 68/27/57 70/30/59 71/31/60 69/28/58
f 70/30/59 72/35/61 73/36/62 71/31/60
f 72/35/61 74/39/63 75/40/64 73/36/62
f 62/19/51 65/22/54 76/25/65 77/26/66
f 65/22/54 67/24/56 78/29/67 76/25/65
f 67/24/56 69/28/58 79/32/68 78/29/67
f 69/28/58 71/31/60 80/37/69 79/32/68
f 71/31/60 73/36/62 81/41/70 80/37/69
f 73/36/62 75/40/64 82/45/71 81/41/70
f 76/25/65 78/29/67 83/33/72 84/34/73
f 78/29/67 79/32/68 85/38/74 83/33/72
f 79/32/68 80/37/69 86/42/75 85/38/74
f 80/37/69 81/41/70 87/46/76 86/42/75
f 81/41/70 82/45/71 88/48/77 87/46/76
f 83/33/72 85/38/74 89/43/78 90/44/79
f 85/38/74 86/42/75 91/47/80 89/43/78
f 86/42/75 87/46/76 92/49/81 91/47/80
f 87/46/76 88/48/77 93/52/82 92/49/81
f 89/43/78 91/47/80 94/50/83 95/51/84
f 91/47/80 92/49/81 96/53/85 94/50/83
f 92/49/81 93/52/82 97/54/86 96/53/85
f 94/50/83 96/53/85 98/55/87 99/56/88
f 96/53/85 97/54/86 100/57/89 98/55/87
f 98/55/87 100/57/89 101/58/90 102/59/91
s 2
f 17/60/92 25/61/93 26/62/94 18/63/95
f 18/63/95 26/62/94 27/64/96 19/65/97
f 19/65/97 27/64/96 28/68/98 20/69/99
f 20/69/99 28/68/98 29/71/100 21/72/101
f 21/72/101 29/71/100 30/76/102 22/77/103
f 22/77/103 30/76/102 31/80/104 23/81/105
f 23/81/105 31/80/104 32/86/106 24/87/107
f 26/62/94 33/66/108 34/67/109 27/64/96
f 27/64/96 34/67/109 35/70/110 28/68/98
f 28/68/98 35/70/110 36/75/111 29/71/100
f 29/71/100 36/75/111 37/79/112 30/76/102
f 30/76/102 37/79/112 38/85/113 31/80/104
f 31/80/104 38/85/113 39/90/114 32/86/106
f 34/67/109 40/73/115 41/74/116 35/70/110
f 35/70/110 41/74/116 42/78/117 36/75/111
f 36/75/111 42/78/117 43/84/118 37/79/112
f 37/79/112 43/84/118 44/89/119 38/85/113
f 38/85/113 44/89/119 45/94/120 39/90/114
f 41/74/116 46/82/121 47/83/122 42/78/117
f 42/78/117 47/83/122 48/88/123 43/84/118
f 43/84/118 48/88/123 49/93/124 44/89/119
f 44/89/119 49/93/124 50/96/125 45/94/120
f 47/83/122 51/91/126 52/92/127 48/88/123
f 48/88/123 52/92/127 53/95/128 49/93/124
f 49/93/124 53/95/128 54/99/129 50/96/125
f 52/92/127 55/97/130 56/98/131 53/95/128
f 53/95/128 56/98/131 57/100/132 54/99/129
f 56/98/131 58/101/133 59/102/134 57/100/132
s 3
f 17/179/135 18/180/136 61/181/137 60/182/138
s off
f 26/195/139 25/196/140 63/197/141 62/198/142
f 25/119/143 17/120/144 60/121/145 63/122/146
s 3
f 18/180/136 19/183/147 64/184/148 61/181/137
f 19/183/147 20/185/149 66/186/150 64/184/148
f 20/185/149 21/187/151 68/188/152 66/186/150
f 21/187/151 22/189/153 70/190/154 68/188/152
f 22/189/153 23/191/155 72/192/156 70/190/154
f 23/191/155 24/193/157 74/194/158 72/192/156
s 4
f 24/123/159 32/124/160 75/125/161 74/126/162
s off
f 34/199/163 33/200/164 77/201/165 76/202/166
f 33/139/167 26/140/168 62/141/169 77/142/170
s 4
f 32/124/160 39/127/171 82/128/172 75/125/161
s off
f 41/203/173 40/204/174 84/205/175 83/206/176
f 40/143/177 34/144/178 76/145/179 84/146/180
s 4
f 39/127/171 45/129/181 88/130/182 82/128/172
s off
f 47/207/183 46/208/184 90/209/185 89/210/186
f 46/147/187 41/148/188 83/149/189 90/150/190
s 4
f 45/129/181 50/131/191 93/132/192 88/130/182
s off
f 52/211/193 51/212/194 95/213/195 94/214/196
f 51/151/197 47/152/198 89/153/199 95/154/200
s 4
f 50/131/191 54/133/201 97/134/202 93/132/192
s off
f 56/215/203 55/216/204 99/217/205 98/218/206
f 55/155/207 52/156/208 94/157/209 99/158/210
s 4
f 54/133/201 57/135/211 100/136/212 97/134/202
f 57/135/211 59/137/213 101/138/214 100/136/212
s off
f 59/219/215 58/220/216 102/221/217 101/222/218
f 58/159/219 56/160/220 98/161/221 102/162/222
