# Blender v3.1.2 OBJ File: 'Paredes Monasterio Plano .blend'
# www.blender.org
mtllib Parede Base Com Janela_MESH Texture.mtl
o Parede_Baixa.016_Plane.001
v -0.119358 4.000004 -0.000000
v -0.119358 4.000004 -4.000000
v -0.119359 1.004741 -0.000000
v -0.119359 1.004741 -4.000000
v -0.000002 1.004741 -0.000000
v -0.000002 0.000004 -0.000000
v -0.000002 0.000004 -4.000000
v -0.000002 1.004741 -4.000000
v -0.261839 4.000004 -4.000000
v -0.261839 4.000004 -0.000000
v -0.261839 1.004741 -0.000000
v -0.261839 0.000004 -0.000000
v -0.261839 0.000004 -4.000000
v -0.261839 1.004741 -4.000000
v 0.076423 2.492589 -2.774714
v -0.167770 2.501268 -2.908548
v -0.167770 1.006058 -1.076422
v 0.076423 1.182734 -1.210256
v -0.167770 1.006058 -2.908548
v 0.076423 1.182733 -2.774714
v 0.076423 2.492589 -1.210256
v -0.167770 2.501268 -1.076422
v 0.076423 2.702557 -1.225921
v -0.167770 2.737191 -1.094024
v 0.076423 2.896110 -1.270398
v -0.167770 2.964048 -1.146153
v 0.076423 3.074490 -1.342624
v -0.167770 3.173120 -1.230807
v 0.076423 3.230841 -1.439823
v -0.167770 3.356373 -1.344731
v 0.076423 3.359155 -1.558262
v -0.167770 3.506765 -1.483548
v 0.076423 3.454501 -1.693387
v -0.167770 3.618517 -1.641923
v 0.076423 3.513215 -1.840006
v -0.167770 3.687333 -1.813770
v 0.076423 3.533040 -1.992485
v -0.167770 3.710570 -1.992485
v 0.076423 3.513215 -2.144964
v -0.167770 3.687333 -2.171200
v 0.076423 3.454501 -2.291583
v -0.167770 3.618517 -2.343047
v 0.076423 3.359155 -2.426708
v -0.167770 3.506766 -2.501422
v 0.076423 3.230841 -2.545146
v -0.167770 3.356374 -2.640239
v 0.076423 3.074490 -2.642346
v -0.167770 3.173120 -2.754163
v 0.076423 2.896110 -2.714572
v -0.167770 2.964048 -2.838816
v 0.076423 2.702557 -2.759048
v -0.167770 2.737191 -2.890946
v 0.076423 1.006058 -2.908548
v 0.076423 2.501268 -2.908548
v 0.076423 2.501268 -1.076422
v 0.076423 1.006058 -1.076422
v 0.076423 2.737191 -1.094024
v 0.076423 2.964048 -1.146153
v 0.076423 3.173120 -1.230807
v 0.076423 3.356373 -1.344731
v 0.076423 3.506765 -1.483548
v 0.076423 3.618517 -1.641923
v 0.076423 3.687333 -1.813770
v 0.076423 3.710570 -1.992485
v 0.076423 3.687333 -2.171200
v 0.076423 3.618517 -2.343047
v 0.076423 3.506766 -2.501422
v 0.076423 3.356374 -2.640239
v 0.076423 3.173120 -2.754163
v 0.076423 2.964048 -2.838816
v 0.076423 2.737191 -2.890946
v 0.002250 1.324961 -2.666975
v 0.002250 2.485601 -2.666975
v 0.002250 2.485602 -1.317995
v 0.002250 1.324961 -1.317995
v 0.002250 2.674675 -1.332102
v 0.002250 2.841419 -1.370418
v 0.002250 2.995090 -1.432639
v 0.002250 3.129784 -1.516375
v 0.002250 3.240325 -1.618408
v 0.002250 3.322464 -1.734816
v 0.002250 3.373045 -1.861127
v 0.002250 3.390124 -1.992485
v 0.002250 3.373045 -2.123843
v 0.002250 3.322464 -2.250154
v 0.002250 3.240325 -2.366562
v 0.002250 3.129785 -2.468595
v 0.002250 2.995090 -2.552331
v 0.002250 2.841419 -2.614552
v 0.002250 2.674675 -2.652868
v 0.002250 1.182733 -2.774714
v 0.002250 2.492589 -2.774714
v 0.002250 2.492589 -1.210256
v 0.002250 1.182734 -1.210256
v 0.002250 2.702557 -1.225921
v 0.002250 2.896110 -1.270398
v 0.002250 3.074490 -1.342624
v 0.002250 3.230841 -1.439823
v 0.002250 3.359155 -1.558262
v 0.002250 3.454501 -1.693387
v 0.002250 3.513215 -1.840006
v 0.002250 3.533040 -1.992485
v 0.002250 3.513215 -2.144964
v 0.002250 3.454501 -2.291583
v 0.002250 3.359155 -2.426708
v 0.002250 3.230841 -2.545146
v 0.002250 3.074490 -2.642346
v 0.002250 2.896110 -2.714572
v 0.002250 2.702557 -2.759048
v -0.095462 1.324961 -2.666975
v -0.095462 2.485601 -2.666975
v -0.095462 2.485602 -1.317995
v -0.095462 1.324961 -1.317995
v -0.095462 2.674675 -1.332102
v -0.095462 2.841419 -1.370418
v -0.095462 2.995090 -1.432639
v -0.095462 3.129784 -1.516375
v -0.095462 3.240325 -1.618408
v -0.095462 3.322464 -1.734816
v -0.095462 3.373045 -1.861127
v -0.095462 3.390124 -1.992485
v -0.095462 3.373045 -2.123843
v -0.095462 3.322464 -2.250154
v -0.095462 3.240325 -2.366562
v -0.095462 3.129785 -2.468595
v -0.095462 2.995090 -2.552331
v -0.095462 2.841419 -2.614552
v -0.095462 2.674675 -2.652868
vt 0.454029 0.519630
vt 0.454029 0.750000
vt 0.423869 0.750000
vt 0.423869 0.519630
vt 0.118557 0.750000
vt 0.103477 0.750000
vt 0.103477 0.807865
vt 0.125431 0.807865
vt 0.118557 0.807865
vt 0.366004 0.519630
vt 0.423869 0.519630
vt 0.423869 0.750000
vt 0.366004 0.750000
vt 0.447155 0.519630
vt 0.447155 0.750000
vt 0.440281 0.750000
vt 0.440281 0.519630
vt 0.095272 0.922504
vt 0.087066 0.922504
vt 0.087066 0.750000
vt 0.095272 0.750000
vt 0.020995 0.750000
vt 0.020995 0.519630
vt 0.193499 0.519630
vt 0.193499 0.750000
vt 0.020995 0.980370
vt 0.020995 0.750000
vt 0.078860 0.750000
vt 0.078860 0.980370
vt 0.432075 0.519630
vt 0.440281 0.519630
vt 0.440281 0.750000
vt 0.432075 0.750000
vt 0.078860 0.750000
vt 0.087066 0.750000
vt 0.087066 0.922504
vt 0.078860 0.922504
vt 0.193499 0.750000
vt 0.193499 0.519630
vt 0.366004 0.519630
vt 0.366004 0.750000
vt 0.604136 0.796329
vt 0.465420 0.796329
vt 0.465420 0.862825
vt 0.604136 0.862825
vt 0.603850 0.929160
vt 0.465339 0.929160
vt 0.465339 0.996607
vt 0.603850 0.996607
vt 0.650095 0.929661
vt 0.603958 0.929661
vt 0.603958 0.996330
vt 0.650095 0.996330
vt 0.696955 0.928869
vt 0.650814 0.928869
vt 0.650814 0.995646
vt 0.696955 0.995646
vt 0.742929 0.928201
vt 0.697619 0.928201
vt 0.697619 0.996225
vt 0.742929 0.996225
vt 0.789935 0.928539
vt 0.742957 0.928539
vt 0.742957 0.996562
vt 0.789935 0.996562
vt 0.836109 0.928629
vt 0.790623 0.928629
vt 0.790623 0.996948
vt 0.836109 0.996948
vt 0.882381 0.927806
vt 0.836433 0.927806
vt 0.836433 0.996517
vt 0.882381 0.996517
vt 0.929090 0.927815
vt 0.882382 0.927815
vt 0.882382 0.996295
vt 0.929090 0.996295
vt 0.975457 0.927919
vt 0.929382 0.927919
vt 0.929382 0.996703
vt 0.975457 0.996703
vt 0.975826 0.794422
vt 0.928591 0.794422
vt 0.928591 0.863447
vt 0.975826 0.863447
vt 0.928756 0.794562
vt 0.882940 0.794562
vt 0.882940 0.862977
vt 0.928756 0.862977
vt 0.882498 0.795648
vt 0.836888 0.795648
vt 0.836888 0.864063
vt 0.882498 0.864063
vt 0.835815 0.795155
vt 0.789628 0.795155
vt 0.789628 0.863303
vt 0.835815 0.863303
vt 0.789947 0.795446
vt 0.742329 0.795446
vt 0.742329 0.862639
vt 0.789947 0.862639
vt 0.742574 0.793877
vt 0.697566 0.793877
vt 0.697566 0.862716
vt 0.742574 0.862716
vt 0.696774 0.795173
vt 0.650436 0.795173
vt 0.650436 0.862977
vt 0.696774 0.862977
vt 0.650122 0.796801
vt 0.605599 0.796801
vt 0.605599 0.863384
vt 0.650122 0.863384
vt 0.635757 0.141167
vt 0.635757 0.439069
vt 0.738383 0.439069
vt 0.738383 0.141167
vt 0.886183 0.451039
vt 0.855011 0.451039
vt 0.855011 0.473824
vt 0.886183 0.473824
vt 0.430506 0.474284
vt 0.533131 0.474284
vt 0.533131 0.290118
vt 0.532146 0.261059
vt 0.529226 0.233117
vt 0.524484 0.207365
vt 0.518102 0.184793
vt 0.510327 0.166270
vt 0.501455 0.152505
vt 0.491829 0.144029
vt 0.481819 0.141167
vt 0.471808 0.144029
vt 0.462182 0.152505
vt 0.453311 0.166269
vt 0.445535 0.184793
vt 0.439153 0.207365
vt 0.434412 0.233117
vt 0.431492 0.261059
vt 0.430506 0.290118
vt 0.628261 0.452523
vt 0.635757 0.474284
vt 0.635757 0.290118
vt 0.628261 0.291187
vt 0.540628 0.291187
vt 0.533131 0.290118
vt 0.533131 0.474284
vt 0.540628 0.452523
vt 0.541506 0.265325
vt 0.534117 0.261059
vt 0.543997 0.241485
vt 0.537037 0.233117
vt 0.548043 0.219513
vt 0.541779 0.207365
vt 0.553487 0.200255
vt 0.548161 0.184793
vt 0.560122 0.184451
vt 0.555937 0.166270
vt 0.567691 0.172707
vt 0.564808 0.152505
vt 0.575903 0.165475
vt 0.574434 0.144029
vt 0.584444 0.163033
vt 0.584444 0.141167
vt 0.592985 0.165475
vt 0.594455 0.144029
vt 0.601198 0.172707
vt 0.604081 0.152505
vt 0.608767 0.184451
vt 0.612952 0.166269
vt 0.615402 0.200255
vt 0.620728 0.184793
vt 0.620846 0.219513
vt 0.627110 0.207365
vt 0.624892 0.241485
vt 0.631851 0.233117
vt 0.627383 0.265325
vt 0.634771 0.261059
vt 0.561823 0.491843
vt 0.602888 0.491843
vt 0.602888 0.474284
vt 0.561823 0.474284
vt 0.888361 0.182396
vt 0.857188 0.182396
vt 0.857188 0.206236
vt 0.888361 0.206236
vt 0.857188 0.141167
vt 0.826016 0.141167
vt 0.826016 0.302054
vt 0.857188 0.302054
vt 0.855011 0.498137
vt 0.886183 0.498137
vt 0.857188 0.231029
vt 0.888361 0.231029
vt 0.826016 0.328034
vt 0.857188 0.328034
vt 0.855011 0.524117
vt 0.886183 0.524117
vt 0.857188 0.255822
vt 0.888361 0.255822
vt 0.826016 0.352347
vt 0.857188 0.352347
vt 0.602888 0.728664
vt 0.634060 0.728664
vt 0.634060 0.474284
vt 0.602888 0.474284
vt 0.857188 0.279662
vt 0.888361 0.279662
vt 0.826016 0.375133
vt 0.857188 0.375132
vt 0.857188 0.301633
vt 0.888361 0.301633
vt 0.826016 0.395515
vt 0.857188 0.395515
vt 0.857188 0.320891
vt 0.888361 0.320891
vt 0.888361 0.141167
vt 0.857188 0.141167
vt 0.857188 0.160425
vt 0.888361 0.160425
vt 0.886183 0.430656
vt 0.855011 0.430656
vt 0.855011 0.685005
vt 0.886183 0.685005
vt 0.819981 0.413138
vt 0.826016 0.430656
vt 0.826016 0.269320
vt 0.819981 0.270181
vt 0.744418 0.270181
vt 0.738383 0.269320
vt 0.738383 0.430656
vt 0.744418 0.413138
vt 0.745209 0.246892
vt 0.739261 0.243458
vt 0.747355 0.226354
vt 0.741752 0.219618
vt 0.750840 0.207427
vt 0.745798 0.197647
vt 0.755530 0.190836
vt 0.751242 0.178389
vt 0.761246 0.177221
vt 0.757877 0.162584
vt 0.767766 0.167103
vt 0.765446 0.150840
vt 0.774842 0.160873
vt 0.773659 0.143609
vt 0.782200 0.158770
vt 0.782200 0.141167
vt 0.789558 0.160873
vt 0.790741 0.143609
vt 0.796633 0.167104
vt 0.798954 0.150840
vt 0.803153 0.177221
vt 0.806522 0.162584
vt 0.808869 0.190836
vt 0.813157 0.178389
vt 0.813559 0.207427
vt 0.818601 0.197647
vt 0.817044 0.226354
vt 0.822647 0.219618
vt 0.819191 0.246892
vt 0.825138 0.243458
vt 0.738383 0.573614
vt 0.739173 0.596902
vt 0.741320 0.617440
vt 0.744805 0.636368
vt 0.749495 0.652959
vt 0.755211 0.666574
vt 0.761731 0.676691
vt 0.768807 0.682921
vt 0.776165 0.685025
vt 0.783523 0.682921
vt 0.790598 0.676691
vt 0.797118 0.666574
vt 0.802834 0.652958
vt 0.807524 0.636368
vt 0.811009 0.617440
vt 0.813156 0.596902
vt 0.813946 0.573614
vt 0.813946 0.430656
vt 0.738383 0.430656
vt 0.681958 0.709217
vt 0.640893 0.709217
vt 0.640893 0.725807
vt 0.681958 0.725807
vt 0.681958 0.570977
vt 0.640893 0.570977
vt 0.640893 0.587568
vt 0.681958 0.587568
vt 0.561823 0.474284
vt 0.520758 0.474284
vt 0.520758 0.491843
vt 0.561823 0.491843
vt 0.640893 0.606495
vt 0.681958 0.606495
vt 0.561823 0.555812
vt 0.520758 0.555812
vt 0.520758 0.698372
vt 0.561823 0.698372
vt 0.520758 0.511473
vt 0.561823 0.511473
vt 0.640893 0.627033
vt 0.681958 0.627033
vt 0.561823 0.698372
vt 0.602888 0.698372
vt 0.602888 0.555812
vt 0.561823 0.555812
vt 0.520758 0.532418
vt 0.561823 0.532418
vt 0.640893 0.648392
vt 0.681958 0.648392
vt 0.602888 0.532418
vt 0.561823 0.532418
vt 0.640893 0.669751
vt 0.681958 0.669751
vt 0.602888 0.511473
vt 0.561823 0.511473
vt 0.855011 0.430656
vt 0.813946 0.430656
vt 0.813946 0.649999
vt 0.855011 0.649999
vt 0.640893 0.690289
vt 0.681958 0.690289
vt 0.111683 0.807865
vt 0.103477 0.807865
vt 0.103477 0.750000
vt 0.118557 0.750000
vt 0.118557 0.807865
vn 0.0000 -1.0000 0.0000
vn 0.0000 0.0000 -1.0000
vn 1.0000 -0.0000 0.0000
vn 0.0000 1.0000 0.0000
vn 0.0000 0.0000 1.0000
vn -1.0000 0.0000 0.0000
vn 0.0000 0.0744 0.9972
vn 0.0000 0.2240 0.9746
vn 0.0000 0.3753 0.9269
vn 0.0000 0.5280 0.8493
vn 0.0000 0.6783 0.7348
vn 0.0000 0.8171 0.5765
vn 0.0000 0.9283 0.3718
vn 0.0000 0.9917 0.1289
vn 0.0000 0.9917 -0.1289
vn 0.0000 0.9283 -0.3718
vn 0.0000 0.8171 -0.5765
vn 0.0000 0.6783 -0.7348
vn 0.0000 0.5280 -0.8493
vn 0.0000 0.3753 -0.9269
vn 0.0000 0.2240 -0.9746
vn 0.0000 0.0744 -0.9972
vn 0.0000 -0.3753 0.9269
vn 0.0000 -0.5280 -0.8493
vn 0.0000 -0.9283 -0.3718
vn 0.0000 -0.2240 0.9746
vn 0.0000 -0.9917 -0.1289
vn 0.0000 -0.0744 -0.9972
vn 0.0000 -0.0744 0.9972
vn 0.0000 -0.9917 0.1289
vn 0.0000 -0.2240 -0.9746
vn 0.0000 -0.9283 0.3718
vn 0.0000 -0.3753 -0.9269
vn 0.0000 -0.8171 0.5765
vn 0.0000 -0.6783 0.7348
vn 0.0000 -0.6783 -0.7348
vn 0.0000 -0.5280 0.8493
vn 0.0000 -0.8171 -0.5765
usemtl (null)
s off
f 7/1/1 6/2/1 12/3/1 13/4/1
f 7/5/2 13/6/2 14/7/2 4/8/2 8/9/2
f 5/10/3 6/11/3 7/12/3 8/13/3
f 4/14/4 3/15/4 5/16/4 8/17/4
f 1/18/5 10/19/5 11/20/5 3/21/5
f 10/22/6 9/23/6 14/24/6 11/25/6
f 11/26/6 14/27/6 13/28/6 12/29/6
f 2/30/4 9/31/4 10/32/4 1/33/4
f 4/34/2 14/35/2 9/36/2 2/37/2
f 2/38/3 1/39/3 3/40/3 4/41/3
f 54/42/2 53/43/2 19/44/2 16/45/2
f 22/46/5 17/47/5 56/48/5 55/49/5
f 55/50/7 57/51/7 24/52/7 22/53/7
f 57/54/8 58/55/8 26/56/8 24/57/8
f 58/58/9 59/59/9 28/60/9 26/61/9
f 59/62/10 60/63/10 30/64/10 28/65/10
f 60/66/11 61/67/11 32/68/11 30/69/11
f 61/70/12 62/71/12 34/72/12 32/73/12
f 62/74/13 63/75/13 36/76/13 34/77/13
f 63/78/14 64/79/14 38/80/14 36/81/14
f 64/82/15 65/83/15 40/84/15 38/85/15
f 65/86/16 66/87/16 42/88/16 40/89/16
f 66/90/17 67/91/17 44/92/17 42/93/17
f 67/94/18 68/95/18 46/96/18 44/97/18
f 68/98/19 69/99/19 48/100/19 46/101/19
f 69/102/20 70/103/20 50/104/20 48/105/20
f 70/106/21 71/107/21 52/108/21 50/109/21
f 71/110/22 54/111/22 16/112/22 52/113/22
f 17/114/1 19/115/1 53/116/1 56/117/1
f 47/118/23 107/119/23 108/120/23 49/121/23
f 19/122/6 17/123/6 22/124/6 24/125/6 26/126/6 28/127/6 30/128/6 32/129/6 34/130/6 36/131/6 38/132/6 40/133/6 42/134/6 44/135/6 46/136/6 48/137/6 50/138/6 52/139/6 16/140/6
f 20/141/3 53/142/3 54/143/3 15/144/3
f 21/145/3 55/146/3 56/147/3 18/148/3
f 23/149/3 57/150/3 55/146/3 21/145/3
f 25/151/3 58/152/3 57/150/3 23/149/3
f 27/153/3 59/154/3 58/152/3 25/151/3
f 29/155/3 60/156/3 59/154/3 27/153/3
f 31/157/3 61/158/3 60/156/3 29/155/3
f 33/159/3 62/160/3 61/158/3 31/157/3
f 35/161/3 63/162/3 62/160/3 33/159/3
f 37/163/3 64/164/3 63/162/3 35/161/3
f 39/165/3 65/166/3 64/164/3 37/163/3
f 41/167/3 66/168/3 65/166/3 39/165/3
f 43/169/3 67/170/3 66/168/3 41/167/3
f 45/171/3 68/172/3 67/170/3 43/169/3
f 47/173/3 69/174/3 68/172/3 45/171/3
f 49/175/3 70/176/3 69/174/3 47/173/3
f 51/177/3 71/178/3 70/176/3 49/175/3
f 15/144/3 54/143/3 71/178/3 51/177/3
f 18/148/3 56/147/3 53/142/3 20/141/3
f 78/179/24 116/180/24 117/181/24 79/182/24
f 33/183/25 100/184/25 101/185/25 35/186/25
f 18/187/2 94/188/2 93/189/2 21/190/2
f 49/121/26 108/120/26 109/191/26 51/192/26
f 35/186/27 101/185/27 102/193/27 37/194/27
f 21/190/28 93/189/28 95/195/28 23/196/28
f 51/192/29 109/191/29 92/197/29 15/198/29
f 37/194/30 102/193/30 103/199/30 39/200/30
f 23/196/31 95/195/31 96/201/31 25/202/31
f 20/203/4 91/204/4 94/205/4 18/206/4
f 39/200/32 103/199/32 104/207/32 41/208/32
f 25/202/33 96/201/33 97/209/33 27/210/33
f 41/208/34 104/207/34 105/211/34 43/212/34
f 27/210/24 97/209/24 98/213/24 29/214/24
f 43/212/35 105/211/35 106/215/35 45/216/35
f 29/217/36 98/218/36 99/219/36 31/220/36
f 45/221/37 106/222/37 107/119/37 47/118/37
f 31/220/38 99/219/38 100/184/38 33/183/38
f 15/198/5 92/197/5 91/223/5 20/224/5
f 72/225/3 91/226/3 92/227/3 73/228/3
f 74/229/3 93/230/3 94/231/3 75/232/3
f 76/233/3 95/234/3 93/230/3 74/229/3
f 77/235/3 96/236/3 95/234/3 76/233/3
f 78/237/3 97/238/3 96/236/3 77/235/3
f 79/239/3 98/240/3 97/238/3 78/237/3
f 80/241/3 99/242/3 98/240/3 79/239/3
f 81/243/3 100/244/3 99/242/3 80/241/3
f 82/245/3 101/246/3 100/244/3 81/243/3
f 83/247/3 102/248/3 101/246/3 82/245/3
f 84/249/3 103/250/3 102/248/3 83/247/3
f 85/251/3 104/252/3 103/250/3 84/249/3
f 86/253/3 105/254/3 104/252/3 85/251/3
f 87/255/3 106/256/3 105/254/3 86/253/3
f 88/257/3 107/258/3 106/256/3 87/255/3
f 89/259/3 108/260/3 107/258/3 88/257/3
f 90/261/3 109/262/3 108/260/3 89/259/3
f 73/228/3 92/227/3 109/262/3 90/261/3
f 75/232/3 94/231/3 91/226/3 72/225/3
f 111/263/3 128/264/3 127/265/3 126/266/3 125/267/3 124/268/3 123/269/3 122/270/3 121/271/3 120/272/3 119/273/3 118/274/3 117/275/3 116/276/3 115/277/3 114/278/3 112/279/3 113/280/3 110/281/3
f 86/282/35 124/283/35 125/284/35 87/285/35
f 79/286/36 117/287/36 118/288/36 80/289/36
f 87/290/37 125/291/37 126/292/37 88/293/37
f 80/289/38 118/288/38 119/294/38 81/295/38
f 73/296/5 111/297/5 110/298/5 72/299/5
f 88/293/23 126/292/23 127/300/23 89/301/23
f 81/295/25 119/294/25 120/302/25 82/303/25
f 75/304/2 113/305/2 112/306/2 74/307/2
f 89/301/26 127/300/26 128/308/26 90/309/26
f 82/303/27 120/302/27 121/310/27 83/311/27
f 74/307/28 112/306/28 114/312/28 76/313/28
f 90/309/29 128/308/29 111/297/29 73/296/29
f 83/311/30 121/310/30 122/314/30 84/315/30
f 76/313/31 114/312/31 115/316/31 77/317/31
f 72/318/4 110/319/4 113/320/4 75/321/4
f 84/315/32 122/314/32 123/322/32 85/323/32
f 77/317/33 115/316/33 116/180/33 78/179/33
f 85/323/34 123/322/34 124/283/34 86/282/34
f 3/324/5 11/325/5 12/326/5 6/327/5 5/328/5
