# Blender v3.1.2 OBJ File: 'Paredes Monasterio Plano .blend'
# www.blender.org
mtllib Parede Base_MESH Textura .mtl
o Parede_Baixa_Plane.002
v -0.119358 4.000004 -0.000000
v -0.119359 0.000004 -0.000000
v -0.119358 4.000004 -4.000000
v -0.119359 0.000004 -4.000000
v -0.119359 1.004741 -0.000000
v -0.119359 1.004741 -4.000000
v -0.000002 1.004741 -0.000000
v -0.000002 0.000004 -0.000000
v -0.000002 0.000004 -4.000000
v -0.000002 1.004741 -4.000000
v -0.261839 4.000004 -4.000000
v -0.261839 4.000004 -0.000000
v -0.261839 1.004741 -0.000000
v -0.261839 0.000004 -0.000000
v -0.261839 0.000004 -4.000000
v -0.261839 1.004741 -4.000000
vt 0.196832 0.625592
vt 0.196832 0.500000
vt 0.211752 0.500000
vt 0.211752 0.625592
vt 0.892218 0.000000
vt 0.892218 0.500000
vt 0.874408 0.500000
vt 0.874408 0.000000
vt 0.748816 0.000000
vt 0.874408 0.000000
vt 0.874408 0.500000
vt 0.748816 0.500000
vt 0.924948 0.000000
vt 0.924948 0.500000
vt 0.910028 0.500000
vt 0.910028 0.000000
vt 0.924948 0.500000
vt 0.924948 0.000000
vt 0.939867 0.000000
vt 0.939867 0.500000
vt 0.226672 0.500000
vt 0.226672 0.625592
vt 0.211752 0.625592
vt 0.211752 0.500000
vt 0.161212 0.874408
vt 0.143402 0.874408
vt 0.143402 0.500000
vt 0.161212 0.500000
vt 0.000000 0.500000
vt 0.000000 0.000000
vt 0.374408 0.000000
vt 0.374408 0.500000
vt 0.000000 1.000000
vt 0.000000 0.500000
vt 0.125592 0.500000
vt 0.125592 1.000000
vt 0.892218 0.000000
vt 0.910028 0.000000
vt 0.910028 0.500000
vt 0.892218 0.500000
vt 0.161212 0.625592
vt 0.161212 0.500000
vt 0.179022 0.500000
vt 0.179022 0.625592
vt 0.125592 0.500000
vt 0.143402 0.500000
vt 0.143402 0.874408
vt 0.125592 0.874408
vt 0.179022 0.625592
vt 0.179022 0.500000
vt 0.374408 0.500000
vt 0.374408 0.000000
vt 0.748816 0.000000
vt 0.748816 0.500000
vn 0.0000 0.0000 1.0000
vn 0.0000 -1.0000 0.0000
vn 1.0000 -0.0000 0.0000
vn 0.0000 1.0000 0.0000
vn 0.0000 0.0000 -1.0000
vn -1.0000 0.0000 0.0000
usemtl (null)
s off
f 5/1/1 2/2/1 8/3/1 7/4/1
f 4/5/2 2/6/2 14/7/2 15/8/2
f 7/9/3 8/10/3 9/11/3 10/12/3
f 6/13/4 5/14/4 7/15/4 10/16/4
f 2/17/2 4/18/2 9/19/2 8/20/2
f 4/21/5 6/22/5 10/23/5 9/24/5
f 1/25/1 12/26/1 13/27/1 5/28/1
f 12/29/6 11/30/6 16/31/6 13/32/6
f 13/33/6 16/34/6 15/35/6 14/36/6
f 3/37/4 11/38/4 12/39/4 1/40/4
f 6/41/5 4/42/5 15/43/5 16/44/5
f 6/45/5 16/46/5 11/47/5 3/48/5
f 2/2/1 5/1/1 13/49/1 14/50/1
f 3/51/3 1/52/3 5/53/3 6/54/3
