# Blender v3.1.2 OBJ File: 'Paredes Monasterio Plano .blend'
# www.blender.org
mtllib Parede Base Janela_MESH .mtl
o Parede_Base_Janela_Plane.003
v -0.119358 4.000004 -0.000000
v -0.000182 2.491045 -2.774714
v -0.119359 0.000004 -0.000000
v -0.119358 4.000004 -4.000000
v -0.119359 0.000004 -4.000000
v -0.000182 1.181190 -1.210256
v -0.119359 1.004741 -0.000000
v -0.119359 1.004741 -4.000000
v -0.000182 1.181190 -2.774714
v -0.000002 1.004741 -0.000000
v -0.000182 2.491045 -1.210256
v -0.000002 0.000004 -0.000000
v -0.000002 0.000004 -4.000000
v -0.000182 2.701013 -1.225921
v -0.000002 1.004741 -4.000000
v -0.261839 4.000004 -4.000000
v -0.000182 2.894567 -1.270398
v -0.261839 4.000004 -0.000000
v -0.000182 3.072947 -1.342624
v -0.261839 1.004741 -0.000000
v -0.261839 0.000004 -0.000000
v -0.261839 0.000004 -4.000000
v -0.000182 3.229298 -1.439823
v -0.261839 1.004741 -4.000000
v -0.119359 1.004741 -1.076422
v -0.000182 3.357611 -1.558262
v -0.119359 1.004741 -2.908548
v -0.000182 3.452958 -1.693387
v -0.000182 1.004741 -1.076422
v -0.000182 1.004741 -2.908548
v -0.000182 3.511671 -1.840006
v -0.119359 2.499725 -1.076422
v -0.119359 2.735648 -1.094024
v -0.119359 2.484058 -1.317995
v -0.000182 3.531497 -1.992485
v -0.119359 2.962504 -1.146153
v -0.119359 3.171577 -1.230807
v -0.000182 3.511671 -2.144964
v -0.119359 2.839875 -1.370418
v -0.000182 3.452957 -2.291583
v -0.119359 3.128241 -1.516375
v -0.000182 3.357612 -2.426708
v -0.119359 2.993547 -1.432639
v -0.119359 3.354830 -1.344731
v -0.119359 3.505222 -1.483548
v -0.000182 3.229298 -2.545146
v -0.119359 2.673132 -1.332102
v -0.119358 3.616974 -1.641923
v -0.000182 3.072947 -2.642346
v -0.119359 3.388581 -1.992485
v -0.000182 2.894567 -2.714572
v -0.119358 3.685790 -1.813770
v -0.000182 2.701013 -2.759048
v -0.119359 3.371502 -2.123843
v -0.119358 3.685790 -2.171200
v -0.119358 3.709026 -1.992485
v -0.000182 2.499725 -2.908548
v -0.119359 3.128241 -2.468595
v -0.000182 2.499725 -1.076422
v -0.119359 3.238782 -2.366562
v -0.119359 3.171577 -2.754163
v -0.000182 2.735648 -1.094024
v -0.000182 2.962504 -1.146153
v -0.119359 3.354830 -2.640239
v -0.119359 3.505222 -2.501422
v -0.000182 3.171577 -1.230807
v -0.119358 3.616974 -2.343047
v -0.000182 3.354830 -1.344731
v -0.000182 3.505222 -1.483548
v -0.119359 3.320921 -2.250154
v -0.000182 3.616974 -1.641923
v -0.119359 3.320921 -1.734816
v -0.119359 1.323418 -1.317995
v -0.000182 3.685790 -1.813770
v -0.000182 3.709026 -1.992485
v -0.119359 2.673132 -2.652868
v -0.000182 3.685790 -2.171200
v -0.000182 3.616974 -2.343047
v -0.119359 2.499725 -2.908548
v -0.000182 3.505222 -2.501422
v -0.119359 2.735648 -2.890946
v -0.000182 3.354830 -2.640239
v -0.119359 1.323417 -2.666975
v -0.119359 2.484058 -2.666975
v -0.000182 3.171577 -2.754163
v -0.119359 2.962504 -2.838816
v -0.000182 2.962504 -2.838816
v -0.000182 2.735648 -2.890946
v -0.074355 1.323417 -2.666975
v -0.074355 2.484058 -2.666975
v -0.074355 2.484058 -1.317995
v -0.074355 1.323418 -1.317995
v -0.074355 2.673132 -1.332102
v -0.074355 2.839875 -1.370418
v -0.074355 2.993547 -1.432639
v -0.074355 3.128241 -1.516375
v -0.074355 3.238782 -1.618408
v -0.074355 3.320921 -1.734816
v -0.074355 3.371502 -1.861127
v -0.074355 3.388581 -1.992485
v -0.074355 3.371502 -2.123843
v -0.074355 3.320921 -2.250154
v -0.074355 3.238782 -2.366562
v -0.074355 3.128241 -2.468595
v -0.074355 2.993547 -2.552331
v -0.074355 2.839875 -2.614552
v -0.074355 2.673132 -2.652868
v -0.074355 1.181190 -2.774714
v -0.074355 2.491045 -2.774714
v -0.074355 2.491045 -1.210256
v -0.074355 1.181190 -1.210256
v -0.074355 2.701013 -1.225921
v -0.074355 2.894567 -1.270398
v -0.074355 3.072947 -1.342624
v -0.074355 3.229298 -1.439823
v -0.074355 3.357611 -1.558262
v -0.074355 3.452958 -1.693387
v -0.074355 3.511671 -1.840006
v -0.074355 3.531497 -1.992485
v -0.074355 3.511671 -2.144964
v -0.074355 3.452957 -2.291583
v -0.074355 3.357612 -2.426708
v -0.074355 3.229298 -2.545146
v -0.074355 3.072947 -2.642346
v -0.074355 2.894567 -2.714572
v -0.074355 2.701013 -2.759048
v -0.000182 1.004741 -2.908376
v -0.000182 1.004741 -1.076593
v -0.000182 1.004741 -1.076422
v -0.000182 1.004741 -2.908548
v -0.119359 2.993547 -2.552331
v -0.119359 3.371502 -1.861127
v -0.119359 3.238782 -1.618408
v -0.119359 2.839875 -2.614552
vt 0.196832 0.625592
vt 0.196832 0.500000
vt 0.211752 0.500000
vt 0.211752 0.625592
vt 0.892218 0.000000
vt 0.892218 0.500000
vt 0.874408 0.500000
vt 0.874408 0.000000
vt 0.748816 0.000000
vt 0.874408 0.000000
vt 0.874408 0.500000
vt 0.748816 0.500000
vt 0.924948 0.365447
vt 0.924948 0.500000
vt 0.910028 0.500000
vt 0.910028 0.000000
vt 0.924948 0.000000
vt 0.924948 0.136432
vt 0.910051 0.136432
vt 0.910051 0.136432
vt 0.910051 0.136453
vt 0.910051 0.365426
vt 0.910051 0.365447
vt 0.910051 0.365447
vt 0.924948 0.500000
vt 0.924948 0.000000
vt 0.939867 0.000000
vt 0.939867 0.500000
vt 0.226672 0.500000
vt 0.226672 0.625592
vt 0.211752 0.625592
vt 0.211752 0.500000
vt 0.161212 0.874408
vt 0.143402 0.874408
vt 0.143402 0.500000
vt 0.161212 0.500000
vt 0.000000 1.000000
vt 0.000000 0.500000
vt 0.125592 0.500000
vt 0.125592 1.000000
vt 0.892218 0.000000
vt 0.910028 0.000000
vt 0.910028 0.500000
vt 0.892218 0.500000
vt 0.161212 0.625592
vt 0.161212 0.500000
vt 0.179022 0.500000
vt 0.179022 0.625592
vt 0.125592 0.500000
vt 0.143402 0.500000
vt 0.143402 0.874408
vt 0.125592 0.874408
vt 0.179022 0.625592
vt 0.179022 0.500000
vt 0.748816 0.363568
vt 0.748816 0.500000
vt 0.374408 0.500000
vt 0.374408 0.000000
vt 0.748816 0.000000
vt 0.748816 0.134553
vt 0.561943 0.134553
vt 0.532452 0.136753
vt 0.504095 0.143269
vt 0.477961 0.153851
vt 0.455054 0.168091
vt 0.436256 0.185443
vt 0.422287 0.205240
vt 0.413684 0.226721
vt 0.410780 0.249061
vt 0.413684 0.271400
vt 0.422287 0.292881
vt 0.436255 0.312678
vt 0.455054 0.330030
vt 0.477961 0.344270
vt 0.504095 0.354852
vt 0.532452 0.361368
vt 0.561943 0.363568
vt 0.604136 0.828782
vt 0.604136 0.796329
vt 0.465441 0.796329
vt 0.465441 0.796329
vt 0.465441 0.828782
vt 0.465360 0.996607
vt 0.465360 0.996607
vt 0.603850 0.996607
vt 0.603850 0.963690
vt 0.465360 0.963690
vt 0.650095 0.962198
vt 0.650095 0.929661
vt 0.603958 0.929661
vt 0.603958 0.962198
vt 0.696955 0.961459
vt 0.696955 0.928869
vt 0.650814 0.928869
vt 0.650814 0.961459
vt 0.742929 0.961399
vt 0.742929 0.928201
vt 0.697619 0.928201
vt 0.697619 0.961400
vt 0.789935 0.961737
vt 0.789935 0.928539
vt 0.742957 0.928539
vt 0.742957 0.961737
vt 0.836110 0.961971
vt 0.836109 0.928629
vt 0.790623 0.928629
vt 0.790623 0.961971
vt 0.882381 0.961339
vt 0.882381 0.927806
vt 0.836433 0.927806
vt 0.836433 0.961339
vt 0.929090 0.961236
vt 0.929090 0.927815
vt 0.882382 0.927815
vt 0.882382 0.961236
vt 0.975457 0.961488
vt 0.975457 0.927919
vt 0.929382 0.927919
vt 0.929382 0.961488
vt 0.975826 0.828109
vt 0.975826 0.794422
vt 0.928591 0.794422
vt 0.928591 0.828109
vt 0.928756 0.827951
vt 0.928756 0.794562
vt 0.882940 0.794562
vt 0.882940 0.827951
vt 0.882498 0.829037
vt 0.882498 0.795648
vt 0.836888 0.795648
vt 0.836888 0.829037
vt 0.835815 0.828414
vt 0.835815 0.795155
vt 0.789628 0.795155
vt 0.789628 0.828414
vt 0.789947 0.828239
vt 0.789947 0.795446
vt 0.742329 0.795446
vt 0.742329 0.828239
vt 0.742574 0.827473
vt 0.742574 0.793877
vt 0.697566 0.793877
vt 0.697566 0.827473
vt 0.696774 0.828264
vt 0.696774 0.795173
vt 0.650436 0.795173
vt 0.650436 0.828264
vt 0.650122 0.829296
vt 0.650122 0.796801
vt 0.605599 0.796801
vt 0.605599 0.829296
vt 0.886183 0.451039
vt 0.855011 0.451039
vt 0.855011 0.473824
vt 0.886183 0.473824
vt 0.628261 0.452523
vt 0.635748 0.474256
vt 0.635757 0.474256
vt 0.635757 0.290118
vt 0.628261 0.291187
vt 0.533141 0.474256
vt 0.540628 0.452523
vt 0.540628 0.291187
vt 0.533131 0.290118
vt 0.533131 0.474256
vt 0.541506 0.265325
vt 0.534117 0.261059
vt 0.543997 0.241485
vt 0.537037 0.233117
vt 0.548043 0.219513
vt 0.541779 0.207365
vt 0.553487 0.200255
vt 0.548161 0.184793
vt 0.560122 0.184451
vt 0.555937 0.166270
vt 0.567691 0.172707
vt 0.564808 0.152505
vt 0.575903 0.165475
vt 0.574434 0.144029
vt 0.584444 0.163033
vt 0.584444 0.141167
vt 0.592985 0.165475
vt 0.594455 0.144029
vt 0.601198 0.172707
vt 0.604081 0.152505
vt 0.608767 0.184451
vt 0.612952 0.166269
vt 0.615402 0.200255
vt 0.620728 0.184793
vt 0.620846 0.219513
vt 0.627110 0.207365
vt 0.624892 0.241485
vt 0.631851 0.233117
vt 0.627383 0.265325
vt 0.634771 0.261059
vt 0.633359 0.483999
vt 0.681958 0.587568
vt 0.681958 0.570977
vt 0.634766 0.475153
vt 0.888361 0.182396
vt 0.857188 0.182396
vt 0.857188 0.206236
vt 0.888361 0.206236
vt 0.857188 0.141167
vt 0.826016 0.141167
vt 0.826016 0.302054
vt 0.857188 0.302054
vt 0.855011 0.498137
vt 0.886183 0.498137
vt 0.857188 0.231029
vt 0.888361 0.231029
vt 0.826016 0.328034
vt 0.857188 0.328034
vt 0.855011 0.524117
vt 0.886183 0.524117
vt 0.857188 0.255822
vt 0.888361 0.255822
vt 0.826016 0.352347
vt 0.857188 0.352347
vt 0.602888 0.728664
vt 0.634060 0.728664
vt 0.634060 0.474284
vt 0.602888 0.474284
vt 0.857188 0.279662
vt 0.888361 0.279662
vt 0.826016 0.375133
vt 0.857188 0.375132
vt 0.857188 0.301633
vt 0.888361 0.301633
vt 0.826016 0.395515
vt 0.857188 0.395515
vt 0.857188 0.320891
vt 0.888361 0.320891
vt 0.888361 0.141167
vt 0.857188 0.141167
vt 0.857188 0.160425
vt 0.888361 0.160425
vt 0.886183 0.430656
vt 0.855011 0.430656
vt 0.855011 0.685005
vt 0.886183 0.685005
vt 0.819981 0.413138
vt 0.826016 0.430656
vt 0.826016 0.269320
vt 0.819981 0.270181
vt 0.744418 0.270181
vt 0.738383 0.269320
vt 0.738383 0.430656
vt 0.744418 0.413138
vt 0.745209 0.246892
vt 0.739261 0.243458
vt 0.747355 0.226354
vt 0.741752 0.219618
vt 0.750840 0.207427
vt 0.745798 0.197647
vt 0.755530 0.190836
vt 0.751242 0.178389
vt 0.761246 0.177221
vt 0.757877 0.162584
vt 0.767766 0.167103
vt 0.765446 0.150840
vt 0.774842 0.160873
vt 0.773659 0.143609
vt 0.782200 0.158770
vt 0.782200 0.141167
vt 0.789558 0.160873
vt 0.790741 0.143609
vt 0.796633 0.167104
vt 0.798954 0.150840
vt 0.803153 0.177221
vt 0.806522 0.162584
vt 0.808869 0.190836
vt 0.813157 0.178389
vt 0.813559 0.207427
vt 0.818601 0.197647
vt 0.817044 0.226354
vt 0.822647 0.219618
vt 0.819191 0.246892
vt 0.825138 0.243458
vt 0.561823 0.491843
vt 0.561823 0.474284
vt 0.534862 0.404054
vt 0.533629 0.421326
vt 0.631882 0.495625
vt 0.681958 0.606495
vt 0.561823 0.511473
vt 0.532671 0.440963
vt 0.630416 0.509436
vt 0.681958 0.627033
vt 0.549448 0.485876
vt 0.561823 0.555812
vt 0.561823 0.698372
vt 0.549448 0.628546
vt 0.532064 0.462168
vt 0.561823 0.532418
vt 0.628982 0.524731
vt 0.681958 0.648392
vt 0.549227 0.462168
vt 0.561823 0.532418
vt 0.531844 0.485876
vt 0.561823 0.555812
vt 0.627548 0.540847
vt 0.681958 0.669751
vt 0.548621 0.440963
vt 0.561823 0.511473
vt 0.855011 0.649999
vt 0.855011 0.430656
vt 0.747426 0.431694
vt 0.765031 0.592978
vt 0.547663 0.421325
vt 0.561823 0.491843
vt 0.624606 0.573448
vt 0.681958 0.709217
vt 0.681958 0.690289
vt 0.626082 0.557239
vt 0.546430 0.404054
vt 0.561823 0.474284
vt 0.531844 0.628546
vt 0.561823 0.698372
vt 0.623198 0.589000
vt 0.681958 0.725807
vn 0.0000 0.0000 1.0000
vn 0.0000 -1.0000 0.0000
vn 1.0000 -0.0000 0.0000
vn 0.0000 1.0000 0.0000
vn 0.0000 0.0000 -1.0000
vn -1.0000 0.0000 0.0000
vn 0.0000 0.0744 0.9972
vn 0.0000 0.2240 0.9746
vn 0.0000 0.3753 0.9269
vn 0.0000 0.5280 0.8493
vn 0.0000 0.6783 0.7348
vn 0.0000 0.8171 0.5765
vn 0.0000 0.9283 0.3718
vn 0.0000 0.9917 0.1289
vn 0.0000 0.9917 -0.1289
vn 0.0000 0.9283 -0.3718
vn 0.0000 0.8171 -0.5765
vn 0.0000 0.6783 -0.7348
vn 0.0000 0.5280 -0.8493
vn 0.0000 0.3753 -0.9269
vn 0.0000 0.2240 -0.9746
vn 0.0000 0.0744 -0.9972
vn 0.0000 -0.3753 0.9269
vn 0.0000 -0.6783 -0.7348
vn 0.0000 -0.9283 -0.3717
vn 0.0000 -0.2240 0.9746
vn 0.0000 -0.9917 -0.1289
vn 0.0000 -0.0744 -0.9972
vn 0.0000 -0.0744 0.9972
vn 0.0000 -0.9917 0.1289
vn 0.0000 -0.2240 -0.9746
vn 0.0000 -0.9283 0.3718
vn 0.0000 -0.3753 -0.9269
vn 0.0000 -0.8171 0.5765
vn 0.0000 -0.5280 -0.8493
vn 0.0000 -0.6783 0.7348
vn 0.0000 -0.5280 0.8493
vn 0.0000 -0.8171 -0.5765
usemtl (null)
s off
f 7/1/1 3/2/1 12/3/1 10/4/1
f 5/5/2 3/6/2 21/7/2 22/8/2
f 10/9/3 12/10/3 13/11/3 15/12/3
f 25/13/4 7/14/4 10/15/4 15/16/4 8/17/4 27/18/4 30/19/4 130/20/4 127/21/4 128/22/4 129/23/4 29/24/4
f 3/25/2 5/26/2 13/27/2 12/28/2
f 5/29/5 8/30/5 15/31/5 13/32/5
f 1/33/1 18/34/1 20/35/1 7/36/1
f 20/37/6 24/38/6 22/39/6 21/40/6
f 4/41/4 16/42/4 18/43/4 1/44/4
f 8/45/5 5/46/5 22/47/5 24/48/5
f 8/49/5 24/50/5 16/51/5 4/52/5
f 3/2/1 7/1/1 20/53/1 21/54/1
f 27/55/3 8/56/3 4/57/3 1/58/3 7/59/3 25/60/3 32/61/3 33/62/3 36/63/3 37/64/3 44/65/3 45/66/3 48/67/3 52/68/3 56/69/3 55/70/3 67/71/3 65/72/3 64/73/3 61/74/3 86/75/3 81/76/3 79/77/3
f 79/78/5 57/79/5 130/80/5 30/81/5 27/82/5
f 29/83/1 129/84/1 59/85/1 32/86/1 25/87/1
f 32/88/7 59/89/7 62/90/7 33/91/7
f 33/92/8 62/93/8 63/94/8 36/95/8
f 36/96/9 63/97/9 66/98/9 37/99/9
f 37/100/10 66/101/10 68/102/10 44/103/10
f 44/104/11 68/105/11 69/106/11 45/107/11
f 45/108/12 69/109/12 71/110/12 48/111/12
f 48/112/13 71/113/13 74/114/13 52/115/13
f 52/116/14 74/117/14 75/118/14 56/119/14
f 56/120/15 75/121/15 77/122/15 55/123/15
f 55/124/16 77/125/16 78/126/16 67/127/16
f 67/128/17 78/129/17 80/130/17 65/131/17
f 65/132/18 80/133/18 82/134/18 64/135/18
f 64/136/19 82/137/19 85/138/19 61/139/19
f 61/140/20 85/141/20 87/142/20 86/143/20
f 86/144/21 87/145/21 88/146/21 81/147/21
f 81/148/22 88/149/22 57/150/22 79/151/22
f 49/152/23 124/153/23 125/154/23 51/155/23
f 9/156/3 127/157/3 130/158/3 57/159/3 2/160/3
f 128/161/3 6/162/3 11/163/3 59/164/3 129/165/3
f 14/166/3 62/167/3 59/164/3 11/163/3
f 17/168/3 63/169/3 62/167/3 14/166/3
f 19/170/3 66/171/3 63/169/3 17/168/3
f 23/172/3 68/173/3 66/171/3 19/170/3
f 26/174/3 69/175/3 68/173/3 23/172/3
f 28/176/3 71/177/3 69/175/3 26/174/3
f 31/178/3 74/179/3 71/177/3 28/176/3
f 35/180/3 75/181/3 74/179/3 31/178/3
f 38/182/3 77/183/3 75/181/3 35/180/3
f 40/184/3 78/185/3 77/183/3 38/182/3
f 42/186/3 80/187/3 78/185/3 40/184/3
f 46/188/3 82/189/3 80/187/3 42/186/3
f 49/190/3 85/191/3 82/189/3 46/188/3
f 51/192/3 87/193/3 85/191/3 49/190/3
f 53/194/3 88/195/3 87/193/3 51/192/3
f 2/160/3 57/159/3 88/195/3 53/194/3
f 127/157/3 9/156/3 6/162/3 128/161/3
f 133/196/24 97/197/24 96/198/24 41/199/24
f 28/200/25 117/201/25 118/202/25 31/203/25
f 6/204/5 111/205/5 110/206/5 11/207/5
f 51/155/26 125/154/26 126/208/26 53/209/26
f 31/203/27 118/202/27 119/210/27 35/211/27
f 11/207/28 110/206/28 112/212/28 14/213/28
f 53/209/29 126/208/29 109/214/29 2/215/29
f 35/211/30 119/210/30 120/216/30 38/217/30
f 14/213/31 112/212/31 113/218/31 17/219/31
f 9/220/4 108/221/4 111/222/4 6/223/4
f 38/217/32 120/216/32 121/224/32 40/225/32
f 17/219/33 113/218/33 114/226/33 19/227/33
f 40/225/34 121/224/34 122/228/34 42/229/34
f 19/227/35 114/226/35 115/230/35 23/231/35
f 42/229/36 122/228/36 123/232/36 46/233/36
f 23/234/24 115/235/24 116/236/24 26/237/24
f 46/238/37 123/239/37 124/153/37 49/152/37
f 26/237/38 116/236/38 117/201/38 28/200/38
f 2/215/1 109/214/1 108/240/1 9/241/1
f 89/242/3 108/243/3 109/244/3 90/245/3
f 91/246/3 110/247/3 111/248/3 92/249/3
f 93/250/3 112/251/3 110/247/3 91/246/3
f 94/252/3 113/253/3 112/251/3 93/250/3
f 95/254/3 114/255/3 113/253/3 94/252/3
f 96/256/3 115/257/3 114/255/3 95/254/3
f 97/258/3 116/259/3 115/257/3 96/256/3
f 98/260/3 117/261/3 116/259/3 97/258/3
f 99/262/3 118/263/3 117/261/3 98/260/3
f 100/264/3 119/265/3 118/263/3 99/262/3
f 101/266/3 120/267/3 119/265/3 100/264/3
f 102/268/3 121/269/3 120/267/3 101/266/3
f 103/270/3 122/271/3 121/269/3 102/268/3
f 104/272/3 123/273/3 122/271/3 103/270/3
f 105/274/3 124/275/3 123/273/3 104/272/3
f 106/276/3 125/277/3 124/275/3 105/274/3
f 107/278/3 126/279/3 125/277/3 106/276/3
f 90/245/3 109/244/3 126/279/3 107/278/3
f 92/249/3 111/248/3 108/243/3 89/242/3
f 105/280/37 104/281/37 58/282/37 131/283/37
f 72/284/38 98/285/38 97/197/38 133/196/38
f 106/286/23 105/280/23 131/283/23 134/287/23
f 132/288/25 99/289/25 98/285/25 72/284/25
f 34/290/5 91/291/5 92/292/5 73/293/5
f 76/294/26 107/295/26 106/286/26 134/287/26
f 50/296/27 100/297/27 99/289/27 132/288/27
f 47/298/28 93/299/28 91/291/28 34/290/28
f 84/300/29 90/301/29 107/295/29 76/294/29
f 54/302/30 101/303/30 100/297/30 50/296/30
f 39/304/31 94/305/31 93/299/31 47/298/31
f 92/306/4 89/307/4 83/308/4 73/309/4
f 43/310/33 95/311/33 94/305/33 39/304/33
f 60/312/34 103/313/34 102/314/34 70/315/34
f 41/316/35 96/317/35 95/311/35 43/310/35
f 83/318/1 89/319/1 90/301/1 84/300/1
f 58/320/36 104/321/36 103/313/36 60/312/36
f 70/315/32 102/314/32 101/303/32 54/302/32
f 20/35/6 18/34/6 16/42/6 24/50/6
f 39/304/3 47/298/3 34/290/3 73/293/3 83/308/3 84/300/3 76/294/3 134/287/3 131/283/3 58/282/3 60/312/3 70/315/3 54/302/3 50/296/3 132/288/3 72/284/3 133/196/3 41/199/3 43/310/3
