# Blender v3.1.2 OBJ File: ''
# www.blender.org
mtllib Banco Igreja_MESH.mtl
o BANCO_Igreja_MESH
v -1.502553 0.001077 0.759534
v -1.441657 0.001077 0.759534
v -1.450257 0.085741 0.718970
v -1.493962 0.085741 0.718970
v -1.450257 0.085741 0.036176
v -1.493962 0.085741 0.036176
v -1.441657 0.001077 -0.004382
v -1.502553 0.001077 -0.004382
v -1.456111 0.041450 0.059392
v -1.488108 0.041450 0.059392
v -1.488108 0.461319 -0.046062
v -1.456111 0.461319 -0.046062
v -1.456111 0.477578 0.791423
v -1.488108 0.477578 0.791423
v -1.488108 0.041449 0.670024
v -1.456111 0.041449 0.670024
v -1.488108 0.479036 0.548621
v -1.456111 0.479036 0.548621
v -1.456111 0.482756 0.364846
v -1.488108 0.482756 0.364846
v -1.488108 0.499414 0.224425
v -1.456111 0.499414 0.224425
v -1.456111 0.518506 0.108344
v -1.488108 0.518506 0.108344
v -1.456111 1.000788 0.823310
v -1.488108 1.000788 0.823310
v -1.488108 1.001076 0.921210
v -1.456111 1.001076 0.921210
v -1.488108 0.041449 0.621352
v -1.456111 0.041449 0.621352
v -1.488108 0.490188 0.607646
v -1.456111 0.490188 0.607646
v -1.456111 0.518335 0.050443
v -1.488108 0.518335 0.050443
v -1.456111 0.041450 0.108344
v -1.488108 0.041450 0.108344
v -1.488108 0.041449 0.548621
v -1.488108 0.041450 0.364846
v -1.488108 0.041450 0.224425
v -1.456111 0.041449 0.548621
v -1.456111 0.041450 0.364846
v -1.456111 0.041450 0.224425
v -1.456111 0.510312 -0.002147
v -1.488108 0.510312 -0.002147
v -1.456111 0.489075 -0.038230
v -1.488108 0.489075 -0.038230
v -1.456111 0.518263 0.628062
v -1.488108 0.518263 0.628062
v -1.488108 0.550760 0.647647
v -1.456111 0.550760 0.647647
v -1.488108 0.512382 0.802611
v -1.488108 0.551260 0.815478
v -1.456111 0.512382 0.802611
v -1.456111 0.551260 0.815478
v -1.488108 0.983998 0.784987
v -1.456111 0.983998 0.784987
v -1.456111 0.981442 0.953938
v -1.488108 0.981442 0.953938
v -1.488108 0.990587 0.789468
v -1.456111 0.990587 0.789468
v -1.488108 0.995976 0.798141
v -1.456111 0.995976 0.798141
v -1.488108 0.999528 0.809882
v -1.456111 0.999528 0.809882
v -1.488108 0.999540 0.934915
v -1.456111 0.999540 0.934915
v -1.488108 0.995160 0.946385
v -1.456111 0.995160 0.946385
v -1.488108 0.988715 0.953099
v -1.456111 0.988715 0.953099
v -1.450173 0.356073 0.692122
v -0.028422 0.356073 0.692122
v -0.028422 0.380724 0.697152
v -1.450173 0.380724 0.697152
v -1.450173 0.418036 0.645688
v -0.028422 0.418036 0.645688
v -0.028422 0.470425 0.106944
v -1.450173 0.470425 0.106944
v -1.450173 0.445102 0.044290
v -0.028422 0.445102 0.044290
v -0.028422 0.418693 0.038693
v -1.450173 0.418693 0.038693
v -1.450173 0.382413 0.088763
v -0.028422 0.382413 0.088763
v -0.028422 0.330026 0.627507
v -1.450173 0.330026 0.627507
v -1.450173 0.465276 0.065265
v -0.028422 0.465276 0.065265
v -1.450164 0.395308 0.050723
v -0.028422 0.395308 0.050723
v -1.450173 0.335320 0.670581
v -0.028427 0.335320 0.670581
v -1.450173 0.404775 0.684848
v -0.028422 0.404775 0.684848
v -0.780670 0.001077 0.708905
v -0.719781 0.001077 0.708905
v -0.728375 0.085741 0.671700
v -0.772074 0.085741 0.671700
v -0.728375 0.085741 0.044290
v -0.772074 0.085741 0.044290
v -0.719776 0.001077 0.007087
v -0.780670 0.001077 0.007087
v -0.766220 0.041449 0.663310
v -0.734227 0.041449 0.663310
v -0.734227 0.355808 0.663310
v -0.766220 0.355808 0.663310
v -0.766223 0.339197 0.535760
v -0.734230 0.339197 0.535760
v -0.734228 0.409932 0.079810
v -0.766218 0.409932 0.079810
v -0.734227 0.041450 0.052398
v -0.766218 0.041450 0.052398
v -0.734227 0.041449 0.520093
v -0.766218 0.041449 0.520093
v -0.063444 0.001077 0.759534
v -0.002553 0.001077 0.759534
v -0.011148 0.085741 0.718970
v -0.054849 0.085741 0.718970
v -0.011148 0.085741 0.036176
v -0.054849 0.085741 0.036176
v -0.002553 0.001077 -0.004382
v -0.063444 0.001077 -0.004382
v -1.462929 0.506225 0.752261
v -0.045748 0.506225 0.752261
v -0.045748 0.974277 0.899394
v -1.462929 0.974277 0.899394
v -0.045748 0.982798 0.831424
v -1.462929 0.982798 0.831424
v -0.045748 0.514740 0.684291
v -1.462929 0.514740 0.684291
v -0.017002 0.041450 0.059392
v -0.048995 0.041450 0.059392
v -0.048995 0.461319 -0.046062
v -0.017002 0.461319 -0.046062
v -0.017002 0.477578 0.791142
v -0.048990 0.477578 0.791142
v -0.048995 0.041449 0.670024
v -0.017002 0.041449 0.670024
v -0.048995 0.479036 0.548623
v -0.017002 0.479036 0.548623
v -0.017002 0.482756 0.364846
v -0.048995 0.482756 0.364846
v -0.048995 0.499414 0.224425
v -0.017002 0.499414 0.224425
v -0.017002 0.518506 0.108344
v -0.048995 0.518506 0.108344
v -0.016997 1.000788 0.823310
v -0.048995 1.000788 0.823310
v -0.048990 1.001076 0.921214
v -0.017002 1.001076 0.921214
v -0.048990 0.041449 0.621352
v -0.017002 0.041449 0.621352
v -0.048995 0.490188 0.607646
v -0.017002 0.490188 0.607646
v -0.017002 0.518335 0.050443
v -0.048995 0.518335 0.050443
v -0.017002 0.041450 0.108344
v -0.048995 0.041450 0.108344
v -0.048995 0.041449 0.548623
v -0.048995 0.041450 0.364846
v -0.048995 0.041450 0.224425
v -0.017002 0.041449 0.548623
v -0.017002 0.041450 0.364846
v -0.017002 0.041450 0.224425
v -0.017002 0.510312 -0.002147
v -0.048995 0.510312 -0.002147
v -0.017002 0.489075 -0.038230
v -0.048999 0.489075 -0.038230
v -0.017002 0.518263 0.628062
v -0.048995 0.518263 0.628062
v -0.048995 0.550756 0.647647
v -0.017002 0.550756 0.647647
v -0.048995 0.512382 0.802611
v -0.048995 0.551261 0.815478
v -0.016997 0.512382 0.802611
v -0.017002 0.551261 0.815478
v -0.048995 0.983986 0.784987
v -0.017002 0.983986 0.784987
v -0.017002 0.981430 0.953938
v -0.048995 0.981430 0.953938
v -0.048990 0.990587 0.789468
v -0.017002 0.990587 0.789468
v -0.048995 0.995976 0.798141
v -0.017002 0.995976 0.798141
v -0.048995 0.999528 0.809882
v -0.017002 0.999528 0.809882
v -0.048990 0.999540 0.935197
v -0.017002 0.999540 0.935197
v -0.048995 0.995160 0.946385
v -0.017002 0.995160 0.946385
v -0.048995 0.988715 0.953099
v -0.017002 0.988715 0.953099
vt 0.725904 0.182583
vt 0.725908 0.152214
vt 0.750181 0.156506
vt 0.750179 0.178302
vt 0.174579 0.725086
vt 0.196375 0.725086
vt 0.196375 0.887041
vt 0.174579 0.887041
vt 0.826145 0.359507
vt 0.826147 0.337711
vt 0.850422 0.333425
vt 0.850418 0.363794
vt 0.793925 0.205641
vt 0.824293 0.205641
vt 0.824293 0.386837
vt 0.793925 0.386837
vt 0.865525 0.801653
vt 0.865529 0.620457
vt 0.888224 0.630078
vt 0.888220 0.792032
vt 0.790344 0.841593
vt 0.790348 0.660396
vt 0.813042 0.670018
vt 0.813039 0.831973
vt 0.265735 0.879784
vt 0.265736 0.890006
vt 0.249779 0.890008
vt 0.249778 0.879786
vt 0.840465 0.418471
vt 0.840466 0.388105
vt 0.864436 0.392392
vt 0.864435 0.414185
vt 0.224699 0.725079
vt 0.246492 0.725079
vt 0.246492 0.873897
vt 0.224699 0.873897
vt 0.815405 0.410548
vt 0.815406 0.388756
vt 0.839375 0.384468
vt 0.839374 0.414836
vt 0.890585 0.016042
vt 0.920953 0.016042
vt 0.920951 0.182509
vt 0.890585 0.182509
vt 0.589863 0.217480
vt 0.589882 0.051013
vt 0.612576 0.059840
vt 0.612558 0.208658
vt 0.589863 0.670363
vt 0.589883 0.503896
vt 0.612576 0.512723
vt 0.612558 0.661541
vt 0.725904 0.069468
vt 0.741859 0.069468
vt 0.741859 0.152216
vt 0.725904 0.152216
vt 0.350010 0.753372
vt 0.365964 0.753366
vt 0.366002 0.863106
vt 0.350048 0.863111
vt 0.614940 0.055261
vt 0.630894 0.055264
vt 0.630877 0.152477
vt 0.614923 0.152474
vt 0.350001 0.722803
vt 0.365956 0.722798
vt 0.783184 0.415304
vt 0.783188 0.384938
vt 0.807462 0.389227
vt 0.807459 0.411020
vt 0.199639 0.725082
vt 0.221432 0.725082
vt 0.221432 0.887037
vt 0.199639 0.887037
vt 0.840465 0.387478
vt 0.840468 0.365684
vt 0.864742 0.361401
vt 0.864738 0.391767
vt 0.865525 0.333427
vt 0.895891 0.333427
vt 0.895891 0.514624
vt 0.865525 0.514624
vt 0.840465 0.814967
vt 0.840469 0.633770
vt 0.863163 0.643391
vt 0.863160 0.805346
vt 0.815405 0.828280
vt 0.815408 0.647083
vt 0.838103 0.656705
vt 0.838099 0.818660
vt 0.461071 0.722802
vt 0.460982 0.016058
vt 0.589034 0.016042
vt 0.589123 0.722785
vt 0.919226 0.924423
vt 0.919303 0.217679
vt 0.935581 0.217681
vt 0.935503 0.924424
vt 0.332190 0.722802
vt 0.332100 0.016058
vt 0.460154 0.016042
vt 0.460244 0.722785
vt 0.937126 0.722786
vt 0.937203 0.016042
vt 0.953480 0.016044
vt 0.953403 0.722787
vt 0.742975 0.525874
vt 0.745214 0.541996
vt 0.617160 0.542008
vt 0.614923 0.525885
vt 0.690115 0.056024
vt 0.706237 0.058263
vt 0.706227 0.186315
vt 0.690104 0.184077
vt 0.283633 0.879781
vt 0.283634 0.890004
vt 0.267677 0.890006
vt 0.267678 0.879783
vt 0.677420 0.176701
vt 0.661463 0.176699
vt 0.661475 0.063383
vt 0.677432 0.063384
vt 0.913721 0.451785
vt 0.897764 0.451787
vt 0.897745 0.333430
vt 0.913702 0.333427
vt 0.249762 0.748216
vt 0.265719 0.748214
vt 0.265725 0.791815
vt 0.249768 0.791817
vt 0.249771 0.825412
vt 0.265728 0.825410
vt 0.265732 0.853398
vt 0.249775 0.853400
vt 0.820623 0.443606
vt 0.804666 0.443604
vt 0.804669 0.420382
vt 0.820626 0.420384
vt 0.301517 0.869909
vt 0.285560 0.869909
vt 0.285560 0.858364
vt 0.301517 0.858364
vt 0.737605 0.773421
vt 0.771766 0.660301
vt 0.782906 0.663334
vt 0.780537 0.781667
vt 0.849707 0.468909
vt 0.852740 0.480049
vt 0.739620 0.514210
vt 0.731374 0.471277
vt 0.265733 0.867133
vt 0.249776 0.867135
vt 0.301517 0.736681
vt 0.285560 0.736681
vt 0.285560 0.725070
vt 0.301517 0.725070
vt 0.755120 0.655770
vt 0.724867 0.766912
vt 0.682550 0.756408
vt 0.713061 0.644322
vt 0.680923 0.635574
vt 0.649261 0.751891
vt 0.621374 0.749508
vt 0.654356 0.628342
vt 0.301517 0.841113
vt 0.285560 0.841113
vt 0.285560 0.797522
vt 0.301517 0.797522
vt 0.301517 0.764215
vt 0.285560 0.764215
vt 0.763533 0.630441
vt 0.761150 0.602554
vt 0.877467 0.570892
vt 0.884699 0.597459
vt 0.756633 0.569264
vt 0.746129 0.526947
vt 0.857271 0.496694
vt 0.868719 0.538754
vt 0.677433 0.055845
vt 0.661476 0.055844
vt 0.767184 0.643681
vt 0.887749 0.608662
vt 0.787677 0.661825
vt 0.780139 0.661952
vt 0.772498 0.655162
vt 0.643152 0.625292
vt 0.608134 0.745857
vt 0.596653 0.740543
vt 0.589863 0.732902
vt 0.589989 0.725364
vt 0.383871 0.851132
vt 0.367914 0.851134
vt 0.367913 0.841400
vt 0.383870 0.841398
vt 0.740337 0.781824
vt 0.780692 0.791204
vt 0.780949 0.801880
vt 0.742572 0.791297
vt 0.897766 0.461325
vt 0.913723 0.461323
vt 0.913724 0.472002
vt 0.897767 0.472005
vt 0.721837 0.471123
vt 0.731217 0.511478
vt 0.721744 0.509243
vt 0.711161 0.470866
vt 0.265718 0.733909
vt 0.249761 0.733911
vt 0.249760 0.725076
vt 0.265717 0.725074
vt 0.367901 0.722798
vt 0.383858 0.722796
vt 0.913743 0.589904
vt 0.897786 0.589907
vt 0.804665 0.454277
vt 0.804665 0.452243
vt 0.820622 0.452245
vt 0.820622 0.454279
vt 0.804665 0.449744
vt 0.820622 0.449746
vt 0.804666 0.446806
vt 0.820623 0.446808
vt 0.804670 0.417107
vt 0.820627 0.417109
vt 0.804670 0.414151
vt 0.820627 0.414154
vt 0.804670 0.411825
vt 0.820627 0.411827
vt 0.897786 0.591832
vt 0.913743 0.591829
vt 0.751662 0.916543
vt 0.748676 0.915386
vt 0.746234 0.913752
vt 0.744622 0.911843
vt 0.744053 0.909891
vt 0.782897 0.919767
vt 0.782202 0.921562
vt 0.780220 0.922780
vt 0.777291 0.923178
vt 0.774049 0.922715
vt 0.593274 0.468918
vt 0.603150 0.507762
vt 0.601198 0.507193
vt 0.599289 0.505581
vt 0.597655 0.503138
vt 0.596499 0.500153
vt 0.590326 0.477766
vt 0.589863 0.474523
vt 0.590261 0.471595
vt 0.591479 0.469613
vt 0.969346 0.725064
vt 0.969373 0.016042
vt 0.975971 0.016042
vt 0.975944 0.725064
vt 0.184600 0.725085
vt 0.184501 0.016062
vt 0.313030 0.016044
vt 0.313129 0.725067
vt 0.955026 0.725065
vt 0.955058 0.016042
vt 0.962135 0.016042
vt 0.962103 0.725065
vt 0.026794 0.725084
vt 0.026698 0.016062
vt 0.155226 0.016044
vt 0.155323 0.725067
vt 0.330384 0.725064
vt 0.323108 0.725065
vt 0.323009 0.016043
vt 0.330286 0.016042
vt 0.017154 0.725081
vt 0.017058 0.016063
vt 0.968888 0.725060
vt 0.968919 0.016043
vt 0.173114 0.725064
vt 0.165634 0.725065
vt 0.165538 0.016045
vt 0.173018 0.016042
vt 0.174678 0.725086
vt 0.174579 0.016064
vt 0.982915 0.725064
vt 0.982942 0.016043
vt 0.711124 0.313419
vt 0.711208 0.461241
vt 0.705395 0.465618
vt 0.705142 0.309839
vt 0.020668 0.746769
vt 0.168488 0.746115
vt 0.158816 0.748571
vt 0.030289 0.749196
vt 0.017516 0.734223
vt 0.173376 0.733224
vt 0.172836 0.740281
vt 0.017058 0.740805
vt 0.169850 0.727427
vt 0.021980 0.728222
vt 0.031977 0.725691
vt 0.160504 0.725066
vt 0.713599 0.323028
vt 0.713615 0.451557
vt 0.698563 0.310330
vt 0.698341 0.466193
vt 0.692527 0.462696
vt 0.692584 0.314824
vt 0.690119 0.453362
vt 0.690104 0.324833
vt 0.332101 0.722802
vt 0.348056 0.722802
vt 0.348056 0.833736
vt 0.332102 0.833736
vt 0.904520 0.303173
vt 0.826145 0.299457
vt 0.826145 0.188523
vt 0.923140 0.195025
vt 0.589863 0.447509
vt 0.589863 0.336575
vt 0.668238 0.332859
vt 0.686858 0.441007
vt 0.826145 0.333428
vt 0.908893 0.333427
vt 0.348056 0.867706
vt 0.332100 0.867706
vt 0.589863 0.302605
vt 0.672611 0.302605
vt 0.723958 0.178205
vt 0.708004 0.178203
vt 0.708015 0.064886
vt 0.723970 0.064888
vt 0.906559 0.710172
vt 0.890607 0.710175
vt 0.890585 0.591834
vt 0.906540 0.591831
vt 0.267663 0.748213
vt 0.283617 0.748211
vt 0.283622 0.791813
vt 0.267668 0.791815
vt 0.267672 0.825409
vt 0.283626 0.825407
vt 0.283630 0.853396
vt 0.267675 0.853398
vt 0.838523 0.446618
vt 0.822566 0.446616
vt 0.822571 0.423394
vt 0.838523 0.423395
vt 0.319415 0.869906
vt 0.303460 0.869906
vt 0.303463 0.858361
vt 0.319415 0.858361
vt 0.737605 0.320538
vt 0.771766 0.207418
vt 0.782905 0.210450
vt 0.780473 0.328767
vt 0.849725 0.016042
vt 0.852757 0.027181
vt 0.739637 0.061342
vt 0.731409 0.018474
vt 0.283631 0.867130
vt 0.267677 0.867132
vt 0.319415 0.736679
vt 0.303460 0.736679
vt 0.303460 0.725068
vt 0.319415 0.725068
vt 0.755121 0.202888
vt 0.724868 0.314029
vt 0.682550 0.303525
vt 0.713061 0.191439
vt 0.680923 0.182691
vt 0.649261 0.299008
vt 0.621374 0.296625
vt 0.654356 0.175459
vt 0.319415 0.841111
vt 0.303460 0.841111
vt 0.303460 0.797520
vt 0.319415 0.797520
vt 0.319415 0.764213
vt 0.303460 0.764213
vt 0.763551 0.177573
vt 0.761168 0.149686
vt 0.877485 0.118024
vt 0.884717 0.144592
vt 0.756651 0.116397
vt 0.746147 0.074079
vt 0.857288 0.043826
vt 0.868737 0.085887
vt 0.723971 0.057349
vt 0.708013 0.057348
vt 0.767201 0.190814
vt 0.887766 0.155795
vt 0.787695 0.208958
vt 0.780157 0.209085
vt 0.772515 0.202294
vt 0.643152 0.172409
vt 0.608134 0.292974
vt 0.596653 0.287660
vt 0.589863 0.280019
vt 0.589989 0.272481
vt 0.033026 0.877529
vt 0.017071 0.877530
vt 0.017070 0.867797
vt 0.033025 0.867796
vt 0.740337 0.328941
vt 0.780692 0.338321
vt 0.780949 0.348997
vt 0.742572 0.338414
vt 0.890606 0.719732
vt 0.906563 0.719729
vt 0.906562 0.730408
vt 0.890607 0.730411
vt 0.721854 0.018256
vt 0.731235 0.058610
vt 0.721762 0.056375
vt 0.711178 0.017999
vt 0.283616 0.733907
vt 0.267661 0.733909
vt 0.267660 0.725073
vt 0.283615 0.725071
vt 0.017058 0.749197
vt 0.033012 0.749195
vt 0.906581 0.848308
vt 0.890626 0.848310
vt 0.822565 0.457292
vt 0.822567 0.455255
vt 0.838520 0.455257
vt 0.838519 0.457293
vt 0.822565 0.452756
vt 0.838520 0.452758
vt 0.822566 0.449818
vt 0.838520 0.449820
vt 0.822571 0.420052
vt 0.838523 0.420054
vt 0.822569 0.417159
vt 0.838524 0.417160
vt 0.822569 0.414832
vt 0.838524 0.414834
vt 0.890627 0.850238
vt 0.906581 0.850236
vt 0.751662 0.463659
vt 0.748676 0.462503
vt 0.746234 0.460869
vt 0.744622 0.458960
vt 0.744053 0.457005
vt 0.782897 0.466881
vt 0.782202 0.468679
vt 0.780220 0.469897
vt 0.777356 0.470313
vt 0.774049 0.469832
vt 0.593295 0.016050
vt 0.603171 0.054894
vt 0.601215 0.054325
vt 0.599307 0.052713
vt 0.597673 0.050271
vt 0.596516 0.047285
vt 0.590344 0.024898
vt 0.589863 0.021591
vt 0.590278 0.018728
vt 0.591497 0.016745
vn 0.0000 0.4321 0.9018
vn 0.0000 1.0000 0.0000
vn 0.0000 0.4320 -0.9019
vn 0.0000 -1.0000 -0.0000
vn 0.9949 0.1011 0.0000
vn -0.9949 0.1009 0.0000
vn 0.0000 0.8618 -0.5072
vn 0.0000 0.4023 0.9155
vn 0.0000 0.4023 -0.9155
vn 0.9949 0.1010 0.0000
vn -0.9949 0.1010 0.0000
vn 0.0000 0.0000 1.0000
vn 0.0000 0.9882 0.1533
vn 0.0000 0.0742 -0.9972
vn 0.0000 0.9916 -0.1291
vn 0.0000 -0.2999 0.9540
vn 0.0000 0.9922 0.1244
vn 0.0000 0.2999 -0.9540
vn 0.0000 -0.9922 -0.1243
vn 1.0000 0.0000 0.0000
vn -1.0000 0.0000 0.0000
vn 0.0000 -0.2436 -0.9699
vn 0.0001 -0.1935 -0.9811
vn 0.0000 -0.1935 -0.9811
vn 0.0000 -0.2724 0.9622
vn 0.0000 -0.2682 0.9634
vn 0.0000 0.9997 -0.0248
vn 0.0000 0.9981 0.0621
vn -0.0000 0.9905 0.1379
vn 0.0000 0.9938 0.1112
vn -0.0000 0.9999 -0.0102
vn -0.0000 1.0000 0.0066
vn 0.0000 0.9973 -0.0737
vn 0.0000 0.9886 -0.1508
vn 0.0000 0.2716 -0.9624
vn 0.0000 0.5510 -0.8345
vn -0.0000 0.3258 -0.9454
vn 0.0000 -0.3101 0.9507
vn 0.0000 -0.3073 0.9516
vn 0.0000 0.5881 -0.8088
vn 0.0000 0.9826 -0.1857
vn 0.0001 0.3149 -0.9491
vn 0.0000 0.3149 -0.9491
vn -0.0001 -0.2827 0.9592
vn 0.0000 -0.2827 0.9592
vn 0.0000 0.7363 -0.6766
vn 0.0000 0.9157 -0.4019
vn 0.0000 0.9822 -0.1878
vn 0.0000 0.9734 0.2290
vn -0.0000 0.8578 0.5140
vn -0.0000 0.4728 0.8812
vn 0.0000 -0.4978 0.8673
vn 0.0000 0.1441 0.9896
vn -0.0000 0.9946 0.1040
vn 0.0000 0.9959 0.0909
vn 0.0000 0.4889 -0.8723
vn -0.0000 -0.1260 -0.9920
vn 0.0000 -0.1259 -0.9920
vn 0.0000 -0.9946 -0.1035
vn 0.0000 -0.9959 -0.0903
vn 0.0000 0.7207 -0.6932
vn 0.0000 0.9925 -0.1226
vn 0.0000 -0.9471 -0.3211
vn 0.0000 -0.4574 -0.8892
vn 0.0000 -0.7202 0.6938
vn 0.0000 -0.9925 0.1220
vn 0.0000 0.9472 0.3207
vn 0.0000 0.4554 0.8903
vn 1.0000 -0.0001 -0.0000
vn 1.0000 0.0003 0.0000
vn -1.0000 -0.0001 -0.0000
vn -1.0000 0.0005 0.0000
vn 0.0000 -0.2726 0.9621
vn 0.0000 -0.2676 0.9635
vn -0.0000 0.9905 0.1378
vn -0.0000 1.0000 0.0067
vn -0.0000 0.3259 -0.9454
vn 0.0000 -0.3136 0.9496
vn -0.0000 0.7360 -0.6770
vn 0.0000 0.9157 -0.4018
vn -0.0000 0.9735 0.2289
vn -0.0000 0.8542 0.5200
vn 0.0000 0.8542 0.5199
vn -0.0000 0.4725 0.8813
usemtl initialShadingGroup
s off
f 1/1/1 2/2/1 3/3/1 4/4/1
f 4/5/2 3/6/2 5/7/2 6/8/2
f 6/9/3 5/10/3 7/11/3 8/12/3
f 8/13/4 7/14/4 2/15/4 1/16/4
f 2/17/5 7/18/5 5/19/5 3/20/5
f 8/21/6 1/22/6 4/23/6 6/24/6
f 43/25/7 45/26/7 46/27/7 44/28/7
f 95/29/8 96/30/8 97/31/8 98/32/8
f 98/33/2 97/34/2 99/35/2 100/36/2
f 100/37/9 99/38/9 101/39/9 102/40/9
f 102/41/4 101/42/4 96/43/4 95/44/4
f 96/45/10 101/46/10 99/47/10 97/48/10
f 102/49/11 95/50/11 98/51/11 100/52/11
f 103/53/12 104/54/12 105/55/12 106/56/12
f 107/57/13 108/58/13 109/59/13 110/60/13
f 110/61/14 109/62/14 111/63/14 112/64/14
f 106/65/15 105/66/15 108/58/15 107/57/15
f 115/67/1 116/68/1 117/69/1 118/70/1
f 118/71/2 117/72/2 119/73/2 120/74/2
f 120/75/3 119/76/3 121/77/3 122/78/3
f 122/79/4 121/80/4 116/81/4 115/82/4
f 116/83/10 121/84/10 119/85/10 117/86/10
f 122/87/11 115/88/11 118/89/11 120/90/11
f 123/91/16 124/92/16 125/93/16 126/94/16
f 126/95/17 125/96/17 127/97/17 128/98/17
f 128/99/18 127/100/18 129/101/18 130/102/18
f 130/103/19 129/104/19 124/105/19 123/106/19
f 124/107/20 129/108/20 127/109/20 125/110/20
f 130/111/21 123/112/21 126/113/21 128/114/21
f 165/115/7 167/116/7 168/117/7 166/118/7
s 1
f 9/119/22 10/120/22 11/121/23 12/122/24
f 13/123/25 14/124/25 15/125/26 16/126/26
f 17/127/27 18/128/27 19/129/28 20/130/28
f 21/131/29 22/132/29 23/133/30 24/134/30
f 25/135/31 26/136/31 27/137/32 28/138/32
f 16/139/4 15/140/4 29/141/4 30/142/4
f 31/143/21 29/144/21 15/145/21 14/146/21
f 16/147/20 30/148/20 32/149/20 13/150/20
f 33/151/33 34/152/33 24/134/30 23/133/30
f 35/153/4 36/154/4 10/155/4 9/156/4
f 37/157/21 17/158/21 20/159/21 38/160/21
f 39/161/21 21/162/21 24/163/21 36/164/21
f 40/165/4 37/166/4 38/167/4 41/168/4
f 42/169/4 39/170/4 36/154/4 35/153/4
f 23/171/20 22/172/20 42/173/20 35/174/20
f 19/175/20 18/176/20 40/177/20 41/178/20
f 33/151/33 43/25/34 44/28/34 34/152/33
f 45/179/35 12/122/24 11/121/23 46/180/35
f 33/181/20 23/171/20 35/174/20 9/182/20 12/183/20 45/184/20 43/185/20
f 10/186/21 36/164/21 24/163/21 34/187/21 44/188/21 46/189/21 11/190/21
f 47/191/36 48/192/36 49/193/37 50/194/37
f 48/195/21 51/196/21 52/197/21 49/198/21
f 51/199/38 53/200/38 54/201/39 52/202/39
f 53/203/20 47/204/20 50/205/20 54/206/20
f 31/143/21 14/146/21 51/196/21 48/195/21
f 14/124/25 13/123/25 53/200/38 51/199/38
f 13/150/20 32/149/20 47/204/20 53/203/20
f 32/207/40 31/208/40 48/209/36 47/210/36
f 40/177/20 18/176/20 32/149/20 30/148/20
f 29/141/4 37/166/4 40/165/4 30/142/4
f 31/143/21 17/158/21 37/157/21 29/144/21
f 32/207/41 18/128/27 17/127/27 31/208/41
f 42/173/20 22/172/20 19/175/20 41/178/20
f 38/167/4 39/170/4 42/169/4 41/168/4
f 20/159/21 21/162/21 39/161/21 38/160/21
f 19/129/28 22/132/29 21/131/29 20/130/28
f 50/194/37 49/193/37 55/211/42 56/212/43
f 52/202/39 54/201/39 57/213/44 58/214/45
f 55/215/42 59/216/46 60/217/46 56/218/43
f 59/216/46 61/219/47 62/220/47 60/217/46
f 61/219/47 63/221/48 64/222/48 62/220/47
f 63/221/48 26/136/31 25/135/31 64/222/48
f 27/137/32 65/223/49 66/224/49 28/138/32
f 65/223/49 67/225/50 68/226/50 66/224/49
f 67/225/50 69/227/51 70/228/51 68/226/50
f 69/229/51 58/214/45 57/213/44 70/230/51
f 26/231/21 63/232/21 61/233/21 59/234/21 55/235/21 49/198/21 52/197/21 58/236/21 69/237/21 67/238/21 65/239/21 27/240/21
f 57/241/20 54/206/20 50/205/20 56/242/20 60/243/20 62/244/20 64/245/20 25/246/20 28/247/20 66/248/20 68/249/20 70/250/20
f 71/251/52 72/252/52 73/253/53 74/254/53
f 75/255/54 76/256/54 77/257/55 78/258/55
f 79/259/56 80/260/56 81/261/57 82/262/58
f 83/263/59 84/264/59 85/265/60 86/266/60
f 79/267/56 87/268/61 88/269/61 80/270/56
f 87/268/62 78/258/55 77/257/55 88/269/62
f 83/263/59 89/271/63 90/272/63 84/264/59
f 89/273/64 82/262/58 81/261/57 90/274/64
f 71/275/52 91/276/65 92/277/65 72/278/52
f 91/276/66 86/266/60 85/265/60 92/277/66
f 75/255/54 93/279/67 94/280/67 76/256/54
f 93/281/68 74/254/53 73/253/53 94/282/68
f 93/283/21 87/284/21 79/285/21 74/286/21
f 94/287/20 88/288/20 77/289/20 76/290/20
f 72/291/20 81/292/20 80/293/20 73/294/20
f 73/294/20 80/293/20 88/288/20 94/287/20
f 90/295/69 92/296/69 85/297/70 84/298/70
f 72/291/20 92/296/69 90/295/69 81/292/20
f 75/299/21 78/300/21 87/284/21 93/283/21
f 71/301/71 82/302/71 89/303/71 91/304/71
f 74/286/21 79/285/21 82/302/71 71/301/71
f 91/304/71 89/303/71 83/305/72 86/306/72
f 112/307/4 111/308/4 113/309/4 114/310/4
f 108/311/20 113/312/20 111/313/20 109/314/20
f 112/315/21 114/316/21 107/317/21 110/318/21
f 104/319/20 113/312/20 108/311/20 105/320/20
f 114/310/4 113/309/4 104/321/4 103/322/4
f 107/317/21 114/316/21 103/323/21 106/324/21
f 131/325/22 132/326/22 133/327/24 134/328/24
f 135/329/73 136/330/73 137/331/74 138/332/74
f 139/333/27 140/334/27 141/335/28 142/336/28
f 143/337/75 144/338/75 145/339/30 146/340/30
f 147/341/31 148/342/31 149/343/76 150/344/76
f 138/345/4 137/346/4 151/347/4 152/348/4
f 153/349/21 151/350/21 137/351/21 136/352/21
f 138/353/20 152/354/20 154/355/20 135/356/20
f 155/357/33 156/358/33 146/340/30 145/339/30
f 157/359/4 158/360/4 132/361/4 131/362/4
f 159/363/21 139/364/21 142/365/21 160/366/21
f 161/367/21 143/368/21 146/369/21 158/370/21
f 162/371/4 159/372/4 160/373/4 163/374/4
f 164/375/4 161/376/4 158/360/4 157/359/4
f 145/377/20 144/378/20 164/379/20 157/380/20
f 141/381/20 140/382/20 162/383/20 163/384/20
f 155/357/33 165/115/34 166/118/34 156/358/33
f 167/385/35 134/328/24 133/327/24 168/386/35
f 155/387/20 145/377/20 157/380/20 131/388/20 134/389/20 167/390/20 165/391/20
f 132/392/21 158/370/21 146/369/21 156/393/21 166/394/21 168/395/21 133/396/21
f 169/397/36 170/398/36 171/399/77 172/400/77
f 170/401/71 173/402/21 174/403/21 171/404/21
f 173/405/78 175/406/78 176/407/39 174/408/39
f 175/409/20 169/410/20 172/411/20 176/412/20
f 153/349/21 136/352/21 173/402/21 170/401/71
f 136/330/73 135/329/73 175/406/78 173/405/78
f 135/356/20 154/355/20 169/410/20 175/409/20
f 154/413/40 153/414/40 170/415/36 169/416/36
f 162/383/20 140/382/20 154/355/20 152/354/20
f 151/347/4 159/372/4 162/371/4 152/348/4
f 153/349/21 139/364/21 159/363/21 151/350/21
f 154/413/41 140/334/27 139/333/27 153/414/41
f 164/379/20 144/378/20 141/381/20 163/384/20
f 160/373/4 161/376/4 164/375/4 163/374/4
f 142/365/21 143/368/21 161/367/21 160/366/21
f 141/335/28 144/338/75 143/337/75 142/336/28
f 172/400/77 171/399/77 177/417/43 178/418/43
f 174/408/39 176/407/39 179/419/45 180/420/45
f 177/421/43 181/422/79 182/423/79 178/424/43
f 181/422/79 183/425/80 184/426/80 182/423/79
f 183/425/80 185/427/48 186/428/48 184/426/80
f 185/427/48 148/342/31 147/341/31 186/428/48
f 149/343/76 187/429/81 188/430/81 150/344/76
f 187/429/81 189/431/82 190/432/83 188/430/81
f 189/431/82 191/433/84 192/434/84 190/432/83
f 191/435/84 180/420/45 179/419/45 192/436/84
f 148/437/21 185/438/21 183/439/21 181/440/21 177/441/21 171/404/21 174/403/21 180/442/21 191/443/21 189/444/21 187/445/21 149/446/21
f 179/447/20 176/412/20 172/411/20 178/448/20 182/449/20 184/450/20 186/451/20 147/452/20 150/453/20 188/454/20 190/455/20 192/456/20
