# Blender v3.1.2 OBJ File: 'OBJTAS.blend'
# www.blender.org
mtllib Figura Religiosa Grande.mtl
o Figura_Religiosa_GRANDE_MESH
v -0.055656 0.237523 0.233804
v -0.055656 0.237523 -0.233804
v 0.055656 0.237523 -0.233804
v 0.055656 0.237523 0.233804
v -0.055656 0.361201 -0.233804
v -0.055656 0.361201 0.233804
v 0.055656 0.361201 0.233804
v 0.055656 0.361201 -0.233804
v 0.061840 0.243706 0.233804
v 0.061840 0.243706 -0.233804
v 0.061840 0.355017 -0.233804
v 0.061840 0.355017 0.233804
v -0.061840 0.355017 0.233804
v -0.061840 0.355017 -0.233804
v -0.061840 0.243706 -0.233804
v -0.061840 0.243706 0.233804
v -0.055656 0.508912 0.061839
v -0.055656 -0.153217 0.061839
v 0.055656 -0.153217 0.061839
v 0.055656 0.508912 0.061839
v -0.055656 -0.153217 -0.061839
v -0.055656 0.508912 -0.061839
v 0.055656 0.508912 -0.061839
v 0.055656 -0.153217 -0.061839
v 0.061840 0.508912 0.055656
v 0.061840 -0.153217 0.055656
v 0.061840 -0.153217 -0.055656
v 0.061840 0.508912 -0.055656
v -0.061840 0.508912 -0.055656
v -0.061840 -0.153217 -0.055656
v -0.061840 -0.153217 0.055656
v -0.061840 0.508912 0.055656
v 0.000000 -0.391728 0.217726
v 0.000000 -0.391728 0.000374
v 0.177384 -0.391728 0.000374
v 0.177384 -0.391728 0.217726
v -0.119140 -0.160131 0.144635
v -0.113898 -0.154612 0.138057
v -0.113898 -0.154612 -0.001504
v -0.119140 -0.160131 -0.001349
v 0.000000 -0.154612 0.138057
v 0.000000 -0.160131 0.144635
v 0.119140 -0.160131 0.144635
v 0.113898 -0.154612 0.138057
v 0.119140 -0.160131 -0.001349
v 0.113898 -0.154612 -0.001504
v 0.113898 -0.154612 -0.147804
v 0.119140 -0.160131 -0.154382
v 0.000000 -0.160131 -0.154382
v 0.000000 -0.154612 -0.147804
v 0.000000 -0.154612 -0.001504
v 0.000000 -0.265018 0.144635
v 0.119140 -0.265018 0.144635
v 0.119140 -0.265018 -0.001349
v 0.119140 -0.265018 -0.154382
v 0.000000 -0.265018 -0.154382
v -0.119140 -0.265018 -0.001349
v -0.119140 -0.265018 0.144635
v -0.177384 -0.271353 0.217726
v -0.171368 -0.265018 0.210176
v -0.171368 -0.265018 0.000196
v -0.177384 -0.271353 0.000374
v 0.000000 -0.265018 0.210176
v 0.000000 -0.271353 0.217726
v 0.177384 -0.271353 0.217726
v 0.171368 -0.265018 0.210176
v 0.177384 -0.271353 0.000374
v 0.171368 -0.265018 0.000196
v 0.000000 -0.271353 -0.227473
v 0.000000 -0.265018 -0.219923
v 0.171368 -0.265018 -0.219923
v 0.177384 -0.271353 -0.227473
v 0.000000 -0.391728 -0.227473
v 0.177384 -0.391728 -0.227473
v -0.177384 -0.391728 0.000374
v -0.177384 -0.391728 0.217726
v -0.113898 -0.154612 -0.147804
v -0.119140 -0.160131 -0.154382
v -0.119140 -0.265018 -0.154382
v -0.171368 -0.265018 -0.219923
v -0.177384 -0.271353 -0.227473
v -0.177384 -0.391728 -0.227473
vt 0.006866 0.981290
vt 0.006866 0.564850
vt 0.076876 0.564850
vt 0.076876 0.981290
vt 0.079601 0.981290
vt 0.079601 0.564850
vt 0.149610 0.564850
vt 0.149610 0.981290
vt 0.156141 0.981290
vt 0.156141 0.564850
vt 0.226150 0.564850
vt 0.226150 0.981290
vt 0.237144 0.981290
vt 0.237144 0.564850
vt 0.307152 0.564850
vt 0.307152 0.981290
vt 0.311041 0.564850
vt 0.311041 0.981290
vt 0.152253 0.564850
vt 0.152253 0.981290
vt 0.233255 0.981290
vt 0.233255 0.564850
vt 0.230039 0.981290
vt 0.230039 0.564850
vt 0.417362 0.991894
vt 0.417362 0.565736
vt 0.489005 0.565736
vt 0.489005 0.991894
vt 0.491794 0.991894
vt 0.491794 0.565736
vt 0.563437 0.565736
vt 0.563437 0.991894
vt 0.570121 0.991894
vt 0.570121 0.565736
vt 0.641763 0.565736
vt 0.641763 0.991894
vt 0.653013 0.991894
vt 0.653013 0.565736
vt 0.724655 0.565736
vt 0.724655 0.991894
vt 0.735377 0.728281
vt 0.731397 0.724301
vt 0.731397 0.652658
vt 0.735377 0.648679
vt 0.807019 0.648679
vt 0.810999 0.652658
vt 0.810999 0.724301
vt 0.807019 0.728281
vt 0.728635 0.565736
vt 0.728635 0.991894
vt 0.566141 0.565736
vt 0.566141 0.991894
vt 0.649033 0.991894
vt 0.649033 0.565736
vt 0.645743 0.991894
vt 0.645743 0.565736
vt 0.388154 0.642637
vt 0.388154 0.564850
vt 0.392043 0.568739
vt 0.392043 0.638748
vt 0.318088 0.725164
vt 0.314199 0.721275
vt 0.314199 0.651266
vt 0.318088 0.647377
vt 0.318145 0.642637
vt 0.314257 0.638748
vt 0.314257 0.568739
vt 0.318145 0.564850
vt 0.388096 0.647377
vt 0.388096 0.725164
vt 0.391985 0.651266
vt 0.391985 0.721275
vt 0.807548 0.645338
vt 0.807548 0.565736
vt 0.811527 0.569716
vt 0.811527 0.641359
vt 0.735905 0.645338
vt 0.731926 0.641359
vt 0.731926 0.569716
vt 0.735905 0.565736
vt 0.555523 0.094979
vt 0.470329 0.094979
vt 0.470329 0.007729
vt 0.555523 0.007729
vt 0.498226 0.500005
vt 0.495647 0.507607
vt 0.440945 0.507607
vt 0.441005 0.500005
vt 0.561355 0.513525
vt 0.561355 0.505924
vt 0.619957 0.505924
vt 0.617379 0.513525
vt 0.626947 0.513525
vt 0.624369 0.505924
vt 0.681590 0.505924
vt 0.681650 0.513525
vt 0.860610 0.361476
vt 0.863189 0.369078
vt 0.804587 0.369078
vt 0.804587 0.361476
vt 0.915601 0.571921
vt 0.860899 0.571921
vt 0.860899 0.515897
vt 0.915601 0.515897
vt 0.561355 0.361476
vt 0.619957 0.361476
vt 0.624369 0.361476
vt 0.681590 0.361476
vt 0.863189 0.513525
vt 0.804587 0.513525
vt 0.441005 0.355558
vt 0.498226 0.355558
vt 0.734009 0.173506
vt 0.731050 0.182230
vt 0.648745 0.182230
vt 0.648815 0.173506
vt 0.825128 0.182230
vt 0.825128 0.173506
vt 0.912379 0.173506
vt 0.909420 0.182230
vt 0.801403 0.359104
vt 0.798444 0.350380
vt 0.883638 0.350380
vt 0.883708 0.359104
vt 0.629021 0.271853
vt 0.620296 0.271853
vt 0.620296 0.187561
vt 0.629021 0.184602
vt 0.825128 0.007729
vt 0.912379 0.007729
vt 0.794798 0.271853
vt 0.794798 0.184602
vt 0.798444 0.184602
vt 0.883638 0.184602
vt 0.648815 0.007729
vt 0.734009 0.007729
vt 0.473757 0.268894
vt 0.448067 0.268894
vt 0.448067 0.184602
vt 0.473757 0.210292
vt 0.530372 0.184602
vt 0.530977 0.210292
vt 0.616650 0.184602
vt 0.616650 0.268894
vt 0.590961 0.268894
vt 0.590961 0.210292
vt 0.530977 0.327496
vt 0.530372 0.353186
vt 0.448067 0.353186
vt 0.473757 0.327496
vt 0.381022 0.094979
vt 0.381022 0.007729
vt 0.972945 0.184602
vt 0.972945 0.350380
vt 0.969986 0.359104
vt 0.741573 0.361476
vt 0.741573 0.505924
vt 0.738994 0.513525
vt 0.972945 0.571921
vt 0.972945 0.515897
vt 0.383600 0.507607
vt 0.381022 0.500005
vt 0.381022 0.355558
vt 0.616650 0.353186
vt 0.590961 0.327496
vt 0.562467 0.182230
vt 0.559508 0.173506
vt 0.559508 0.007729
vt 0.470329 0.182230
vt 0.555523 0.182230
vt 0.381022 0.182230
vt 0.629021 0.359104
vt 0.794798 0.359104
vt 0.620296 0.356145
vt 0.745985 0.513525
vt 0.745985 0.369078
vt 0.748563 0.361476
vt 0.915601 0.627944
vt 0.972945 0.627944
vt 0.860899 0.627944
vt 0.505332 0.513525
vt 0.502754 0.505924
vt 0.502754 0.361476
vt 0.740837 0.182230
vt 0.737877 0.173506
vt 0.737877 0.007729
vn 0.0000 -1.0000 -0.0000
vn 0.0000 1.0000 0.0000
vn 1.0000 0.0000 0.0000
vn -1.0000 0.0000 0.0000
vn -0.7070 -0.7072 -0.0000
vn 0.7070 -0.7072 -0.0000
vn -0.7071 0.7071 0.0000
vn 0.7071 0.7071 0.0000
vn 0.0000 -0.0000 1.0000
vn 0.0000 0.0000 -1.0000
vn -0.7070 -0.0000 0.7072
vn 0.7070 -0.0000 0.7072
vn -0.7070 0.0000 -0.7072
vn 0.7070 0.0000 -0.7072
vn -0.7251 0.6887 0.0000
vn 0.0000 0.7661 0.6427
vn 0.7251 0.6887 0.0000
vn 0.0000 0.7661 -0.6427
vn -0.7251 0.6886 0.0000
vn 0.0000 0.7661 0.6428
vn 0.7251 0.6886 0.0000
vn 0.0000 0.7661 -0.6428
usemtl initialShadingGroup.012
s off
f 1/1/1 2/2/1 3/3/1 4/4/1
f 5/5/2 6/6/2 7/7/2 8/8/2
f 9/9/3 10/10/3 11/11/3 12/12/3
f 13/13/4 14/14/4 15/15/4 16/16/4
f 15/15/5 2/17/5 1/18/5 16/16/5
f 3/19/6 10/10/6 9/9/6 4/20/6
f 13/13/7 6/21/7 5/22/7 14/14/7
f 7/23/8 12/12/8 11/11/8 8/24/8
f 17/25/9 18/26/9 19/27/9 20/28/9
f 21/29/10 22/30/10 23/31/10 24/32/10
f 25/33/3 26/34/3 27/35/3 28/36/3
f 29/37/4 30/38/4 31/39/4 32/40/4
f 30/41/1 21/42/1 24/43/1 27/44/1 26/45/1 19/46/1 18/47/1 31/48/1
f 31/39/11 18/49/11 17/50/11 32/40/11
f 19/51/12 26/34/12 25/33/12 20/52/12
f 29/37/13 22/53/13 21/54/13 30/38/13
f 23/55/14 28/36/14 27/35/14 24/56/14
s 1
f 13/57/9 12/58/9 7/59/9 6/60/9
f 14/61/10 5/62/10 8/63/10 11/64/10
f 16/65/9 1/66/9 4/67/9 9/68/9
f 16/65/9 9/68/9 12/58/9 13/57/9
f 14/61/10 11/64/10 10/69/10 15/70/10
f 15/70/10 10/69/10 3/71/10 2/72/10
f 29/73/2 28/74/2 23/75/2 22/76/2
f 32/77/2 17/78/2 20/79/2 25/80/2
f 32/77/2 25/80/2 28/74/2 29/73/2
f 33/81/1 34/82/1 35/83/1 36/84/1
f 37/85/15 38/86/15 39/87/15 40/88/15
f 41/89/16 42/90/16 43/91/16 44/92/16
f 44/93/17 43/94/17 45/95/17 46/96/17
f 47/97/18 48/98/18 49/99/18 50/100/18
f 51/101/2 41/102/2 44/103/2 46/104/2
f 42/90/9 52/105/9 53/106/9 43/91/9
f 53/107/3 54/108/3 45/95/3 43/94/3
f 55/109/10 56/110/10 49/99/10 48/98/10
f 40/88/4 57/111/4 58/112/4 37/85/4
f 59/113/19 60/114/19 61/115/19 62/116/19
f 63/117/20 64/118/20 65/119/20 66/120/20
f 66/121/21 65/122/21 67/123/21 68/124/21
f 69/125/22 70/126/22 71/127/22 72/128/22
f 64/118/9 33/129/9 36/130/9 65/119/9
f 73/131/10 69/125/10 72/128/10 74/132/10
f 36/133/3 35/134/3 67/123/3 65/122/3
f 62/116/4 75/135/4 76/136/4 59/113/4
f 52/137/2 63/138/2 66/139/2 53/140/2
f 66/139/2 68/141/2 54/142/2 53/140/2
f 71/143/2 70/144/2 56/145/2 55/146/2
f 57/147/2 61/148/2 60/149/2 58/150/2
f 34/82/1 73/151/1 74/152/1 35/83/1
f 67/123/3 35/134/3 74/153/3 72/154/3
f 68/124/21 67/123/21 72/154/21 71/155/21
f 54/142/2 68/141/2 71/143/2 55/146/2
f 45/95/3 54/108/3 55/156/3 48/157/3
f 46/96/17 45/95/17 48/157/17 47/158/17
f 50/159/2 51/101/2 46/104/2 47/160/2
f 40/88/15 39/87/15 77/161/15 78/162/15
f 79/163/4 57/111/4 40/88/4 78/162/4
f 80/164/2 61/148/2 57/147/2 79/165/2
f 62/116/19 61/115/19 80/166/19 81/167/19
f 82/168/4 75/135/4 62/116/4 81/167/4
f 75/169/1 34/82/1 33/81/1 76/170/1
f 82/171/1 73/151/1 34/82/1 75/169/1
f 81/172/10 69/125/10 73/131/10 82/173/10
f 81/172/22 80/174/22 70/126/22 69/125/22
f 56/145/2 70/144/2 80/164/2 79/165/2
f 49/99/10 56/110/10 79/175/10 78/176/10
f 50/100/18 49/99/18 78/176/18 77/177/18
f 39/178/2 51/101/2 50/159/2 77/179/2
f 38/180/2 41/102/2 51/101/2 39/178/2
f 38/181/16 37/182/16 42/90/16 41/89/16
f 58/183/9 52/105/9 42/90/9 37/182/9
f 60/149/2 63/138/2 52/137/2 58/150/2
f 60/184/20 59/185/20 64/118/20 63/117/20
f 76/186/9 33/129/9 64/118/9 59/185/9
